<?xml version="1.0" encoding="UTF-8"?>
<svg width="24px" height="24px" viewBox="0 0 24 24" version="1.1" xmlns="http://www.w3.org/2000/svg">
    <g stroke="none" stroke-width="1" fill="none" fill-rule="evenodd">
        <path d="M24,12 C24,5.37258267 18.6274173,0 12,0 C5.37258267,0 0,5.37258267 0,12 C0,17.9895035 4.38825877,22.954223 10.125,23.8542222 L10.125,15.4687500 L7.07812500,15.4687500 L7.07812500,12 L10.125,12 L10.125,9.35625000 C10.125,6.34875000 11.9166250,4.68750000 14.6575000,4.68750000 C15.9705000,4.68750000 17.3438125,4.92187500 17.3438125,4.92187500 L17.3438125,7.87500000 L15.8306250,7.87500000 C14.3400000,7.87500000 13.875,8.80000000 13.875,9.75000000 L13.875,12 L17.2031250,12 L16.6711250,15.4687500 L13.875,15.4687500 L13.875,23.8542222 C19.6117412,22.954223 24,17.9895035 24,12" fill="#FFFFFF"></path>
    </g>
</svg>