<?xml version="1.0" standalone="no"?>
<!DOCTYPE svg PUBLIC "-//W3C//DTD SVG 20010904//EN"
 "http://www.w3.org/TR/2001/REC-SVG-20010904/DTD/svg10.dtd">
<svg version="1.0" xmlns="http://www.w3.org/2000/svg"
 width="1280.000000pt" height="1280.000000pt" viewBox="0 0 1280.000000 1280.000000"
 preserveAspectRatio="xMidYMid meet">
<g transform="translate(0.000000,1280.000000) scale(0.100000,-0.100000)"
fill="#000000" stroke="none">
<path d="M8521 11409 c-30 -5 -60 -14 -66 -19 -7 -6 -34 -21 -60 -35 -26 -14
-67 -41 -90 -60 -23 -19 -47 -35 -53 -35 -5 0 -33 -28 -61 -62 -29 -35 -70
-79 -93 -98 -22 -19 -48 -43 -57 -53 -9 -10 -44 -47 -78 -82 -35 -36 -69 -76
-78 -89 -18 -27 -102 -75 -151 -86 -24 -6 -52 -2 -97 12 -52 17 -96 21 -272
25 -208 4 -307 -4 -540 -47 -83 -15 -163 -11 -246 11 -75 21 -81 21 -156 6
-67 -13 -81 -13 -103 -1 -14 8 -63 29 -109 49 -46 19 -113 52 -150 74 -36 22
-85 45 -108 52 -23 6 -89 48 -150 93 -177 135 -408 246 -508 246 -41 0 -57 -5
-79 -25 -22 -20 -26 -32 -26 -79 0 -74 43 -283 73 -354 39 -91 67 -164 67
-175 0 -5 41 -93 91 -194 97 -198 110 -241 128 -445 7 -74 15 -101 55 -184 55
-115 64 -163 43 -230 -32 -101 -9 -516 34 -609 5 -11 22 -60 38 -108 15 -49
33 -93 40 -100 6 -6 11 -19 11 -29 0 -10 15 -41 34 -70 18 -29 43 -73 56 -98
12 -25 49 -77 82 -117 32 -40 64 -87 70 -105 7 -18 18 -39 25 -46 7 -7 16 -25
19 -40 4 -15 26 -53 50 -85 24 -33 44 -67 44 -77 0 -9 9 -39 21 -65 14 -32 19
-59 16 -82 -7 -41 -62 -113 -87 -113 -10 0 -25 -11 -34 -25 -9 -14 -42 -38
-74 -55 -59 -31 -96 -53 -173 -104 -24 -17 -84 -47 -134 -69 -49 -21 -112 -49
-140 -62 -27 -13 -104 -45 -170 -70 -66 -26 -133 -58 -150 -70 -16 -12 -50
-32 -74 -45 -67 -34 -216 -134 -278 -188 -140 -120 -170 -148 -203 -188 -19
-23 -77 -89 -128 -146 -52 -56 -108 -123 -124 -146 -17 -24 -55 -69 -85 -100
-55 -58 -103 -136 -103 -170 0 -11 -13 -37 -28 -58 -15 -21 -38 -59 -51 -84
-12 -25 -44 -83 -71 -130 -26 -47 -75 -137 -108 -200 -33 -63 -69 -133 -81
-155 -12 -21 -21 -47 -21 -57 0 -20 -104 -236 -142 -293 -14 -22 -31 -65 -38
-95 -7 -30 -19 -67 -26 -82 -8 -15 -14 -34 -14 -43 0 -10 -6 -31 -14 -48 -31
-68 -65 -156 -94 -242 -16 -49 -41 -115 -54 -145 -13 -30 -32 -84 -42 -120 -9
-36 -30 -105 -46 -155 -16 -49 -32 -108 -35 -130 -4 -22 -16 -60 -26 -85 -10
-25 -27 -92 -39 -149 -11 -57 -28 -120 -36 -140 -8 -20 -26 -79 -38 -131 -13
-52 -44 -138 -69 -190 -29 -62 -49 -121 -57 -170 -7 -41 -16 -93 -20 -115 -4
-22 -26 -82 -49 -132 -30 -67 -44 -114 -51 -170 -9 -78 -19 -119 -46 -201 -20
-61 -19 -523 1 -642 31 -181 75 -288 143 -352 63 -59 211 -138 258 -138 19 0
56 -9 82 -19 26 -11 71 -22 100 -26 30 -3 88 -17 130 -30 151 -47 277 -67 432
-67 148 0 353 13 495 32 123 17 859 -3 945 -25 57 -15 109 -16 435 -11 389 7
662 20 748 37 29 5 111 25 182 43 193 51 230 56 470 66 121 5 263 15 315 23
219 34 308 40 458 31 250 -14 345 -10 436 20 43 14 119 31 169 36 49 6 93 13
97 15 4 3 52 13 106 24 113 22 244 68 324 113 30 17 100 56 155 85 220 120
259 220 138 353 -51 58 -161 140 -186 140 -30 0 -147 58 -147 73 0 7 -29 40
-63 73 -86 80 -96 111 -99 319 -1 88 1 212 6 275 4 63 7 255 7 425 -1 327 8
485 32 600 9 39 18 144 22 235 4 91 9 185 11 210 3 25 6 88 7 140 2 52 6 100
10 107 4 7 10 43 12 80 3 37 8 78 10 91 3 12 0 32 -6 44 -9 17 -8 24 4 33 10
7 14 20 10 33 -3 12 -1 22 5 22 6 0 17 6 24 13 7 7 22 18 33 24 18 11 20 23
21 130 2 125 7 211 25 388 8 83 18 124 39 170 52 111 90 240 90 306 0 26 12
96 26 156 23 97 25 120 19 228 -3 66 -12 163 -20 215 -8 52 -16 118 -18 145
-2 28 -10 62 -17 75 -14 26 -28 93 -33 167 -2 23 -9 49 -16 57 -11 13 -10 17
3 22 20 8 20 30 2 66 -8 14 -17 55 -21 90 -4 34 -13 73 -21 86 -8 13 -18 46
-21 75 -3 29 -10 58 -16 65 -6 8 -11 22 -12 33 -1 11 -12 31 -25 44 -13 14
-25 36 -25 48 -2 35 -80 201 -111 238 -8 8 -14 23 -14 31 0 9 -6 21 -14 27 -8
7 -17 24 -21 39 -4 15 -11 33 -17 40 -21 25 -78 146 -78 166 0 29 -56 234 -67
249 -19 24 -31 94 -32 181 -1 49 -6 97 -12 108 -10 19 -14 333 -4 359 3 8 7
71 9 139 9 267 21 402 38 434 14 26 18 58 23 216 9 243 15 314 36 418 28 136
24 301 -10 376 -11 27 -21 58 -21 70 0 12 -4 26 -9 32 -5 5 -25 41 -45 80 -41
83 -113 167 -166 194 -47 24 -120 31 -189 19z"/>
</g>
</svg>
