<?xml version="1.0" encoding="UTF-8"?>
<!DOCTYPE svg PUBLIC "-//W3C//DTD SVG 1.1//EN" "http://www.w3.org/Graphics/SVG/1.1/DTD/svg11.dtd">
<svg xmlns="http://www.w3.org/2000/svg" version="1.1" width="2023px" height="1777px" style="shape-rendering:geometricPrecision; text-rendering:geometricPrecision; image-rendering:optimizeQuality; fill-rule:evenodd; clip-rule:evenodd" xmlns:xlink="http://www.w3.org/1999/xlink">
<g><path style="opacity:0.984" fill="#c5e2c9" d="M 1798.5,-0.5 C 1811.5,-0.5 1824.5,-0.5 1837.5,-0.5C 1846.87,3.67642 1855.03,9.67642 1862,17.5C 1865.35,23.1882 1867.85,29.1882 1869.5,35.5C 1896.35,33.8533 1913.85,45.8533 1922,71.5C 1924.79,101.896 1910.95,119.229 1880.5,123.5C 1882.19,133.816 1880.02,143.149 1874,151.5C 1867.01,160.829 1858.51,168.329 1848.5,174C 1850.91,178.746 1853.74,183.246 1857,187.5C 1857.67,192.833 1857.67,198.167 1857,203.5C 1855.83,205.167 1854.67,206.833 1853.5,208.5C 1846.66,212.752 1839.99,217.252 1833.5,222C 1836.08,228.66 1839.58,234.827 1844,240.5C 1852.76,248.054 1860.09,256.72 1866,266.5C 1868.2,276.28 1866.2,284.947 1860,292.5C 1853,299.167 1846,305.833 1839,312.5C 1834.68,317.978 1831.84,324.144 1830.5,331C 1830.61,333.732 1831.45,336.232 1833,338.5C 1842.82,349.321 1851.49,360.987 1859,373.5C 1864.55,389.716 1863.22,405.382 1855,420.5C 1846.1,429.978 1837.43,439.645 1829,449.5C 1828.18,453.738 1828.84,457.738 1831,461.5C 1839.93,473.027 1847.6,485.36 1854,498.5C 1857.72,516.83 1854.72,534.164 1845,550.5C 1838.67,558.167 1832.33,565.833 1826,573.5C 1824.66,580.426 1824.16,587.426 1824.5,594.5C 1820.7,590.527 1817.03,586.36 1813.5,582C 1808.98,578.97 1804.65,575.803 1800.5,572.5C 1803.07,566.71 1806.24,561.043 1810,555.5C 1823.58,544.341 1831.41,530.008 1833.5,512.5C 1831.76,505.684 1828.93,499.351 1825,493.5C 1819.67,485.5 1814.33,477.5 1809,469.5C 1804.85,459.24 1804.52,448.907 1808,438.5C 1816.63,428.202 1825.63,418.202 1835,408.5C 1837.59,402.914 1839.42,397.08 1840.5,391C 1839.28,385.734 1837.12,380.901 1834,376.5C 1826.62,368.123 1819.62,359.456 1813,350.5C 1809.13,344.388 1807.63,337.721 1808.5,330.5C 1807.71,321.713 1809.87,313.713 1815,306.5C 1817.33,303.167 1819.67,299.833 1822,296.5C 1829.85,289.988 1837.01,282.821 1843.5,275C 1836.35,266.511 1829.18,258.011 1822,249.5C 1803.62,226.57 1807.12,207.904 1832.5,193.5C 1828.2,186.035 1823.7,178.701 1819,171.5C 1807.03,165.69 1797.86,157.023 1791.5,145.5C 1781.74,147.659 1771.91,149.325 1762,150.5C 1747.76,149.929 1739.43,142.596 1737,128.5C 1736.5,118.839 1736.33,109.172 1736.5,99.5C 1713.97,105.273 1696.97,98.1068 1685.5,78C 1682.07,77.2989 1678.74,77.6323 1675.5,79C 1669.07,83.1012 1662.4,86.7678 1655.5,90C 1642.22,93.8361 1630.22,91.5027 1619.5,83C 1613.06,80.9449 1606.72,78.6115 1600.5,76C 1593.17,75.3333 1585.83,75.3333 1578.5,76C 1572.14,80.1834 1566.14,84.85 1560.5,90C 1557.91,91.1965 1555.24,92.1965 1552.5,93C 1543.45,93.846 1534.45,93.5127 1525.5,92C 1515.94,88.5566 1506.61,84.5566 1497.5,80C 1482.02,78.7143 1468.36,83.0476 1456.5,93C 1452.61,94.6401 1448.61,95.9735 1444.5,97C 1435.5,97.6667 1426.5,97.6667 1417.5,97C 1410.51,95.3377 1404.18,92.3377 1398.5,88C 1393.17,82 1387.83,76 1382.5,70C 1374.35,69.009 1366.35,69.6756 1358.5,72C 1351.98,76.7591 1345.65,81.7591 1339.5,87C 1323.59,96.4338 1306.59,99.1004 1288.5,95C 1268.77,87.7045 1249.1,80.5379 1229.5,73.5C 1219.26,78.2924 1209.59,84.1257 1200.5,91C 1176.84,101.835 1154.84,99.1685 1134.5,83C 1124.52,82.5416 1114.85,84.2083 1105.5,88C 1095.85,92.4911 1086.52,97.4911 1077.5,103C 1060.74,109.491 1045.41,107.158 1031.5,96C 1023.22,84.9079 1012.22,80.2412 998.5,82C 991.337,85.7471 984.337,89.7471 977.5,94C 968.651,96.2073 959.985,95.5406 951.5,92C 942.899,87.0612 934.565,81.7279 926.5,76C 919.864,74.3257 913.198,74.3257 906.5,76C 889.9,85.1335 872.9,93.4669 855.5,101C 836.735,105.634 821.402,100.3 809.5,85C 807.1,83.2993 804.433,82.466 801.5,82.5C 795.097,82.9494 788.763,83.7827 782.5,85C 768.713,91.0598 755.047,97.3931 741.5,104C 734.167,104.667 726.833,104.667 719.5,104C 715.714,102.607 712.048,100.941 708.5,99C 700.463,91.2945 692.13,83.9612 683.5,77C 674.114,73.6969 664.448,72.6969 654.5,74C 643.938,80.5608 633.938,87.8941 624.5,96C 613.921,102.104 602.588,104.104 590.5,102C 574.801,98.1521 559.468,93.1521 544.5,87C 538.664,86.5276 532.831,86.0276 527,85.5C 523.541,85.2672 520.374,86.1005 517.5,88C 506.008,101.496 491.508,109.663 474,112.5C 453.483,109.654 434.649,102.487 417.5,91C 410.125,90.3138 402.792,90.6471 395.5,92C 389.833,96.3333 384.167,100.667 378.5,105C 369.521,110.08 360.021,113.58 350,115.5C 344.592,115.352 339.425,114.185 334.5,112C 330.167,108.333 325.833,104.667 321.5,101C 312.965,98.9326 304.631,96.2659 296.5,93C 290.298,92.1729 284.631,93.5062 279.5,97C 272.45,104.928 265.283,112.761 258,120.5C 259.174,127.382 260.174,134.382 261,141.5C 262.434,167.796 250.6,184.963 225.5,193C 210.628,196.91 196.961,194.577 184.5,186C 179.914,181.92 175.914,177.42 172.5,172.5C 168.493,173.664 164.993,175.664 162,178.5C 158.724,184.108 155.057,189.442 151,194.5C 145.822,205.225 144.155,216.559 146,228.5C 151.667,234.5 157.333,240.5 163,246.5C 171.133,259.353 173.8,273.353 171,288.5C 169.112,293.945 166.445,298.945 163,303.5C 150.548,315.612 139.214,328.612 129,342.5C 128.023,347.734 128.69,352.734 131,357.5C 138.423,368.012 146.09,378.345 154,388.5C 165.077,404.498 168.744,422.164 165,441.5C 163.124,448.458 160.457,455.125 157,461.5C 150.995,472.851 143.995,483.518 136,493.5C 133.422,497.491 131.255,501.657 129.5,506C 129.99,508.503 131.323,510.503 133.5,512C 151.687,523.173 162.854,539.34 167,560.5C 167.865,570.552 167.531,580.552 166,590.5C 162.464,602.731 157.964,614.565 152.5,626C 159.94,638.128 167.44,650.295 175,662.5C 176.944,668.063 178.611,673.73 180,679.5C 182.871,698.717 180.204,717.05 172,734.5C 167.704,744.079 163.037,753.412 158,762.5C 155.802,772.242 157.802,780.909 164,788.5C 164.852,787.429 165.685,786.429 166.5,785.5C 166.649,786.552 166.483,787.552 166,788.5C 163.41,789.45 161.41,791.116 160,793.5C 158.381,798.071 156.215,802.404 153.5,806.5C 152.139,806.788 150.806,807.121 149.5,807.5C 143.408,800.326 138.575,792.326 135,783.5C 134.333,775.5 134.333,767.5 135,759.5C 139.787,747.925 145.12,736.592 151,725.5C 160.967,705.835 160.967,686.169 151,666.5C 143.75,655.669 136.75,644.669 130,633.5C 129.333,628.833 129.333,624.167 130,619.5C 135.503,608.161 140.17,596.495 144,584.5C 146.648,568.735 143.315,554.402 134,541.5C 127.833,536.667 121.667,531.833 115.5,527C 106.91,519.722 104.077,510.556 107,499.5C 108,497.167 109,494.833 110,492.5C 120.455,478.038 130.122,463.038 139,447.5C 145.786,431.983 144.786,416.983 136,402.5C 126.948,391.115 118.281,379.449 110,367.5C 107.118,361.155 105.951,354.488 106.5,347.5C 105.598,340.569 107.098,334.236 111,328.5C 123.291,313.207 135.958,298.207 149,283.5C 150.45,275.324 149.117,267.657 145,260.5C 139.333,254.833 133.667,249.167 128,243.5C 126.472,240.583 125.139,237.583 124,234.5C 120.013,212.46 124.513,192.46 137.5,174.5C 115.422,158.54 108.589,137.54 117,111.5C 120.647,107.018 124.481,102.685 128.5,98.5C 122.06,92.9556 118.227,85.9556 117,77.5C 115.441,49.1785 128.608,31.6785 156.5,25C 162.167,24.3333 167.833,24.3333 173.5,25C 181.112,28.1394 188.446,31.8061 195.5,36C 198.42,39.4274 201.753,42.2608 205.5,44.5C 209.346,42.8293 213.346,41.6626 217.5,41C 246.838,34.4927 266.172,45.3261 275.5,73.5C 283.5,69.9742 291.833,68.8075 300.5,70C 311.114,73.8711 321.781,77.5378 332.5,81C 337.084,83.5797 341.084,86.9131 344.5,91C 346.5,91.5 348.5,92 350.5,92.5C 362.238,89.1322 372.238,82.9655 380.5,74C 386.292,70.3016 392.626,68.3016 399.5,68C 413.793,64.8124 426.459,67.8124 437.5,77C 449.2,82.5667 461.367,86.7334 474,89.5C 478.438,87.5944 482.938,85.7611 487.5,84C 493.167,79 498.833,74 504.5,69C 508.866,66.2141 513.533,64.2141 518.5,63C 528.522,62.4455 538.522,62.7789 548.5,64C 562.494,69.4854 576.827,74.1521 591.5,78C 598.293,80.1873 604.96,79.854 611.5,77C 622.053,67.1146 633.72,58.7813 646.5,52C 658.819,50.0484 671.153,50.0484 683.5,52C 687.243,53.1365 690.91,54.4698 694.5,56C 703.648,63.6468 712.648,71.4801 721.5,79.5C 726.677,81.4317 732.011,81.9317 737.5,81C 750.536,73.3154 764.203,66.9821 778.5,62C 786.559,61.5984 794.559,60.7651 802.5,59.5C 815.331,60.2498 825.665,65.7498 833.5,76C 838.06,79.1737 843.06,80.1737 848.5,79C 866.469,70.3494 884.469,61.6827 902.5,53C 914.881,50.1387 926.881,51.1387 938.5,56C 947.514,63.3393 957.514,68.8393 968.5,72.5C 976.648,68.1675 984.648,63.6675 992.5,59C 1014.39,55.7271 1032.72,62.3938 1047.5,79C 1052.97,82.8242 1058.97,84.1576 1065.5,83C 1083.23,71.1373 1102.56,63.1373 1123.5,59C 1131.2,57.6657 1138.53,58.6657 1145.5,62C 1155.55,71.573 1167.55,75.573 1181.5,74C 1188.74,70.4324 1195.74,66.4324 1202.5,62C 1210.8,52.6676 1221.3,48.1676 1234,48.5C 1237.01,48.7261 1239.85,49.5594 1242.5,51C 1244.21,53.0435 1246.21,54.7101 1248.5,56C 1263.41,60.7959 1278.08,66.1292 1292.5,72C 1304.89,75.1884 1316.56,73.5217 1327.5,67C 1344.17,49.7372 1364.5,43.0705 1388.5,47C 1391.17,48.3333 1393.83,49.6667 1396.5,51C 1402.5,57.6667 1408.5,64.3333 1414.5,71C 1429.79,77.2458 1443.79,75.2458 1456.5,65C 1467.27,59.2652 1478.77,56.4319 1491,56.5C 1495.17,56.6667 1499.33,56.8333 1503.5,57C 1512.63,61.5649 1521.96,65.5649 1531.5,69C 1536.78,70.3585 1542.11,70.6919 1547.5,70C 1555.29,63.5512 1563.62,57.8845 1572.5,53C 1583.5,52.3333 1594.5,52.3333 1605.5,53C 1616.9,56.1276 1627.56,60.7942 1637.5,67C 1641.83,69 1646.17,69 1650.5,67C 1663,56.6249 1677.33,52.9582 1693.5,56C 1701.5,61.3333 1708.17,68 1713.5,76C 1716.76,77.1471 1720.09,77.9804 1723.5,78.5C 1730.1,77.5783 1736.43,75.745 1742.5,73C 1749.36,68.0721 1756.36,63.4054 1763.5,59C 1766.67,57.4434 1770,56.6101 1773.5,56.5C 1773.33,48.16 1773.5,39.8267 1774,31.5C 1778.57,17.9859 1786.74,7.31927 1798.5,-0.5 Z"/></g>
<g><path style="opacity:1" fill="#fefefe" d="M 1800.5,572.5 C 1786.1,561.282 1770.77,551.448 1754.5,543C 1734.74,535.524 1714.74,528.858 1694.5,523C 1664.13,517.058 1633.8,517.058 1603.5,523C 1582.82,529.673 1563.49,539.006 1545.5,551C 1531.17,562 1516.83,573 1502.5,584C 1481.9,604.407 1464.06,626.907 1449,651.5C 1443.68,662.454 1439.35,673.787 1436,685.5C 1433.8,702.42 1432.64,719.42 1432.5,736.5C 1423.73,729.238 1415.4,721.404 1407.5,713C 1385.61,694.901 1362.28,679.068 1337.5,665.5C 1349.96,649.608 1363.12,634.274 1377,619.5C 1385.16,609.186 1392.82,598.52 1400,587.5C 1414.82,573.179 1426.16,556.513 1434,537.5C 1447.87,511.753 1461.7,486.086 1475.5,460.5C 1484.32,468.236 1494.15,469.57 1505,464.5C 1510.33,467.167 1515.67,467.167 1521,464.5C 1529.45,468.067 1536.95,466.567 1543.5,460C 1553.28,460.22 1559.78,455.72 1563,446.5C 1563.47,439.064 1564.13,431.731 1565,424.5C 1564,422.5 1563,420.5 1562,418.5C 1558.2,413.368 1553.7,408.868 1548.5,405C 1540.01,402.501 1531.35,401.501 1522.5,402C 1519.4,403.439 1516.56,405.273 1514,407.5C 1508.24,403.273 1501.74,401.606 1494.5,402.5C 1498.03,391.079 1501.86,379.746 1506,368.5C 1512.79,346.217 1513.12,323.883 1507,301.5C 1495.55,278.095 1478.72,259.595 1456.5,246C 1438.53,240.754 1420.2,239.087 1401.5,241C 1392.8,242.791 1384.47,245.791 1376.5,250C 1361.33,259.752 1346.33,269.752 1331.5,280C 1315.61,295.554 1300.78,312.054 1287,329.5C 1275.58,348.667 1263.92,367.667 1252,386.5C 1244.5,401.655 1237,416.822 1229.5,432C 1225.18,448.963 1219.68,465.463 1213,481.5C 1208.89,497.815 1204.89,514.149 1201,530.5C 1197.21,561.098 1194.04,591.765 1191.5,622.5C 1164.82,614.913 1137.82,608.747 1110.5,604C 1081.92,600.771 1053.25,599.771 1024.5,601C 993.062,603.308 961.729,606.641 930.5,611C 911.277,616.64 891.944,621.973 872.5,627C 862.528,631.231 852.361,635.065 842,638.5C 836.805,631.447 832.638,623.78 829.5,615.5C 838.124,616.742 845.124,614.075 850.5,607.5C 866.718,605.618 875.384,596.618 876.5,580.5C 882.146,575.794 883.979,569.794 882,562.5C 879.707,554.039 874.207,549.372 865.5,548.5C 863.616,542.718 859.616,539.551 853.5,539C 841.83,538.084 831.163,540.917 821.5,547.5C 815.842,544.333 809.842,543.667 803.5,545.5C 803.5,546.5 803.5,547.5 803.5,548.5C 795.967,522.762 785.134,498.428 771,475.5C 760.172,463.006 750.506,449.673 742,435.5C 724.172,415.673 705.672,396.506 686.5,378C 681.825,375.664 677.492,372.831 673.5,369.5C 668.496,367.225 663.496,365.058 658.5,363C 644.378,352.064 628.378,345.397 610.5,343C 589.033,339.635 568.699,342.969 549.5,353C 536.556,359.944 527.056,370.111 521,383.5C 519.059,387.048 517.393,390.714 516,394.5C 514.137,404.284 511.804,413.951 509,423.5C 508.11,428.628 507.61,433.795 507.5,439C 509.466,484.89 522.3,527.39 546,566.5C 581.066,622.753 621.566,674.92 667.5,723C 659.348,733.822 651.181,744.656 643,755.5C 636.726,766.397 630.226,777.064 623.5,787.5C 620.813,787.664 618.146,787.497 615.5,787C 607.646,784.406 599.646,782.406 591.5,781C 565.635,779.506 539.968,780.84 514.5,785C 507.535,788.321 500.202,790.654 492.5,792C 465.337,803.59 440.67,819.257 418.5,839C 417.552,839.483 416.552,839.649 415.5,839.5C 419.105,826.324 422.771,812.991 426.5,799.5C 427.847,790.466 427.68,781.466 426,772.5C 424.073,769.052 422.739,765.385 422,761.5C 421.385,759.884 420.385,758.551 419,757.5C 418.667,755.5 418.333,753.5 418,751.5C 408.353,740.184 397.186,730.684 384.5,723C 373.207,718.238 362.207,712.904 351.5,707C 345.372,704.512 339.038,702.845 332.5,702C 330.275,701.439 328.275,700.439 326.5,699C 297.634,692.866 270.634,697.199 245.5,712C 219.415,728.17 196.249,748.003 176,771.5C 172.586,776.066 169.42,780.732 166.5,785.5C 165.685,786.429 164.852,787.429 164,788.5C 157.802,780.909 155.802,772.242 158,762.5C 163.037,753.412 167.704,744.079 172,734.5C 180.204,717.05 182.871,698.717 180,679.5C 178.611,673.73 176.944,668.063 175,662.5C 167.44,650.295 159.94,638.128 152.5,626C 157.964,614.565 162.464,602.731 166,590.5C 167.531,580.552 167.865,570.552 167,560.5C 162.854,539.34 151.687,523.173 133.5,512C 131.323,510.503 129.99,508.503 129.5,506C 131.255,501.657 133.422,497.491 136,493.5C 143.995,483.518 150.995,472.851 157,461.5C 160.457,455.125 163.124,448.458 165,441.5C 168.744,422.164 165.077,404.498 154,388.5C 146.09,378.345 138.423,368.012 131,357.5C 128.69,352.734 128.023,347.734 129,342.5C 139.214,328.612 150.548,315.612 163,303.5C 166.445,298.945 169.112,293.945 171,288.5C 173.8,273.353 171.133,259.353 163,246.5C 157.333,240.5 151.667,234.5 146,228.5C 144.155,216.559 145.822,205.225 151,194.5C 155.057,189.442 158.724,184.108 162,178.5C 164.993,175.664 168.493,173.664 172.5,172.5C 175.914,177.42 179.914,181.92 184.5,186C 196.961,194.577 210.628,196.91 225.5,193C 250.6,184.963 262.434,167.796 261,141.5C 260.174,134.382 259.174,127.382 258,120.5C 265.283,112.761 272.45,104.928 279.5,97C 284.631,93.5062 290.298,92.1729 296.5,93C 304.631,96.2659 312.965,98.9326 321.5,101C 325.833,104.667 330.167,108.333 334.5,112C 339.425,114.185 344.592,115.352 350,115.5C 360.021,113.58 369.521,110.08 378.5,105C 384.167,100.667 389.833,96.3333 395.5,92C 402.792,90.6471 410.125,90.3138 417.5,91C 434.649,102.487 453.483,109.654 474,112.5C 491.508,109.663 506.008,101.496 517.5,88C 520.374,86.1005 523.541,85.2672 527,85.5C 532.831,86.0276 538.664,86.5276 544.5,87C 559.468,93.1521 574.801,98.1521 590.5,102C 602.588,104.104 613.921,102.104 624.5,96C 633.938,87.8941 643.938,80.5608 654.5,74C 664.448,72.6969 674.114,73.6969 683.5,77C 692.13,83.9612 700.463,91.2945 708.5,99C 712.048,100.941 715.714,102.607 719.5,104C 726.833,104.667 734.167,104.667 741.5,104C 755.047,97.3931 768.713,91.0598 782.5,85C 788.763,83.7827 795.097,82.9494 801.5,82.5C 804.433,82.466 807.1,83.2993 809.5,85C 821.402,100.3 836.735,105.634 855.5,101C 872.9,93.4669 889.9,85.1335 906.5,76C 913.198,74.3257 919.864,74.3257 926.5,76C 934.565,81.7279 942.899,87.0612 951.5,92C 959.985,95.5406 968.651,96.2073 977.5,94C 984.337,89.7471 991.337,85.7471 998.5,82C 1012.22,80.2412 1023.22,84.9079 1031.5,96C 1045.41,107.158 1060.74,109.491 1077.5,103C 1086.52,97.4911 1095.85,92.4911 1105.5,88C 1114.85,84.2083 1124.52,82.5416 1134.5,83C 1154.84,99.1685 1176.84,101.835 1200.5,91C 1209.59,84.1257 1219.26,78.2924 1229.5,73.5C 1249.1,80.5379 1268.77,87.7045 1288.5,95C 1306.59,99.1004 1323.59,96.4338 1339.5,87C 1345.65,81.7591 1351.98,76.7591 1358.5,72C 1366.35,69.6756 1374.35,69.009 1382.5,70C 1387.83,76 1393.17,82 1398.5,88C 1404.18,92.3377 1410.51,95.3377 1417.5,97C 1426.5,97.6667 1435.5,97.6667 1444.5,97C 1448.61,95.9735 1452.61,94.6401 1456.5,93C 1468.36,83.0476 1482.02,78.7143 1497.5,80C 1506.61,84.5566 1515.94,88.5566 1525.5,92C 1534.45,93.5127 1543.45,93.846 1552.5,93C 1555.24,92.1965 1557.91,91.1965 1560.5,90C 1566.14,84.85 1572.14,80.1834 1578.5,76C 1585.83,75.3333 1593.17,75.3333 1600.5,76C 1606.72,78.6115 1613.06,80.9449 1619.5,83C 1630.22,91.5027 1642.22,93.8361 1655.5,90C 1662.4,86.7678 1669.07,83.1012 1675.5,79C 1678.74,77.6323 1682.07,77.2989 1685.5,78C 1696.97,98.1068 1713.97,105.273 1736.5,99.5C 1736.33,109.172 1736.5,118.839 1737,128.5C 1739.43,142.596 1747.76,149.929 1762,150.5C 1771.91,149.325 1781.74,147.659 1791.5,145.5C 1797.86,157.023 1807.03,165.69 1819,171.5C 1823.7,178.701 1828.2,186.035 1832.5,193.5C 1807.12,207.904 1803.62,226.57 1822,249.5C 1829.18,258.011 1836.35,266.511 1843.5,275C 1837.01,282.821 1829.85,289.988 1822,296.5C 1819.67,299.833 1817.33,303.167 1815,306.5C 1809.87,313.713 1807.71,321.713 1808.5,330.5C 1807.63,337.721 1809.13,344.388 1813,350.5C 1819.62,359.456 1826.62,368.123 1834,376.5C 1837.12,380.901 1839.28,385.734 1840.5,391C 1839.42,397.08 1837.59,402.914 1835,408.5C 1825.63,418.202 1816.63,428.202 1808,438.5C 1804.52,448.907 1804.85,459.24 1809,469.5C 1814.33,477.5 1819.67,485.5 1825,493.5C 1828.93,499.351 1831.76,505.684 1833.5,512.5C 1831.41,530.008 1823.58,544.341 1810,555.5C 1806.24,561.043 1803.07,566.71 1800.5,572.5 Z"/></g>
<g><path style="opacity:1" fill="#c5e4de" d="M 1693.5,173.5 C 1700.69,172.279 1707.02,173.945 1712.5,178.5C 1715.05,177.058 1717.72,175.892 1720.5,175C 1729.23,174.124 1737.9,174.458 1746.5,176C 1751.17,178 1754.5,181.333 1756.5,186C 1771.27,186.767 1776.77,194.267 1773,208.5C 1770.3,211.538 1767.3,214.205 1764,216.5C 1763.23,225.193 1758.73,231.026 1750.5,234C 1747.21,234.882 1743.88,235.548 1740.5,236C 1738.4,239.225 1735.4,241.225 1731.5,242C 1722.97,243.729 1715.3,241.896 1708.5,236.5C 1700.38,239.896 1692.05,240.396 1683.5,238C 1679.51,235.389 1675.17,233.389 1670.5,232C 1663.61,226.003 1661.11,218.503 1663,209.5C 1665.78,206.282 1667.78,202.615 1669,198.5C 1671.72,195.556 1674.89,193.223 1678.5,191.5C 1678.96,187.39 1680.46,183.723 1683,180.5C 1686.31,177.771 1689.81,175.438 1693.5,173.5 Z"/></g>
<g><path style="opacity:1" fill="#c5e4de" d="M 429.5,199.5 C 435.611,198.838 441.278,200.005 446.5,203C 451.584,203.173 456.584,203.839 461.5,205C 466.597,210.1 472.264,214.433 478.5,218C 482.545,221.595 484.212,226.095 483.5,231.5C 483.425,235.555 482.925,239.555 482,243.5C 481.139,246.368 479.472,248.702 477,250.5C 474.431,264.072 466.265,270.572 452.5,270C 445.533,275.473 437.7,276.973 429,274.5C 420.702,279.134 412.369,279.468 404,275.5C 398.717,277.696 393.217,279.029 387.5,279.5C 381.326,279.018 376.66,276.018 373.5,270.5C 361.908,269.631 353.741,263.965 349,253.5C 347.84,245.48 350.006,238.48 355.5,232.5C 353.38,222.255 357.38,215.421 367.5,212C 376.796,207.575 386.129,207.408 395.5,211.5C 403.548,203.651 413.215,200.484 424.5,202C 426.315,201.243 427.981,200.41 429.5,199.5 Z"/></g>
<g><path style="opacity:1" fill="#f3c5c5" d="M 1494.5,402.5 C 1486.97,421.423 1480.64,440.756 1475.5,460.5C 1461.7,486.086 1447.87,511.753 1434,537.5C 1426.16,556.513 1414.82,573.179 1400,587.5C 1392.82,598.52 1385.16,609.186 1377,619.5C 1363.12,634.274 1349.96,649.608 1337.5,665.5C 1362.28,679.068 1385.61,694.901 1407.5,713C 1415.4,721.404 1423.73,729.238 1432.5,736.5C 1432.9,745.835 1433.4,755.168 1434,764.5C 1438.78,785.52 1443.45,806.52 1448,827.5C 1453,840.479 1459.66,852.479 1468,863.5C 1473.52,869.211 1479.69,873.878 1486.5,877.5C 1485.89,891.503 1485.23,905.503 1484.5,919.5C 1474.66,939.171 1464.83,958.838 1455,978.5C 1449.89,994.479 1446.73,1010.81 1445.5,1027.5C 1433.67,1042.25 1421,1056.42 1407.5,1070C 1391.62,1081.54 1376.62,1094.21 1362.5,1108C 1339,1125.67 1313.5,1139.84 1286,1150.5C 1284.5,1151.67 1283,1152.84 1281.5,1154C 1260.16,1160.21 1238.66,1165.71 1217,1170.5C 1194.46,1173.25 1171.96,1176.25 1149.5,1179.5C 1151.48,1180.98 1153.32,1182.65 1155,1184.5C 1160.01,1192.51 1164.51,1200.85 1168.5,1209.5C 1190.47,1199.07 1208.13,1203.74 1221.5,1223.5C 1213.51,1226.21 1212.51,1230.71 1218.5,1237C 1221.48,1237.5 1224.48,1237.66 1227.5,1237.5C 1228.31,1244.88 1227.14,1251.88 1224,1258.5C 1208.49,1272 1190.99,1282.17 1171.5,1289C 1165.23,1301.72 1159.06,1314.55 1153,1327.5C 1142.54,1337.66 1132.37,1348.16 1122.5,1359C 1120.67,1360.17 1118.83,1361.33 1117,1362.5C 1118.35,1369.72 1118.68,1377.05 1118,1384.5C 1116.85,1389.45 1114.35,1393.45 1110.5,1396.5C 1102.56,1402.3 1094.23,1407.3 1085.5,1411.5C 1072.33,1413.46 1061.83,1409.13 1054,1398.5C 1051.65,1394.8 1050.15,1390.8 1049.5,1386.5C 1036.14,1386.1 1022.81,1386.1 1009.5,1386.5C 1012.23,1392.87 1011.39,1398.87 1007,1404.5C 996.209,1417.65 982.375,1423.15 965.5,1421C 948.186,1412.3 943.352,1398.8 951,1380.5C 952.738,1376.76 955.238,1373.59 958.5,1371C 945.083,1362.25 933.583,1351.42 924,1338.5C 916.602,1330.37 911.269,1321.04 908,1310.5C 907.167,1309.67 906.333,1308.83 905.5,1308C 892.352,1303.76 879.686,1298.42 867.5,1292C 856.183,1283.15 846.85,1272.65 839.5,1260.5C 838.686,1255.88 838.353,1251.21 838.5,1246.5C 842.523,1235.31 850.19,1227.47 861.5,1223C 875.445,1219.37 889.111,1220.2 902.5,1225.5C 907.801,1210.68 916.801,1198.52 929.5,1189C 929.167,1188.67 928.833,1188.33 928.5,1188C 897.364,1183.69 866.364,1178.36 835.5,1172C 823.711,1168.74 812.044,1165.07 800.5,1161C 796.313,1157.26 791.313,1155.26 785.5,1155C 766.076,1146.12 746.743,1136.96 727.5,1127.5C 720.273,1122.54 712.606,1118.04 704.5,1114C 699.777,1109.43 694.444,1105.76 688.5,1103C 684.318,1098.65 679.985,1094.48 675.5,1090.5C 676.193,1089.48 676.859,1088.48 677.5,1087.5C 683.644,1082.2 689.978,1077.03 696.5,1072C 714.89,1054.32 730.057,1034.49 742,1012.5C 753.693,982.588 757.359,951.588 753,919.5C 751.054,911.468 748.72,903.468 746,895.5C 741.216,883.264 735.883,871.264 730,859.5C 725.033,851.217 719.367,843.55 713,836.5C 704.194,829.701 695.36,822.868 686.5,816C 684.16,812.491 680.827,810.491 676.5,810C 671.842,807.006 667.175,804.006 662.5,801C 652.167,797.333 641.833,793.667 631.5,790C 629.167,789.667 626.833,789.333 624.5,789C 623.944,788.617 623.611,788.117 623.5,787.5C 630.226,777.064 636.726,766.397 643,755.5C 651.181,744.656 659.348,733.822 667.5,723C 621.566,674.92 581.066,622.753 546,566.5C 522.3,527.39 509.466,484.89 507.5,439C 507.61,433.795 508.11,428.628 509,423.5C 511.804,413.951 514.137,404.284 516,394.5C 517.393,390.714 519.059,387.048 521,383.5C 527.056,370.111 536.556,359.944 549.5,353C 568.699,342.969 589.033,339.635 610.5,343C 628.378,345.397 644.378,352.064 658.5,363C 663.496,365.058 668.496,367.225 673.5,369.5C 677.492,372.831 681.825,375.664 686.5,378C 705.672,396.506 724.172,415.673 742,435.5C 750.506,449.673 760.172,463.006 771,475.5C 785.134,498.428 795.967,522.762 803.5,548.5C 807.521,561.221 812.688,573.555 819,585.5C 822.238,595.632 825.738,605.632 829.5,615.5C 832.638,623.78 836.805,631.447 842,638.5C 852.361,635.065 862.528,631.231 872.5,627C 891.944,621.973 911.277,616.64 930.5,611C 961.729,606.641 993.062,603.308 1024.5,601C 1053.25,599.771 1081.92,600.771 1110.5,604C 1137.82,608.747 1164.82,614.913 1191.5,622.5C 1194.04,591.765 1197.21,561.098 1201,530.5C 1204.89,514.149 1208.89,497.815 1213,481.5C 1219.68,465.463 1225.18,448.963 1229.5,432C 1237,416.822 1244.5,401.655 1252,386.5C 1263.92,367.667 1275.58,348.667 1287,329.5C 1300.78,312.054 1315.61,295.554 1331.5,280C 1346.33,269.752 1361.33,259.752 1376.5,250C 1384.47,245.791 1392.8,242.791 1401.5,241C 1420.2,239.087 1438.53,240.754 1456.5,246C 1478.72,259.595 1495.55,278.095 1507,301.5C 1513.12,323.883 1512.79,346.217 1506,368.5C 1501.86,379.746 1498.03,391.079 1494.5,402.5 Z"/></g>
<g><path style="opacity:1" fill="#fefefe" d="M 1392.5,318.5 C 1424.88,315.718 1438.38,330.385 1433,362.5C 1432.41,366.928 1431.41,371.261 1430,375.5C 1423.6,388.625 1416.94,401.625 1410,414.5C 1365.04,477.953 1330.7,546.953 1307,621.5C 1295.93,634.708 1283.1,636.875 1268.5,628C 1259.87,618.071 1257.04,606.571 1260,593.5C 1264.27,562.075 1270.61,531.075 1279,500.5C 1281.27,483.758 1285.27,467.424 1291,451.5C 1308,413.814 1328.34,378.148 1352,344.5C 1357.53,338.634 1363.36,333.134 1369.5,328C 1377.38,325.103 1385.04,321.937 1392.5,318.5 Z"/></g>
<g><path style="opacity:1" fill="#c5e4de" d="M 1475.5,460.5 C 1480.64,440.756 1486.97,421.423 1494.5,402.5C 1501.74,401.606 1508.24,403.273 1514,407.5C 1516.56,405.273 1519.4,403.439 1522.5,402C 1531.35,401.501 1540.01,402.501 1548.5,405C 1553.7,408.868 1558.2,413.368 1562,418.5C 1563,420.5 1564,422.5 1565,424.5C 1564.13,431.731 1563.47,439.064 1563,446.5C 1559.78,455.72 1553.28,460.22 1543.5,460C 1536.95,466.567 1529.45,468.067 1521,464.5C 1515.67,467.167 1510.33,467.167 1505,464.5C 1494.15,469.57 1484.32,468.236 1475.5,460.5 Z"/></g>
<g><path style="opacity:1" fill="#fefefe" d="M 592.5,426.5 C 609.679,424.077 624.179,429.077 636,441.5C 639.667,447.167 643.333,452.833 647,458.5C 671.094,506.236 696.427,553.236 723,599.5C 729.182,608.527 735.849,617.194 743,625.5C 747.609,631.123 750.943,637.457 753,644.5C 754.6,665.894 744.766,676.728 723.5,677C 716.898,675.723 711.231,672.723 706.5,668C 694.389,655.219 682.222,642.386 670,629.5C 645,596.167 620,562.833 595,529.5C 585.464,514.093 577.798,497.76 572,480.5C 569.225,469.893 568.892,459.226 571,448.5C 575.045,437.956 582.212,430.623 592.5,426.5 Z"/></g>
<g><path style="opacity:0.999" fill="#b9e2be" d="M 1800.5,572.5 C 1804.65,575.803 1808.98,578.97 1813.5,582C 1817.03,586.36 1820.7,590.527 1824.5,594.5C 1829.57,602.097 1834.07,610.097 1838,618.5C 1840.39,626.395 1841.06,634.395 1840,642.5C 1871.69,639.171 1901.19,645.671 1928.5,662C 1936.82,668.164 1945.49,673.831 1954.5,679C 1984.28,708.046 2004.11,742.879 2014,783.5C 2019.06,809.609 2021.39,835.943 2021,862.5C 2016.37,889.618 2003.2,911.451 1981.5,928C 1973.83,932.167 1966.49,936.834 1959.5,942C 1954.35,944.076 1949.35,946.41 1944.5,949C 1953.33,955.167 1960.83,962.667 1967,971.5C 1983.4,1003.66 1986.07,1037 1975,1071.5C 1970.25,1080.66 1965.25,1089.66 1960,1098.5C 1940.62,1117.55 1919.79,1134.72 1897.5,1150C 1888.54,1155.32 1879.2,1159.82 1869.5,1163.5C 1862.69,1164.37 1856.02,1165.87 1849.5,1168C 1833.17,1168.5 1816.84,1168.67 1800.5,1168.5C 1781.3,1166.5 1764.96,1158.66 1751.5,1145C 1742.5,1133.49 1735.16,1120.99 1729.5,1107.5C 1714.44,1130.39 1695.77,1149.89 1673.5,1166C 1661.17,1174.33 1648.83,1182.67 1636.5,1191C 1619.53,1200.49 1601.53,1207.15 1582.5,1211C 1571.5,1211.67 1560.5,1211.67 1549.5,1211C 1531.07,1207.12 1514.4,1199.45 1499.5,1188C 1491.96,1180.13 1484.79,1171.96 1478,1163.5C 1472.82,1155.13 1467.65,1146.8 1462.5,1138.5C 1437.69,1148.57 1413.36,1159.74 1389.5,1172C 1347.42,1188.14 1305.42,1204.47 1263.5,1221C 1251.35,1226.24 1239.35,1231.74 1227.5,1237.5C 1224.48,1237.66 1221.48,1237.5 1218.5,1237C 1212.51,1230.71 1213.51,1226.21 1221.5,1223.5C 1229.16,1221.17 1236.5,1218 1243.5,1214C 1275.29,1202.44 1306.62,1189.77 1337.5,1176C 1366.89,1166.53 1395.23,1154.53 1422.5,1140C 1433.95,1135.44 1445.28,1130.61 1456.5,1125.5C 1457.63,1123.93 1457.8,1122.26 1457,1120.5C 1455.32,1116.12 1453.65,1111.79 1452,1107.5C 1450.84,1096.68 1448.84,1086.02 1446,1075.5C 1444.3,1059.51 1444.13,1043.51 1445.5,1027.5C 1446.73,1010.81 1449.89,994.479 1455,978.5C 1464.83,958.838 1474.66,939.171 1484.5,919.5C 1488.31,914.569 1492.15,909.569 1496,904.5C 1498.38,901.727 1501.22,899.561 1504.5,898C 1507.46,894.034 1510.8,890.367 1514.5,887C 1504.9,884.744 1495.56,881.577 1486.5,877.5C 1479.69,873.878 1473.52,869.211 1468,863.5C 1459.66,852.479 1453,840.479 1448,827.5C 1443.45,806.52 1438.78,785.52 1434,764.5C 1433.4,755.168 1432.9,745.835 1432.5,736.5C 1432.64,719.42 1433.8,702.42 1436,685.5C 1439.35,673.787 1443.68,662.454 1449,651.5C 1464.06,626.907 1481.9,604.407 1502.5,584C 1516.83,573 1531.17,562 1545.5,551C 1563.49,539.006 1582.82,529.673 1603.5,523C 1633.8,517.058 1664.13,517.058 1694.5,523C 1714.74,528.858 1734.74,535.524 1754.5,543C 1770.77,551.448 1786.1,561.282 1800.5,572.5 Z"/></g>
<g><path style="opacity:1" fill="#c5e4de" d="M 829.5,615.5 C 825.738,605.632 822.238,595.632 819,585.5C 812.688,573.555 807.521,561.221 803.5,548.5C 803.5,547.5 803.5,546.5 803.5,545.5C 809.842,543.667 815.842,544.333 821.5,547.5C 831.163,540.917 841.83,538.084 853.5,539C 859.616,539.551 863.616,542.718 865.5,548.5C 874.207,549.372 879.707,554.039 882,562.5C 883.979,569.794 882.146,575.794 876.5,580.5C 875.384,596.618 866.718,605.618 850.5,607.5C 845.124,614.075 838.124,616.742 829.5,615.5 Z"/></g>
<g><path style="opacity:0.999" fill="#b9e2be" d="M 623.5,787.5 C 623.611,788.117 623.944,788.617 624.5,789C 626.833,789.333 629.167,789.667 631.5,790C 641.833,793.667 652.167,797.333 662.5,801C 667.175,804.006 671.842,807.006 676.5,810C 680.827,810.491 684.16,812.491 686.5,816C 695.36,822.868 704.194,829.701 713,836.5C 719.367,843.55 725.033,851.217 730,859.5C 735.883,871.264 741.216,883.264 746,895.5C 748.72,903.468 751.054,911.468 753,919.5C 757.359,951.588 753.693,982.588 742,1012.5C 730.057,1034.49 714.89,1054.32 696.5,1072C 689.978,1077.03 683.644,1082.2 677.5,1087.5C 671.84,1090.35 666.84,1094.18 662.5,1099C 649.816,1105.03 637.149,1111.03 624.5,1117C 619.166,1117.57 613.833,1118.07 608.5,1118.5C 610.561,1122.92 613.394,1126.92 617,1130.5C 624.293,1142.4 631.626,1154.4 639,1166.5C 649.924,1175.71 662.424,1181.87 676.5,1185C 686.562,1190.03 696.562,1195.03 706.5,1200C 736.167,1211 765.833,1222 795.5,1233C 809.821,1237.61 824.155,1242.11 838.5,1246.5C 838.353,1251.21 838.686,1255.88 839.5,1260.5C 838.903,1261.14 838.07,1261.47 837,1261.5C 791.813,1246.66 746.979,1230.83 702.5,1214C 691.833,1208.67 681.167,1203.33 670.5,1198C 664.215,1196.52 658.215,1194.35 652.5,1191.5C 651.876,1191.92 651.543,1192.58 651.5,1193.5C 655.51,1207.41 658.51,1221.24 660.5,1235C 660.588,1239.77 659.922,1244.61 658.5,1249.5C 658.833,1250.17 659.167,1250.83 659.5,1251.5C 652.341,1282.19 640.841,1310.86 625,1337.5C 617.598,1346.06 610.432,1354.73 603.5,1363.5C 593.045,1372.76 582.045,1381.6 570.5,1390C 566.732,1390.38 563.732,1392.05 561.5,1395C 555.781,1396.4 550.781,1399.07 546.5,1403C 537.817,1405.34 529.151,1407.67 520.5,1410C 500.195,1411.55 479.861,1411.88 459.5,1411C 454.833,1410 450.167,1409 445.5,1408C 439.371,1404.88 433.037,1402.21 426.5,1400C 422.195,1396.75 417.528,1394.08 412.5,1392C 407.758,1387.26 402.425,1383.26 396.5,1380C 386.534,1371.37 378.034,1361.54 371,1350.5C 366.193,1346.89 362.859,1342.22 361,1336.5C 355.913,1332.33 352.913,1326.99 352,1320.5C 335.658,1295.73 323.825,1269.07 316.5,1240.5C 303.296,1257.79 288.629,1273.62 272.5,1288C 261.543,1296.72 250.043,1304.55 238,1311.5C 228.905,1313.48 220.071,1316.15 211.5,1319.5C 195.436,1320.96 179.436,1322.96 163.5,1325.5C 157.489,1324.88 151.489,1324.22 145.5,1323.5C 144.584,1323.54 143.917,1323.88 143.5,1324.5C 116.751,1319.37 93.0841,1308.04 72.5,1290.5C 52.9726,1273.46 37.806,1253.12 27,1229.5C 26,1228.5 25,1227.5 24,1226.5C 11.9059,1193.67 8.40588,1160.5 13.5,1127C 12.6456,1125.12 12.9789,1123.29 14.5,1121.5C 14.2907,1120.91 13.9574,1120.41 13.5,1120C 18.2575,1104.64 22.4242,1088.81 26,1072.5C 32.9229,1049.99 43.4229,1029.49 57.5,1011C 70.4746,986.614 88.8079,966.614 112.5,951C 118.616,947.017 125.282,944.517 132.5,943.5C 129.473,930.122 127.14,916.622 125.5,903C 125.523,893.607 125.523,884.274 125.5,875C 130.651,851.375 138.651,828.875 149.5,807.5C 150.806,807.121 152.139,806.788 153.5,806.5C 156.215,802.404 158.381,798.071 160,793.5C 161.41,791.116 163.41,789.45 166,788.5C 166.483,787.552 166.649,786.552 166.5,785.5C 169.42,780.732 172.586,776.066 176,771.5C 196.249,748.003 219.415,728.17 245.5,712C 270.634,697.199 297.634,692.866 326.5,699C 328.275,700.439 330.275,701.439 332.5,702C 339.038,702.845 345.372,704.512 351.5,707C 362.207,712.904 373.207,718.238 384.5,723C 397.186,730.684 408.353,740.184 418,751.5C 418.333,753.5 418.667,755.5 419,757.5C 420.385,758.551 421.385,759.884 422,761.5C 422.739,765.385 424.073,769.052 426,772.5C 427.68,781.466 427.847,790.466 426.5,799.5C 422.771,812.991 419.105,826.324 415.5,839.5C 416.552,839.649 417.552,839.483 418.5,839C 440.67,819.257 465.337,803.59 492.5,792C 500.202,790.654 507.535,788.321 514.5,785C 539.968,780.84 565.635,779.506 591.5,781C 599.646,782.406 607.646,784.406 615.5,787C 618.146,787.497 620.813,787.664 623.5,787.5 Z"/></g>
<g><path style="opacity:1" fill="#98e2a2" d="M 1629.5,706.5 C 1635.86,705.686 1640.03,708.353 1642,714.5C 1643.29,719.11 1643.62,723.777 1643,728.5C 1640.44,731.349 1637.27,732.183 1633.5,731C 1629.49,725.923 1627.16,720.089 1626.5,713.5C 1626.67,712.167 1626.83,710.833 1627,709.5C 1628.04,708.627 1628.88,707.627 1629.5,706.5 Z"/></g>
<g><path style="opacity:1" fill="#99e2a2" d="M 1603.5,724.5 C 1605.86,724.337 1608.19,724.503 1610.5,725C 1614.91,728.621 1619.41,732.121 1624,735.5C 1625.93,743.865 1622.76,747.365 1614.5,746C 1609.41,742.917 1604.91,739.083 1601,734.5C 1599.86,730.579 1600.69,727.246 1603.5,724.5 Z"/></g>
<g><path style="opacity:1" fill="#98e2a1" d="M 1870.5,791.5 C 1878.21,790.715 1881.71,794.048 1881,801.5C 1879.13,803.709 1876.96,805.542 1874.5,807C 1876.75,806.572 1879.08,806.072 1881.5,805.5C 1889.58,806.136 1891.58,809.969 1887.5,817C 1882.38,820.845 1876.71,822.511 1870.5,822C 1866.95,819.409 1865.62,815.909 1866.5,811.5C 1859.25,811.007 1857.08,807.34 1860,800.5C 1863.69,797.635 1867.19,794.635 1870.5,791.5 Z"/></g>
<g><path style="opacity:1" fill="#1e1919" d="M 1119.5,811.5 C 1129.36,812.007 1133.69,817.007 1132.5,826.5C 1127.06,824.03 1122.22,820.697 1118,816.5C 1117.69,815.234 1117.19,814.067 1116.5,813C 1117.74,812.768 1118.74,812.268 1119.5,811.5 Z"/></g>
<g><path style="opacity:1" fill="#f8f8f8" d="M 1685.5,814.5 C 1697.04,813.683 1705.04,818.683 1709.5,829.5C 1715.68,823.258 1722.51,822.258 1730,826.5C 1731.48,829.702 1731.82,833.036 1731,836.5C 1728.05,840.232 1724.55,843.399 1720.5,846C 1730.51,851.68 1732.17,859.347 1725.5,869C 1718.09,873.065 1711.92,871.565 1707,864.5C 1703.09,869.083 1698.59,872.917 1693.5,876C 1684.1,875.766 1680.6,870.932 1683,861.5C 1684.45,858.088 1686.29,854.921 1688.5,852C 1680.01,846.348 1676.01,838.348 1676.5,828C 1676.18,821.107 1679.18,816.607 1685.5,814.5 Z"/></g>
<g><path style="opacity:1" fill="#1f1919" d="M 926.5,820.5 C 929.998,820.565 930.498,821.899 928,824.5C 923.365,830.967 918.198,836.967 912.5,842.5C 911.985,839.843 912.485,837.177 914,834.5C 917.319,829.017 921.486,824.351 926.5,820.5 Z"/></g>
<g><path style="opacity:1" fill="#8ee299" d="M 285.5,838.5 C 293.031,837.525 297.198,840.858 298,848.5C 299.508,858.12 300.175,867.787 300,877.5C 296.128,883.756 291.795,884.089 287,878.5C 285.181,866.473 283.848,854.473 283,842.5C 283.662,841.016 284.496,839.683 285.5,838.5 Z"/></g>
<g><path style="opacity:1" fill="#8ee299" d="M 255.5,851.5 C 258.187,851.336 260.854,851.503 263.5,852C 265.333,854.167 267.167,856.333 269,858.5C 270.99,863.813 273.99,868.48 278,872.5C 279.955,880.791 276.788,884.291 268.5,883C 262.251,876.271 257.084,868.771 253,860.5C 251.927,856.9 252.76,853.9 255.5,851.5 Z"/></g>
<g><path style="opacity:1" fill="#f3a8c4" d="M 1061.5,866.5 C 1069.08,866.239 1073.58,869.906 1075,877.5C 1076.9,890.437 1073.06,901.27 1063.5,910C 1054.64,916.121 1045.97,915.955 1037.5,909.5C 1023.54,922.745 1009.71,922.745 996,909.5C 991.057,898.941 991.391,888.608 997,878.5C 1001.17,871.883 1006.34,870.883 1012.5,875.5C 1014.38,879.843 1013.21,883.176 1009,885.5C 1002.98,901.813 1008.15,907.313 1024.5,902C 1025.78,897.103 1028.12,892.77 1031.5,889C 1033.83,888.333 1036.17,888.333 1038.5,889C 1041.78,892.279 1045.11,895.613 1048.5,899C 1054.6,898.92 1058.44,895.754 1060,889.5C 1061.07,883.85 1060.24,878.517 1057.5,873.5C 1058.07,870.687 1059.4,868.354 1061.5,866.5 Z"/></g>
<g><path style="opacity:1" fill="#fdfdfd" d="M 1486.5,877.5 C 1495.56,881.577 1504.9,884.744 1514.5,887C 1510.8,890.367 1507.46,894.034 1504.5,898C 1501.22,899.561 1498.38,901.727 1496,904.5C 1492.15,909.569 1488.31,914.569 1484.5,919.5C 1485.23,905.503 1485.89,891.503 1486.5,877.5 Z"/></g>
<g><path style="opacity:1" fill="#8ee299" d="M 574.5,916.5 C 578.308,916.163 581.974,916.663 585.5,918C 589.006,923.729 587.673,928.062 581.5,931C 574.535,933.485 567.869,936.485 561.5,940C 553.209,941.955 549.709,938.788 551,930.5C 554.768,927.036 558.934,924.203 563.5,922C 568.126,921.788 571.793,919.954 574.5,916.5 Z"/></g>
<g><path style="opacity:1" fill="#8ee299" d="M 585.5,934.5 C 593.609,933.074 597.109,936.407 596,944.5C 595.225,948.601 592.725,950.434 588.5,950C 582.34,954.045 576.007,957.712 569.5,961C 562.125,962.127 558.125,958.96 557.5,951.5C 557.613,949.026 558.613,947.026 560.5,945.5C 565.633,944.9 570.633,943.733 575.5,942C 578.475,938.715 581.808,936.215 585.5,934.5 Z"/></g>
<g><path style="opacity:1" fill="#fdfefd" d="M 359.5,961.5 C 362.518,961.335 365.518,961.502 368.5,962C 374.967,966.635 380.967,971.802 386.5,977.5C 388.984,975.517 391.317,973.35 393.5,971C 397.595,969.733 401.262,967.733 404.5,965C 427.435,959.032 436.268,967.532 431,990.5C 428.108,993.057 424.941,995.224 421.5,997C 415.037,999.274 408.371,1000.77 401.5,1001.5C 405.038,1013.2 402.371,1023.03 393.5,1031C 390.823,1031.25 388.49,1032.25 386.5,1034C 384.167,1034.67 381.833,1034.67 379.5,1034C 375.709,1031.87 372.209,1029.37 369,1026.5C 364.413,1029.94 359.246,1031.1 353.5,1030C 346.45,1022.91 346.95,1016.41 355,1010.5C 355.975,1006.75 357.475,1003.25 359.5,1000C 355.306,995.118 351.473,989.951 348,984.5C 345.297,975.334 347.797,968.167 355.5,963C 357.058,962.79 358.391,962.29 359.5,961.5 Z"/></g>
<g><path style="opacity:1" fill="#97e2a1" d="M 1572.5,1000.5 C 1580.16,999.666 1583.66,1003 1583,1010.5C 1578.87,1013.63 1575.03,1017.13 1571.5,1021C 1564.81,1022.62 1561.31,1020.12 1561,1013.5C 1563.98,1008.35 1567.82,1004.02 1572.5,1000.5 Z"/></g>
<g><path style="opacity:1" fill="#97e2a1" d="M 1583.5,1012.5 C 1590.99,1012.36 1593.82,1016.03 1592,1023.5C 1589.95,1028.21 1587.12,1032.38 1583.5,1036C 1575.21,1037.29 1572.05,1033.79 1574,1025.5C 1576.23,1020.45 1579.39,1016.11 1583.5,1012.5 Z"/></g>
<g><path style="opacity:1" fill="#98e2a2" d="M 1819.5,1009.5 C 1826.32,1009.82 1832.15,1012.49 1837,1017.5C 1837.5,1020.53 1837.33,1023.53 1836.5,1026.5C 1829.49,1028.92 1823.65,1027.25 1819,1021.5C 1819.51,1024.21 1820.34,1026.88 1821.5,1029.5C 1821.31,1036.1 1817.97,1038.6 1811.5,1037C 1806.04,1031.57 1803.54,1025.07 1804,1017.5C 1807.22,1013.1 1811.05,1012.44 1815.5,1015.5C 1816.84,1013.47 1818.18,1011.47 1819.5,1009.5 Z"/></g>
<g><path style="opacity:1" fill="#fefefe" d="M 1445.5,1027.5 C 1444.13,1043.51 1444.3,1059.51 1446,1075.5C 1448.84,1086.02 1450.84,1096.68 1452,1107.5C 1453.65,1111.79 1455.32,1116.12 1457,1120.5C 1457.8,1122.26 1457.63,1123.93 1456.5,1125.5C 1445.28,1130.61 1433.95,1135.44 1422.5,1140C 1395.23,1154.53 1366.89,1166.53 1337.5,1176C 1306.62,1189.77 1275.29,1202.44 1243.5,1214C 1236.5,1218 1229.16,1221.17 1221.5,1223.5C 1208.13,1203.74 1190.47,1199.07 1168.5,1209.5C 1164.51,1200.85 1160.01,1192.51 1155,1184.5C 1153.32,1182.65 1151.48,1180.98 1149.5,1179.5C 1171.96,1176.25 1194.46,1173.25 1217,1170.5C 1238.66,1165.71 1260.16,1160.21 1281.5,1154C 1283,1152.84 1284.5,1151.67 1286,1150.5C 1313.5,1139.84 1339,1125.67 1362.5,1108C 1376.62,1094.21 1391.62,1081.54 1407.5,1070C 1421,1056.42 1433.67,1042.25 1445.5,1027.5 Z"/></g>
<g><path style="opacity:1" fill="#fefefe" d="M 677.5,1087.5 C 676.859,1088.48 676.193,1089.48 675.5,1090.5C 679.985,1094.48 684.318,1098.65 688.5,1103C 694.444,1105.76 699.777,1109.43 704.5,1114C 712.606,1118.04 720.273,1122.54 727.5,1127.5C 746.743,1136.96 766.076,1146.12 785.5,1155C 791.313,1155.26 796.313,1157.26 800.5,1161C 812.044,1165.07 823.711,1168.74 835.5,1172C 866.364,1178.36 897.364,1183.69 928.5,1188C 928.833,1188.33 929.167,1188.67 929.5,1189C 916.801,1198.52 907.801,1210.68 902.5,1225.5C 889.111,1220.2 875.445,1219.37 861.5,1223C 850.19,1227.47 842.523,1235.31 838.5,1246.5C 824.155,1242.11 809.821,1237.61 795.5,1233C 765.833,1222 736.167,1211 706.5,1200C 696.562,1195.03 686.562,1190.03 676.5,1185C 662.424,1181.87 649.924,1175.71 639,1166.5C 631.626,1154.4 624.293,1142.4 617,1130.5C 613.394,1126.92 610.561,1122.92 608.5,1118.5C 613.833,1118.07 619.166,1117.57 624.5,1117C 637.149,1111.03 649.816,1105.03 662.5,1099C 666.84,1094.18 671.84,1090.35 677.5,1087.5 Z"/></g>
<g><path style="opacity:1" fill="#fefefe" d="M 1800.5,1168.5 C 1814.99,1169.5 1829.66,1169.83 1844.5,1169.5C 1844.01,1185.58 1849.01,1199.58 1859.5,1211.5C 1854.61,1216.29 1850.44,1221.62 1847,1227.5C 1845.7,1243.68 1846.7,1259.68 1850,1275.5C 1853.14,1281.94 1856.97,1287.77 1861.5,1293C 1858.46,1299.06 1854.96,1304.89 1851,1310.5C 1843.84,1325.59 1842.51,1341.25 1847,1357.5C 1852.63,1368.42 1859.97,1378.09 1869,1386.5C 1869.74,1389.78 1869.08,1392.78 1867,1395.5C 1850,1409.83 1845.33,1427.5 1853,1448.5C 1856.77,1455.93 1860.93,1463.09 1865.5,1470C 1860,1473.92 1854.34,1477.58 1848.5,1481C 1843.95,1484.89 1840.11,1489.39 1837,1494.5C 1836.33,1503.5 1836.33,1512.5 1837,1521.5C 1839.51,1527.84 1843.35,1533.17 1848.5,1537.5C 1839.91,1541.92 1833.08,1548.26 1828,1556.5C 1826,1561.84 1824,1567.18 1822,1572.5C 1820.99,1579.16 1821.49,1585.66 1823.5,1592C 1816.69,1596.24 1809.69,1600.24 1802.5,1604C 1797.59,1609.19 1792.92,1614.52 1788.5,1620C 1784.5,1620.67 1780.5,1620.67 1776.5,1620C 1751.48,1602.13 1724.48,1598.46 1695.5,1609C 1690.5,1612 1685.5,1615 1680.5,1618C 1674.26,1625.92 1666.26,1630.92 1656.5,1633C 1651.41,1633.25 1646.41,1632.58 1641.5,1631C 1634.41,1626.93 1627.08,1623.26 1619.5,1620C 1596.15,1618.11 1573.15,1620.11 1550.5,1626C 1535.34,1631.27 1520.34,1636.94 1505.5,1643C 1498.66,1643.96 1492,1643.29 1485.5,1641C 1466.69,1628.17 1446.02,1619.84 1423.5,1616C 1422.94,1615.62 1422.61,1615.12 1422.5,1614.5C 1428.7,1615.77 1433.7,1613.93 1437.5,1609C 1438.45,1608.52 1439.45,1608.35 1440.5,1608.5C 1442.19,1614.37 1446.19,1617.37 1452.5,1617.5C 1457.37,1617.21 1461.71,1615.54 1465.5,1612.5C 1471.63,1615.18 1477.46,1614.51 1483,1610.5C 1487.74,1614.43 1492.4,1614.43 1497,1610.5C 1497.67,1607.83 1497.67,1605.17 1497,1602.5C 1487.7,1595.25 1481.37,1585.92 1478,1574.5C 1470.38,1568.29 1465.05,1569.96 1462,1579.5C 1461.51,1570.67 1457.01,1566.5 1448.5,1567C 1444.96,1570.58 1442.29,1574.75 1440.5,1579.5C 1439.12,1575.91 1437.96,1572.24 1437,1568.5C 1430.55,1562.41 1425.55,1563.41 1422,1571.5C 1418.77,1583.55 1413.11,1594.22 1405,1603.5C 1403.99,1611.48 1407.49,1615.15 1415.5,1614.5C 1406.12,1614.85 1396.79,1616.35 1387.5,1619C 1374.58,1624.53 1361.58,1629.86 1348.5,1635C 1342.17,1635.67 1335.83,1635.67 1329.5,1635C 1318.66,1629.08 1307.66,1623.41 1296.5,1618C 1285.16,1614.82 1274.16,1610.82 1263.5,1606C 1243.52,1600.17 1223.52,1600.17 1203.5,1606C 1173.59,1615.28 1144.26,1626.28 1115.5,1639C 1103.29,1642.63 1091.29,1641.96 1079.5,1637C 1061.82,1627 1043.49,1618.33 1024.5,1611C 1006.41,1609.9 988.411,1610.57 970.5,1613C 959.239,1616.96 949.239,1622.96 940.5,1631C 927.255,1639.15 912.922,1641.82 897.5,1639C 893.653,1637.38 889.653,1636.38 885.5,1636C 874.375,1630.6 863.375,1624.94 852.5,1619C 843.527,1615.96 834.36,1613.8 825,1612.5C 811.232,1612.4 798.732,1616.23 787.5,1624C 777.132,1634.35 765.132,1642.35 751.5,1648C 747.095,1648.7 742.761,1648.36 738.5,1647C 723.38,1640.12 710.046,1630.78 698.5,1619C 679.182,1606.71 659.515,1606.37 639.5,1618C 632.874,1622.96 626.54,1628.29 620.5,1634C 617.446,1636.19 614.112,1637.86 610.5,1639C 602.089,1639.91 593.755,1639.57 585.5,1638C 577.557,1633.06 569.891,1627.72 562.5,1622C 557.167,1619.33 551.833,1616.67 546.5,1614C 536.096,1611.84 525.762,1612.17 515.5,1615C 494.952,1622.77 475.285,1632.44 456.5,1644C 452.167,1644.67 447.833,1644.67 443.5,1644C 426.822,1638 410.156,1632 393.5,1626C 381.806,1622.21 369.973,1619.04 358,1616.5C 342.603,1617.95 328.437,1622.95 315.5,1631.5C 314.959,1629.48 315.459,1627.48 317,1625.5C 319.514,1618.15 318.848,1611.15 315,1604.5C 308.927,1597.36 303.594,1589.69 299,1581.5C 285.955,1567.26 269.788,1561.09 250.5,1563C 235.84,1567 221.84,1572.66 208.5,1580C 203.748,1582.75 199.581,1586.25 196,1590.5C 188.01,1582.22 178.176,1577.88 166.5,1577.5C 167.932,1574.33 168.599,1571 168.5,1567.5C 168.234,1550.77 164.067,1535.1 156,1520.5C 155.07,1514 155.736,1507.66 158,1501.5C 163.159,1495.18 167.826,1488.52 172,1481.5C 174.751,1469.37 172.084,1458.71 164,1449.5C 157.539,1444.05 152.206,1437.71 148,1430.5C 147.106,1422.67 147.773,1415 150,1407.5C 153.39,1395.73 157.056,1384.06 161,1372.5C 162.019,1363.72 163.686,1355.05 166,1346.5C 166.5,1339.84 166.666,1333.17 166.5,1326.5C 178.314,1324.39 190.314,1322.89 202.5,1322C 205.678,1321.34 208.678,1320.51 211.5,1319.5C 220.071,1316.15 228.905,1313.48 238,1311.5C 250.043,1304.55 261.543,1296.72 272.5,1288C 288.629,1273.62 303.296,1257.79 316.5,1240.5C 323.825,1269.07 335.658,1295.73 352,1320.5C 352.913,1326.99 355.913,1332.33 361,1336.5C 362.859,1342.22 366.193,1346.89 371,1350.5C 378.034,1361.54 386.534,1371.37 396.5,1380C 402.425,1383.26 407.758,1387.26 412.5,1392C 417.528,1394.08 422.195,1396.75 426.5,1400C 433.037,1402.21 439.371,1404.88 445.5,1408C 450.167,1409 454.833,1410 459.5,1411C 479.861,1411.88 500.195,1411.55 520.5,1410C 529.151,1407.67 537.817,1405.34 546.5,1403C 550.781,1399.07 555.781,1396.4 561.5,1395C 563.732,1392.05 566.732,1390.38 570.5,1390C 582.045,1381.6 593.045,1372.76 603.5,1363.5C 622.402,1345.66 636.235,1324.66 645,1300.5C 653.928,1284.73 659.928,1267.73 663,1249.5C 663.549,1235.34 662.215,1221.34 659,1207.5C 657.387,1201.88 655.22,1196.55 652.5,1191.5C 658.215,1194.35 664.215,1196.52 670.5,1198C 681.167,1203.33 691.833,1208.67 702.5,1214C 746.979,1230.83 791.813,1246.66 837,1261.5C 838.07,1261.47 838.903,1261.14 839.5,1260.5C 846.85,1272.65 856.183,1283.15 867.5,1292C 879.686,1298.42 892.352,1303.76 905.5,1308C 906.333,1308.83 907.167,1309.67 908,1310.5C 911.269,1321.04 916.602,1330.37 924,1338.5C 933.583,1351.42 945.083,1362.25 958.5,1371C 955.238,1373.59 952.738,1376.76 951,1380.5C 943.352,1398.8 948.186,1412.3 965.5,1421C 982.375,1423.15 996.209,1417.65 1007,1404.5C 1011.39,1398.87 1012.23,1392.87 1009.5,1386.5C 1022.81,1386.1 1036.14,1386.1 1049.5,1386.5C 1050.15,1390.8 1051.65,1394.8 1054,1398.5C 1061.83,1409.13 1072.33,1413.46 1085.5,1411.5C 1084.58,1415.59 1082.08,1418.25 1078,1419.5C 1076.83,1427.67 1080.33,1431.17 1088.5,1430C 1090.3,1429.03 1091.97,1427.86 1093.5,1426.5C 1095.24,1428.85 1097.57,1429.85 1100.5,1429.5C 1105.45,1429.07 1110.45,1428.9 1115.5,1429C 1117.46,1428.05 1119.12,1426.71 1120.5,1425C 1126.03,1424.29 1131.53,1424.45 1137,1425.5C 1140.74,1423.75 1144.58,1422.08 1148.5,1420.5C 1150.97,1417.33 1151.14,1413.99 1149,1410.5C 1145.6,1408.81 1142.1,1407.31 1138.5,1406C 1137.19,1403.43 1135.53,1401.09 1133.5,1399C 1127.18,1395.81 1123.01,1397.64 1121,1404.5C 1119.34,1399.33 1115.84,1396.66 1110.5,1396.5C 1114.35,1393.45 1116.85,1389.45 1118,1384.5C 1118.68,1377.05 1118.35,1369.72 1117,1362.5C 1118.83,1361.33 1120.67,1360.17 1122.5,1359C 1132.37,1348.16 1142.54,1337.66 1153,1327.5C 1159.06,1314.55 1165.23,1301.72 1171.5,1289C 1190.99,1282.17 1208.49,1272 1224,1258.5C 1227.14,1251.88 1228.31,1244.88 1227.5,1237.5C 1239.35,1231.74 1251.35,1226.24 1263.5,1221C 1305.42,1204.47 1347.42,1188.14 1389.5,1172C 1413.36,1159.74 1437.69,1148.57 1462.5,1138.5C 1467.65,1146.8 1472.82,1155.13 1478,1163.5C 1484.79,1171.96 1491.96,1180.13 1499.5,1188C 1514.4,1199.45 1531.07,1207.12 1549.5,1211C 1560.5,1211.67 1571.5,1211.67 1582.5,1211C 1601.53,1207.15 1619.53,1200.49 1636.5,1191C 1648.83,1182.67 1661.17,1174.33 1673.5,1166C 1695.77,1149.89 1714.44,1130.39 1729.5,1107.5C 1735.16,1120.99 1742.5,1133.49 1751.5,1145C 1764.96,1158.66 1781.3,1166.5 1800.5,1168.5 Z"/></g>
<g><path style="opacity:1" fill="#8ee299" d="M 168.5,1110.5 C 172.182,1110.33 175.848,1110.5 179.5,1111C 182.886,1114.37 183.386,1118.21 181,1122.5C 171.01,1125.74 162.177,1130.91 154.5,1138C 146.164,1139.33 142.997,1135.83 145,1127.5C 147.739,1124.88 150.573,1122.38 153.5,1120C 158.903,1117.31 163.903,1114.14 168.5,1110.5 Z"/></g>
<g><path style="opacity:1" fill="#8de299" d="M 181.5,1135.5 C 189.791,1134.94 192.958,1138.61 191,1146.5C 186.806,1150.69 182.64,1154.86 178.5,1159C 176.051,1159.72 173.717,1160.72 171.5,1162C 162.721,1163.89 159.221,1160.39 161,1151.5C 164.297,1148.43 168.131,1146.27 172.5,1145C 175.367,1141.64 178.367,1138.47 181.5,1135.5 Z"/></g>
<g><path style="opacity:0.987" fill="#c5e2c9" d="M 1869.5,1163.5 C 1867.95,1165.94 1866.95,1168.61 1866.5,1171.5C 1868.15,1177.11 1869.65,1182.78 1871,1188.5C 1874.35,1192.85 1878.35,1196.51 1883,1199.5C 1886.88,1206.44 1887.55,1213.78 1885,1221.5C 1879.43,1225.06 1874.43,1229.39 1870,1234.5C 1869.35,1245.19 1869.68,1255.86 1871,1266.5C 1876.13,1271.62 1880.46,1277.29 1884,1283.5C 1884.67,1289.5 1884.67,1295.5 1884,1301.5C 1879.33,1309.5 1874.67,1317.5 1870,1325.5C 1865.49,1334.97 1865.83,1344.31 1871,1353.5C 1876.63,1360.79 1882.63,1367.79 1889,1374.5C 1894.62,1387.23 1893.29,1399.23 1885,1410.5C 1881.67,1413.83 1878.33,1417.17 1875,1420.5C 1871.77,1427.49 1871.77,1434.49 1875,1441.5C 1879.67,1448.83 1884.33,1456.17 1889,1463.5C 1890.79,1473.79 1887.62,1482.29 1879.5,1489C 1872.42,1492.91 1865.76,1497.41 1859.5,1502.5C 1858.39,1506.78 1858.23,1511.11 1859,1515.5C 1865.06,1517.91 1871.22,1520.08 1877.5,1522C 1879.79,1524.07 1881.45,1526.57 1882.5,1529.5C 1895.06,1532.9 1904.56,1540.23 1911,1551.5C 1914.33,1559.5 1917.67,1567.5 1921,1575.5C 1921.98,1577.74 1922.48,1580.07 1922.5,1582.5C 1935.34,1580.2 1945.17,1584.54 1952,1595.5C 1958.53,1610.24 1960.2,1625.57 1957,1641.5C 1951.41,1650.34 1946.08,1659.34 1941,1668.5C 1931.41,1684.55 1917.24,1692.05 1898.5,1691C 1891.67,1702.83 1882,1711.5 1869.5,1717C 1859.36,1722.29 1848.7,1724.63 1837.5,1724C 1826.62,1719.77 1817.45,1713.27 1810,1704.5C 1808.7,1701.85 1807.37,1699.19 1806,1696.5C 1802.72,1681.94 1805.89,1669.1 1815.5,1658C 1808.05,1654.22 1802.22,1648.72 1798,1641.5C 1796.93,1642.19 1795.77,1642.69 1794.5,1643C 1786.83,1643.67 1779.17,1643.67 1771.5,1643C 1762.37,1638.6 1753.37,1633.94 1744.5,1629C 1726.54,1623.88 1709.87,1626.55 1694.5,1637C 1686.59,1644.92 1677.59,1651.25 1667.5,1656C 1648.18,1658.17 1630.51,1653.84 1614.5,1643C 1594.51,1641.85 1574.85,1643.85 1555.5,1649C 1540.39,1654.39 1525.39,1660.06 1510.5,1666C 1496.8,1668.18 1483.8,1666.18 1471.5,1660C 1453.75,1647.8 1434.08,1640.63 1412.5,1638.5C 1407.06,1638.62 1401.72,1639.46 1396.5,1641C 1381.9,1646.87 1367.23,1652.53 1352.5,1658C 1343.5,1658.67 1334.5,1658.67 1325.5,1658C 1321.73,1656.95 1318.07,1655.62 1314.5,1654C 1306.3,1649.07 1297.96,1644.4 1289.5,1640C 1278.14,1636.99 1267.14,1632.99 1256.5,1628C 1244.71,1624.15 1232.71,1623.48 1220.5,1626C 1186.54,1636.31 1153.21,1648.31 1120.5,1662C 1105,1664.49 1089.67,1663.82 1074.5,1660C 1056.51,1651.34 1038.51,1642.67 1020.5,1634C 1005.09,1633.02 989.756,1633.69 974.5,1636C 966.344,1639.83 959.011,1644.83 952.5,1651C 945.621,1654.61 938.621,1657.94 931.5,1661C 907.745,1665.43 885.079,1662.43 863.5,1652C 852.008,1643.34 839.174,1637.84 825,1635.5C 816.911,1635.45 809.411,1637.62 802.5,1642C 789.072,1654.09 774.072,1663.76 757.5,1671C 743.945,1673.15 731.278,1670.82 719.5,1664C 713.335,1659.75 707.002,1655.75 700.5,1652C 692.317,1642.42 682.317,1635.58 670.5,1631.5C 663.939,1632.96 657.606,1635.13 651.5,1638C 643.833,1644.33 636.167,1650.67 628.5,1657C 624.268,1658.95 619.934,1660.62 615.5,1662C 603.442,1662.91 591.442,1662.58 579.5,1661C 566.943,1654.25 554.943,1646.59 543.5,1638C 537.027,1635.03 530.36,1634.7 523.5,1637C 517.089,1640.2 510.422,1642.87 503.5,1645C 489.46,1652.4 475.46,1659.73 461.5,1667C 454.167,1667.67 446.833,1667.67 439.5,1667C 412.842,1656.9 385.842,1647.73 358.5,1639.5C 346.006,1641.72 334.506,1646.39 324,1653.5C 321.057,1657.74 321.057,1662.08 324,1666.5C 329.314,1691.57 322.147,1712.07 302.5,1728C 292.742,1733.14 283.075,1738.48 273.5,1744C 263.583,1748.86 253.25,1752.53 242.5,1755C 230.126,1755.56 219.96,1751.06 212,1741.5C 197.257,1757.39 179.09,1763.56 157.5,1760C 150.245,1757.71 143.912,1753.87 138.5,1748.5C 134.773,1743.28 131.273,1737.95 128,1732.5C 122.962,1715.51 121.296,1698.17 123,1680.5C 124.5,1676.67 126,1672.83 127.5,1669C 124.382,1664.88 120.882,1661.05 117,1657.5C 106.738,1642.12 104.738,1625.79 111,1608.5C 115.806,1601.73 120.972,1595.23 126.5,1589C 130.525,1585.66 134.858,1582.82 139.5,1580.5C 141.305,1576.21 143.305,1572.04 145.5,1568C 144.366,1553.31 140.199,1539.47 133,1526.5C 130.696,1510.15 134.029,1495.15 143,1481.5C 149.013,1477.83 150.68,1472.83 148,1466.5C 139.856,1459.69 133.189,1451.69 128,1442.5C 127.138,1440.91 126.471,1439.25 126,1437.5C 124.942,1424.73 125.609,1412.06 128,1399.5C 130.97,1389.1 134.47,1378.94 138.5,1369C 137.398,1366.6 137.231,1364.1 138,1361.5C 142.846,1349.63 144.679,1337.3 143.5,1324.5C 143.917,1323.88 144.584,1323.54 145.5,1323.5C 151.489,1324.22 157.489,1324.88 163.5,1325.5C 179.436,1322.96 195.436,1320.96 211.5,1319.5C 208.678,1320.51 205.678,1321.34 202.5,1322C 190.314,1322.89 178.314,1324.39 166.5,1326.5C 166.666,1333.17 166.5,1339.84 166,1346.5C 163.686,1355.05 162.019,1363.72 161,1372.5C 157.056,1384.06 153.39,1395.73 150,1407.5C 147.773,1415 147.106,1422.67 148,1430.5C 152.206,1437.71 157.539,1444.05 164,1449.5C 172.084,1458.71 174.751,1469.37 172,1481.5C 167.826,1488.52 163.159,1495.18 158,1501.5C 155.736,1507.66 155.07,1514 156,1520.5C 164.067,1535.1 168.234,1550.77 168.5,1567.5C 168.599,1571 167.932,1574.33 166.5,1577.5C 178.176,1577.88 188.01,1582.22 196,1590.5C 199.581,1586.25 203.748,1582.75 208.5,1580C 221.84,1572.66 235.84,1567 250.5,1563C 269.788,1561.09 285.955,1567.26 299,1581.5C 303.594,1589.69 308.927,1597.36 315,1604.5C 318.848,1611.15 319.514,1618.15 317,1625.5C 315.459,1627.48 314.959,1629.48 315.5,1631.5C 328.437,1622.95 342.603,1617.95 358,1616.5C 369.973,1619.04 381.806,1622.21 393.5,1626C 410.156,1632 426.822,1638 443.5,1644C 447.833,1644.67 452.167,1644.67 456.5,1644C 475.285,1632.44 494.952,1622.77 515.5,1615C 525.762,1612.17 536.096,1611.84 546.5,1614C 551.833,1616.67 557.167,1619.33 562.5,1622C 569.891,1627.72 577.557,1633.06 585.5,1638C 593.755,1639.57 602.089,1639.91 610.5,1639C 614.112,1637.86 617.446,1636.19 620.5,1634C 626.54,1628.29 632.874,1622.96 639.5,1618C 659.515,1606.37 679.182,1606.71 698.5,1619C 710.046,1630.78 723.38,1640.12 738.5,1647C 742.761,1648.36 747.095,1648.7 751.5,1648C 765.132,1642.35 777.132,1634.35 787.5,1624C 798.732,1616.23 811.232,1612.4 825,1612.5C 834.36,1613.8 843.527,1615.96 852.5,1619C 863.375,1624.94 874.375,1630.6 885.5,1636C 889.653,1636.38 893.653,1637.38 897.5,1639C 912.922,1641.82 927.255,1639.15 940.5,1631C 949.239,1622.96 959.239,1616.96 970.5,1613C 988.411,1610.57 1006.41,1609.9 1024.5,1611C 1043.49,1618.33 1061.82,1627 1079.5,1637C 1091.29,1641.96 1103.29,1642.63 1115.5,1639C 1144.26,1626.28 1173.59,1615.28 1203.5,1606C 1223.52,1600.17 1243.52,1600.17 1263.5,1606C 1274.16,1610.82 1285.16,1614.82 1296.5,1618C 1307.66,1623.41 1318.66,1629.08 1329.5,1635C 1335.83,1635.67 1342.17,1635.67 1348.5,1635C 1361.58,1629.86 1374.58,1624.53 1387.5,1619C 1396.79,1616.35 1406.12,1614.85 1415.5,1614.5C 1417.83,1614.5 1420.17,1614.5 1422.5,1614.5C 1422.61,1615.12 1422.94,1615.62 1423.5,1616C 1446.02,1619.84 1466.69,1628.17 1485.5,1641C 1492,1643.29 1498.66,1643.96 1505.5,1643C 1520.34,1636.94 1535.34,1631.27 1550.5,1626C 1573.15,1620.11 1596.15,1618.11 1619.5,1620C 1627.08,1623.26 1634.41,1626.93 1641.5,1631C 1646.41,1632.58 1651.41,1633.25 1656.5,1633C 1666.26,1630.92 1674.26,1625.92 1680.5,1618C 1685.5,1615 1690.5,1612 1695.5,1609C 1724.48,1598.46 1751.48,1602.13 1776.5,1620C 1780.5,1620.67 1784.5,1620.67 1788.5,1620C 1792.92,1614.52 1797.59,1609.19 1802.5,1604C 1809.69,1600.24 1816.69,1596.24 1823.5,1592C 1821.49,1585.66 1820.99,1579.16 1822,1572.5C 1824,1567.18 1826,1561.84 1828,1556.5C 1833.08,1548.26 1839.91,1541.92 1848.5,1537.5C 1843.35,1533.17 1839.51,1527.84 1837,1521.5C 1836.33,1512.5 1836.33,1503.5 1837,1494.5C 1840.11,1489.39 1843.95,1484.89 1848.5,1481C 1854.34,1477.58 1860,1473.92 1865.5,1470C 1860.93,1463.09 1856.77,1455.93 1853,1448.5C 1845.33,1427.5 1850,1409.83 1867,1395.5C 1869.08,1392.78 1869.74,1389.78 1869,1386.5C 1859.97,1378.09 1852.63,1368.42 1847,1357.5C 1842.51,1341.25 1843.84,1325.59 1851,1310.5C 1854.96,1304.89 1858.46,1299.06 1861.5,1293C 1856.97,1287.77 1853.14,1281.94 1850,1275.5C 1846.7,1259.68 1845.7,1243.68 1847,1227.5C 1850.44,1221.62 1854.61,1216.29 1859.5,1211.5C 1849.01,1199.58 1844.01,1185.58 1844.5,1169.5C 1829.66,1169.83 1814.99,1169.5 1800.5,1168.5C 1816.84,1168.67 1833.17,1168.5 1849.5,1168C 1856.02,1165.87 1862.69,1164.37 1869.5,1163.5 Z"/></g>
<g><path style="opacity:1" fill="#c9e9ce" d="M 652.5,1191.5 C 655.22,1196.55 657.387,1201.88 659,1207.5C 662.215,1221.34 663.549,1235.34 663,1249.5C 659.928,1267.73 653.928,1284.73 645,1300.5C 636.235,1324.66 622.402,1345.66 603.5,1363.5C 610.432,1354.73 617.598,1346.06 625,1337.5C 640.841,1310.86 652.341,1282.19 659.5,1251.5C 659.167,1250.83 658.833,1250.17 658.5,1249.5C 659.922,1244.61 660.588,1239.77 660.5,1235C 658.51,1221.24 655.51,1207.41 651.5,1193.5C 651.543,1192.58 651.876,1191.92 652.5,1191.5 Z"/></g>
<g><path style="opacity:1" fill="#8ee299" d="M 483.5,1221.5 C 485.857,1221.34 488.19,1221.5 490.5,1222C 494.604,1226.45 497.437,1231.61 499,1237.5C 501.302,1241.73 503.969,1245.73 507,1249.5C 508.257,1257.91 504.757,1261.08 496.5,1259C 494.714,1258.22 493.214,1257.05 492,1255.5C 488.763,1247.36 484.763,1239.69 480,1232.5C 478.662,1227.96 479.829,1224.29 483.5,1221.5 Z"/></g>
<g><path style="opacity:1" fill="#fdf6f6" d="M 858.5,1226.5 C 860.144,1226.29 861.644,1226.62 863,1227.5C 865.751,1230.72 867.251,1234.39 867.5,1238.5C 865.61,1238.7 864.11,1238.04 863,1236.5C 860.65,1233.47 859.15,1230.14 858.5,1226.5 Z"/></g>
<g><path style="opacity:1" fill="#8ee299" d="M 459.5,1228.5 C 464.874,1227.94 469.041,1229.94 472,1234.5C 473.572,1238.64 475.905,1242.31 479,1245.5C 481.306,1255 477.806,1258.5 468.5,1256C 461.376,1249.26 457.543,1241.09 457,1231.5C 458.045,1230.63 458.878,1229.63 459.5,1228.5 Z"/></g>
<g><path style="opacity:1" fill="#fdf8f8" d="M 845.5,1238.5 C 849.474,1239.62 853.14,1241.45 856.5,1244C 857.337,1245.01 857.67,1246.18 857.5,1247.5C 853.771,1247.42 850.438,1246.26 847.5,1244C 845.845,1242.56 845.178,1240.72 845.5,1238.5 Z"/></g>
<g><path style="opacity:1" fill="#fefefe" d="M 1027.5,1244.5 C 1045.14,1244.32 1057.3,1252.32 1064,1268.5C 1066.36,1292.83 1055.52,1307.66 1031.5,1313C 1022.97,1314.57 1014.97,1313.24 1007.5,1309C 1001.22,1302.28 996.056,1294.78 992,1286.5C 990.56,1277.06 991.894,1268.06 996,1259.5C 1001.58,1253.63 1008.08,1249.13 1015.5,1246C 1019.69,1245.82 1023.69,1245.32 1027.5,1244.5 Z"/></g>
<g><path style="opacity:1" fill="#bae2bf" d="M 1586.5,1364.5 C 1592.14,1364.57 1595.97,1367.24 1598,1372.5C 1599.27,1369.36 1601.6,1367.7 1605,1367.5C 1610.01,1371.14 1615.51,1373.98 1621.5,1376C 1623.91,1379.04 1624.07,1382.21 1622,1385.5C 1618.81,1387.62 1615.31,1388.95 1611.5,1389.5C 1610.7,1392.13 1609.03,1393.97 1606.5,1395C 1600.99,1394.71 1595.99,1396.04 1591.5,1399C 1586.83,1399.67 1582.17,1399.67 1577.5,1399C 1575.71,1398.22 1574.21,1397.05 1573,1395.5C 1567.57,1401.13 1562.91,1400.79 1559,1394.5C 1558.33,1392.83 1558.33,1391.17 1559,1389.5C 1562.92,1383.33 1566.59,1377 1570,1370.5C 1570.83,1369.67 1571.67,1368.83 1572.5,1368C 1575.88,1367.63 1579.21,1367.63 1582.5,1368C 1583.73,1366.6 1585.06,1365.43 1586.5,1364.5 Z"/></g>
<g><path style="opacity:1" fill="#bae2bf" d="M 1110.5,1396.5 C 1115.84,1396.66 1119.34,1399.33 1121,1404.5C 1123.01,1397.64 1127.18,1395.81 1133.5,1399C 1135.53,1401.09 1137.19,1403.43 1138.5,1406C 1142.1,1407.31 1145.6,1408.81 1149,1410.5C 1151.14,1413.99 1150.97,1417.33 1148.5,1420.5C 1144.58,1422.08 1140.74,1423.75 1137,1425.5C 1131.53,1424.45 1126.03,1424.29 1120.5,1425C 1119.12,1426.71 1117.46,1428.05 1115.5,1429C 1110.45,1428.9 1105.45,1429.07 1100.5,1429.5C 1097.57,1429.85 1095.24,1428.85 1093.5,1426.5C 1091.97,1427.86 1090.3,1429.03 1088.5,1430C 1080.33,1431.17 1076.83,1427.67 1078,1419.5C 1082.08,1418.25 1084.58,1415.59 1085.5,1411.5C 1094.23,1407.3 1102.56,1402.3 1110.5,1396.5 Z"/></g>
<g><path style="opacity:1" fill="#bae2bf" d="M 605.5,1484.5 C 608.425,1484.46 611.091,1485.29 613.5,1487C 617.613,1494.45 623.613,1499.78 631.5,1503C 635.241,1506.29 639.075,1509.45 643,1512.5C 643.709,1518.38 641.042,1521.71 635,1522.5C 631.761,1521.71 628.761,1520.38 626,1518.5C 620.756,1522.17 615.256,1522.5 609.5,1519.5C 602.565,1520.98 595.565,1522.14 588.5,1523C 584.033,1527.14 579.367,1527.48 574.5,1524C 568.804,1523.17 563.137,1523.34 557.5,1524.5C 551.439,1533.28 544.272,1534.61 536,1528.5C 535.333,1526.17 535.333,1523.83 536,1521.5C 539,1520.17 542,1518.83 545,1517.5C 549.469,1510.23 553.135,1502.56 556,1494.5C 557.5,1493 559,1491.5 560.5,1490C 566.409,1491.41 572.409,1491.74 578.5,1491C 579.966,1491.64 581.3,1492.47 582.5,1493.5C 585.794,1490.26 589.461,1489.76 593.5,1492C 595.7,1494.23 597.533,1496.73 599,1499.5C 598.073,1492.99 600.24,1487.99 605.5,1484.5 Z"/></g>
<g><path style="opacity:1" fill="#b9e2be" d="M 1422.5,1614.5 C 1420.17,1614.5 1417.83,1614.5 1415.5,1614.5C 1407.49,1615.15 1403.99,1611.48 1405,1603.5C 1413.11,1594.22 1418.77,1583.55 1422,1571.5C 1425.55,1563.41 1430.55,1562.41 1437,1568.5C 1437.96,1572.24 1439.12,1575.91 1440.5,1579.5C 1442.29,1574.75 1444.96,1570.58 1448.5,1567C 1457.01,1566.5 1461.51,1570.67 1462,1579.5C 1465.05,1569.96 1470.38,1568.29 1478,1574.5C 1481.37,1585.92 1487.7,1595.25 1497,1602.5C 1497.67,1605.17 1497.67,1607.83 1497,1610.5C 1492.4,1614.43 1487.74,1614.43 1483,1610.5C 1477.46,1614.51 1471.63,1615.18 1465.5,1612.5C 1461.71,1615.54 1457.37,1617.21 1452.5,1617.5C 1446.19,1617.37 1442.19,1614.37 1440.5,1608.5C 1439.45,1608.35 1438.45,1608.52 1437.5,1609C 1433.7,1613.93 1428.7,1615.77 1422.5,1614.5 Z"/></g>
</svg>
