<?xml version="1.0" encoding="UTF-8"?>
<!DOCTYPE svg PUBLIC "-//W3C//DTD SVG 1.1//EN" "http://www.w3.org/Graphics/SVG/1.1/DTD/svg11.dtd">
<svg xmlns="http://www.w3.org/2000/svg" version="1.1" width="2048px" height="2732px" style="shape-rendering:geometricPrecision; text-rendering:geometricPrecision; image-rendering:optimizeQuality; fill-rule:evenodd; clip-rule:evenodd" xmlns:xlink="http://www.w3.org/1999/xlink">
<g><path style="opacity:0.004" fill="#feff00" d="M 675.5,148.5 C 675.897,147.475 676.563,147.308 677.5,148C 676.906,148.464 676.239,148.631 675.5,148.5 Z"/></g>
<g><path style="opacity:0.004" fill="#feff00" d="M 675.5,148.5 C 674.833,149.167 674.833,149.167 675.5,148.5 Z"/></g>
<g><path style="opacity:0.985" fill="#fffe54" d="M 1699.5,335.5 C 1696.49,334.439 1693.49,333.273 1690.5,332C 1683.5,327.5 1676.5,323 1669.5,318.5C 1663.36,325.439 1658.19,333.106 1654,341.5C 1649.95,346.427 1645.78,351.26 1641.5,356C 1632.74,360.056 1627.24,357.556 1625,348.5C 1624.03,333.514 1623.53,318.514 1623.5,303.5C 1608.96,306.243 1594.29,307.076 1579.5,306C 1575.03,304.357 1571.2,301.857 1568,298.5C 1567.33,293.5 1567.33,288.5 1568,283.5C 1571.91,275.333 1576.58,267.667 1582,260.5C 1584.28,253.818 1586.45,247.151 1588.5,240.5C 1590.91,233.582 1593.08,226.582 1595,219.5C 1607.18,195.294 1622.68,173.461 1641.5,154C 1646.84,152.466 1651.34,153.633 1655,157.5C 1658.78,165.506 1661.78,173.84 1664,182.5C 1668.52,190.69 1674.19,198.023 1681,204.5C 1682.92,208.017 1684.59,211.684 1686,215.5C 1696.68,212.039 1707.68,210.705 1719,211.5C 1729.62,211.18 1740.12,212.014 1750.5,214C 1755.08,217.31 1756.58,221.81 1755,227.5C 1753.93,230.242 1752.43,232.742 1750.5,235C 1739.39,242.892 1727.39,249.225 1714.5,254C 1712.91,255.046 1711.41,256.213 1710,257.5C 1712.9,274.775 1715.9,292.108 1719,309.5C 1719.67,316.5 1719.67,323.5 1719,330.5C 1717.66,333.094 1715.49,334.594 1712.5,335C 1708.18,335.499 1703.85,335.666 1699.5,335.5 Z"/></g>
<g><path style="opacity:0.004" fill="#3c3c3c" d="M 48.5,166.5 C 50.6456,166.696 50.8122,167.696 49,169.5C 48.5172,168.552 48.3505,167.552 48.5,166.5 Z"/></g>
<g><path style="opacity:0.979" fill="#fffe54" d="M 386.5,304.5 C 386.389,305.117 386.056,305.617 385.5,306C 396.065,319.129 403.732,333.796 408.5,350C 408.417,354.749 406.084,357.749 401.5,359C 393.5,359.667 385.5,359.667 377.5,359C 367.317,355.236 356.983,352.236 346.5,350C 344.379,355.029 341.879,359.862 339,364.5C 329.814,376.019 319.647,386.519 308.5,396C 305.649,397.289 302.649,397.789 299.5,397.5C 297.983,397.489 296.816,396.823 296,395.5C 294.512,391.213 293.178,386.88 292,382.5C 290.995,367.435 289.495,352.435 287.5,337.5C 275.447,337.891 263.447,337.391 251.5,336C 249.532,334.456 247.365,333.289 245,332.5C 242.894,328.099 240.728,323.766 238.5,319.5C 240.898,312.922 244.731,307.256 250,302.5C 256.695,293.305 263.195,283.971 269.5,274.5C 273.498,254.845 277.331,235.179 281,215.5C 281.765,212.804 282.932,210.304 284.5,208C 289.945,205.847 295.278,206.014 300.5,208.5C 303.914,212.994 307.081,217.66 310,222.5C 312.185,223.928 314.185,225.595 316,227.5C 320.491,237.819 326.491,247.153 334,255.5C 351.917,249.812 370.084,244.979 388.5,241C 395.249,240.123 401.916,240.456 408.5,242C 410.35,245.631 410.85,249.464 410,253.5C 407.676,256.823 405.009,259.823 402,262.5C 398.024,271.788 393.024,280.455 387,288.5C 385.551,291.732 384.384,295.065 383.5,298.5C 384.489,300.494 385.489,302.494 386.5,304.5 Z"/></g>
<g><path style="opacity:0.88" fill="#fffe55" d="M 1552.5,239.5 C 1551.83,239.5 1551.17,239.5 1550.5,239.5C 1548.26,239.205 1546.26,239.539 1544.5,240.5C 1531.22,242.256 1518.05,244.59 1505,247.5C 1500.11,247.775 1497.61,245.442 1497.5,240.5C 1497.88,239.069 1498.88,238.236 1500.5,238C 1516.07,234.731 1531.57,231.231 1547,227.5C 1555.12,227.081 1557.96,230.747 1555.5,238.5C 1554.21,238.263 1553.21,238.596 1552.5,239.5 Z"/></g>
<g><path style="opacity:0.02" fill="#fffe67" d="M 747.5,231.5 C 749.337,231.639 749.67,232.306 748.5,233.5C 747.702,233.043 747.369,232.376 747.5,231.5 Z"/></g>
<g><path style="opacity:0.942" fill="#fffe59" d="M 1427.5,245.5 C 1409.75,249.52 1392.09,254.02 1374.5,259C 1366.84,263.424 1363.01,261.258 1363,252.5C 1363.9,251.299 1365.07,250.465 1366.5,250C 1371.01,249.386 1375.35,248.552 1379.5,247.5C 1391.89,243.039 1404.55,239.373 1417.5,236.5C 1424.62,235.292 1427.96,238.292 1427.5,245.5 Z"/></g>
<g><path style="opacity:0.844" fill="#fffe53" d="M 1061.5,237.5 C 1065.85,237.334 1070.18,237.501 1074.5,238C 1078.1,239.273 1079.27,241.773 1078,245.5C 1077.5,246.667 1076.67,247.5 1075.5,248C 1059.13,249.921 1042.8,252.087 1026.5,254.5C 1025.96,255.748 1025.29,256.915 1024.5,258C 1018.32,259.022 1012.32,258.522 1006.5,256.5C 1003.39,251.899 1004.06,248.065 1008.5,245C 1026.35,242.73 1044.01,240.23 1061.5,237.5 Z"/></g>
<g><path style="opacity:0.997" fill="#fffefe" d="M 1550.5,239.5 C 1551.17,239.5 1551.83,239.5 1552.5,239.5C 1564.51,239.501 1576.51,239.834 1588.5,240.5C 1586.45,247.151 1584.28,253.818 1582,260.5C 1576.58,267.667 1571.91,275.333 1568,283.5C 1567.33,288.5 1567.33,293.5 1568,298.5C 1571.2,301.857 1575.03,304.357 1579.5,306C 1594.29,307.076 1608.96,306.243 1623.5,303.5C 1623.53,318.514 1624.03,333.514 1625,348.5C 1627.24,357.556 1632.74,360.056 1641.5,356C 1645.78,351.26 1649.95,346.427 1654,341.5C 1658.19,333.106 1663.36,325.439 1669.5,318.5C 1676.5,323 1683.5,327.5 1690.5,332C 1693.49,333.273 1696.49,334.439 1699.5,335.5C 1709.96,363.885 1716.46,393.219 1719,423.5C 1720.24,436.482 1721.24,449.482 1722,462.5C 1723.11,513.245 1725.28,563.912 1728.5,614.5C 1728.11,617.063 1727.78,619.563 1727.5,622C 1729.73,720.188 1733.06,818.355 1737.5,916.5C 1737,931.174 1736.33,945.841 1735.5,960.5C 1737.69,984.447 1739.19,1008.45 1740,1032.5C 1741.92,1114.83 1743.75,1197.17 1745.5,1279.5C 1743.58,1374.51 1741.58,1469.51 1739.5,1564.5C 1738.88,1564.39 1738.38,1564.06 1738,1563.5C 1736.39,1537.16 1736.05,1510.82 1737,1484.5C 1732.54,1481.43 1729.2,1482.43 1727,1487.5C 1726.33,1509.83 1726.33,1532.17 1727,1554.5C 1728.1,1558.42 1728.77,1562.42 1729,1566.5C 1730.89,1573.18 1734.39,1574.18 1739.5,1569.5C 1738.72,1583.15 1738.38,1596.82 1738.5,1610.5C 1734.78,1610 1731.45,1610.84 1728.5,1613C 1710.87,1633.63 1692.87,1653.96 1674.5,1674C 1653.57,1682.97 1632.57,1691.63 1611.5,1700C 1605.71,1702.98 1600.54,1706.81 1596,1711.5C 1594,1718.64 1595.83,1724.47 1601.5,1729C 1613.8,1736.24 1627.14,1739.74 1641.5,1739.5C 1651.3,1739.6 1660.97,1738.6 1670.5,1736.5C 1671.01,1744.64 1668.68,1751.97 1663.5,1758.5C 1631.68,1758.58 1600.01,1756.58 1568.5,1752.5C 1574.86,1751.78 1581.36,1751.11 1588,1750.5C 1592.6,1754.65 1596.94,1754.32 1601,1749.5C 1601.67,1747.17 1601.67,1744.83 1601,1742.5C 1600.25,1741.87 1599.42,1741.37 1598.5,1741C 1585.83,1740.9 1573.17,1741.23 1560.5,1742C 1559.67,1742.83 1558.83,1743.67 1558,1744.5C 1557.87,1747.06 1557.71,1749.4 1557.5,1751.5C 1541.85,1750.64 1526.18,1750.3 1510.5,1750.5C 1512.69,1748.64 1514.03,1746.31 1514.5,1743.5C 1514.36,1740.4 1512.69,1738.57 1509.5,1738C 1495.17,1737.33 1480.83,1737.33 1466.5,1738C 1457.66,1739.31 1448.66,1739.97 1439.5,1740C 1435.25,1743.88 1435.58,1747.04 1440.5,1749.5C 1450.14,1748.58 1459.81,1748.24 1469.5,1748.5C 1478.56,1747.86 1487.23,1748.53 1495.5,1750.5C 1470.84,1751.83 1446.18,1751.83 1421.5,1750.5C 1405.17,1751.26 1388.84,1751.93 1372.5,1752.5C 1370.99,1748.82 1368.32,1746.32 1364.5,1745C 1348.16,1744.17 1331.82,1744.33 1315.5,1745.5C 1314.83,1747.86 1314.16,1750.2 1313.5,1752.5C 1305.25,1751.37 1296.91,1751.2 1288.5,1752C 1270.54,1753.81 1252.54,1755.14 1234.5,1756C 1184.49,1756.45 1134.49,1757.28 1084.5,1758.5C 1087.03,1748.85 1083.19,1744.52 1073,1745.5C 1057.94,1747.6 1042.77,1749.1 1027.5,1750C 1024.46,1753.81 1025.13,1756.81 1029.5,1759C 1031.81,1759.5 1034.14,1759.66 1036.5,1759.5C 1008.8,1763.64 980.802,1765.81 952.5,1766C 932.162,1767.93 911.829,1769.93 891.5,1772C 877.592,1772.18 863.758,1772.68 850,1773.5C 847.925,1772.87 845.759,1772.53 843.5,1772.5C 809.403,1775.74 775.236,1777.74 741,1778.5C 735.664,1778.21 730.331,1777.87 725,1777.5C 691.879,1780.08 658.713,1781.75 625.5,1782.5C 617.498,1782.22 609.498,1781.88 601.5,1781.5C 562.962,1783.42 524.462,1784.76 486,1785.5C 485.667,1785.17 485.333,1784.83 485,1784.5C 464.55,1786.53 444.05,1788.53 423.5,1790.5C 421.092,1782.56 417.926,1774.89 414,1767.5C 413.333,1766.5 413.333,1765.5 414,1764.5C 436.333,1747.5 456,1727.83 473,1705.5C 474.041,1702.36 473.207,1699.86 470.5,1698C 440.947,1696.21 411.947,1699.21 383.5,1707C 381.167,1707.67 378.833,1707.67 376.5,1707C 369.772,1701.73 363.605,1695.89 358,1689.5C 349.722,1676.89 341.056,1664.56 332,1652.5C 330.864,1650.26 330.03,1647.92 329.5,1645.5C 319.151,1588.87 311.318,1531.87 306,1474.5C 298.885,1404.57 292.552,1334.57 287,1264.5C 279.848,1145.23 273.848,1025.89 269,906.5C 268.912,868.922 269.745,831.422 271.5,794C 271.137,781.224 270.804,768.39 270.5,755.5C 271.086,737.159 271.753,718.825 272.5,700.5C 272.5,696.833 272.5,693.167 272.5,689.5C 275.615,638.576 278.948,588.243 282.5,538.5C 283.078,537.453 283.744,537.62 284.5,539C 287.588,539.847 290.421,539.347 293,537.5C 294.09,534.421 293.257,532.088 290.5,530.5C 289.5,502.841 289.167,475.175 289.5,447.5C 291.601,437.393 293.101,427.06 294,416.5C 295.942,410.178 297.775,403.844 299.5,397.5C 302.649,397.789 305.649,397.289 308.5,396C 319.647,386.519 329.814,376.019 339,364.5C 341.879,359.862 344.379,355.029 346.5,350C 356.983,352.236 367.317,355.236 377.5,359C 385.5,359.667 393.5,359.667 401.5,359C 406.084,357.749 408.417,354.749 408.5,350C 403.732,333.796 396.065,319.129 385.5,306C 386.056,305.617 386.389,305.117 386.5,304.5C 399.057,298.558 412.057,293.725 425.5,290C 441.766,287.981 458.099,286.814 474.5,286.5C 474.938,286.435 475.272,286.601 475.5,287C 471.787,288.691 470.621,291.525 472,295.5C 473.126,296.944 474.626,297.61 476.5,297.5C 485.358,295.32 493.525,291.653 501,286.5C 507.653,284.231 514.486,282.898 521.5,282.5C 523.735,282.795 525.735,282.461 527.5,281.5C 529.167,281.5 530.833,281.5 532.5,281.5C 568.806,279.473 605.139,277.807 641.5,276.5C 644.5,276.5 647.5,276.5 650.5,276.5C 657.995,276.024 665.329,275.358 672.5,274.5C 681.542,274.964 690.542,274.964 699.5,274.5C 726.451,273.403 753.451,273.403 780.5,274.5C 796.778,272.543 813.111,271.543 829.5,271.5C 836.196,271.609 842.863,271.276 849.5,270.5C 855.195,269.913 860.861,269.08 866.5,268C 913.515,266.027 960.515,263.693 1007.5,261C 1026.19,260.666 1044.86,259.833 1063.5,258.5C 1069.99,258.98 1076.49,259.313 1083,259.5C 1115.81,257.33 1148.64,255.663 1181.5,254.5C 1187.49,254.034 1193.49,253.701 1199.5,253.5C 1206.17,254.833 1212.83,254.833 1219.5,253.5C 1225.96,253.15 1232.29,253.817 1238.5,255.5C 1241.07,254.898 1243.4,253.898 1245.5,252.5C 1290.16,250.626 1334.83,248.959 1379.5,247.5C 1375.35,248.552 1371.01,249.386 1366.5,250C 1365.07,250.465 1363.9,251.299 1363,252.5C 1363.01,261.258 1366.84,263.424 1374.5,259C 1392.09,254.02 1409.75,249.52 1427.5,245.5C 1450.87,244.277 1474.21,242.61 1497.5,240.5C 1497.61,245.442 1500.11,247.775 1505,247.5C 1518.05,244.59 1531.22,242.256 1544.5,240.5C 1546.74,240.795 1548.74,240.461 1550.5,239.5 Z"/></g>
<g><path style="opacity:0.87" fill="#fffe54" d="M 1245.5,252.5 C 1243.4,253.898 1241.07,254.898 1238.5,255.5C 1232.29,253.817 1225.96,253.15 1219.5,253.5C 1212.83,253.5 1206.17,253.5 1199.5,253.5C 1193.49,253.701 1187.49,254.034 1181.5,254.5C 1179.21,251.043 1178.88,247.376 1180.5,243.5C 1199.8,242.37 1219.14,242.204 1238.5,243C 1243,244.652 1245.33,247.819 1245.5,252.5 Z"/></g>
<g><path style="opacity:0.827" fill="#fffe53" d="M 849.5,270.5 C 842.863,271.276 836.196,271.609 829.5,271.5C 823.828,269.817 822.161,266.15 824.5,260.5C 839.455,260.681 853.789,257.514 867.5,251C 871.423,250.207 875.256,250.374 879,251.5C 880.98,254.595 880.813,257.595 878.5,260.5C 868.874,264.263 859.207,267.596 849.5,270.5 Z"/></g>
<g><path style="opacity:0.832" fill="#fffe54" d="M 699.5,274.5 C 690.542,274.964 681.542,274.964 672.5,274.5C 666.158,274.334 659.825,274.5 653.5,275C 652.263,275.232 651.263,275.732 650.5,276.5C 647.5,276.5 644.5,276.5 641.5,276.5C 638.875,272.665 638.875,268.832 641.5,265C 657.723,262.529 674.056,261.862 690.5,263C 693.365,263.837 696.198,264.67 699,265.5C 700.698,268.396 700.864,271.396 699.5,274.5 Z"/></g>
<g><path style="opacity:0.888" fill="#fffe56" d="M 532.5,281.5 C 530.833,281.5 529.167,281.5 527.5,281.5C 525.265,281.205 523.265,281.539 521.5,282.5C 514.486,282.898 507.653,284.231 501,286.5C 493.525,291.653 485.358,295.32 476.5,297.5C 474.626,297.61 473.126,296.944 472,295.5C 470.621,291.525 471.787,288.691 475.5,287C 475.272,286.601 474.938,286.435 474.5,286.5C 481.89,284.477 488.89,281.31 495.5,277C 506.514,272.937 517.847,270.437 529.5,269.5C 531.135,270.046 532.801,270.38 534.5,270.5C 536.201,274.678 535.535,278.345 532.5,281.5 Z"/></g>
<g><path style="opacity:1" fill="#fffe55" d="M 1132.5,507.5 C 1132.21,508.649 1131.38,509.316 1130,509.5C 1119.57,507.507 1109.07,506.007 1098.5,505C 1081.12,504.081 1063.79,502.747 1046.5,501C 1049.09,494.657 1051.25,488.157 1053,481.5C 1059.62,469.02 1061.95,455.686 1060,441.5C 1053.46,436.467 1046.63,436.3 1039.5,441C 1037.29,443.705 1034.63,445.871 1031.5,447.5C 1024.61,436.941 1014.95,433.107 1002.5,436C 994.527,442.189 989.693,450.356 988,460.5C 986.54,471.798 986.207,483.131 987,494.5C 988.167,496.833 989.333,499.167 990.5,501.5C 949.158,504.698 909.491,514.364 871.5,530.5C 871.5,529.5 871.5,528.5 871.5,527.5C 874.238,518.69 878.071,510.356 883,502.5C 896.525,468.119 912.191,434.786 930,402.5C 942.722,385.445 955.055,368.111 967,350.5C 990.374,322.897 1018.21,317.397 1050.5,334C 1065.95,345.73 1077.45,360.564 1085,378.5C 1093.79,404.076 1103.13,429.41 1113,454.5C 1117.52,472.935 1124.02,490.602 1132.5,507.5 Z"/></g>
<g><path style="opacity:1" fill="#fffe56" d="M 1713.5,455.5 C 1714.51,463.135 1715.01,470.802 1715,478.5C 1711.19,481.539 1708.19,480.872 1706,476.5C 1703.74,453.592 1702.9,430.592 1703.5,407.5C 1706.34,404.899 1709.17,404.899 1712,407.5C 1712.17,423.672 1712.67,439.672 1713.5,455.5 Z"/></g>
<g><path style="opacity:1" fill="#fffe97" d="M 1713.5,455.5 C 1712.67,439.672 1712.17,423.672 1712,407.5C 1709.17,404.899 1706.34,404.899 1703.5,407.5C 1705.97,402.58 1709.14,402.247 1713,406.5C 1713.5,422.83 1713.67,439.163 1713.5,455.5 Z"/></g>
<g><path style="opacity:1" fill="#faea4e" d="M 1132.5,507.5 C 1133.35,509.5 1134.85,510.833 1137,511.5C 1144.11,512.957 1151.28,514.124 1158.5,515C 1159.42,515.278 1160.08,515.778 1160.5,516.5C 1166.95,518.584 1173.62,520.25 1180.5,521.5C 1204.95,528.897 1228.28,538.731 1250.5,551C 1253.1,551.92 1255.77,552.587 1258.5,553C 1281.53,565.711 1303.2,580.711 1323.5,598C 1340.67,614.838 1358.17,631.338 1376,647.5C 1381,653.833 1386,660.167 1391,666.5C 1394.77,674.29 1399.77,681.29 1406,687.5C 1407.09,689.078 1407.93,690.745 1408.5,692.5C 1409.13,696.431 1410.8,699.765 1413.5,702.5C 1417.7,707.602 1421.37,712.935 1424.5,718.5C 1441.65,754.647 1450.82,793.313 1452,834.5C 1458.85,899.466 1446.18,960.133 1414,1016.5C 1397.91,1039.6 1379.24,1060.6 1358,1079.5C 1348.3,1091.03 1338.13,1102.03 1327.5,1112.5C 1327.88,1114.38 1328.88,1115.88 1330.5,1117C 1341.7,1124.27 1351.7,1132.94 1360.5,1143C 1366.61,1147.78 1372.11,1153.28 1377,1159.5C 1377.46,1158.91 1377.63,1158.24 1377.5,1157.5C 1381.22,1164.59 1385.72,1171.25 1391,1177.5C 1401.19,1195.59 1407.35,1214.93 1409.5,1235.5C 1407.98,1255.28 1403.81,1274.61 1397,1293.5C 1394.41,1298.34 1391.58,1303.01 1388.5,1307.5C 1386.54,1314.73 1384.04,1321.73 1381,1328.5C 1373.68,1340.65 1366.18,1352.65 1358.5,1364.5C 1359.17,1364.83 1359.83,1365.17 1360.5,1365.5C 1368.23,1360.98 1376.56,1359.15 1385.5,1360C 1387.33,1360.27 1388.83,1361.11 1390,1362.5C 1390.67,1366.17 1390.67,1369.83 1390,1373.5C 1387.22,1378.22 1384.05,1382.72 1380.5,1387C 1381.96,1389.13 1383.79,1390.96 1386,1392.5C 1388,1396.5 1388,1400.5 1386,1404.5C 1381.71,1406.64 1381.04,1409.31 1384,1412.5C 1384.67,1416.5 1384.67,1420.5 1384,1424.5C 1380.51,1426.99 1377.34,1429.82 1374.5,1433C 1369.79,1434.54 1365.12,1436.21 1360.5,1438C 1343.51,1438.8 1326.51,1439.3 1309.5,1439.5C 1308.02,1447.45 1305.18,1454.78 1301,1461.5C 1296.33,1468.84 1291.66,1476.17 1287,1483.5C 1282,1489.49 1276.67,1495.16 1271,1500.5C 1270.43,1502.64 1269.59,1504.64 1268.5,1506.5C 1253.52,1521.59 1237.02,1534.92 1219,1546.5C 1207.48,1551.01 1196.31,1556.18 1185.5,1562C 1177.74,1562.91 1171.08,1565.91 1165.5,1571C 1154.86,1573.24 1144.53,1576.24 1134.5,1580C 1124,1581.52 1114,1584.36 1104.5,1588.5C 1100.63,1588.64 1096.79,1588.31 1093,1587.5C 1090.38,1587.62 1088.88,1588.95 1088.5,1591.5C 1064.4,1593.66 1040.4,1595.33 1016.5,1596.5C 1001.82,1596.42 987.154,1596.75 972.5,1597.5C 965.5,1597.5 958.5,1597.5 951.5,1597.5C 950.707,1592.22 947.707,1590.39 942.5,1592C 941.364,1593.15 940.364,1594.31 939.5,1595.5C 927.761,1595.82 916.094,1595.15 904.5,1593.5C 890.807,1589.41 876.807,1586.25 862.5,1584C 850.849,1579.67 839.183,1575.34 827.5,1571C 810.743,1559.24 795.577,1545.74 782,1530.5C 777.736,1522.97 772.736,1515.97 767,1509.5C 765.871,1507.86 764.371,1506.86 762.5,1506.5C 747.605,1478.35 741.938,1448.35 745.5,1416.5C 741.818,1416.55 738.485,1417.55 735.5,1419.5C 734.77,1420.71 733.77,1421.71 732.5,1422.5C 729.173,1423.5 725.839,1424.5 722.5,1425.5C 716.677,1423.09 711.343,1419.92 706.5,1416C 690.152,1400 673.319,1384.16 656,1368.5C 637.838,1345.03 632.171,1318.7 639,1289.5C 641.561,1276.13 643.895,1262.8 646,1249.5C 645.617,1250.06 645.117,1250.39 644.5,1250.5C 652.858,1230.12 662.525,1210.45 673.5,1191.5C 673.351,1192.55 673.517,1193.55 674,1194.5C 691.599,1172.9 711.766,1154.07 734.5,1138C 736.213,1136.62 737.547,1134.96 738.5,1133C 721.201,1124.08 705.701,1112.58 692,1098.5C 684.333,1089.5 676.667,1080.5 669,1071.5C 659.735,1056.94 651.068,1042.27 643,1027.5C 635.591,1004.94 627.591,982.606 619,960.5C 605.086,910.163 603.919,859.496 615.5,808.5C 614.5,808.5 613.5,808.5 612.5,808.5C 613.848,807.399 615.348,806.399 617,805.5C 618.809,797.927 620.975,790.594 623.5,783.5C 628.317,774.539 631.65,764.872 633.5,754.5C 636.581,747.326 639.414,739.993 642,732.5C 643.517,730.76 645.017,729.094 646.5,727.5C 647.467,726.194 648.801,725.527 650.5,725.5C 650.778,721.268 651.944,717.268 654,713.5C 656.686,712.324 659.019,710.657 661,708.5C 665.065,702.191 668.231,695.524 670.5,688.5C 677.084,679.662 683.417,670.662 689.5,661.5C 691.595,659.241 694.095,657.574 697,656.5C 700.419,650 704.586,644 709.5,638.5C 730.004,618.39 752.671,600.89 777.5,586C 780.312,583.099 783.312,580.432 786.5,578C 813.203,563.328 839.869,548.661 866.5,534C 868.788,532.227 870.454,530.061 871.5,527.5C 871.5,528.5 871.5,529.5 871.5,530.5C 909.491,514.364 949.158,504.698 990.5,501.5C 989.333,499.167 988.167,496.833 987,494.5C 986.207,483.131 986.54,471.798 988,460.5C 989.693,450.356 994.527,442.189 1002.5,436C 1014.95,433.107 1024.61,436.941 1031.5,447.5C 1034.63,445.871 1037.29,443.705 1039.5,441C 1046.63,436.3 1053.46,436.467 1060,441.5C 1061.95,455.686 1059.62,469.02 1053,481.5C 1051.25,488.157 1049.09,494.657 1046.5,501C 1063.79,502.747 1081.12,504.081 1098.5,505C 1109.07,506.007 1119.57,507.507 1130,509.5C 1131.38,509.316 1132.21,508.649 1132.5,507.5 Z"/></g>
<g><path style="opacity:0.872" fill="#fffe5b" d="M 289.5,447.5 C 289.167,475.175 289.5,502.841 290.5,530.5C 293.257,532.088 294.09,534.421 293,537.5C 290.421,539.347 287.588,539.847 284.5,539C 283.744,537.62 283.078,537.453 282.5,538.5C 280.224,538.244 279.057,536.91 279,534.5C 278.333,502.833 278.333,471.167 279,439.5C 281.287,435.47 284.454,434.636 288.5,437C 289.456,440.394 289.789,443.894 289.5,447.5 Z"/></g>
<g><path style="opacity:1" fill="#f2cb45" d="M 1002.5,465.5 C 1004.39,465.297 1005.89,465.963 1007,467.5C 1007.17,471.871 1007.67,476.204 1008.5,480.5C 1009.09,480.709 1009.59,481.043 1010,481.5C 1011.11,478.019 1012.28,474.519 1013.5,471C 1020.59,468.916 1023.59,471.749 1022.5,479.5C 1022.65,482.706 1021.99,485.706 1020.5,488.5C 1016.9,488.91 1013.23,489.077 1009.5,489C 1005.93,492.426 1002.76,491.926 1000,487.5C 995.705,481.821 994.538,475.488 996.5,468.5C 998.427,467.138 1000.43,466.138 1002.5,465.5 Z"/></g>
<g><path style="opacity:1" fill="#f1cb45" d="M 1031.5,467.5 C 1037.83,466.494 1040.49,469.16 1039.5,475.5C 1039.33,477.5 1039.17,479.5 1039,481.5C 1036.76,484.661 1033.76,486.661 1030,487.5C 1026.93,487.262 1025.43,485.596 1025.5,482.5C 1026.69,477.126 1028.69,472.126 1031.5,467.5 Z"/></g>
<g><path style="opacity:1" fill="#fef7bd" d="M 1160.5,516.5 C 1163.19,516.336 1165.85,516.503 1168.5,517C 1172.88,517.767 1176.88,519.267 1180.5,521.5C 1173.62,520.25 1166.95,518.584 1160.5,516.5 Z"/></g>
<g><path style="opacity:0.005" fill="#fefffe" d="M 242.5,589.5 C 242.343,588.127 242.51,586.793 243,585.5C 243.765,587.066 243.598,588.399 242.5,589.5 Z"/></g>
<g><path style="opacity:1" fill="#fffe5b" d="M 1702.5,584.5 C 1705.04,584.104 1707.21,584.771 1709,586.5C 1709.63,608.857 1709.13,631.191 1707.5,653.5C 1707.45,656.727 1708.12,659.727 1709.5,662.5C 1709.17,666.989 1706.83,668.489 1702.5,667C 1698.3,663.268 1696.64,658.602 1697.5,653C 1699.44,630.913 1700.61,608.747 1701,586.5C 1701.72,585.956 1702.22,585.289 1702.5,584.5 Z"/></g>
<g><path style="opacity:0.005" fill="#fefffe" d="M 242.5,589.5 C 242.66,591.199 242.494,592.866 242,594.5C 241.22,592.613 241.387,590.946 242.5,589.5 Z"/></g>
<g><path style="opacity:0.004" fill="#fefffe" d="M 240.5,596.5 C 241.598,597.601 241.765,598.934 241,600.5C 240.51,599.207 240.343,597.873 240.5,596.5 Z"/></g>
<g><path style="opacity:0.84" fill="#fffe53" d="M 272.5,689.5 C 272.5,693.167 272.5,696.833 272.5,700.5C 267.258,701.729 263.425,700.063 261,695.5C 260.333,668.833 260.333,642.167 261,615.5C 261.758,613.09 263.425,612.09 266,612.5C 268.575,612.09 270.242,613.09 271,615.5C 271.168,640.337 271.668,665.003 272.5,689.5 Z"/></g>
<g><path style="opacity:1" fill="#fdf18c" d="M 709.5,638.5 C 704.586,644 700.419,650 697,656.5C 694.095,657.574 691.595,659.241 689.5,661.5C 693.419,656.007 697.586,650.674 702,645.5C 704.37,642.961 706.87,640.628 709.5,638.5 Z"/></g>
<g><path style="opacity:1" fill="#fdf5ab" d="M 1408.5,692.5 C 1411.2,695.235 1412.87,698.569 1413.5,702.5C 1410.8,699.765 1409.13,696.431 1408.5,692.5 Z"/></g>
<g><path style="opacity:1" fill="#fcee75" d="M 670.5,688.5 C 668.231,695.524 665.065,702.191 661,708.5C 659.019,710.657 656.686,712.324 654,713.5C 651.944,717.268 650.778,721.268 650.5,725.5C 648.801,725.527 647.467,726.194 646.5,727.5C 648.211,722.358 650.377,717.358 653,712.5C 658.645,704.145 664.478,696.145 670.5,688.5 Z"/></g>
<g><path style="opacity:1" fill="#fffe54" d="M 1424.5,718.5 C 1456.03,723.798 1486.36,732.965 1515.5,746C 1554.97,756.403 1590.97,773.737 1623.5,798C 1646.07,819.932 1649.57,844.765 1634,872.5C 1632,875.167 1630,877.833 1628,880.5C 1617.76,890.745 1606.93,900.245 1595.5,909C 1574.53,930.319 1551.53,948.985 1526.5,965C 1517.09,974.414 1507.09,983.08 1496.5,991C 1483.5,999.333 1470.5,1007.67 1457.5,1016C 1425.79,1043.68 1392.45,1069.18 1357.5,1092.5C 1357.01,1098.91 1357.84,1105.24 1360,1111.5C 1364.57,1127.38 1370.4,1142.71 1377.5,1157.5C 1377.63,1158.24 1377.46,1158.91 1377,1159.5C 1372.11,1153.28 1366.61,1147.78 1360.5,1143C 1351.7,1132.94 1341.7,1124.27 1330.5,1117C 1328.88,1115.88 1327.88,1114.38 1327.5,1112.5C 1338.13,1102.03 1348.3,1091.03 1358,1079.5C 1379.24,1060.6 1397.91,1039.6 1414,1016.5C 1446.18,960.133 1458.85,899.466 1452,834.5C 1450.82,793.313 1441.65,754.647 1424.5,718.5 Z"/></g>
<g><path style="opacity:0.925" fill="#6e672a" d="M 929.5,762.5 C 926.098,762.342 922.764,762.676 919.5,763.5C 919.611,762.883 919.944,762.383 920.5,762C 923.696,761.195 926.696,761.362 929.5,762.5 Z"/></g>
<g><path style="opacity:0.99" fill="#191915" d="M 929.5,762.5 C 937.488,762.829 941.488,767.162 941.5,775.5C 941.37,777.375 941.037,779.208 940.5,781C 939.079,782.419 938.079,784.086 937.5,786C 933.926,790.091 931.093,794.591 929,799.5C 927.629,801.041 926.129,802.375 924.5,803.5C 922.05,803.702 919.717,803.369 917.5,802.5C 915.435,800.102 915.102,797.435 916.5,794.5C 921.735,788.295 926.069,781.628 929.5,774.5C 926.513,773.742 923.513,772.909 920.5,772C 917.058,769.344 916.724,766.51 919.5,763.5C 922.764,762.676 926.098,762.342 929.5,762.5 Z"/></g>
<g><path style="opacity:0.998" fill="#1a1a16" d="M 1118.5,760.5 C 1118.83,760.5 1119.17,760.5 1119.5,760.5C 1125.16,759.499 1127.5,761.833 1126.5,767.5C 1124.45,769.55 1122.79,771.883 1121.5,774.5C 1120.19,776.435 1118.86,778.435 1117.5,780.5C 1117.61,781.442 1117.94,782.275 1118.5,783C 1120.45,783.366 1122.12,784.199 1123.5,785.5C 1127.93,793.712 1125.6,796.879 1116.5,795C 1112.83,793.333 1109.17,791.667 1105.5,790C 1102.65,787.441 1101.82,784.274 1103,780.5C 1104.77,778.055 1106.6,775.722 1108.5,773.5C 1112.59,769.742 1115.93,765.409 1118.5,760.5 Z"/></g>
<g><path style="opacity:1" fill="#585625" d="M 1119.5,760.5 C 1126.83,757.833 1129.17,760.167 1126.5,767.5C 1127.5,761.833 1125.16,759.499 1119.5,760.5 Z"/></g>
<g><path style="opacity:1" fill="#736e43" d="M 1118.5,760.5 C 1115.93,765.409 1112.59,769.742 1108.5,773.5C 1111.07,768.591 1114.41,764.258 1118.5,760.5 Z"/></g>
<g><path style="opacity:1" fill="#fdf296" d="M 633.5,754.5 C 631.65,764.872 628.317,774.539 623.5,783.5C 626.453,773.638 629.787,763.972 633.5,754.5 Z"/></g>
<g><path style="opacity:1" fill="#a89f43" d="M 1121.5,774.5 C 1120.83,777.167 1120.17,779.833 1119.5,782.5C 1121.97,782.088 1123.31,783.088 1123.5,785.5C 1122.12,784.199 1120.45,783.366 1118.5,783C 1117.94,782.275 1117.61,781.442 1117.5,780.5C 1118.86,778.435 1120.19,776.435 1121.5,774.5 Z"/></g>
<g><path style="opacity:1" fill="#fffe5c" d="M 1708.5,782.5 C 1712.2,781.68 1714.53,783.013 1715.5,786.5C 1714.05,790.327 1714.22,793.993 1716,797.5C 1716.33,812.833 1716.67,828.167 1717,843.5C 1719.61,850.063 1717.44,852.397 1710.5,850.5C 1709.14,848.972 1707.97,847.305 1707,845.5C 1706.48,825.49 1706.15,805.49 1706,785.5C 1707.04,784.627 1707.88,783.627 1708.5,782.5 Z"/></g>
<g><path style="opacity:0.859" fill="#7c752e" d="M 917.5,802.5 C 919.717,803.369 922.05,803.702 924.5,803.5C 923.551,804.152 922.385,804.486 921,804.5C 919.319,804.392 918.152,803.725 917.5,802.5 Z"/></g>
<g><path style="opacity:1" fill="#fffe54" d="M 612.5,808.5 C 613.5,808.5 614.5,808.5 615.5,808.5C 603.919,859.496 605.086,910.163 619,960.5C 627.591,982.606 635.591,1004.94 643,1027.5C 651.068,1042.27 659.735,1056.94 669,1071.5C 676.667,1080.5 684.333,1089.5 692,1098.5C 705.701,1112.58 721.201,1124.08 738.5,1133C 737.547,1134.96 736.213,1136.62 734.5,1138C 711.766,1154.07 691.599,1172.9 674,1194.5C 673.517,1193.55 673.351,1192.55 673.5,1191.5C 679.762,1177.64 686.595,1163.98 694,1150.5C 694.749,1149.36 694.583,1148.36 693.5,1147.5C 678.758,1140.8 663.758,1134.63 648.5,1129C 616.568,1121.35 584.568,1114.02 552.5,1107C 531.055,1099.64 509.722,1091.97 488.5,1084C 471.009,1078.73 453.342,1074.06 435.5,1070C 420.233,1065.2 405.9,1058.53 392.5,1050C 364.951,1027.98 358.785,1001.15 374,969.5C 377.799,964.699 381.966,960.199 386.5,956C 396.167,949 405.833,942 415.5,935C 429.336,921.155 444.336,908.822 460.5,898C 465.341,895.079 470.341,892.412 475.5,890C 494.485,876.173 513.819,862.84 533.5,850C 548.213,841.31 563.547,833.643 579.5,827C 589.616,819.275 600.616,813.108 612.5,808.5 Z"/></g>
<g><path style="opacity:1" fill="#f1c845" d="M 1027.5,818.5 C 1031.35,817.845 1034.19,819.179 1036,822.5C 1037.54,837.13 1037.87,851.797 1037,866.5C 1036.07,868.552 1034.57,870.052 1032.5,871C 1018.51,871.88 1004.51,872.546 990.5,873C 988.722,873.704 986.888,874.204 985,874.5C 979.378,872.842 973.545,872.009 967.5,872C 965.522,869.503 965.022,866.669 966,863.5C 968.128,860.37 970.628,857.537 973.5,855C 989.851,844.158 1005.85,832.825 1021.5,821C 1023.85,820.76 1025.85,819.927 1027.5,818.5 Z"/></g>
<g><path style="opacity:1" fill="#f6caa7" d="M 1230.5,823.5 C 1234.01,823.458 1237.34,824.124 1240.5,825.5C 1240.92,829.2 1241.59,832.867 1242.5,836.5C 1245.83,833.5 1249.17,830.5 1252.5,827.5C 1260.64,824.969 1264.3,827.969 1263.5,836.5C 1267.02,836.071 1270.02,834.571 1272.5,832C 1274.13,831.506 1275.8,831.34 1277.5,831.5C 1276.69,836.094 1275.19,840.427 1273,844.5C 1268.76,848.855 1263.59,850.688 1257.5,850C 1255.01,848.504 1252.85,846.67 1251,844.5C 1246.57,847.924 1242.4,851.757 1238.5,856C 1234.25,858.348 1230.42,857.848 1227,854.5C 1226.83,849.798 1226.33,845.132 1225.5,840.5C 1220.01,843.241 1216.01,847.408 1213.5,853C 1209.96,854.504 1206.29,854.837 1202.5,854C 1201.86,851.757 1201.53,849.424 1201.5,847C 1202.51,841.808 1203.68,836.642 1205,831.5C 1209.42,826.243 1213.75,826.243 1218,831.5C 1222.65,829.311 1226.81,826.644 1230.5,823.5 Z"/></g>
<g><path style="opacity:1" fill="#f6cba5" d="M 808.5,850.5 C 811.044,850.104 813.211,850.771 815,852.5C 815.616,855.758 815.283,858.758 814,861.5C 818.149,855.916 822.816,855.249 828,859.5C 828.333,861.167 828.667,862.833 829,864.5C 837.504,855.335 842.171,857.002 843,869.5C 847.183,865.618 851.016,861.451 854.5,857C 860,855.833 862.167,858 861,863.5C 856.833,870.333 851.333,875.833 844.5,880C 839.375,881.569 835.541,880.069 833,875.5C 826.206,884.103 820.706,883.436 816.5,873.5C 814.31,875.524 811.977,877.357 809.5,879C 801.91,879.729 799.077,876.229 801,868.5C 802.635,862.083 805.135,856.083 808.5,850.5 Z"/></g>
<g><path style="opacity:1" fill="#fffe5b" d="M 272.5,879.5 C 275.044,879.104 277.211,879.771 279,881.5C 280.723,895.437 282.056,909.437 283,923.5C 285.107,931.148 287.107,938.815 289,946.5C 290.32,948.817 291.986,950.817 294,952.5C 295.167,958 293,960.167 287.5,959C 282.781,955.611 279.614,951.111 278,945.5C 272.421,924.52 270.088,903.187 271,881.5C 271.717,880.956 272.217,880.289 272.5,879.5 Z"/></g>
<g><path style="opacity:1" fill="#fffe57" d="M 1718.5,995.5 C 1717.66,1000.67 1715.16,1001.67 1711,998.5C 1710.67,997.5 1710.33,996.5 1710,995.5C 1709.5,974.503 1709.33,953.503 1709.5,932.5C 1709.98,929.218 1710.98,926.051 1712.5,923C 1714.7,922.175 1716.53,922.675 1718,924.5C 1718.5,948.164 1718.67,971.831 1718.5,995.5 Z"/></g>
<g><path style="opacity:1" fill="#fffe81" d="M 1718.5,995.5 C 1718.67,971.831 1718.5,948.164 1718,924.5C 1716.53,922.675 1714.7,922.175 1712.5,923C 1710.98,926.051 1709.98,929.218 1709.5,932.5C 1709.01,928.543 1709.68,924.877 1711.5,921.5C 1714.57,919.948 1717.07,920.615 1719,923.5C 1719.83,947.67 1719.66,971.67 1718.5,995.5 Z"/></g>
<g><path style="opacity:0.008" fill="#fffe6d" d="M 1856.5,960.5 C 1858,960.415 1859,961.081 1859.5,962.5C 1857.6,963.639 1856.6,962.973 1856.5,960.5 Z"/></g>
<g><path style="opacity:0.008" fill="#fbeb7c" d="M 1909.5,1015.5 C 1909.14,1011.41 1909.14,1007.41 1909.5,1003.5C 1908.45,1002.45 1907.45,1001.45 1906.5,1000.5C 1906.69,994.924 1907.86,989.59 1910,984.5C 1910.83,995.008 1910.66,1005.34 1909.5,1015.5 Z"/></g>
<g><path style="opacity:0.016" fill="#faed4c" d="M 1906.5,1000.5 C 1907.45,1001.45 1908.45,1002.45 1909.5,1003.5C 1909.14,1007.41 1909.14,1011.41 1909.5,1015.5C 1908.17,1015.5 1906.83,1015.5 1905.5,1015.5C 1903.86,1010.28 1904.19,1005.28 1906.5,1000.5 Z"/></g>
<g><path style="opacity:1" fill="#fffe5d" d="M 1717.5,1109.5 C 1719.53,1109.34 1721.53,1109.5 1723.5,1110C 1724.13,1110.75 1724.63,1111.58 1725,1112.5C 1725.67,1138.83 1725.67,1165.17 1725,1191.5C 1722,1196.83 1719,1196.83 1716,1191.5C 1715.33,1165.17 1715.33,1138.83 1716,1112.5C 1716.51,1111.47 1717.01,1110.47 1717.5,1109.5 Z"/></g>
<g><path style="opacity:1" fill="#fffe5a" d="M 286.5,1147.5 C 291.664,1148.16 294.831,1151.16 296,1156.5C 298.573,1172.8 300.906,1189.13 303,1205.5C 304,1208.83 305,1212.17 306,1215.5C 310.206,1216.57 311.539,1219.24 310,1223.5C 305.356,1226.61 301.356,1225.95 298,1221.5C 296.725,1219.28 295.725,1216.95 295,1214.5C 292.143,1197.94 289.809,1181.27 288,1164.5C 287.319,1160.3 286.152,1156.3 284.5,1152.5C 284.437,1150.49 285.103,1148.82 286.5,1147.5 Z"/></g>
<g><path style="opacity:1" fill="#fffefe" d="M 1070.5,1201.5 C 1075.29,1202.13 1079.96,1203.3 1084.5,1205C 1095.33,1212.1 1106.33,1218.77 1117.5,1225C 1131.55,1235.38 1144.05,1247.55 1155,1261.5C 1159.92,1269.67 1164.59,1278.01 1169,1286.5C 1171.17,1297.04 1173.67,1307.38 1176.5,1317.5C 1178.38,1330.76 1179.38,1344.1 1179.5,1357.5C 1179.84,1368.59 1179,1379.59 1177,1390.5C 1169.3,1414.81 1158.97,1437.81 1146,1459.5C 1143.02,1464.65 1139.18,1468.98 1134.5,1472.5C 1131.28,1473.71 1128.28,1475.38 1125.5,1477.5C 1124.7,1477.96 1124.37,1478.62 1124.5,1479.5C 1116.43,1484.8 1108.09,1489.63 1099.5,1494C 1089.78,1497.13 1080.11,1500.46 1070.5,1504C 1056.67,1506 1042.84,1507.5 1029,1508.5C 1019.54,1507.75 1010.04,1506.91 1000.5,1506C 993.584,1502.04 986.584,1498.38 979.5,1495C 964.139,1482.07 952.306,1466.57 944,1448.5C 941.667,1445.5 939.333,1442.5 937,1439.5C 933,1425.66 929.5,1411.66 926.5,1397.5C 925.746,1387.8 924.746,1378.14 923.5,1368.5C 924.762,1360.45 924.429,1352.45 922.5,1344.5C 922.221,1330.75 922.887,1317.08 924.5,1303.5C 926.067,1294.57 928.567,1285.9 932,1277.5C 936.8,1269.57 940.8,1261.23 944,1252.5C 947.989,1246.68 952.489,1241.35 957.5,1236.5C 960.833,1233.83 963.833,1230.83 966.5,1227.5C 967.873,1227.66 969.207,1227.49 970.5,1227C 974.615,1223.92 978.615,1220.75 982.5,1217.5C 986.787,1213.7 991.454,1210.54 996.5,1208C 1001.32,1206.78 1005.99,1205.28 1010.5,1203.5C 1023.69,1202.83 1036.86,1201.83 1050,1200.5C 1056.84,1200.82 1063.67,1201.15 1070.5,1201.5 Z"/></g>
<g><path style="opacity:1" fill="#fefbde" d="M 1070.5,1201.5 C 1063.67,1201.15 1056.84,1200.82 1050,1200.5C 1036.86,1201.83 1023.69,1202.83 1010.5,1203.5C 1026.82,1199.55 1043.48,1198.05 1060.5,1199C 1063.99,1199.74 1067.32,1200.57 1070.5,1201.5 Z"/></g>
<g><path style="opacity:1" fill="#fff7c2" d="M 982.5,1217.5 C 978.615,1220.75 974.615,1223.92 970.5,1227C 969.207,1227.49 967.873,1227.66 966.5,1227.5C 971.102,1222.88 976.435,1219.55 982.5,1217.5 Z"/></g>
<g><path style="opacity:1" fill="#fdf6b0" d="M 966.5,1227.5 C 963.833,1230.83 960.833,1233.83 957.5,1236.5C 959.5,1232.5 962.5,1229.5 966.5,1227.5 Z"/></g>
<g><path style="opacity:1" fill="#fffe54" d="M 1409.5,1235.5 C 1416.42,1249.05 1423.25,1262.72 1430,1276.5C 1438,1295.18 1446,1313.85 1454,1332.5C 1461.77,1358.04 1470.1,1383.37 1479,1408.5C 1495.28,1449.35 1511.95,1490.02 1529,1530.5C 1531.63,1540.64 1534.63,1550.64 1538,1560.5C 1544.86,1592.62 1533.36,1615.12 1503.5,1628C 1498.57,1629.42 1493.57,1629.75 1488.5,1629C 1476.15,1626.99 1464.49,1622.99 1453.5,1617C 1430.17,1603 1406.17,1590 1381.5,1578C 1350.52,1559.03 1319.52,1540.03 1288.5,1521C 1281.24,1516.88 1274.57,1512.05 1268.5,1506.5C 1269.59,1504.64 1270.43,1502.64 1271,1500.5C 1276.67,1495.16 1282,1489.49 1287,1483.5C 1291.66,1476.17 1296.33,1468.84 1301,1461.5C 1305.18,1454.78 1308.02,1447.45 1309.5,1439.5C 1326.51,1439.3 1343.51,1438.8 1360.5,1438C 1365.12,1436.21 1369.79,1434.54 1374.5,1433C 1377.34,1429.82 1380.51,1426.99 1384,1424.5C 1384.67,1420.5 1384.67,1416.5 1384,1412.5C 1381.04,1409.31 1381.71,1406.64 1386,1404.5C 1388,1400.5 1388,1396.5 1386,1392.5C 1383.79,1390.96 1381.96,1389.13 1380.5,1387C 1384.05,1382.72 1387.22,1378.22 1390,1373.5C 1390.67,1369.83 1390.67,1366.17 1390,1362.5C 1388.83,1361.11 1387.33,1360.27 1385.5,1360C 1376.56,1359.15 1368.23,1360.98 1360.5,1365.5C 1359.83,1365.17 1359.17,1364.83 1358.5,1364.5C 1366.18,1352.65 1373.68,1340.65 1381,1328.5C 1384.04,1321.73 1386.54,1314.73 1388.5,1307.5C 1391.58,1303.01 1394.41,1298.34 1397,1293.5C 1403.81,1274.61 1407.98,1255.28 1409.5,1235.5 Z"/></g>
<g><path style="opacity:1" fill="#fffe54" d="M 735.5,1419.5 C 738.485,1417.55 741.818,1416.55 745.5,1416.5C 741.938,1448.35 747.605,1478.35 762.5,1506.5C 711.323,1537.58 660.656,1569.42 610.5,1602C 598.937,1605.81 587.271,1609.48 575.5,1613C 569.167,1613.67 562.833,1613.67 556.5,1613C 545.086,1602.67 538.586,1589.84 537,1574.5C 536.333,1562.83 536.333,1551.17 537,1539.5C 540.969,1524.29 544.302,1508.96 547,1493.5C 556.583,1463.59 565.917,1433.59 575,1403.5C 585.718,1377.06 596.718,1350.73 608,1324.5C 620.262,1299.88 632.428,1275.22 644.5,1250.5C 645.117,1250.39 645.617,1250.06 646,1249.5C 643.895,1262.8 641.561,1276.13 639,1289.5C 632.171,1318.7 637.838,1345.03 656,1368.5C 673.319,1384.16 690.152,1400 706.5,1416C 711.343,1419.92 716.677,1423.09 722.5,1425.5C 725.839,1424.5 729.173,1423.5 732.5,1422.5C 733.77,1421.71 734.77,1420.71 735.5,1419.5 Z"/></g>
<g><path style="opacity:1" fill="#fffe5a" d="M 1719.5,1282.5 C 1723.84,1281.52 1726.17,1283.19 1726.5,1287.5C 1725.97,1290.98 1725.63,1294.48 1725.5,1298C 1727.67,1317.22 1729,1336.56 1729.5,1356C 1730.27,1362.24 1727.77,1364.41 1722,1362.5C 1721,1358.83 1720,1355.17 1719,1351.5C 1718.83,1333.38 1717.66,1315.38 1715.5,1297.5C 1714.74,1291.85 1716.08,1286.85 1719.5,1282.5 Z"/></g>
<g><path style="opacity:1" fill="#f1ca45" d="M 1316.5,1317.5 C 1321.72,1316.41 1324.72,1318.41 1325.5,1323.5C 1326.28,1331.2 1327.28,1338.86 1328.5,1346.5C 1328.43,1347.77 1328.1,1348.94 1327.5,1350C 1322.85,1352.38 1319.01,1351.54 1316,1347.5C 1315.3,1341.52 1314.8,1335.52 1314.5,1329.5C 1314.34,1325.31 1315.01,1321.31 1316.5,1317.5 Z"/></g>
<g><path style="opacity:1" fill="#f1ca45" d="M 1334.5,1321.5 C 1336.9,1321.39 1338.74,1322.39 1340,1324.5C 1340.84,1331.98 1342.01,1339.31 1343.5,1346.5C 1343.08,1349.28 1342.41,1351.95 1341.5,1354.5C 1339.14,1354.66 1336.81,1354.5 1334.5,1354C 1330.87,1344.85 1329.71,1335.35 1331,1325.5C 1331.69,1323.65 1332.86,1322.32 1334.5,1321.5 Z"/></g>
<g><path style="opacity:1" fill="#fefad1" d="M 924.5,1303.5 C 922.887,1317.08 922.221,1330.75 922.5,1344.5C 919.359,1330.63 920.025,1316.96 924.5,1303.5 Z"/></g>
<g><path style="opacity:1" fill="#fdf5a6" d="M 1176.5,1317.5 C 1179.86,1330.69 1180.86,1344.02 1179.5,1357.5C 1179.38,1344.1 1178.38,1330.76 1176.5,1317.5 Z"/></g>
<g><path style="opacity:1" fill="#fffe96" d="M 927.5,1326.5 C 930.143,1330.56 930.643,1334.89 929,1339.5C 928.077,1335.21 927.577,1330.88 927.5,1326.5 Z"/></g>
<g><path style="opacity:1" fill="#fffe5a" d="M 321.5,1349.5 C 322.966,1350.35 323.8,1351.68 324,1353.5C 324.333,1359.17 324.667,1364.83 325,1370.5C 326.542,1377.46 327.876,1384.46 329,1391.5C 331.925,1397.27 334.258,1403.27 336,1409.5C 342.917,1416.56 341.417,1419.72 331.5,1419C 330.333,1417.83 329.167,1416.67 328,1415.5C 321.314,1401.18 317.147,1386.18 315.5,1370.5C 315.334,1364.16 315.5,1357.82 316,1351.5C 317.444,1349.84 319.278,1349.18 321.5,1349.5 Z"/></g>
<g><path style="opacity:1" fill="#fffebd" d="M 321.5,1349.5 C 319.278,1349.18 317.444,1349.84 316,1351.5C 315.5,1357.82 315.334,1364.16 315.5,1370.5C 314.346,1364.01 314.179,1357.35 315,1350.5C 317.016,1348.39 319.183,1348.06 321.5,1349.5 Z"/></g>
<g><path style="opacity:1" fill="#fdf49f" d="M 923.5,1368.5 C 924.746,1378.14 925.746,1387.8 926.5,1397.5C 923.517,1387.99 922.517,1378.32 923.5,1368.5 Z"/></g>
<g><path style="opacity:1" fill="#f1ca45" d="M 735.5,1387.5 C 737.467,1387.26 739.301,1387.59 741,1388.5C 744,1393.5 747,1398.5 750,1403.5C 749.425,1412.41 745.759,1413.74 739,1407.5C 736.951,1402.57 734.785,1397.74 732.5,1393C 732.685,1390.62 733.685,1388.79 735.5,1387.5 Z"/></g>
<g><path style="opacity:1" fill="#f1ca45" d="M 735.5,1419.5 C 733.218,1420.39 730.885,1420.56 728.5,1420C 720.88,1415.66 716.88,1409 716.5,1400C 716.993,1394.53 719.659,1393.2 724.5,1396C 727.094,1402.64 731.26,1408.14 737,1412.5C 737.833,1415.17 737.333,1417.5 735.5,1419.5 Z"/></g>
<g><path style="opacity:0.004" fill="#fffe4b" d="M 1910.5,1409.5 C 1909.83,1409.5 1909.17,1409.5 1908.5,1409.5C 1909.73,1404.34 1910.39,1404.34 1910.5,1409.5 Z"/></g>
<g><path style="opacity:0.004" fill="#fefffe" d="M 1908.5,1409.5 C 1909.17,1409.5 1909.83,1409.5 1910.5,1409.5C 1910.07,1410.71 1909.4,1411.71 1908.5,1412.5C 1908.5,1411.83 1908.5,1411.17 1908.5,1410.5C 1908.5,1410.17 1908.5,1409.83 1908.5,1409.5 Z"/></g>
<g><path style="opacity:0.004" fill="#feff00" d="M 1908.5,1410.5 C 1908.5,1411.17 1908.5,1411.83 1908.5,1412.5C 1908.5,1413.83 1907.83,1414.5 1906.5,1414.5C 1906.66,1412.85 1907.33,1411.51 1908.5,1410.5 Z"/></g>
<g><path style="opacity:0.004" fill="#feff00" d="M 1906.5,1414.5 C 1906.92,1415.22 1907.58,1415.72 1908.5,1416C 1907.94,1420.11 1906.6,1420.45 1904.5,1417C 1905.07,1416.01 1905.73,1415.17 1906.5,1414.5 Z"/></g>
<g><path style="opacity:0.004" fill="#ff6bfa" d="M 1903.5,1425.5 C 1904.57,1426.25 1904.74,1427.25 1904,1428.5C 1903.52,1427.55 1903.35,1426.55 1903.5,1425.5 Z"/></g>
<g><path style="opacity:0.004" fill="#feff00" d="M 1898.5,1441.5 C 1899.83,1442.17 1899.83,1442.17 1898.5,1441.5 Z"/></g>
<g><path style="opacity:0.004" fill="#ffc3f7" d="M 1896.5,1445.5 C 1897.24,1445.37 1897.91,1445.54 1898.5,1446C 1895.84,1452.17 1895.18,1452 1896.5,1445.5 Z"/></g>
<g><path style="opacity:0.004" fill="#fe0000" d="M 1882.5,1465.5 C 1883.53,1465.9 1883.69,1466.56 1883,1467.5C 1882.54,1466.91 1882.37,1466.24 1882.5,1465.5 Z"/></g>
<g><path style="opacity:1" fill="#fdf5a9" d="M 1134.5,1472.5 C 1131.74,1475.58 1128.41,1477.91 1124.5,1479.5C 1124.37,1478.62 1124.7,1477.96 1125.5,1477.5C 1128.28,1475.38 1131.28,1473.71 1134.5,1472.5 Z"/></g>
<g><path style="opacity:1" fill="#fffe5d" d="M 1739.5,1564.5 C 1739.5,1566.17 1739.5,1567.83 1739.5,1569.5C 1734.39,1574.18 1730.89,1573.18 1729,1566.5C 1728.77,1562.42 1728.1,1558.42 1727,1554.5C 1726.33,1532.17 1726.33,1509.83 1727,1487.5C 1729.2,1482.43 1732.54,1481.43 1737,1484.5C 1736.05,1510.82 1736.39,1537.16 1738,1563.5C 1738.38,1564.06 1738.88,1564.39 1739.5,1564.5 Z"/></g>
<g><path style="opacity:1" fill="#fffe56" d="M 336.5,1536.5 C 336.5,1562.17 336.5,1587.83 336.5,1613.5C 337.5,1613.5 338.5,1613.5 339.5,1613.5C 341.285,1613.93 342.285,1615.09 342.5,1617C 341.829,1623.83 338.162,1626.5 331.5,1625C 329.959,1623.42 328.792,1621.59 328,1619.5C 327.333,1591.17 327.333,1562.83 328,1534.5C 331.491,1532.77 334.325,1533.44 336.5,1536.5 Z"/></g>
<g><path style="opacity:1" fill="#f2ca4f" d="M 1104.5,1588.5 C 1103.12,1589.23 1101.62,1589.9 1100,1590.5C 1099.5,1595.82 1099.33,1601.16 1099.5,1606.5C 1104.18,1606.33 1108.85,1606.5 1113.5,1607C 1118.5,1609.15 1119.84,1612.81 1117.5,1618C 1112.93,1619.31 1108.27,1619.81 1103.5,1619.5C 1103.61,1627.53 1103.78,1635.53 1104,1643.5C 1101.16,1645.5 1097.99,1646 1094.5,1645C 1092.96,1643.89 1092.3,1642.39 1092.5,1640.5C 1092.68,1635.12 1092.34,1629.79 1091.5,1624.5C 1088.81,1625.66 1086.48,1627.5 1084.5,1630C 1077.49,1632.17 1074.49,1629.67 1075.5,1622.5C 1077.99,1617.33 1081.65,1613 1086.5,1609.5C 1087.43,1608.31 1087.76,1606.98 1087.5,1605.5C 1088.49,1601.03 1088.82,1596.36 1088.5,1591.5C 1088.88,1588.95 1090.38,1587.62 1093,1587.5C 1096.79,1588.31 1100.63,1588.64 1104.5,1588.5 Z"/></g>
<g><path style="opacity:1" fill="#f2cb4f" d="M 972.5,1597.5 C 972.5,1597.83 972.5,1598.17 972.5,1598.5C 965.833,1598.5 959.167,1598.5 952.5,1598.5C 953.815,1603.74 954.482,1609.08 954.5,1614.5C 958.93,1614.19 962.764,1615.53 966,1618.5C 967.073,1622.1 966.24,1625.1 963.5,1627.5C 960.167,1627.5 956.833,1627.5 953.5,1627.5C 953.92,1632.51 954.087,1637.51 954,1642.5C 950.869,1643.7 947.702,1643.7 944.5,1642.5C 943.828,1641.73 942.995,1641.07 942,1640.5C 941.667,1637.5 941.333,1634.5 941,1631.5C 939.122,1632.05 937.622,1633.05 936.5,1634.5C 933.111,1636.22 929.444,1636.89 925.5,1636.5C 923.574,1631.64 924.24,1627.31 927.5,1623.5C 930.939,1617.72 935.605,1613.39 941.5,1610.5C 941.5,1607.83 941.5,1605.17 941.5,1602.5C 941.6,1599.89 940.933,1597.56 939.5,1595.5C 940.364,1594.31 941.364,1593.15 942.5,1592C 947.707,1590.39 950.707,1592.22 951.5,1597.5C 958.5,1597.5 965.5,1597.5 972.5,1597.5 Z"/></g>
<g><path style="opacity:1" fill="#fcf199" d="M 1088.5,1591.5 C 1088.82,1596.36 1088.49,1601.03 1087.5,1605.5C 1087.5,1601.5 1087.5,1597.5 1087.5,1593.5C 1068.5,1594.77 1049.5,1595.77 1030.5,1596.5C 1025.83,1596.5 1021.17,1596.5 1016.5,1596.5C 1040.4,1595.33 1064.4,1593.66 1088.5,1591.5 Z"/></g>
<g><path style="opacity:1" fill="#fdf3a8" d="M 904.5,1593.5 C 916.094,1595.15 927.761,1595.82 939.5,1595.5C 940.933,1597.56 941.6,1599.89 941.5,1602.5C 939.896,1601.71 939.229,1600.38 939.5,1598.5C 931.19,1597.54 922.857,1596.7 914.5,1596C 910.91,1595.69 907.577,1594.86 904.5,1593.5 Z"/></g>
<g><path style="opacity:1" fill="#fef8c6" d="M 1016.5,1596.5 C 1021.17,1596.5 1025.83,1596.5 1030.5,1596.5C 1011.34,1597.7 992.01,1598.37 972.5,1598.5C 972.5,1598.17 972.5,1597.83 972.5,1597.5C 987.154,1596.75 1001.82,1596.42 1016.5,1596.5 Z"/></g>
<g><path style="opacity:1" fill="#fffec8" d="M 336.5,1536.5 C 336.852,1562.22 337.852,1587.89 339.5,1613.5C 338.5,1613.5 337.5,1613.5 336.5,1613.5C 336.5,1587.83 336.5,1562.17 336.5,1536.5 Z"/></g>
<g><path style="opacity:0.985" fill="#fffe54" d="M 1738.5,1610.5 C 1740.62,1611.03 1742.12,1612.36 1743,1614.5C 1744.53,1618.09 1745.86,1621.76 1747,1625.5C 1750.26,1643.54 1754.93,1661.21 1761,1678.5C 1765.5,1676 1770.34,1674.5 1775.5,1674C 1800.77,1670.96 1825.77,1672.3 1850.5,1678C 1853.33,1678.17 1854.83,1679.67 1855,1682.5C 1855.78,1685.26 1855.28,1687.76 1853.5,1690C 1844.68,1693.91 1836.35,1698.57 1828.5,1704C 1816.41,1709.92 1804.08,1715.25 1791.5,1720C 1789.78,1720.52 1788.44,1721.52 1787.5,1723C 1791.3,1730.36 1793.8,1738.2 1795,1746.5C 1795.33,1755.5 1795.67,1764.5 1796,1773.5C 1796.31,1778.18 1797.14,1782.68 1798.5,1787C 1798.46,1788.76 1798.12,1790.43 1797.5,1792C 1794.18,1792.5 1790.85,1792.67 1787.5,1792.5C 1787.61,1790.1 1786.61,1788.26 1784.5,1787C 1782.05,1786.28 1779.72,1785.28 1777.5,1784C 1755.21,1778.57 1733.05,1772.74 1711,1766.5C 1703.98,1770.83 1697.48,1776 1691.5,1782C 1684.68,1787.49 1677.35,1792.15 1669.5,1796C 1659.18,1798.17 1654.85,1794 1656.5,1783.5C 1657.01,1774.65 1659.34,1766.32 1663.5,1758.5C 1668.68,1751.97 1671.01,1744.64 1670.5,1736.5C 1660.97,1738.6 1651.3,1739.6 1641.5,1739.5C 1627.14,1739.74 1613.8,1736.24 1601.5,1729C 1595.83,1724.47 1594,1718.64 1596,1711.5C 1600.54,1706.81 1605.71,1702.98 1611.5,1700C 1632.57,1691.63 1653.57,1682.97 1674.5,1674C 1692.87,1653.96 1710.87,1633.63 1728.5,1613C 1731.45,1610.84 1734.78,1610 1738.5,1610.5 Z"/></g>
<g><path style="opacity:1" fill="#f7de92" d="M 1075.5,1622.5 C 1074.49,1629.67 1077.49,1632.17 1084.5,1630C 1086.48,1627.5 1088.81,1625.66 1091.5,1624.5C 1092.34,1629.79 1092.68,1635.12 1092.5,1640.5C 1091.68,1636.69 1091.18,1632.69 1091,1628.5C 1090.59,1628.04 1090.09,1627.71 1089.5,1627.5C 1086.96,1630.55 1083.79,1632.55 1080,1633.5C 1075.02,1631.23 1073.52,1627.56 1075.5,1622.5 Z"/></g>
<g><path style="opacity:0.986" fill="#fffe54" d="M 329.5,1645.5 C 330.03,1647.92 330.864,1650.26 332,1652.5C 341.056,1664.56 349.722,1676.89 358,1689.5C 363.605,1695.89 369.772,1701.73 376.5,1707C 378.833,1707.67 381.167,1707.67 383.5,1707C 411.947,1699.21 440.947,1696.21 470.5,1698C 473.207,1699.86 474.041,1702.36 473,1705.5C 456,1727.83 436.333,1747.5 414,1764.5C 413.333,1765.5 413.333,1766.5 414,1767.5C 417.926,1774.89 421.092,1782.56 423.5,1790.5C 427.506,1803.51 431.672,1816.51 436,1829.5C 438.892,1837.91 436.059,1841.41 427.5,1840C 423.5,1838 419.5,1836 415.5,1834C 392.146,1828.65 370.48,1819.49 350.5,1806.5C 349.522,1806.98 348.689,1807.64 348,1808.5C 340.333,1821.17 332.667,1833.83 325,1846.5C 322.5,1849 320,1851.5 317.5,1854C 313.056,1856.59 308.39,1857.09 303.5,1855.5C 302.515,1853.23 301.681,1850.89 301,1848.5C 300.5,1840.84 300.334,1833.17 300.5,1825.5C 301.766,1819.63 301.766,1813.63 300.5,1807.5C 300.5,1796.17 300.5,1784.83 300.5,1773.5C 279.874,1774.73 259.874,1771.9 240.5,1765C 227.32,1759 224.82,1749.83 233,1737.5C 237.575,1732.25 242.742,1727.75 248.5,1724C 261.291,1717.68 274.291,1711.85 287.5,1706.5C 289.446,1699.61 290.946,1692.61 292,1685.5C 293.678,1671.1 295.678,1656.77 298,1642.5C 302.289,1633.62 309.123,1630.79 318.5,1634C 322.398,1637.73 326.065,1641.56 329.5,1645.5 Z"/></g>
<g><path style="opacity:1" fill="#f8e19a" d="M 927.5,1623.5 C 924.24,1627.31 923.574,1631.64 925.5,1636.5C 929.444,1636.89 933.111,1636.22 936.5,1634.5C 934.602,1637.15 931.935,1638.48 928.5,1638.5C 926.626,1638.61 925.126,1637.94 924,1636.5C 922,1632.83 922,1629.17 924,1625.5C 924.816,1624.18 925.983,1623.51 927.5,1623.5 Z"/></g>
<g><path style="opacity:1" fill="#f8e29e" d="M 963.5,1627.5 C 960.713,1628.48 957.713,1628.81 954.5,1628.5C 954.315,1632.07 954.981,1635.4 956.5,1638.5C 955.72,1644.4 952.387,1646.57 946.5,1645C 945.619,1644.29 944.953,1643.46 944.5,1642.5C 947.702,1643.7 950.869,1643.7 954,1642.5C 954.087,1637.51 953.92,1632.51 953.5,1627.5C 956.833,1627.5 960.167,1627.5 963.5,1627.5 Z"/></g>
<g><path style="opacity:0.986" fill="#fffe5a" d="M 1510.5,1750.5 C 1506.24,1752.98 1501.74,1753.65 1497,1752.5C 1495.97,1752.16 1495.47,1751.5 1495.5,1750.5C 1496.4,1749.79 1496.74,1748.79 1496.5,1747.5C 1487.32,1747.17 1478.32,1747.51 1469.5,1748.5C 1459.81,1748.24 1450.14,1748.58 1440.5,1749.5C 1435.58,1747.04 1435.25,1743.88 1439.5,1740C 1448.66,1739.97 1457.66,1739.31 1466.5,1738C 1480.83,1737.33 1495.17,1737.33 1509.5,1738C 1512.69,1738.57 1514.36,1740.4 1514.5,1743.5C 1514.03,1746.31 1512.69,1748.64 1510.5,1750.5 Z"/></g>
<g><path style="opacity:1" fill="#fffe5b" d="M 1160.5,1740.5 C 1173.89,1740.86 1187.23,1741.69 1200.5,1743C 1203.46,1746.49 1202.79,1749.15 1198.5,1751C 1188.5,1751.67 1178.5,1751.67 1168.5,1751C 1165.1,1750.9 1161.93,1750.07 1159,1748.5C 1158.11,1745.5 1158.61,1742.84 1160.5,1740.5 Z"/></g>
<g><path style="opacity:1" fill="#fffe5a" d="M 1568.5,1752.5 C 1566.3,1752.59 1564.14,1752.92 1562,1753.5C 1560.12,1753.48 1558.62,1752.81 1557.5,1751.5C 1557.71,1749.4 1557.87,1747.06 1558,1744.5C 1558.83,1743.67 1559.67,1742.83 1560.5,1742C 1573.17,1741.23 1585.83,1740.9 1598.5,1741C 1599.42,1741.37 1600.25,1741.87 1601,1742.5C 1601.67,1744.83 1601.67,1747.17 1601,1749.5C 1596.94,1754.32 1592.6,1754.65 1588,1750.5C 1581.36,1751.11 1574.86,1751.78 1568.5,1752.5 Z"/></g>
<g><path style="opacity:1" fill="#fffe5a" d="M 924.5,1741.5 C 930.262,1741.15 935.928,1741.65 941.5,1743C 943.524,1746.98 942.524,1749.65 938.5,1751C 920.914,1752.37 903.414,1754.54 886,1757.5C 881.251,1757.41 879.585,1755.08 881,1750.5C 881.903,1749.3 883.069,1748.47 884.5,1748C 897.985,1745.77 911.318,1743.6 924.5,1741.5 Z"/></g>
<g><path style="opacity:1" fill="#fffe5a" d="M 797.5,1744.5 C 804.819,1742.68 808.319,1745.35 808,1752.5C 805.98,1755.57 803.313,1756.24 800,1754.5C 785.59,1756.58 771.257,1758.58 757,1760.5C 749.441,1760.64 747.607,1757.47 751.5,1751C 767.127,1749.88 782.46,1747.71 797.5,1744.5 Z"/></g>
<g><path style="opacity:0.935" fill="#fffe54" d="M 1372.5,1752.5 C 1372.5,1754.17 1372.5,1755.83 1372.5,1757.5C 1367.96,1759.2 1363.96,1758.36 1360.5,1755C 1345.5,1754.67 1330.5,1754.33 1315.5,1754C 1314.58,1753.72 1313.92,1753.22 1313.5,1752.5C 1314.16,1750.2 1314.83,1747.86 1315.5,1745.5C 1331.82,1744.33 1348.16,1744.17 1364.5,1745C 1368.32,1746.32 1370.99,1748.82 1372.5,1752.5 Z"/></g>
<g><path style="opacity:1" fill="#fffe5c" d="M 1084.5,1758.5 C 1082.72,1759.72 1081.05,1759.72 1079.5,1758.5C 1077.94,1756.01 1075.61,1755.01 1072.5,1755.5C 1066.39,1755.57 1060.73,1756.57 1055.5,1758.5C 1049.18,1759.01 1042.85,1759.35 1036.5,1759.5C 1034.14,1759.66 1031.81,1759.5 1029.5,1759C 1025.13,1756.81 1024.46,1753.81 1027.5,1750C 1042.77,1749.1 1057.94,1747.6 1073,1745.5C 1083.19,1744.52 1087.03,1748.85 1084.5,1758.5 Z"/></g>
<g><path style="opacity:1" fill="#fffec3" d="M 1469.5,1748.5 C 1478.32,1747.51 1487.32,1747.17 1496.5,1747.5C 1496.74,1748.79 1496.4,1749.79 1495.5,1750.5C 1487.23,1748.53 1478.56,1747.86 1469.5,1748.5 Z"/></g>
<g><path style="opacity:1" fill="#fffe5b" d="M 634.5,1748.5 C 638.131,1748.03 641.465,1748.7 644.5,1750.5C 645.952,1753.28 645.619,1755.78 643.5,1758C 633.43,1760.01 623.263,1761.51 613,1762.5C 609.833,1762.33 606.667,1762.17 603.5,1762C 600.022,1759.29 599.689,1756.29 602.5,1753C 607.807,1753.36 613.141,1753.36 618.5,1753C 623.874,1751.16 629.207,1749.66 634.5,1748.5 Z"/></g>
<g><path style="opacity:1" fill="#fffe5c" d="M 504.5,1750.5 C 509.959,1750.1 515.292,1750.6 520.5,1752C 523.932,1754.37 524.265,1757.03 521.5,1760C 513.805,1760.36 506.138,1761.02 498.5,1762C 490.04,1764.95 481.374,1766.29 472.5,1766C 468.973,1763.7 468.64,1761.03 471.5,1758C 482.798,1756.16 493.798,1753.66 504.5,1750.5 Z"/></g>
<g><path style="opacity:0.545" fill="#fffef3" d="M 1079.5,1758.5 C 1071.5,1758.5 1063.5,1758.5 1055.5,1758.5C 1060.73,1756.57 1066.39,1755.57 1072.5,1755.5C 1075.61,1755.01 1077.94,1756.01 1079.5,1758.5 Z"/></g>
<g><path style="opacity:0.366" fill="#fffea7" d="M 300.5,1807.5 C 301.766,1813.63 301.766,1819.63 300.5,1825.5C 300.353,1819.76 300.353,1813.76 300.5,1807.5 Z"/></g>
</svg>
