<?xml version="1.0" encoding="UTF-8"?>
<!DOCTYPE svg PUBLIC "-//W3C//DTD SVG 1.1//EN" "http://www.w3.org/Graphics/SVG/1.1/DTD/svg11.dtd">
<svg xmlns="http://www.w3.org/2000/svg" version="1.1" width="1646px" height="1706px" style="shape-rendering:geometricPrecision; text-rendering:geometricPrecision; image-rendering:optimizeQuality; fill-rule:evenodd; clip-rule:evenodd" xmlns:xlink="http://www.w3.org/1999/xlink">
<g><path style="opacity:0.985" fill="#fffe54" d="M 1476.5,184.5 C 1473.49,183.439 1470.49,182.273 1467.5,181C 1460.5,176.5 1453.5,172 1446.5,167.5C 1440.36,174.439 1435.19,182.106 1431,190.5C 1426.95,195.427 1422.78,200.26 1418.5,205C 1409.74,209.056 1404.24,206.556 1402,197.5C 1401.03,182.514 1400.53,167.514 1400.5,152.5C 1385.96,155.243 1371.29,156.076 1356.5,155C 1352.03,153.357 1348.2,150.857 1345,147.5C 1344.33,142.5 1344.33,137.5 1345,132.5C 1348.91,124.333 1353.58,116.667 1359,109.5C 1361.28,102.818 1363.45,96.1512 1365.5,89.5C 1367.91,82.5823 1370.08,75.5823 1372,68.5C 1384.18,44.2943 1399.68,22.461 1418.5,3C 1423.84,1.46597 1428.34,2.63264 1432,6.5C 1435.78,14.5062 1438.78,22.8396 1441,31.5C 1445.52,39.6899 1451.19,47.0232 1458,53.5C 1459.92,57.0171 1461.59,60.6837 1463,64.5C 1473.68,61.0385 1484.68,59.7052 1496,60.5C 1506.62,60.1802 1517.12,61.0136 1527.5,63C 1532.08,66.3096 1533.58,70.8096 1532,76.5C 1530.93,79.2417 1529.43,81.7417 1527.5,84C 1516.39,91.8917 1504.39,98.2251 1491.5,103C 1489.91,104.046 1488.41,105.213 1487,106.5C 1489.9,123.775 1492.9,141.108 1496,158.5C 1496.67,165.5 1496.67,172.5 1496,179.5C 1494.66,182.094 1492.49,183.594 1489.5,184C 1485.18,184.499 1480.85,184.666 1476.5,184.5 Z"/></g>
<g><path style="opacity:0.979" fill="#fffe54" d="M 163.5,153.5 C 163.389,154.117 163.056,154.617 162.5,155C 173.065,168.129 180.732,182.796 185.5,199C 185.417,203.749 183.084,206.749 178.5,208C 170.5,208.667 162.5,208.667 154.5,208C 144.317,204.236 133.983,201.236 123.5,199C 121.379,204.029 118.879,208.862 116,213.5C 106.814,225.019 96.647,235.519 85.5,245C 82.6492,246.289 79.6492,246.789 76.5,246.5C 74.9826,246.489 73.8159,245.823 73,244.5C 71.5117,240.213 70.1783,235.88 69,231.5C 67.9949,216.435 66.4949,201.435 64.5,186.5C 52.4466,186.891 40.4466,186.391 28.5,185C 26.5318,183.456 24.3651,182.289 22,181.5C 19.8944,177.099 17.7277,172.766 15.5,168.5C 17.8979,161.922 21.7312,156.256 27,151.5C 33.6948,142.305 40.1948,132.971 46.5,123.5C 50.498,103.845 54.3314,84.1788 58,64.5C 58.7648,61.8041 59.9315,59.3041 61.5,57C 66.9448,54.8469 72.2781,55.0136 77.5,57.5C 80.9141,61.9936 84.0808,66.6603 87,71.5C 89.1847,72.9284 91.1847,74.5951 93,76.5C 97.4914,86.8194 103.491,96.1527 111,104.5C 128.917,98.8121 147.084,93.9788 165.5,90C 172.249,89.1227 178.916,89.456 185.5,91C 187.35,94.6312 187.85,98.4645 187,102.5C 184.676,105.823 182.009,108.823 179,111.5C 175.024,120.788 170.024,129.455 164,137.5C 162.551,140.732 161.384,144.065 160.5,147.5C 161.489,149.494 162.489,151.494 163.5,153.5 Z"/></g>
<g><path style="opacity:0.88" fill="#fffe55" d="M 1329.5,88.5 C 1328.83,88.5 1328.17,88.5 1327.5,88.5C 1325.26,88.2053 1323.26,88.5386 1321.5,89.5C 1308.22,91.2563 1295.05,93.5896 1282,96.5C 1277.11,96.7749 1274.61,94.4415 1274.5,89.5C 1274.88,88.0689 1275.88,87.2355 1277.5,87C 1293.07,83.7313 1308.57,80.2313 1324,76.5C 1332.12,76.0805 1334.96,79.7472 1332.5,87.5C 1331.21,87.2627 1330.21,87.596 1329.5,88.5 Z"/></g>
<g><path style="opacity:0.02" fill="#fffe67" d="M 524.5,80.5 C 526.337,80.6395 526.67,81.3061 525.5,82.5C 524.702,82.0431 524.369,81.3764 524.5,80.5 Z"/></g>
<g><path style="opacity:0.942" fill="#fffe59" d="M 1204.5,94.5 C 1186.75,98.5203 1169.09,103.02 1151.5,108C 1143.84,112.424 1140.01,110.258 1140,101.5C 1140.9,100.299 1142.07,99.4652 1143.5,99C 1148.01,98.3855 1152.35,97.5522 1156.5,96.5C 1168.89,92.0393 1181.55,88.3726 1194.5,85.5C 1201.62,84.2917 1204.96,87.2917 1204.5,94.5 Z"/></g>
<g><path style="opacity:0.844" fill="#fffe53" d="M 838.5,86.5 C 842.846,86.3343 847.179,86.501 851.5,87C 855.102,88.2734 856.268,90.7734 855,94.5C 854.5,95.6667 853.667,96.5 852.5,97C 836.134,98.9208 819.801,101.087 803.5,103.5C 802.96,104.748 802.293,105.915 801.5,107C 795.32,108.022 789.32,107.522 783.5,105.5C 780.388,100.899 781.055,97.0652 785.5,94C 803.348,91.7297 821.015,89.2297 838.5,86.5 Z"/></g>
<g><path style="opacity:0.997" fill="#fffefe" d="M 1327.5,88.5 C 1328.17,88.5 1328.83,88.5 1329.5,88.5C 1341.51,88.5005 1353.51,88.8338 1365.5,89.5C 1363.45,96.1512 1361.28,102.818 1359,109.5C 1353.58,116.667 1348.91,124.333 1345,132.5C 1344.33,137.5 1344.33,142.5 1345,147.5C 1348.2,150.857 1352.03,153.357 1356.5,155C 1371.29,156.076 1385.96,155.243 1400.5,152.5C 1400.53,167.514 1401.03,182.514 1402,197.5C 1404.24,206.556 1409.74,209.056 1418.5,205C 1422.78,200.26 1426.95,195.427 1431,190.5C 1435.19,182.106 1440.36,174.439 1446.5,167.5C 1453.5,172 1460.5,176.5 1467.5,181C 1470.49,182.273 1473.49,183.439 1476.5,184.5C 1486.96,212.885 1493.46,242.219 1496,272.5C 1497.24,285.482 1498.24,298.482 1499,311.5C 1500.11,362.245 1502.28,412.912 1505.5,463.5C 1505.11,466.063 1504.78,468.563 1504.5,471C 1506.73,569.188 1510.06,667.355 1514.5,765.5C 1514,780.174 1513.33,794.841 1512.5,809.5C 1514.69,833.447 1516.19,857.447 1517,881.5C 1518.92,963.834 1520.75,1046.17 1522.5,1128.5C 1520.58,1223.51 1518.58,1318.51 1516.5,1413.5C 1515.88,1413.39 1515.38,1413.06 1515,1412.5C 1513.39,1386.16 1513.05,1359.82 1514,1333.5C 1509.54,1330.43 1506.2,1331.43 1504,1336.5C 1503.33,1358.83 1503.33,1381.17 1504,1403.5C 1505.1,1407.42 1505.77,1411.42 1506,1415.5C 1507.89,1422.18 1511.39,1423.18 1516.5,1418.5C 1515.72,1432.15 1515.38,1445.82 1515.5,1459.5C 1511.78,1459 1508.45,1459.84 1505.5,1462C 1487.87,1482.63 1469.87,1502.96 1451.5,1523C 1430.57,1531.97 1409.57,1540.63 1388.5,1549C 1382.71,1551.98 1377.54,1555.81 1373,1560.5C 1371,1567.64 1372.83,1573.47 1378.5,1578C 1390.8,1585.24 1404.14,1588.74 1418.5,1588.5C 1428.3,1588.6 1437.97,1587.6 1447.5,1585.5C 1448.01,1593.64 1445.68,1600.97 1440.5,1607.5C 1408.68,1607.58 1377.01,1605.58 1345.5,1601.5C 1351.86,1600.78 1358.36,1600.11 1365,1599.5C 1369.6,1603.65 1373.94,1603.32 1378,1598.5C 1378.67,1596.17 1378.67,1593.83 1378,1591.5C 1377.25,1590.87 1376.42,1590.37 1375.5,1590C 1362.83,1589.9 1350.17,1590.23 1337.5,1591C 1336.67,1591.83 1335.83,1592.67 1335,1593.5C 1334.87,1596.06 1334.71,1598.4 1334.5,1600.5C 1318.85,1599.64 1303.18,1599.3 1287.5,1599.5C 1289.69,1597.64 1291.03,1595.31 1291.5,1592.5C 1291.36,1589.4 1289.69,1587.57 1286.5,1587C 1272.17,1586.33 1257.83,1586.33 1243.5,1587C 1234.66,1588.31 1225.66,1588.97 1216.5,1589C 1212.25,1592.88 1212.58,1596.04 1217.5,1598.5C 1227.14,1597.58 1236.81,1597.24 1246.5,1597.5C 1255.56,1596.86 1264.23,1597.53 1272.5,1599.5C 1247.84,1600.83 1223.18,1600.83 1198.5,1599.5C 1182.17,1600.26 1165.84,1600.93 1149.5,1601.5C 1147.99,1597.82 1145.32,1595.32 1141.5,1594C 1125.16,1593.17 1108.82,1593.33 1092.5,1594.5C 1091.83,1596.86 1091.16,1599.2 1090.5,1601.5C 1082.25,1600.37 1073.91,1600.2 1065.5,1601C 1047.54,1602.81 1029.54,1604.14 1011.5,1605C 961.492,1605.45 911.492,1606.28 861.5,1607.5C 864.026,1597.85 860.193,1593.52 850,1594.5C 834.941,1596.6 819.774,1598.1 804.5,1599C 802.604,1600.81 802.104,1602.97 803,1605.5C 803.816,1606.82 804.983,1607.49 806.5,1607.5C 808.607,1608.47 810.941,1608.8 813.5,1608.5C 785.802,1612.64 757.802,1614.81 729.5,1615C 709.162,1616.93 688.829,1618.93 668.5,1621C 654.592,1621.18 640.758,1621.68 627,1622.5C 624.925,1621.87 622.759,1621.53 620.5,1621.5C 586.403,1624.74 552.236,1626.74 518,1627.5C 512.664,1627.21 507.331,1626.87 502,1626.5C 468.879,1629.08 435.713,1630.75 402.5,1631.5C 394.498,1631.22 386.498,1630.88 378.5,1630.5C 339.962,1632.42 301.462,1633.76 263,1634.5C 262.667,1634.17 262.333,1633.83 262,1633.5C 241.55,1635.53 221.05,1637.53 200.5,1639.5C 198.092,1631.56 194.926,1623.89 191,1616.5C 190.333,1615.5 190.333,1614.5 191,1613.5C 213.333,1596.5 233,1576.83 250,1554.5C 251.041,1551.36 250.207,1548.86 247.5,1547C 217.947,1545.21 188.947,1548.21 160.5,1556C 158.167,1556.67 155.833,1556.67 153.5,1556C 146.772,1550.73 140.605,1544.89 135,1538.5C 126.722,1525.89 118.056,1513.56 109,1501.5C 107.864,1499.26 107.03,1496.92 106.5,1494.5C 96.1512,1437.87 88.3179,1380.87 83,1323.5C 75.8849,1253.57 69.5516,1183.57 64,1113.5C 56.8485,994.227 50.8485,874.893 46,755.5C 45.9117,717.922 46.745,680.422 48.5,643C 48.1373,630.224 47.804,617.39 47.5,604.5C 48.0861,586.159 48.7527,567.825 49.5,549.5C 49.5,545.833 49.5,542.167 49.5,538.5C 52.6146,487.576 55.9479,437.243 59.5,387.5C 60.0778,386.453 60.7445,386.62 61.5,388C 64.5876,388.847 67.4209,388.347 70,386.5C 71.0904,383.421 70.2571,381.088 67.5,379.5C 66.5002,351.841 66.1669,324.175 66.5,296.5C 68.6007,286.393 70.1007,276.06 71,265.5C 72.9416,259.178 74.7749,252.844 76.5,246.5C 79.6492,246.789 82.6492,246.289 85.5,245C 96.647,235.519 106.814,225.019 116,213.5C 118.879,208.862 121.379,204.029 123.5,199C 133.983,201.236 144.317,204.236 154.5,208C 162.5,208.667 170.5,208.667 178.5,208C 183.084,206.749 185.417,203.749 185.5,199C 180.732,182.796 173.065,168.129 162.5,155C 163.056,154.617 163.389,154.117 163.5,153.5C 176.057,147.558 189.057,142.725 202.5,139C 218.766,136.981 235.099,135.814 251.5,135.5C 251.938,135.435 252.272,135.601 252.5,136C 248.787,137.691 247.621,140.525 249,144.5C 250.126,145.944 251.626,146.61 253.5,146.5C 262.358,144.32 270.525,140.653 278,135.5C 284.653,133.231 291.486,131.898 298.5,131.5C 300.735,131.795 302.735,131.461 304.5,130.5C 306.167,130.5 307.833,130.5 309.5,130.5C 345.806,128.473 382.139,126.807 418.5,125.5C 421.5,125.5 424.5,125.5 427.5,125.5C 434.995,125.024 442.329,124.358 449.5,123.5C 458.542,123.964 467.542,123.964 476.5,123.5C 503.451,122.403 530.451,122.403 557.5,123.5C 573.778,121.543 590.111,120.543 606.5,120.5C 613.196,120.609 619.863,120.276 626.5,119.5C 632.195,118.913 637.861,118.08 643.5,117C 690.515,115.027 737.515,112.693 784.5,110C 803.19,109.666 821.856,108.833 840.5,107.5C 846.992,107.98 853.492,108.313 860,108.5C 892.807,106.33 925.64,104.663 958.5,103.5C 964.491,103.034 970.491,102.701 976.5,102.5C 983.167,103.833 989.833,103.833 996.5,102.5C 1002.36,102.051 1008.03,102.717 1013.5,104.5C 1016.72,106.184 1019.38,105.517 1021.5,102.5C 1022.17,102.5 1022.5,102.167 1022.5,101.5C 1067.16,99.6261 1111.83,97.9594 1156.5,96.5C 1152.35,97.5522 1148.01,98.3855 1143.5,99C 1142.07,99.4652 1140.9,100.299 1140,101.5C 1140.01,110.258 1143.84,112.424 1151.5,108C 1169.09,103.02 1186.75,98.5203 1204.5,94.5C 1227.87,93.2768 1251.21,91.6101 1274.5,89.5C 1274.61,94.4415 1277.11,96.7749 1282,96.5C 1295.05,93.5896 1308.22,91.2563 1321.5,89.5C 1323.74,89.7947 1325.74,89.4614 1327.5,88.5 Z"/></g>
<g><path style="opacity:0.87" fill="#fffe54" d="M 1022.5,101.5 C 1022.5,102.167 1022.17,102.5 1021.5,102.5C 1019.12,104.046 1016.45,104.713 1013.5,104.5C 1008.03,102.717 1002.36,102.051 996.5,102.5C 989.833,102.5 983.167,102.5 976.5,102.5C 970.491,102.701 964.491,103.034 958.5,103.5C 956.211,100.043 955.878,96.376 957.5,92.5C 976.802,91.3705 996.136,91.2038 1015.5,92C 1020,93.6519 1022.33,96.8186 1022.5,101.5 Z"/></g>
<g><path style="opacity:0.827" fill="#fffe53" d="M 626.5,119.5 C 619.863,120.276 613.196,120.609 606.5,120.5C 600.828,118.817 599.161,115.15 601.5,109.5C 616.455,109.681 630.789,106.514 644.5,100C 648.423,99.2073 652.256,99.374 656,100.5C 657.98,103.595 657.813,106.595 655.5,109.5C 645.874,113.263 636.207,116.596 626.5,119.5 Z"/></g>
<g><path style="opacity:1" fill="#fffeb2" d="M 1021.5,102.5 C 1019.38,105.517 1016.72,106.184 1013.5,104.5C 1016.45,104.713 1019.12,104.046 1021.5,102.5 Z"/></g>
<g><path style="opacity:0.832" fill="#fffe54" d="M 476.5,123.5 C 467.542,123.964 458.542,123.964 449.5,123.5C 443.158,123.334 436.825,123.5 430.5,124C 429.263,124.232 428.263,124.732 427.5,125.5C 424.5,125.5 421.5,125.5 418.5,125.5C 415.875,121.665 415.875,117.832 418.5,114C 434.723,111.529 451.056,110.862 467.5,112C 470.365,112.837 473.198,113.67 476,114.5C 477.698,117.396 477.864,120.396 476.5,123.5 Z"/></g>
<g><path style="opacity:0.888" fill="#fffe56" d="M 309.5,130.5 C 307.833,130.5 306.167,130.5 304.5,130.5C 302.265,130.205 300.265,130.539 298.5,131.5C 291.486,131.898 284.653,133.231 278,135.5C 270.525,140.653 262.358,144.32 253.5,146.5C 251.626,146.61 250.126,145.944 249,144.5C 247.621,140.525 248.787,137.691 252.5,136C 252.272,135.601 251.938,135.435 251.5,135.5C 258.89,133.477 265.89,130.31 272.5,126C 283.514,121.937 294.847,119.437 306.5,118.5C 308.135,119.046 309.801,119.38 311.5,119.5C 313.201,123.678 312.535,127.345 309.5,130.5 Z"/></g>
<g><path style="opacity:1" fill="#fffe7b" d="M 821.5,180.5 C 815.435,179.303 809.435,177.803 803.5,176C 794.487,175.448 785.487,175.615 776.5,176.5C 782.042,174.672 787.876,173.672 794,173.5C 798.841,173.927 803.674,174.427 808.5,175C 813.158,176.161 817.492,177.994 821.5,180.5 Z"/></g>
<g><path style="opacity:1" fill="#fffe54" d="M 821.5,180.5 C 830.803,184.421 838.636,190.421 845,198.5C 855.959,213.751 864.292,230.418 870,248.5C 875.91,267.161 882.577,285.494 890,303.5C 894.521,321.935 901.021,339.602 909.5,356.5C 909.209,357.649 908.376,358.316 907,358.5C 896.572,356.507 886.072,355.007 875.5,354C 858.122,353.081 840.789,351.747 823.5,350C 826.085,343.657 828.252,337.157 830,330.5C 836.615,318.02 838.949,304.686 837,290.5C 830.46,285.467 823.627,285.3 816.5,290C 814.293,292.705 811.626,294.871 808.5,296.5C 801.615,285.941 791.948,282.107 779.5,285C 771.527,291.189 766.693,299.356 765,309.5C 763.54,320.798 763.207,332.131 764,343.5C 765.167,345.833 766.333,348.167 767.5,350.5C 726.158,353.698 686.491,363.364 648.5,379.5C 648.5,378.5 648.5,377.5 648.5,376.5C 651.238,367.69 655.071,359.356 660,351.5C 671.915,322.337 684.915,293.671 699,265.5C 703.416,257.667 708.082,250 713,242.5C 725.748,225.932 738.248,209.266 750.5,192.5C 752.179,192.108 753.846,191.608 755.5,191C 757.847,186.648 761.514,184.148 766.5,183.5C 768.839,181.004 771.505,179.004 774.5,177.5C 774.842,176.662 775.508,176.328 776.5,176.5C 785.487,175.615 794.487,175.448 803.5,176C 809.435,177.803 815.435,179.303 821.5,180.5 Z"/></g>
<g><path style="opacity:1" fill="#fffe76" d="M 774.5,177.5 C 771.505,179.004 768.839,181.004 766.5,183.5C 761.514,184.148 757.847,186.648 755.5,191C 753.846,191.608 752.179,192.108 750.5,192.5C 756.958,185.043 764.958,180.043 774.5,177.5 Z"/></g>
<g><path style="opacity:1" fill="#fffe56" d="M 1490.5,304.5 C 1491.51,312.135 1492.01,319.802 1492,327.5C 1488.19,330.539 1485.19,329.872 1483,325.5C 1480.74,302.592 1479.9,279.592 1480.5,256.5C 1483.34,253.899 1486.17,253.899 1489,256.5C 1489.17,272.672 1489.67,288.672 1490.5,304.5 Z"/></g>
<g><path style="opacity:1" fill="#fffe97" d="M 1490.5,304.5 C 1489.67,288.672 1489.17,272.672 1489,256.5C 1486.17,253.899 1483.34,253.899 1480.5,256.5C 1482.97,251.58 1486.14,251.247 1490,255.5C 1490.5,271.83 1490.67,288.163 1490.5,304.5 Z"/></g>
<g><path style="opacity:1" fill="#faea4e" d="M 909.5,356.5 C 910.349,358.5 911.849,359.833 914,360.5C 917.774,361.569 921.607,362.236 925.5,362.5C 929.159,364.342 933.159,365.342 937.5,365.5C 943.949,367.584 950.615,369.25 957.5,370.5C 959.435,371.15 961.435,371.483 963.5,371.5C 969.483,374.388 975.816,376.721 982.5,378.5C 986.495,380.165 990.495,381.832 994.5,383.5C 997.484,385.659 1000.82,387.325 1004.5,388.5C 1010.62,390.865 1016.62,393.532 1022.5,396.5C 1025.36,399.001 1028.69,400.668 1032.5,401.5C 1036.81,403.321 1041.14,405.154 1045.5,407C 1064.6,419.067 1082.93,432.4 1100.5,447C 1117.67,463.838 1135.17,480.338 1153,496.5C 1158,502.833 1163,509.167 1168,515.5C 1171.77,523.29 1176.77,530.29 1183,536.5C 1184.09,538.078 1184.93,539.745 1185.5,541.5C 1186.13,545.431 1187.8,548.765 1190.5,551.5C 1194.7,556.602 1198.37,561.935 1201.5,567.5C 1218.65,603.647 1227.82,642.313 1229,683.5C 1235.85,748.466 1223.18,809.133 1191,865.5C 1174.91,888.599 1156.24,909.599 1135,928.5C 1125.3,940.03 1115.13,951.03 1104.5,961.5C 1104.88,963.383 1105.88,964.883 1107.5,966C 1118.7,973.269 1128.7,981.936 1137.5,992C 1143.61,996.779 1149.11,1002.28 1154,1008.5C 1154.46,1007.91 1154.63,1007.24 1154.5,1006.5C 1158.22,1013.59 1162.72,1020.25 1168,1026.5C 1178.19,1044.59 1184.35,1063.93 1186.5,1084.5C 1184.98,1104.28 1180.81,1123.61 1174,1142.5C 1171.41,1147.34 1168.58,1152.01 1165.5,1156.5C 1163.54,1163.73 1161.04,1170.73 1158,1177.5C 1150.68,1189.65 1143.18,1201.65 1135.5,1213.5C 1136.17,1213.83 1136.83,1214.17 1137.5,1214.5C 1145.23,1209.98 1153.56,1208.15 1162.5,1209C 1164.33,1209.27 1165.83,1210.11 1167,1211.5C 1167.67,1215.17 1167.67,1218.83 1167,1222.5C 1164.22,1227.22 1161.05,1231.72 1157.5,1236C 1158.96,1238.13 1160.79,1239.96 1163,1241.5C 1165,1245.5 1165,1249.5 1163,1253.5C 1158.71,1255.64 1158.04,1258.31 1161,1261.5C 1161.67,1265.5 1161.67,1269.5 1161,1273.5C 1157.51,1275.99 1154.34,1278.82 1151.5,1282C 1146.79,1283.54 1142.12,1285.21 1137.5,1287C 1120.51,1287.8 1103.51,1288.3 1086.5,1288.5C 1085.02,1296.45 1082.18,1303.78 1078,1310.5C 1073.33,1317.84 1068.66,1325.17 1064,1332.5C 1059,1338.49 1053.67,1344.16 1048,1349.5C 1047.43,1351.64 1046.59,1353.64 1045.5,1355.5C 1038.88,1361.78 1032.21,1368.12 1025.5,1374.5C 1024.5,1374.83 1023.83,1375.5 1023.5,1376.5C 1019.65,1378.92 1015.98,1381.59 1012.5,1384.5C 1009.55,1386.12 1006.88,1388.12 1004.5,1390.5C 1002.33,1390.75 1000.66,1391.75 999.5,1393.5C 986.362,1399.24 973.362,1405.24 960.5,1411.5C 956.447,1412.35 952.447,1413.52 948.5,1415C 947.058,1415.38 946.058,1416.21 945.5,1417.5C 940.992,1418.43 936.992,1420.1 933.5,1422.5C 932.209,1422.26 931.209,1422.6 930.5,1423.5C 927.161,1423.89 923.827,1424.39 920.5,1425C 918.68,1425.2 917.347,1426.03 916.5,1427.5C 914.447,1427.4 912.78,1428.07 911.5,1429.5C 905.941,1430.12 900.441,1431.12 895,1432.5C 893.624,1432.68 892.791,1433.35 892.5,1434.5C 888.573,1434.93 884.907,1435.93 881.5,1437.5C 877.625,1437.64 873.792,1437.31 870,1436.5C 867.384,1436.62 865.884,1437.95 865.5,1440.5C 841.398,1442.66 817.398,1444.33 793.5,1445.5C 778.821,1445.42 764.154,1445.75 749.5,1446.5C 742.5,1446.5 735.5,1446.5 728.5,1446.5C 727.707,1441.22 724.707,1439.39 719.5,1441C 718.643,1441.69 717.977,1442.52 717.5,1443.5C 711.872,1444.5 706.206,1444.83 700.5,1444.5C 694.167,1443.83 687.833,1443.17 681.5,1442.5C 668.946,1438.86 656.28,1435.86 643.5,1433.5C 639.149,1430.23 634.149,1428.9 628.5,1429.5C 625.248,1427.41 621.582,1426.08 617.5,1425.5C 614.342,1423.2 611.009,1421.03 607.5,1419C 606.207,1418.51 604.873,1418.34 603.5,1418.5C 594.015,1413.09 585.682,1406.25 578.5,1398C 571.04,1392.87 564.54,1386.71 559,1379.5C 554.736,1371.97 549.736,1364.97 544,1358.5C 542.871,1356.86 541.371,1355.86 539.5,1355.5C 524.605,1327.35 518.938,1297.35 522.5,1265.5C 518.818,1265.55 515.485,1266.55 512.5,1268.5C 511.77,1269.71 510.77,1270.71 509.5,1271.5C 506.173,1272.5 502.839,1273.5 499.5,1274.5C 493.677,1272.09 488.343,1268.92 483.5,1265C 467.152,1249 450.319,1233.16 433,1217.5C 414.838,1194.03 409.171,1167.7 416,1138.5C 418.561,1125.13 420.895,1111.8 423,1098.5C 422.617,1099.06 422.117,1099.39 421.5,1099.5C 429.858,1079.12 439.525,1059.45 450.5,1040.5C 450.351,1041.55 450.517,1042.55 451,1043.5C 468.599,1021.9 488.766,1003.07 511.5,987C 513.213,985.622 514.547,983.955 515.5,982C 498.201,973.083 482.701,961.583 469,947.5C 461.333,938.5 453.667,929.5 446,920.5C 436.735,905.936 428.068,891.27 420,876.5C 412.591,853.939 404.591,831.606 396,809.5C 382.086,759.163 380.919,708.496 392.5,657.5C 393.222,657.918 393.722,658.584 394,659.5C 394.802,655.866 396.636,652.866 399.5,650.5C 401.939,641.375 404.273,632.541 406.5,624C 411.506,610.336 417.006,596.836 423,583.5C 423.497,581.19 423.663,578.857 423.5,576.5C 424.467,575.194 425.801,574.527 427.5,574.5C 427.82,568.866 429.987,564.199 434,560.5C 434.49,559.207 434.657,557.873 434.5,556.5C 437.277,554.049 439.277,551.049 440.5,547.5C 441.974,546.564 442.974,545.23 443.5,543.5C 445.326,541.853 446.66,539.853 447.5,537.5C 451.12,536.548 452.787,534.215 452.5,530.5C 457.625,524.061 462.292,517.394 466.5,510.5C 468.595,508.241 471.095,506.574 474,505.5C 477.419,499 481.586,493 486.5,487.5C 507.004,467.39 529.671,449.89 554.5,435C 557.312,432.099 560.312,429.432 563.5,427C 590.203,412.328 616.869,397.661 643.5,383C 645.788,381.227 647.454,379.061 648.5,376.5C 648.5,377.5 648.5,378.5 648.5,379.5C 686.491,363.364 726.158,353.698 767.5,350.5C 766.333,348.167 765.167,345.833 764,343.5C 763.207,332.131 763.54,320.798 765,309.5C 766.693,299.356 771.527,291.189 779.5,285C 791.948,282.107 801.615,285.941 808.5,296.5C 811.626,294.871 814.293,292.705 816.5,290C 823.627,285.3 830.46,285.467 837,290.5C 838.949,304.686 836.615,318.02 830,330.5C 828.252,337.157 826.085,343.657 823.5,350C 840.789,351.747 858.122,353.081 875.5,354C 886.072,355.007 896.572,356.507 907,358.5C 908.376,358.316 909.209,357.649 909.5,356.5 Z"/></g>
<g><path style="opacity:0.872" fill="#fffe5b" d="M 66.5,296.5 C 66.1669,324.175 66.5002,351.841 67.5,379.5C 70.2571,381.088 71.0904,383.421 70,386.5C 67.4209,388.347 64.5876,388.847 61.5,388C 60.7445,386.62 60.0778,386.453 59.5,387.5C 57.2239,387.244 56.0572,385.91 56,383.5C 55.3333,351.833 55.3333,320.167 56,288.5C 58.2869,284.47 61.4536,283.636 65.5,286C 66.4558,289.394 66.7892,292.894 66.5,296.5 Z"/></g>
<g><path style="opacity:1" fill="#f2cb45" d="M 779.5,314.5 C 781.39,314.297 782.89,314.963 784,316.5C 784.172,320.871 784.672,325.204 785.5,329.5C 786.086,329.709 786.586,330.043 787,330.5C 788.113,327.019 789.28,323.519 790.5,320C 797.594,317.916 800.594,320.749 799.5,328.5C 799.653,331.706 798.986,334.706 797.5,337.5C 793.896,337.91 790.229,338.077 786.5,338C 782.93,341.426 779.764,340.926 777,336.5C 772.705,330.821 771.538,324.488 773.5,317.5C 775.427,316.138 777.427,315.138 779.5,314.5 Z"/></g>
<g><path style="opacity:1" fill="#f1cb45" d="M 808.5,316.5 C 814.827,315.494 817.494,318.16 816.5,324.5C 816.333,326.5 816.167,328.5 816,330.5C 813.759,333.661 810.759,335.661 807,336.5C 803.929,336.262 802.429,334.596 802.5,331.5C 803.691,326.126 805.691,321.126 808.5,316.5 Z"/></g>
<g><path style="opacity:1" fill="#fdf4a9" d="M 925.5,362.5 C 929.841,362.658 933.841,363.658 937.5,365.5C 933.159,365.342 929.159,364.342 925.5,362.5 Z"/></g>
<g><path style="opacity:1" fill="#fef7bd" d="M 937.5,365.5 C 940.187,365.336 942.854,365.503 945.5,366C 949.878,366.767 953.878,368.267 957.5,370.5C 950.615,369.25 943.949,367.584 937.5,365.5 Z"/></g>
<g><path style="opacity:1" fill="#fefad3" d="M 963.5,371.5 C 966.522,371.804 969.522,372.304 972.5,373C 975.985,374.755 979.319,376.588 982.5,378.5C 975.816,376.721 969.483,374.388 963.5,371.5 Z"/></g>
<g><path style="opacity:1" fill="#fef7ba" d="M 994.5,383.5 C 995.873,383.343 997.207,383.51 998.5,384C 1001.09,384.886 1003.09,386.386 1004.5,388.5C 1000.82,387.325 997.484,385.659 994.5,383.5 Z"/></g>
<g><path style="opacity:1" fill="#fef7bc" d="M 1022.5,396.5 C 1026.68,396.592 1030.02,398.259 1032.5,401.5C 1028.69,400.668 1025.36,399.001 1022.5,396.5 Z"/></g>
<g><path style="opacity:0.005" fill="#fefffe" d="M 19.5,438.5 C 19.3433,437.127 19.51,435.793 20,434.5C 20.765,436.066 20.5983,437.399 19.5,438.5 Z"/></g>
<g><path style="opacity:1" fill="#fffe9b" d="M 1486.5,437.5 C 1482.46,434.371 1479.46,435.038 1477.5,439.5C 1477.33,434.506 1479.66,432.672 1484.5,434C 1485.82,434.816 1486.49,435.983 1486.5,437.5 Z"/></g>
<g><path style="opacity:1" fill="#fffe59" d="M 1486.5,437.5 C 1486.59,459.192 1485.93,480.858 1484.5,502.5C 1484.45,505.727 1485.12,508.727 1486.5,511.5C 1486.17,515.989 1483.83,517.489 1479.5,516C 1477.88,513.92 1476.38,511.754 1475,509.5C 1475.28,486.091 1476.11,462.758 1477.5,439.5C 1479.46,435.038 1482.46,434.371 1486.5,437.5 Z"/></g>
<g><path style="opacity:0.005" fill="#fefffe" d="M 19.5,438.5 C 19.6602,440.199 19.4935,441.866 19,443.5C 18.2204,441.613 18.3871,439.946 19.5,438.5 Z"/></g>
<g><path style="opacity:0.004" fill="#fefffe" d="M 17.5,445.5 C 18.5983,446.601 18.765,447.934 18,449.5C 17.51,448.207 17.3433,446.873 17.5,445.5 Z"/></g>
<g><path style="opacity:0.84" fill="#fffe53" d="M 49.5,538.5 C 49.5,542.167 49.5,545.833 49.5,549.5C 44.2581,550.729 40.4248,549.063 38,544.5C 37.3333,517.833 37.3333,491.167 38,464.5C 38.7579,462.09 40.4246,461.09 43,461.5C 45.5754,461.09 47.2421,462.09 48,464.5C 48.1679,489.337 48.6679,514.003 49.5,538.5 Z"/></g>
<g><path style="opacity:1" fill="#fdf18c" d="M 486.5,487.5 C 481.586,493 477.419,499 474,505.5C 471.095,506.574 468.595,508.241 466.5,510.5C 470.419,505.007 474.586,499.674 479,494.5C 481.37,491.961 483.87,489.628 486.5,487.5 Z"/></g>
<g><path style="opacity:1" fill="#fdf28c" d="M 452.5,530.5 C 452.787,534.215 451.12,536.548 447.5,537.5C 448.433,534.63 450.1,532.296 452.5,530.5 Z"/></g>
<g><path style="opacity:1" fill="#fdf6b3" d="M 447.5,537.5 C 446.66,539.853 445.326,541.853 443.5,543.5C 443.845,540.802 445.178,538.802 447.5,537.5 Z"/></g>
<g><path style="opacity:1" fill="#fdf5ab" d="M 1185.5,541.5 C 1188.2,544.235 1189.87,547.569 1190.5,551.5C 1187.8,548.765 1186.13,545.431 1185.5,541.5 Z"/></g>
<g><path style="opacity:1" fill="#fdf6b5" d="M 440.5,547.5 C 439.277,551.049 437.277,554.049 434.5,556.5C 435.723,552.951 437.723,549.951 440.5,547.5 Z"/></g>
<g><path style="opacity:1" fill="#fffe54" d="M 1201.5,567.5 C 1233.03,572.798 1263.36,581.965 1292.5,595C 1331.97,605.403 1367.97,622.737 1400.5,647C 1423.07,668.932 1426.57,693.765 1411,721.5C 1409,724.167 1407,726.833 1405,729.5C 1394.76,739.745 1383.93,749.245 1372.5,758C 1351.53,779.319 1328.53,797.985 1303.5,814C 1297.2,819.301 1291.2,824.968 1285.5,831C 1269.02,843.078 1252.02,854.411 1234.5,865C 1202.88,892.456 1169.88,917.956 1135.5,941.5C 1134.35,941.791 1133.68,942.624 1133.5,944C 1134.16,949.79 1135.49,955.29 1137.5,960.5C 1141.6,976.461 1147.26,991.794 1154.5,1006.5C 1154.63,1007.24 1154.46,1007.91 1154,1008.5C 1149.11,1002.28 1143.61,996.779 1137.5,992C 1128.7,981.936 1118.7,973.269 1107.5,966C 1105.88,964.883 1104.88,963.383 1104.5,961.5C 1115.13,951.03 1125.3,940.03 1135,928.5C 1156.24,909.599 1174.91,888.599 1191,865.5C 1223.18,809.133 1235.85,748.466 1229,683.5C 1227.82,642.313 1218.65,603.647 1201.5,567.5 Z"/></g>
<g><path style="opacity:1" fill="#fdf086" d="M 434.5,556.5 C 434.657,557.873 434.49,559.207 434,560.5C 429.987,564.199 427.82,568.866 427.5,574.5C 425.801,574.527 424.467,575.194 423.5,576.5C 425.435,568.894 429.102,562.227 434.5,556.5 Z"/></g>
<g><path style="opacity:0.925" fill="#6e672a" d="M 706.5,611.5 C 703.098,611.342 699.764,611.676 696.5,612.5C 696.611,611.883 696.944,611.383 697.5,611C 700.696,610.195 703.696,610.362 706.5,611.5 Z"/></g>
<g><path style="opacity:0.99" fill="#191915" d="M 706.5,611.5 C 714.488,611.829 718.488,616.162 718.5,624.5C 718.37,626.375 718.037,628.208 717.5,630C 716.079,631.419 715.079,633.086 714.5,635C 710.926,639.091 708.093,643.591 706,648.5C 704.629,650.041 703.129,651.375 701.5,652.5C 699.05,652.702 696.717,652.369 694.5,651.5C 692.435,649.102 692.102,646.435 693.5,643.5C 698.735,637.295 703.069,630.628 706.5,623.5C 704.901,623.768 703.568,623.434 702.5,622.5C 699.473,622.014 696.807,620.68 694.5,618.5C 694.054,615.99 694.72,613.99 696.5,612.5C 699.764,611.676 703.098,611.342 706.5,611.5 Z"/></g>
<g><path style="opacity:0.998" fill="#191816" d="M 895.5,609.5 C 895.833,609.5 896.167,609.5 896.5,609.5C 902.164,608.499 904.498,610.833 903.5,616.5C 901.453,618.55 899.786,620.883 898.5,623.5C 897.19,625.435 895.857,627.435 894.5,629.5C 894.608,630.442 894.941,631.275 895.5,632C 897.452,632.366 899.118,633.199 900.5,634.5C 902.704,637.603 903.037,640.937 901.5,644.5C 898.391,644.736 895.391,644.403 892.5,643.5C 890.524,641.989 888.191,641.156 885.5,641C 883.382,639.951 881.716,638.451 880.5,636.5C 880.508,633.455 880.841,630.455 881.5,627.5C 883.183,626.147 884.516,624.48 885.5,622.5C 889.592,618.742 892.926,614.409 895.5,609.5 Z"/></g>
<g><path style="opacity:1" fill="#585625" d="M 896.5,609.5 C 903.833,606.833 906.167,609.167 903.5,616.5C 904.498,610.833 902.164,608.499 896.5,609.5 Z"/></g>
<g><path style="opacity:0.988" fill="#aa9f39" d="M 694.5,618.5 C 696.807,620.68 699.473,622.014 702.5,622.5C 700.473,622.662 698.473,622.495 696.5,622C 695.177,621.184 694.511,620.017 694.5,618.5 Z"/></g>
<g><path style="opacity:1" fill="#736e43" d="M 895.5,609.5 C 892.926,614.409 889.592,618.742 885.5,622.5C 888.074,617.591 891.408,613.258 895.5,609.5 Z"/></g>
<g><path style="opacity:1" fill="#928b34" d="M 903.5,616.5 C 903.031,619.643 901.364,621.977 898.5,623.5C 899.786,620.883 901.453,618.55 903.5,616.5 Z"/></g>
<g><path style="opacity:1" fill="#fdf296" d="M 410.5,603.5 C 408.65,613.872 405.317,623.539 400.5,632.5C 403.453,622.638 406.787,612.972 410.5,603.5 Z"/></g>
<g><path style="opacity:1" fill="#fbed5f" d="M 423.5,576.5 C 423.663,578.857 423.497,581.19 423,583.5C 417.006,596.836 411.506,610.336 406.5,624C 404.273,632.541 401.939,641.375 399.5,650.5C 396.636,652.866 394.802,655.866 394,659.5C 393.722,658.584 393.222,657.918 392.5,657.5C 391.5,657.5 390.5,657.5 389.5,657.5C 390.848,656.399 392.348,655.399 394,654.5C 395.809,646.927 397.975,639.594 400.5,632.5C 405.317,623.539 408.65,613.872 410.5,603.5C 413.581,596.326 416.414,588.993 419,581.5C 420.517,579.76 422.017,578.094 423.5,576.5 Z"/></g>
<g><path style="opacity:1" fill="#a89f43" d="M 898.5,623.5 C 897.833,626.167 897.167,628.833 896.5,631.5C 898.973,631.088 900.306,632.088 900.5,634.5C 899.118,633.199 897.452,632.366 895.5,632C 894.941,631.275 894.608,630.442 894.5,629.5C 895.857,627.435 897.19,625.435 898.5,623.5 Z"/></g>
<g><path style="opacity:1" fill="#635e30" d="M 881.5,627.5 C 880.841,630.455 880.508,633.455 880.5,636.5C 879.848,635.551 879.514,634.385 879.5,633C 879.393,630.779 880.06,628.946 881.5,627.5 Z"/></g>
<g><path style="opacity:1" fill="#fffe5c" d="M 1485.5,631.5 C 1489.2,630.68 1491.53,632.013 1492.5,635.5C 1491.05,639.327 1491.22,642.993 1493,646.5C 1493.33,661.833 1493.67,677.167 1494,692.5C 1496.61,699.063 1494.44,701.397 1487.5,699.5C 1486.14,697.972 1484.97,696.305 1484,694.5C 1483.48,674.49 1483.15,654.49 1483,634.5C 1484.04,633.627 1484.88,632.627 1485.5,631.5 Z"/></g>
<g><path style="opacity:0.941" fill="#9f9636" d="M 892.5,643.5 C 895.391,644.403 898.391,644.736 901.5,644.5C 900.207,645.158 898.707,645.492 897,645.5C 895.014,645.431 893.514,644.765 892.5,643.5 Z"/></g>
<g><path style="opacity:0.859" fill="#7c752e" d="M 694.5,651.5 C 696.717,652.369 699.05,652.702 701.5,652.5C 700.551,653.152 699.385,653.486 698,653.5C 696.319,653.392 695.152,652.725 694.5,651.5 Z"/></g>
<g><path style="opacity:1" fill="#fffe54" d="M 389.5,657.5 C 390.5,657.5 391.5,657.5 392.5,657.5C 380.919,708.496 382.086,759.163 396,809.5C 404.591,831.606 412.591,853.939 420,876.5C 428.068,891.27 436.735,905.936 446,920.5C 453.667,929.5 461.333,938.5 469,947.5C 482.701,961.583 498.201,973.083 515.5,982C 514.547,983.955 513.213,985.622 511.5,987C 488.766,1003.07 468.599,1021.9 451,1043.5C 450.517,1042.55 450.351,1041.55 450.5,1040.5C 456.762,1026.64 463.595,1012.98 471,999.5C 471.749,998.365 471.583,997.365 470.5,996.5C 455.758,989.799 440.758,983.632 425.5,978C 393.568,970.35 361.568,963.017 329.5,956C 308.055,948.639 286.722,940.972 265.5,933C 244.098,927.253 222.764,921.253 201.5,915C 188.081,910.128 175.748,903.461 164.5,895C 157.369,888.714 152.035,881.214 148.5,872.5C 148.446,868.172 147.279,864.172 145,860.5C 144.098,849.75 144.598,839.083 146.5,828.5C 150.064,819.228 155.731,811.395 163.5,805C 173.167,798 182.833,791 192.5,784C 206.336,770.155 221.336,757.822 237.5,747C 242.341,744.079 247.341,741.412 252.5,739C 274.821,723.172 297.488,707.838 320.5,693C 340.312,685.094 358.979,675.094 376.5,663C 380.624,660.603 384.957,658.769 389.5,657.5 Z"/></g>
<g><path style="opacity:1" fill="#f1c845" d="M 804.5,667.5 C 808.355,666.845 811.188,668.179 813,671.5C 814.54,686.13 814.873,700.797 814,715.5C 813.07,717.552 811.57,719.052 809.5,720C 795.51,720.88 781.51,721.546 767.5,722C 765.722,722.704 763.888,723.204 762,723.5C 756.378,721.842 750.545,721.009 744.5,721C 742.522,718.503 742.022,715.669 743,712.5C 745.128,709.37 747.628,706.537 750.5,704C 766.851,693.158 782.851,681.825 798.5,670C 800.852,669.76 802.852,668.927 804.5,667.5 Z"/></g>
<g><path style="opacity:1" fill="#f6caa7" d="M 1003.5,703.5 C 1003.83,698.786 1003.49,694.12 1002.5,689.5C 997.007,692.241 993.007,696.408 990.5,702C 986.706,703.72 982.873,703.886 979,702.5C 978.043,693.955 979.543,685.955 983.5,678.5C 987.978,675.446 991.811,676.112 995,680.5C 999.913,677.044 1005.25,674.377 1011,672.5C 1013.24,673.091 1015.41,673.758 1017.5,674.5C 1017.92,678.2 1018.59,681.867 1019.5,685.5C 1022.83,682.5 1026.17,679.5 1029.5,676.5C 1037.64,673.969 1041.3,676.969 1040.5,685.5C 1044.02,685.071 1047.02,683.571 1049.5,681C 1051.13,680.506 1052.8,680.34 1054.5,680.5C 1053.99,691.838 1048.16,698.172 1037,699.5C 1035.63,699.294 1034.3,698.96 1033,698.5C 1031.55,696.569 1029.88,694.902 1028,693.5C 1023.57,696.924 1019.4,700.757 1015.5,705C 1011.1,707.284 1007.1,706.784 1003.5,703.5 Z"/></g>
<g><path style="opacity:0.999" fill="#fae65d" d="M 983.5,678.5 C 979.543,685.955 978.043,693.955 979,702.5C 982.873,703.886 986.706,703.72 990.5,702C 993.007,696.408 997.007,692.241 1002.5,689.5C 1003.49,694.12 1003.83,698.786 1003.5,703.5C 1003.09,700.404 1001.43,698.071 998.5,696.5C 997.155,697.347 996.155,698.513 995.5,700C 994.552,700.483 993.552,700.649 992.5,700.5C 992.33,701.822 992.663,702.989 993.5,704C 990.099,703.734 988.433,705.234 988.5,708.5C 984.587,706.841 980.087,704.841 975,702.5C 975.958,700.065 976.458,697.399 976.5,694.5C 975.5,694.5 974.5,694.5 973.5,694.5C 973.344,691.934 973.678,689.434 974.5,687C 975.93,684.944 977.597,684.111 979.5,684.5C 976.682,680.163 978.015,678.163 983.5,678.5 Z"/></g>
<g><path style="opacity:1" fill="#f8d97f" d="M 591.5,707.5 C 591.875,702.505 589.542,700.505 584.5,701.5C 586.011,699.559 588.011,699.059 590.5,700C 592.646,702.357 592.979,704.857 591.5,707.5 Z"/></g>
<g><path style="opacity:1" fill="#f6cba6" d="M 584.5,701.5 C 589.542,700.505 591.875,702.505 591.5,707.5C 590.697,708.423 590.53,709.423 591,710.5C 595.149,704.916 599.816,704.249 605,708.5C 605.333,710.167 605.667,711.833 606,713.5C 614.504,704.335 619.171,706.002 620,718.5C 624.183,714.618 628.016,710.451 631.5,706C 637,704.833 639.167,707 638,712.5C 634.211,718.623 629.378,723.79 623.5,728C 617.866,730.776 613.366,729.609 610,724.5C 603.206,733.103 597.706,732.436 593.5,722.5C 591.31,724.524 588.977,726.357 586.5,728C 578.91,728.729 576.077,725.229 578,717.5C 579.365,711.78 581.531,706.447 584.5,701.5 Z"/></g>
<g><path style="opacity:1" fill="#fffe5b" d="M 49.5,728.5 C 52.0444,728.104 54.2111,728.771 56,730.5C 57.7227,744.437 59.0561,758.437 60,772.5C 62.1072,780.148 64.1072,787.815 66,795.5C 67.3198,797.817 68.9864,799.817 71,801.5C 72.1667,807 70,809.167 64.5,808C 59.7806,804.611 56.6139,800.111 55,794.5C 49.4215,773.52 47.0881,752.187 48,730.5C 48.7172,729.956 49.2172,729.289 49.5,728.5 Z"/></g>
<g><path style="opacity:1" fill="#fffe57" d="M 1495.5,844.5 C 1494.66,849.668 1492.16,850.668 1488,847.5C 1487.67,846.5 1487.33,845.5 1487,844.5C 1486.5,823.503 1486.33,802.503 1486.5,781.5C 1486.98,778.218 1487.98,775.051 1489.5,772C 1491.7,771.175 1493.53,771.675 1495,773.5C 1495.5,797.164 1495.67,820.831 1495.5,844.5 Z"/></g>
<g><path style="opacity:1" fill="#fffe81" d="M 1495.5,844.5 C 1495.67,820.831 1495.5,797.164 1495,773.5C 1493.53,771.675 1491.7,771.175 1489.5,772C 1487.98,775.051 1486.98,778.218 1486.5,781.5C 1486.01,777.543 1486.68,773.877 1488.5,770.5C 1491.57,768.948 1494.07,769.615 1496,772.5C 1496.83,796.67 1496.66,820.67 1495.5,844.5 Z"/></g>
<g><path style="opacity:0.008" fill="#fffe6d" d="M 1633.5,809.5 C 1635,809.415 1636,810.081 1636.5,811.5C 1634.6,812.639 1633.6,811.973 1633.5,809.5 Z"/></g>
<g><path style="opacity:1" fill="#fffe75" d="M 146.5,828.5 C 144.598,839.083 144.098,849.75 145,860.5C 147.279,864.172 148.446,868.172 148.5,872.5C 146.144,869.285 144.644,865.619 144,861.5C 142.571,853.881 142.238,846.215 143,838.5C 143.701,834.891 144.868,831.558 146.5,828.5 Z"/></g>
<g><path style="opacity:1" fill="#fffede" d="M 1135.5,941.5 C 1135.1,944.738 1135.6,948.071 1137,951.5C 1137.5,954.482 1137.66,957.482 1137.5,960.5C 1135.49,955.29 1134.16,949.79 1133.5,944C 1133.68,942.624 1134.35,941.791 1135.5,941.5 Z"/></g>
<g><path style="opacity:1" fill="#fffe5d" d="M 1494.5,958.5 C 1496.53,958.338 1498.53,958.505 1500.5,959C 1501.13,959.75 1501.63,960.584 1502,961.5C 1502.67,987.833 1502.67,1014.17 1502,1040.5C 1499,1045.83 1496,1045.83 1493,1040.5C 1492.33,1014.17 1492.33,987.833 1493,961.5C 1493.51,960.473 1494.01,959.473 1494.5,958.5 Z"/></g>
<g><path style="opacity:1" fill="#fffe5a" d="M 63.5,996.5 C 68.6639,997.158 71.8306,1000.16 73,1005.5C 75.5726,1021.8 77.9059,1038.13 80,1054.5C 81,1057.83 82,1061.17 83,1064.5C 87.2057,1065.57 88.539,1068.24 87,1072.5C 82.3562,1075.61 78.3562,1074.95 75,1070.5C 73.7246,1068.28 72.7246,1065.95 72,1063.5C 69.1428,1046.94 66.8094,1030.27 65,1013.5C 64.3188,1009.3 63.1521,1005.3 61.5,1001.5C 61.4365,999.486 62.1032,997.819 63.5,996.5 Z"/></g>
<g><path style="opacity:1" fill="#fcef7a" d="M 837.5,1047.5 C 846.299,1046.92 854.299,1048.92 861.5,1053.5C 856.897,1052.29 852.231,1051.29 847.5,1050.5C 844.113,1049.71 840.78,1048.71 837.5,1047.5 Z"/></g>
<g><path style="opacity:1" fill="#fffefe" d="M 847.5,1050.5 C 852.231,1051.29 856.897,1052.29 861.5,1053.5C 864.32,1055.75 867.32,1057.75 870.5,1059.5C 872.474,1060.91 874.474,1062.41 876.5,1064C 877.793,1064.49 879.127,1064.66 880.5,1064.5C 891.217,1072.02 901.883,1079.85 912.5,1088C 918.424,1094.08 923.757,1100.58 928.5,1107.5C 929.08,1109.75 930.413,1111.42 932.5,1112.5C 936.921,1118.33 940.588,1124.67 943.5,1131.5C 943.54,1138.61 945.54,1144.95 949.5,1150.5C 949.5,1150.83 949.5,1151.17 949.5,1151.5C 950.341,1156.74 951.674,1161.74 953.5,1166.5C 955.381,1179.76 956.381,1193.1 956.5,1206.5C 956.837,1217.59 956.004,1228.59 954,1239.5C 950.086,1251.93 945.42,1263.93 940,1275.5C 939.506,1277.13 939.34,1278.8 939.5,1280.5C 935.715,1284.81 933.048,1289.81 931.5,1295.5C 929.75,1296.66 928.75,1298.33 928.5,1300.5C 927.206,1301.29 926.039,1302.29 925,1303.5C 923.962,1306.81 922.462,1309.81 920.5,1312.5C 917.349,1315.26 914.349,1318.26 911.5,1321.5C 908.279,1322.71 905.279,1324.38 902.5,1326.5C 901.702,1326.96 901.369,1327.62 901.5,1328.5C 898.328,1329.51 895.328,1330.84 892.5,1332.5C 889.218,1334.14 886.218,1336.14 883.5,1338.5C 881.601,1340.46 879.267,1341.96 876.5,1343C 868.38,1345.54 860.38,1348.37 852.5,1351.5C 842.392,1354.35 832.058,1355.85 821.5,1356C 820.584,1356.28 819.918,1356.78 819.5,1357.5C 819.167,1357.5 818.833,1357.5 818.5,1357.5C 811.167,1357.5 803.833,1357.5 796.5,1357.5C 791.725,1355.85 786.725,1355.19 781.5,1355.5C 778.918,1353.26 775.918,1351.92 772.5,1351.5C 766.976,1349.3 761.643,1346.8 756.5,1344C 741.139,1331.07 729.306,1315.57 721,1297.5C 718.667,1294.5 716.333,1291.5 714,1288.5C 710,1274.66 706.5,1260.66 703.5,1246.5C 702.746,1236.8 701.746,1227.14 700.5,1217.5C 701.762,1209.45 701.429,1201.45 699.5,1193.5C 699.221,1179.75 699.887,1166.08 701.5,1152.5C 704.78,1135.99 710.78,1120.66 719.5,1106.5C 721.245,1104.97 722.245,1102.97 722.5,1100.5C 724.397,1097.05 726.563,1093.72 729,1090.5C 730.704,1088.63 732.537,1086.96 734.5,1085.5C 737.833,1082.83 740.833,1079.83 743.5,1076.5C 745.147,1074.67 747.147,1073.34 749.5,1072.5C 753.605,1071.72 756.939,1069.72 759.5,1066.5C 762.292,1066.38 764.292,1065.04 765.5,1062.5C 768.47,1061.23 771.137,1059.4 773.5,1057C 778.321,1055.78 782.987,1054.28 787.5,1052.5C 800.691,1051.83 813.858,1050.83 827,1049.5C 833.838,1049.82 840.672,1050.15 847.5,1050.5 Z"/></g>
<g><path style="opacity:1" fill="#fefbde" d="M 837.5,1047.5 C 840.78,1048.71 844.113,1049.71 847.5,1050.5C 840.672,1050.15 833.838,1049.82 827,1049.5C 813.858,1050.83 800.691,1051.83 787.5,1052.5C 803.816,1048.71 820.482,1047.05 837.5,1047.5 Z"/></g>
<g><path style="opacity:1" fill="#fdf291" d="M 870.5,1059.5 C 874.329,1060.37 877.663,1062.03 880.5,1064.5C 879.127,1064.66 877.793,1064.49 876.5,1064C 874.474,1062.41 872.474,1060.91 870.5,1059.5 Z"/></g>
<g><path style="opacity:1" fill="#fdf6b2" d="M 765.5,1062.5 C 764.292,1065.04 762.292,1066.38 759.5,1066.5C 761.223,1064.78 763.223,1063.45 765.5,1062.5 Z"/></g>
<g><path style="opacity:1" fill="#fdf39d" d="M 759.5,1066.5 C 756.939,1069.72 753.605,1071.72 749.5,1072.5C 751.998,1069.22 755.331,1067.22 759.5,1066.5 Z"/></g>
<g><path style="opacity:1" fill="#fdf6b0" d="M 743.5,1076.5 C 740.833,1079.83 737.833,1082.83 734.5,1085.5C 736.5,1081.5 739.5,1078.5 743.5,1076.5 Z"/></g>
<g><path style="opacity:1" fill="#fffe54" d="M 1186.5,1084.5 C 1193.42,1098.05 1200.25,1111.72 1207,1125.5C 1215,1144.18 1223,1162.85 1231,1181.5C 1238.77,1207.04 1247.1,1232.37 1256,1257.5C 1272.28,1298.35 1288.95,1339.02 1306,1379.5C 1308.63,1389.64 1311.63,1399.64 1315,1409.5C 1318.92,1426.67 1316.42,1442.67 1307.5,1457.5C 1303.5,1462.17 1299.17,1466.5 1294.5,1470.5C 1287.42,1475.25 1279.59,1477.92 1271,1478.5C 1258.24,1477.02 1246.07,1473.52 1234.5,1468C 1209.44,1453.96 1184.11,1440.3 1158.5,1427C 1121.14,1404.66 1084.14,1381.83 1047.5,1358.5C 1046.83,1357.5 1046.17,1356.5 1045.5,1355.5C 1046.59,1353.64 1047.43,1351.64 1048,1349.5C 1053.67,1344.16 1059,1338.49 1064,1332.5C 1068.66,1325.17 1073.33,1317.84 1078,1310.5C 1082.18,1303.78 1085.02,1296.45 1086.5,1288.5C 1103.51,1288.3 1120.51,1287.8 1137.5,1287C 1142.12,1285.21 1146.79,1283.54 1151.5,1282C 1154.34,1278.82 1157.51,1275.99 1161,1273.5C 1161.67,1269.5 1161.67,1265.5 1161,1261.5C 1158.04,1258.31 1158.71,1255.64 1163,1253.5C 1165,1249.5 1165,1245.5 1163,1241.5C 1160.79,1239.96 1158.96,1238.13 1157.5,1236C 1161.05,1231.72 1164.22,1227.22 1167,1222.5C 1167.67,1218.83 1167.67,1215.17 1167,1211.5C 1165.83,1210.11 1164.33,1209.27 1162.5,1209C 1153.56,1208.15 1145.23,1209.98 1137.5,1214.5C 1136.83,1214.17 1136.17,1213.83 1135.5,1213.5C 1143.18,1201.65 1150.68,1189.65 1158,1177.5C 1161.04,1170.73 1163.54,1163.73 1165.5,1156.5C 1168.58,1152.01 1171.41,1147.34 1174,1142.5C 1180.81,1123.61 1184.98,1104.28 1186.5,1084.5 Z"/></g>
<g><path style="opacity:1" fill="#fffe54" d="M 512.5,1268.5 C 515.485,1266.55 518.818,1265.55 522.5,1265.5C 518.938,1297.35 524.605,1327.35 539.5,1355.5C 488.323,1386.58 437.656,1418.42 387.5,1451C 376.021,1454.96 364.354,1458.46 352.5,1461.5C 346.491,1461.67 340.491,1461.5 334.5,1461C 333.529,1459.52 332.196,1458.69 330.5,1458.5C 321.086,1448.79 315.586,1437.13 314,1423.5C 313.333,1411.83 313.333,1400.17 314,1388.5C 317.969,1373.29 321.302,1357.96 324,1342.5C 333.712,1309.66 344.046,1276.99 355,1244.5C 364.802,1220.76 374.802,1197.1 385,1173.5C 397.262,1148.88 409.428,1124.22 421.5,1099.5C 422.117,1099.39 422.617,1099.06 423,1098.5C 420.895,1111.8 418.561,1125.13 416,1138.5C 409.171,1167.7 414.838,1194.03 433,1217.5C 450.319,1233.16 467.152,1249 483.5,1265C 488.343,1268.92 493.677,1272.09 499.5,1274.5C 502.839,1273.5 506.173,1272.5 509.5,1271.5C 510.77,1270.71 511.77,1269.71 512.5,1268.5 Z"/></g>
<g><path style="opacity:1" fill="#fdf6af" d="M 722.5,1100.5 C 722.245,1102.97 721.245,1104.97 719.5,1106.5C 719.755,1104.03 720.755,1102.03 722.5,1100.5 Z"/></g>
<g><path style="opacity:1" fill="#fdf6b4" d="M 928.5,1107.5 C 930.587,1108.58 931.92,1110.25 932.5,1112.5C 930.413,1111.42 929.08,1109.75 928.5,1107.5 Z"/></g>
<g><path style="opacity:1" fill="#fffe5a" d="M 1496.5,1131.5 C 1500.84,1130.52 1503.17,1132.19 1503.5,1136.5C 1502.97,1139.98 1502.63,1143.48 1502.5,1147C 1504.67,1166.22 1506,1185.56 1506.5,1205C 1507.27,1211.24 1504.77,1213.41 1499,1211.5C 1498,1207.83 1497,1204.17 1496,1200.5C 1495.83,1182.38 1494.66,1164.38 1492.5,1146.5C 1491.74,1140.85 1493.08,1135.85 1496.5,1131.5 Z"/></g>
<g><path style="opacity:1" fill="#fff9d3" d="M 943.5,1131.5 C 944.558,1132.6 945.392,1133.93 946,1135.5C 947.277,1140.49 948.444,1145.49 949.5,1150.5C 945.54,1144.95 943.54,1138.61 943.5,1131.5 Z"/></g>
<g><path style="opacity:1" fill="#fdf18a" d="M 949.5,1151.5 C 950.117,1151.61 950.617,1151.94 951,1152.5C 952.286,1157.1 953.119,1161.76 953.5,1166.5C 951.674,1161.74 950.341,1156.74 949.5,1151.5 Z"/></g>
<g><path style="opacity:1" fill="#f1ca45" d="M 1093.5,1166.5 C 1098.72,1165.41 1101.72,1167.41 1102.5,1172.5C 1103.28,1180.2 1104.28,1187.86 1105.5,1195.5C 1105.43,1196.77 1105.1,1197.94 1104.5,1199C 1099.85,1201.38 1096.01,1200.54 1093,1196.5C 1092.3,1190.52 1091.8,1184.52 1091.5,1178.5C 1091.34,1174.31 1092.01,1170.31 1093.5,1166.5 Z"/></g>
<g><path style="opacity:1" fill="#f1ca45" d="M 1111.5,1170.5 C 1113.9,1170.39 1115.74,1171.39 1117,1173.5C 1117.84,1180.98 1119.01,1188.31 1120.5,1195.5C 1120.08,1198.28 1119.41,1200.95 1118.5,1203.5C 1116.14,1203.66 1113.81,1203.5 1111.5,1203C 1107.87,1193.85 1106.71,1184.35 1108,1174.5C 1108.69,1172.65 1109.86,1171.32 1111.5,1170.5 Z"/></g>
<g><path style="opacity:1" fill="#fefad1" d="M 701.5,1152.5 C 699.887,1166.08 699.221,1179.75 699.5,1193.5C 696.359,1179.63 697.025,1165.96 701.5,1152.5 Z"/></g>
<g><path style="opacity:1" fill="#fdf5a6" d="M 953.5,1166.5 C 956.856,1179.69 957.856,1193.02 956.5,1206.5C 956.381,1193.1 955.381,1179.76 953.5,1166.5 Z"/></g>
<g><path style="opacity:1" fill="#fffe96" d="M 704.5,1175.5 C 707.143,1179.56 707.643,1183.89 706,1188.5C 705.077,1184.21 704.577,1179.88 704.5,1175.5 Z"/></g>
<g><path style="opacity:1" fill="#fffe5a" d="M 98.5,1198.5 C 99.9663,1199.35 100.8,1200.68 101,1202.5C 101.333,1208.17 101.667,1213.83 102,1219.5C 103.542,1226.46 104.876,1233.46 106,1240.5C 108.925,1246.27 111.258,1252.27 113,1258.5C 119.917,1265.56 118.417,1268.72 108.5,1268C 107.333,1266.83 106.167,1265.67 105,1264.5C 98.314,1250.18 94.1473,1235.18 92.5,1219.5C 92.3338,1213.16 92.5005,1206.82 93,1200.5C 94.4443,1198.84 96.2776,1198.18 98.5,1198.5 Z"/></g>
<g><path style="opacity:1" fill="#fffebd" d="M 98.5,1198.5 C 96.2776,1198.18 94.4443,1198.84 93,1200.5C 92.5005,1206.82 92.3338,1213.16 92.5,1219.5C 91.346,1213.01 91.1794,1206.35 92,1199.5C 94.0164,1197.39 96.1831,1197.06 98.5,1198.5 Z"/></g>
<g><path style="opacity:1" fill="#fdf49f" d="M 700.5,1217.5 C 701.746,1227.14 702.746,1236.8 703.5,1246.5C 700.517,1236.99 699.517,1227.32 700.5,1217.5 Z"/></g>
<g><path style="opacity:1" fill="#f1ca45" d="M 512.5,1236.5 C 514.467,1236.26 516.301,1236.59 518,1237.5C 521,1242.5 524,1247.5 527,1252.5C 526.425,1261.41 522.759,1262.74 516,1256.5C 513.951,1251.57 511.785,1246.74 509.5,1242C 509.685,1239.62 510.685,1237.79 512.5,1236.5 Z"/></g>
<g><path style="opacity:1" fill="#f1ca45" d="M 512.5,1268.5 C 510.218,1269.39 507.885,1269.56 505.5,1269C 497.88,1264.66 493.88,1258 493.5,1249C 493.993,1243.53 496.659,1242.2 501.5,1245C 504.094,1251.64 508.26,1257.14 514,1261.5C 514.833,1264.17 514.333,1266.5 512.5,1268.5 Z"/></g>
<g><path style="opacity:1" fill="#fcef7a" d="M 939.5,1280.5 C 938.417,1284.09 937.084,1287.59 935.5,1291C 934.535,1292.98 933.201,1294.48 931.5,1295.5C 933.048,1289.81 935.715,1284.81 939.5,1280.5 Z"/></g>
<g><path style="opacity:1" fill="#fdf396" d="M 928.5,1300.5 C 926.538,1303.19 925.038,1306.19 924,1309.5C 922.961,1310.71 921.794,1311.71 920.5,1312.5C 922.462,1309.81 923.962,1306.81 925,1303.5C 926.039,1302.29 927.206,1301.29 928.5,1300.5 Z"/></g>
<g><path style="opacity:1" fill="#fdf5a9" d="M 911.5,1321.5 C 908.743,1324.58 905.41,1326.91 901.5,1328.5C 901.369,1327.62 901.702,1326.96 902.5,1326.5C 905.279,1324.38 908.279,1322.71 911.5,1321.5 Z"/></g>
<g><path style="opacity:1" fill="#fffe5d" d="M 1516.5,1413.5 C 1516.5,1415.17 1516.5,1416.83 1516.5,1418.5C 1511.39,1423.18 1507.89,1422.18 1506,1415.5C 1505.77,1411.42 1505.1,1407.42 1504,1403.5C 1503.33,1381.17 1503.33,1358.83 1504,1336.5C 1506.2,1331.43 1509.54,1330.43 1514,1333.5C 1513.05,1359.82 1513.39,1386.16 1515,1412.5C 1515.38,1413.06 1515.88,1413.39 1516.5,1413.5 Z"/></g>
<g><path style="opacity:1" fill="#fdf5ac" d="M 892.5,1332.5 C 890.25,1335.59 887.25,1337.59 883.5,1338.5C 886.218,1336.14 889.218,1334.14 892.5,1332.5 Z"/></g>
<g><path style="opacity:1" fill="#fef8c3" d="M 772.5,1351.5 C 775.918,1351.92 778.918,1353.26 781.5,1355.5C 777.835,1355.5 774.835,1354.16 772.5,1351.5 Z"/></g>
<g><path style="opacity:1" fill="#fcef78" d="M 852.5,1351.5 C 849.007,1353.48 845.341,1355.31 841.5,1357C 834.174,1357.5 826.841,1357.67 819.5,1357.5C 819.918,1356.78 820.584,1356.28 821.5,1356C 832.058,1355.85 842.392,1354.35 852.5,1351.5 Z"/></g>
<g><path style="opacity:1" fill="#fcf081" d="M 796.5,1357.5 C 803.833,1357.5 811.167,1357.5 818.5,1357.5C 815.983,1358.97 813.15,1359.64 810,1359.5C 805.294,1359.27 800.794,1358.6 796.5,1357.5 Z"/></g>
<g><path style="opacity:1" fill="#fef9cc" d="M 1045.5,1355.5 C 1046.17,1356.5 1046.83,1357.5 1047.5,1358.5C 1045.22,1358.61 1043.22,1359.44 1041.5,1361C 1036.86,1366.49 1031.53,1370.99 1025.5,1374.5C 1032.21,1368.12 1038.88,1361.78 1045.5,1355.5 Z"/></g>
<g><path style="opacity:1" fill="#fdf7bc" d="M 1023.5,1376.5 C 1020.73,1380.39 1017.06,1383.05 1012.5,1384.5C 1015.98,1381.59 1019.65,1378.92 1023.5,1376.5 Z"/></g>
<g><path style="opacity:1" fill="#fffe56" d="M 113.5,1385.5 C 113.5,1411.17 113.5,1436.83 113.5,1462.5C 114.5,1462.5 115.5,1462.5 116.5,1462.5C 118.285,1462.93 119.285,1464.09 119.5,1466C 118.829,1472.83 115.162,1475.5 108.5,1474C 106.959,1472.42 105.792,1470.59 105,1468.5C 104.333,1440.17 104.333,1411.83 105,1383.5C 108.491,1381.77 111.325,1382.44 113.5,1385.5 Z"/></g>
<g><path style="opacity:1" fill="#fef5b2" d="M 1004.5,1390.5 C 1003.51,1392.41 1001.85,1393.41 999.5,1393.5C 1000.66,1391.75 1002.33,1390.75 1004.5,1390.5 Z"/></g>
<g><path style="opacity:1" fill="#fef9cb" d="M 960.5,1411.5 C 956.974,1413.2 953.308,1415.04 949.5,1417C 948.207,1417.49 946.873,1417.66 945.5,1417.5C 946.058,1416.21 947.058,1415.38 948.5,1415C 952.447,1413.52 956.447,1412.35 960.5,1411.5 Z"/></g>
<g><path style="opacity:1" fill="#fdf395" d="M 945.5,1417.5 C 944.942,1418.79 943.942,1419.62 942.5,1420C 939.421,1420.69 936.421,1421.52 933.5,1422.5C 936.992,1420.1 940.992,1418.43 945.5,1417.5 Z"/></g>
<g><path style="opacity:1" fill="#fdf39a" d="M 603.5,1418.5 C 604.873,1418.34 606.207,1418.51 607.5,1419C 611.009,1421.03 614.342,1423.2 617.5,1425.5C 612.368,1423.91 607.702,1421.58 603.5,1418.5 Z"/></g>
<g><path style="opacity:1" fill="#fdf4a2" d="M 930.5,1423.5 C 926.002,1425.04 921.335,1426.37 916.5,1427.5C 917.347,1426.03 918.68,1425.2 920.5,1425C 923.827,1424.39 927.161,1423.89 930.5,1423.5 Z"/></g>
<g><path style="opacity:1" fill="#fef7b7" d="M 911.5,1429.5 C 905.447,1431.81 899.114,1433.47 892.5,1434.5C 892.791,1433.35 893.624,1432.68 895,1432.5C 900.441,1431.12 905.941,1430.12 911.5,1429.5 Z"/></g>
<g><path style="opacity:1" fill="#fcf18a" d="M 628.5,1429.5 C 634.149,1428.9 639.149,1430.23 643.5,1433.5C 638.433,1432.03 633.433,1430.7 628.5,1429.5 Z"/></g>
<g><path style="opacity:1" fill="#f1c94a" d="M 881.5,1437.5 C 880.167,1438.17 878.833,1438.83 877.5,1439.5C 876.512,1444.64 876.179,1449.97 876.5,1455.5C 882.684,1455.03 888.684,1455.7 894.5,1457.5C 895.569,1460.41 895.736,1463.41 895,1466.5C 893.989,1467.34 892.822,1467.67 891.5,1467.5C 887.167,1467.5 882.833,1467.5 878.5,1467.5C 879.112,1475.84 879.778,1484.17 880.5,1492.5C 880.389,1493.12 880.056,1493.62 879.5,1494C 876.833,1494.67 874.167,1494.67 871.5,1494C 869.963,1492.89 869.297,1491.39 869.5,1489.5C 869.676,1484.12 869.342,1478.79 868.5,1473.5C 865.813,1474.66 863.48,1476.5 861.5,1479C 854.49,1481.17 851.49,1478.67 852.5,1471.5C 852.5,1471.17 852.5,1470.83 852.5,1470.5C 856.898,1467.11 860.564,1463.11 863.5,1458.5C 864.434,1457.43 864.768,1456.1 864.5,1454.5C 865.486,1450.03 865.819,1445.36 865.5,1440.5C 865.884,1437.95 867.384,1436.62 870,1436.5C 873.792,1437.31 877.625,1437.64 881.5,1437.5 Z"/></g>
<g><path style="opacity:1" fill="#f1ca4c" d="M 728.5,1446.5 C 728.294,1449.5 728.96,1452.16 730.5,1454.5C 730.5,1455.17 730.833,1455.5 731.5,1455.5C 731.5,1458.17 731.5,1460.83 731.5,1463.5C 735.93,1463.19 739.764,1464.53 743,1467.5C 744.073,1471.1 743.24,1474.1 740.5,1476.5C 737.167,1476.5 733.833,1476.5 730.5,1476.5C 730.92,1481.51 731.087,1486.51 731,1491.5C 727.869,1492.7 724.702,1492.7 721.5,1491.5C 721.5,1490.83 721.167,1490.5 720.5,1490.5C 719.656,1486.9 719.323,1483.23 719.5,1479.5C 717.62,1479.23 716.287,1479.9 715.5,1481.5C 714.5,1481.83 713.833,1482.5 713.5,1483.5C 710.111,1485.22 706.444,1485.89 702.5,1485.5C 700.574,1480.64 701.24,1476.31 704.5,1472.5C 704.5,1471.83 704.833,1471.5 705.5,1471.5C 709.833,1467.83 713.833,1463.83 717.5,1459.5C 718.473,1457.05 718.806,1454.39 718.5,1451.5C 718.822,1449.28 718.155,1447.44 716.5,1446C 711.845,1445.5 707.179,1445.33 702.5,1445.5C 701.833,1445.5 701.167,1445.5 700.5,1445.5C 700.5,1445.17 700.5,1444.83 700.5,1444.5C 706.206,1444.83 711.872,1444.5 717.5,1443.5C 717.977,1442.52 718.643,1441.69 719.5,1441C 724.707,1439.39 727.707,1441.22 728.5,1446.5 Z"/></g>
<g><path style="opacity:1" fill="#fcf199" d="M 865.5,1440.5 C 865.819,1445.36 865.486,1450.03 864.5,1454.5C 864.5,1450.5 864.5,1446.5 864.5,1442.5C 845.499,1443.77 826.499,1444.77 807.5,1445.5C 802.833,1445.5 798.167,1445.5 793.5,1445.5C 817.398,1444.33 841.398,1442.66 865.5,1440.5 Z"/></g>
<g><path style="opacity:1" fill="#fef8c2" d="M 681.5,1442.5 C 687.833,1443.17 694.167,1443.83 700.5,1444.5C 700.5,1444.83 700.5,1445.17 700.5,1445.5C 693.853,1445.67 687.52,1444.67 681.5,1442.5 Z"/></g>
<g><path style="opacity:1" fill="#faedc4" d="M 877.5,1439.5 C 877.5,1444.5 877.5,1449.5 877.5,1454.5C 882.179,1454.33 886.845,1454.5 891.5,1455C 893.119,1455.24 894.119,1456.07 894.5,1457.5C 888.684,1455.7 882.684,1455.03 876.5,1455.5C 876.179,1449.97 876.512,1444.64 877.5,1439.5 Z"/></g>
<g><path style="opacity:1" fill="#fefad7" d="M 793.5,1445.5 C 798.167,1445.5 802.833,1445.5 807.5,1445.5C 786.449,1446.16 765.283,1447.49 744,1449.5C 739.853,1448.88 735.686,1448.54 731.5,1448.5C 731.5,1450.83 731.5,1453.17 731.5,1455.5C 730.833,1455.5 730.5,1455.17 730.5,1454.5C 730.326,1452.14 729.993,1449.81 729.5,1447.5C 736.354,1447.82 743.021,1447.49 749.5,1446.5C 764.154,1445.75 778.821,1445.42 793.5,1445.5 Z"/></g>
<g><path style="opacity:1" fill="#fffec8" d="M 113.5,1385.5 C 113.852,1411.22 114.852,1436.89 116.5,1462.5C 115.5,1462.5 114.5,1462.5 113.5,1462.5C 113.5,1436.83 113.5,1411.17 113.5,1385.5 Z"/></g>
<g><path style="opacity:1" fill="#fcf2c4" d="M 702.5,1445.5 C 707.179,1445.33 711.845,1445.5 716.5,1446C 718.155,1447.44 718.822,1449.28 718.5,1451.5C 716.896,1450.71 716.229,1449.38 716.5,1447.5C 711.662,1447.09 706.995,1446.42 702.5,1445.5 Z"/></g>
<g><path style="opacity:1" fill="#f9e689" d="M 728.5,1446.5 C 735.5,1446.5 742.5,1446.5 749.5,1446.5C 743.021,1447.49 736.354,1447.82 729.5,1447.5C 729.993,1449.81 730.326,1452.14 730.5,1454.5C 728.96,1452.16 728.294,1449.5 728.5,1446.5 Z"/></g>
<g><path style="opacity:0.985" fill="#fffe54" d="M 1515.5,1459.5 C 1517.62,1460.03 1519.12,1461.36 1520,1463.5C 1521.53,1467.09 1522.86,1470.76 1524,1474.5C 1527.26,1492.54 1531.93,1510.21 1538,1527.5C 1542.5,1525 1547.34,1523.5 1552.5,1523C 1577.77,1519.96 1602.77,1521.3 1627.5,1527C 1630.33,1527.17 1631.83,1528.67 1632,1531.5C 1632.78,1534.26 1632.28,1536.76 1630.5,1539C 1621.68,1542.91 1613.35,1547.57 1605.5,1553C 1593.41,1558.92 1581.08,1564.25 1568.5,1569C 1566.78,1569.52 1565.44,1570.52 1564.5,1572C 1568.3,1579.36 1570.8,1587.2 1572,1595.5C 1572.33,1604.5 1572.67,1613.5 1573,1622.5C 1573.31,1627.18 1574.14,1631.68 1575.5,1636C 1575.46,1637.76 1575.12,1639.43 1574.5,1641C 1571.18,1641.5 1567.85,1641.67 1564.5,1641.5C 1564.61,1639.1 1563.61,1637.26 1561.5,1636C 1559.05,1635.28 1556.72,1634.28 1554.5,1633C 1532.21,1627.57 1510.05,1621.74 1488,1615.5C 1480.98,1619.83 1474.48,1625 1468.5,1631C 1461.68,1636.49 1454.35,1641.15 1446.5,1645C 1436.18,1647.17 1431.85,1643 1433.5,1632.5C 1434.01,1623.65 1436.34,1615.32 1440.5,1607.5C 1445.68,1600.97 1448.01,1593.64 1447.5,1585.5C 1437.97,1587.6 1428.3,1588.6 1418.5,1588.5C 1404.14,1588.74 1390.8,1585.24 1378.5,1578C 1372.83,1573.47 1371,1567.64 1373,1560.5C 1377.54,1555.81 1382.71,1551.98 1388.5,1549C 1409.57,1540.63 1430.57,1531.97 1451.5,1523C 1469.87,1502.96 1487.87,1482.63 1505.5,1462C 1508.45,1459.84 1511.78,1459 1515.5,1459.5 Z"/></g>
<g><path style="opacity:1" fill="#fffea8" d="M 330.5,1458.5 C 332.196,1458.69 333.529,1459.52 334.5,1461C 340.491,1461.5 346.491,1461.67 352.5,1461.5C 346.347,1462.65 340.014,1462.82 333.5,1462C 332.29,1460.96 331.29,1459.79 330.5,1458.5 Z"/></g>
<g><path style="opacity:1" fill="#f7df93" d="M 863.5,1458.5 C 860.564,1463.11 856.898,1467.11 852.5,1470.5C 855.436,1465.89 859.102,1461.89 863.5,1458.5 Z"/></g>
<g><path style="opacity:1" fill="#fffecd" d="M 1307.5,1457.5 C 1304.83,1463.5 1300.5,1467.83 1294.5,1470.5C 1299.17,1466.5 1303.5,1462.17 1307.5,1457.5 Z"/></g>
<g><path style="opacity:1" fill="#f6dc8b" d="M 717.5,1459.5 C 713.833,1463.83 709.833,1467.83 705.5,1471.5C 708.5,1466.5 712.5,1462.5 717.5,1459.5 Z"/></g>
<g><path style="opacity:1" fill="#f7de92" d="M 852.5,1471.5 C 851.49,1478.67 854.49,1481.17 861.5,1479C 863.48,1476.5 865.813,1474.66 868.5,1473.5C 869.342,1478.79 869.676,1484.12 869.5,1489.5C 868.676,1485.69 868.176,1481.69 868,1477.5C 867.586,1477.04 867.086,1476.71 866.5,1476.5C 863.961,1479.55 860.794,1481.55 857,1482.5C 852.018,1480.23 850.518,1476.56 852.5,1471.5 Z"/></g>
<g><path style="opacity:1" fill="#f6db88" d="M 891.5,1467.5 C 888.038,1468.48 884.371,1468.81 880.5,1468.5C 880.797,1476.69 880.797,1484.69 880.5,1492.5C 879.778,1484.17 879.112,1475.84 878.5,1467.5C 882.833,1467.5 887.167,1467.5 891.5,1467.5 Z"/></g>
<g><path style="opacity:0.986" fill="#fffe54" d="M 106.5,1494.5 C 107.03,1496.92 107.864,1499.26 109,1501.5C 118.056,1513.56 126.722,1525.89 135,1538.5C 140.605,1544.89 146.772,1550.73 153.5,1556C 155.833,1556.67 158.167,1556.67 160.5,1556C 188.947,1548.21 217.947,1545.21 247.5,1547C 250.207,1548.86 251.041,1551.36 250,1554.5C 233,1576.83 213.333,1596.5 191,1613.5C 190.333,1614.5 190.333,1615.5 191,1616.5C 194.926,1623.89 198.092,1631.56 200.5,1639.5C 204.506,1652.51 208.672,1665.51 213,1678.5C 215.892,1686.91 213.059,1690.41 204.5,1689C 200.5,1687 196.5,1685 192.5,1683C 169.146,1677.65 147.48,1668.49 127.5,1655.5C 119.344,1666.46 112.178,1678.13 106,1690.5C 101.599,1696.4 96.4321,1701.4 90.5,1705.5C 87.5,1705.5 84.5,1705.5 81.5,1705.5C 79.7413,1703.2 78.5746,1700.53 78,1697.5C 76.5759,1673.42 76.4092,1648.42 77.5,1622.5C 56.8741,1623.73 36.8741,1620.9 17.5,1614C 4.32008,1608 1.82008,1598.83 10,1586.5C 14.5752,1581.25 19.7419,1576.75 25.5,1573C 38.2908,1566.68 51.2908,1560.85 64.5,1555.5C 66.4456,1548.61 67.9456,1541.61 69,1534.5C 70.6775,1520.1 72.6775,1505.77 75,1491.5C 79.2893,1482.62 86.1226,1479.79 95.5,1483C 99.3981,1486.73 103.065,1490.56 106.5,1494.5 Z"/></g>
<g><path style="opacity:1" fill="#f7e19b" d="M 720.5,1490.5 C 719.883,1490.39 719.383,1490.06 719,1489.5C 718.667,1486.5 718.333,1483.5 718,1480.5C 717.329,1481.25 716.496,1481.59 715.5,1481.5C 716.287,1479.9 717.62,1479.23 719.5,1479.5C 719.323,1483.23 719.656,1486.9 720.5,1490.5 Z"/></g>
<g><path style="opacity:1" fill="#f8e19a" d="M 704.5,1472.5 C 701.24,1476.31 700.574,1480.64 702.5,1485.5C 706.444,1485.89 710.111,1485.22 713.5,1483.5C 711.602,1486.15 708.935,1487.48 705.5,1487.5C 703.626,1487.61 702.126,1486.94 701,1485.5C 699,1481.83 699,1478.17 701,1474.5C 701.816,1473.18 702.983,1472.51 704.5,1472.5 Z"/></g>
<g><path style="opacity:1" fill="#f8e29e" d="M 740.5,1476.5 C 737.713,1477.48 734.713,1477.81 731.5,1477.5C 731.315,1481.07 731.981,1484.4 733.5,1487.5C 732.72,1493.4 729.387,1495.57 723.5,1494C 722.619,1493.29 721.953,1492.46 721.5,1491.5C 724.702,1492.7 727.869,1492.7 731,1491.5C 731.087,1486.51 730.92,1481.51 730.5,1476.5C 733.833,1476.5 737.167,1476.5 740.5,1476.5 Z"/></g>
<g><path style="opacity:0.986" fill="#fffe5a" d="M 1287.5,1599.5 C 1283.24,1601.98 1278.74,1602.65 1274,1601.5C 1272.97,1601.16 1272.47,1600.5 1272.5,1599.5C 1273.4,1598.79 1273.74,1597.79 1273.5,1596.5C 1264.32,1596.17 1255.32,1596.51 1246.5,1597.5C 1236.81,1597.24 1227.14,1597.58 1217.5,1598.5C 1212.58,1596.04 1212.25,1592.88 1216.5,1589C 1225.66,1588.97 1234.66,1588.31 1243.5,1587C 1257.83,1586.33 1272.17,1586.33 1286.5,1587C 1289.69,1587.57 1291.36,1589.4 1291.5,1592.5C 1291.03,1595.31 1289.69,1597.64 1287.5,1599.5 Z"/></g>
<g><path style="opacity:1" fill="#fffe5b" d="M 937.5,1589.5 C 950.894,1589.86 964.228,1590.69 977.5,1592C 980.462,1595.49 979.795,1598.15 975.5,1600C 965.5,1600.67 955.5,1600.67 945.5,1600C 942.097,1599.9 938.93,1599.07 936,1597.5C 935.109,1594.5 935.609,1591.84 937.5,1589.5 Z"/></g>
<g><path style="opacity:1" fill="#fffe5a" d="M 1345.5,1601.5 C 1343.3,1601.59 1341.14,1601.92 1339,1602.5C 1337.12,1602.48 1335.62,1601.81 1334.5,1600.5C 1334.71,1598.4 1334.87,1596.06 1335,1593.5C 1335.83,1592.67 1336.67,1591.83 1337.5,1591C 1350.17,1590.23 1362.83,1589.9 1375.5,1590C 1376.42,1590.37 1377.25,1590.87 1378,1591.5C 1378.67,1593.83 1378.67,1596.17 1378,1598.5C 1373.94,1603.32 1369.6,1603.65 1365,1599.5C 1358.36,1600.11 1351.86,1600.78 1345.5,1601.5 Z"/></g>
<g><path style="opacity:1" fill="#fffe5a" d="M 701.5,1590.5 C 707.262,1590.15 712.928,1590.65 718.5,1592C 720.524,1595.98 719.524,1598.65 715.5,1600C 697.914,1601.37 680.414,1603.54 663,1606.5C 658.251,1606.41 656.585,1604.08 658,1599.5C 658.903,1598.3 660.069,1597.47 661.5,1597C 674.985,1594.77 688.318,1592.6 701.5,1590.5 Z"/></g>
<g><path style="opacity:1" fill="#fffe5a" d="M 574.5,1593.5 C 581.819,1591.68 585.319,1594.35 585,1601.5C 582.98,1604.57 580.313,1605.24 577,1603.5C 562.59,1605.58 548.257,1607.58 534,1609.5C 526.441,1609.64 524.607,1606.47 528.5,1600C 544.127,1598.88 559.46,1596.71 574.5,1593.5 Z"/></g>
<g><path style="opacity:0.935" fill="#fffe54" d="M 1149.5,1601.5 C 1149.5,1603.17 1149.5,1604.83 1149.5,1606.5C 1144.96,1608.2 1140.96,1607.36 1137.5,1604C 1122.5,1603.67 1107.5,1603.33 1092.5,1603C 1091.58,1602.72 1090.92,1602.22 1090.5,1601.5C 1091.16,1599.2 1091.83,1596.86 1092.5,1594.5C 1108.82,1593.33 1125.16,1593.17 1141.5,1594C 1145.32,1595.32 1147.99,1597.82 1149.5,1601.5 Z"/></g>
<g><path style="opacity:1" fill="#fffe5a" d="M 861.5,1607.5 C 859.716,1608.72 858.05,1608.72 856.5,1607.5C 854.944,1605.01 852.611,1604.01 849.5,1604.5C 843.653,1604.9 837.986,1605.57 832.5,1606.5C 823.842,1607.01 815.175,1607.34 806.5,1607.5C 804.983,1607.49 803.816,1606.82 803,1605.5C 802.104,1602.97 802.604,1600.81 804.5,1599C 819.774,1598.1 834.941,1596.6 850,1594.5C 860.193,1593.52 864.026,1597.85 861.5,1607.5 Z"/></g>
<g><path style="opacity:1" fill="#fffec3" d="M 1246.5,1597.5 C 1255.32,1596.51 1264.32,1596.17 1273.5,1596.5C 1273.74,1597.79 1273.4,1598.79 1272.5,1599.5C 1264.23,1597.53 1255.56,1596.86 1246.5,1597.5 Z"/></g>
<g><path style="opacity:1" fill="#fffe5b" d="M 411.5,1597.5 C 415.131,1597.03 418.465,1597.7 421.5,1599.5C 422.952,1602.28 422.619,1604.78 420.5,1607C 410.43,1609.01 400.263,1610.51 390,1611.5C 386.833,1611.33 383.667,1611.17 380.5,1611C 377.022,1608.29 376.689,1605.29 379.5,1602C 384.807,1602.36 390.141,1602.36 395.5,1602C 400.874,1600.16 406.207,1598.66 411.5,1597.5 Z"/></g>
<g><path style="opacity:1" fill="#fffe5c" d="M 281.5,1599.5 C 286.959,1599.1 292.292,1599.6 297.5,1601C 300.932,1603.37 301.265,1606.03 298.5,1609C 290.805,1609.36 283.138,1610.02 275.5,1611C 267.04,1613.95 258.374,1615.29 249.5,1615C 245.973,1612.7 245.64,1610.03 248.5,1607C 259.798,1605.16 270.798,1602.66 281.5,1599.5 Z"/></g>
<g><path style="opacity:0.545" fill="#fffef3" d="M 856.5,1607.5 C 848.5,1607.5 840.5,1607.5 832.5,1607.5C 832.5,1607.17 832.5,1606.83 832.5,1606.5C 837.986,1605.57 843.653,1604.9 849.5,1604.5C 852.611,1604.01 854.944,1605.01 856.5,1607.5 Z"/></g>
<g><path style="opacity:0.297" fill="#fffe86" d="M 832.5,1606.5 C 832.5,1606.83 832.5,1607.17 832.5,1607.5C 826.178,1608.01 819.845,1608.35 813.5,1608.5C 810.941,1608.8 808.607,1608.47 806.5,1607.5C 815.175,1607.34 823.842,1607.01 832.5,1606.5 Z"/></g>
</svg>
