<?xml version="1.0" encoding="UTF-8"?>
<!DOCTYPE svg PUBLIC "-//W3C//DTD SVG 1.1//EN" "http://www.w3.org/Graphics/SVG/1.1/DTD/svg11.dtd">
<svg xmlns="http://www.w3.org/2000/svg" version="1.1" width="1681px" height="1722px" style="shape-rendering:geometricPrecision; text-rendering:geometricPrecision; image-rendering:optimizeQuality; fill-rule:evenodd; clip-rule:evenodd" xmlns:xlink="http://www.w3.org/1999/xlink">
<g><path style="opacity:0.985" fill="#fffe54" d="M 1505.5,183.5 C 1502.49,182.439 1499.49,181.273 1496.5,180C 1489.5,175.5 1482.5,171 1475.5,166.5C 1469.36,173.439 1464.19,181.106 1460,189.5C 1455.95,194.427 1451.78,199.26 1447.5,204C 1438.74,208.056 1433.24,205.556 1431,196.5C 1430.03,181.514 1429.53,166.514 1429.5,151.5C 1414.96,154.243 1400.29,155.076 1385.5,154C 1381.03,152.357 1377.2,149.857 1374,146.5C 1373.33,141.5 1373.33,136.5 1374,131.5C 1377.91,123.333 1382.58,115.667 1388,108.5C 1390.28,101.818 1392.45,95.1512 1394.5,88.5C 1396.91,81.5823 1399.08,74.5823 1401,67.5C 1413.18,43.2943 1428.68,21.461 1447.5,2C 1452.84,0.465972 1457.34,1.63264 1461,5.5C 1464.78,13.5062 1467.78,21.8396 1470,30.5C 1474.52,38.6899 1480.19,46.0232 1487,52.5C 1488.92,56.0171 1490.59,59.6837 1492,63.5C 1502.68,60.0385 1513.68,58.7052 1525,59.5C 1535.62,59.1802 1546.12,60.0136 1556.5,62C 1561.08,65.3096 1562.58,69.8096 1561,75.5C 1559.93,78.2417 1558.43,80.7417 1556.5,83C 1545.39,90.8917 1533.39,97.2251 1520.5,102C 1518.91,103.046 1517.41,104.213 1516,105.5C 1518.9,122.775 1521.9,140.108 1525,157.5C 1525.67,164.5 1525.67,171.5 1525,178.5C 1523.66,181.094 1521.49,182.594 1518.5,183C 1514.18,183.499 1509.85,183.666 1505.5,183.5 Z"/></g>
<g><path style="opacity:0.979" fill="#fffe54" d="M 192.5,152.5 C 192.389,153.117 192.056,153.617 191.5,154C 202.065,167.129 209.732,181.796 214.5,198C 214.417,202.749 212.084,205.749 207.5,207C 199.5,207.667 191.5,207.667 183.5,207C 173.317,203.236 162.983,200.236 152.5,198C 150.379,203.029 147.879,207.862 145,212.5C 135.814,224.019 125.647,234.519 114.5,244C 111.649,245.289 108.649,245.789 105.5,245.5C 103.983,245.489 102.816,244.823 102,243.5C 100.512,239.213 99.1783,234.88 98,230.5C 96.9949,215.435 95.4949,200.435 93.5,185.5C 81.4466,185.891 69.4466,185.391 57.5,184C 55.5318,182.456 53.3651,181.289 51,180.5C 48.8944,176.099 46.7277,171.766 44.5,167.5C 46.8979,160.922 50.7312,155.256 56,150.5C 62.6948,141.305 69.1948,131.971 75.5,122.5C 79.498,102.845 83.3314,83.1788 87,63.5C 87.7648,60.8041 88.9315,58.3041 90.5,56C 95.9448,53.8469 101.278,54.0136 106.5,56.5C 109.914,60.9936 113.081,65.6603 116,70.5C 118.185,71.9284 120.185,73.5951 122,75.5C 126.491,85.8194 132.491,95.1527 140,103.5C 157.917,97.8121 176.084,92.9788 194.5,89C 201.249,88.1227 207.916,88.456 214.5,90C 216.35,93.6312 216.85,97.4645 216,101.5C 213.676,104.823 211.009,107.823 208,110.5C 204.024,119.788 199.024,128.455 193,136.5C 191.551,139.732 190.384,143.065 189.5,146.5C 190.489,148.494 191.489,150.494 192.5,152.5 Z"/></g>
<g><path style="opacity:0.88" fill="#fffe55" d="M 1358.5,87.5 C 1357.83,87.5 1357.17,87.5 1356.5,87.5C 1354.26,87.2053 1352.26,87.5386 1350.5,88.5C 1337.22,90.2563 1324.05,92.5896 1311,95.5C 1306.11,95.7749 1303.61,93.4415 1303.5,88.5C 1303.88,87.0689 1304.88,86.2355 1306.5,86C 1322.07,82.7313 1337.57,79.2313 1353,75.5C 1361.12,75.0805 1363.96,78.7472 1361.5,86.5C 1360.21,86.2627 1359.21,86.596 1358.5,87.5 Z"/></g>
<g><path style="opacity:0.02" fill="#fffe67" d="M 553.5,79.5 C 555.337,79.6395 555.67,80.3061 554.5,81.5C 553.702,81.0431 553.369,80.3764 553.5,79.5 Z"/></g>
<g><path style="opacity:0.942" fill="#fffe59" d="M 1233.5,93.5 C 1215.75,97.5203 1198.09,102.02 1180.5,107C 1172.84,111.424 1169.01,109.258 1169,100.5C 1169.9,99.2986 1171.07,98.4652 1172.5,98C 1177.01,97.3855 1181.35,96.5522 1185.5,95.5C 1197.89,91.0393 1210.55,87.3726 1223.5,84.5C 1230.62,83.2917 1233.96,86.2917 1233.5,93.5 Z"/></g>
<g><path style="opacity:0.844" fill="#fffe53" d="M 867.5,85.5 C 871.846,85.3343 876.179,85.501 880.5,86C 884.102,87.2734 885.268,89.7734 884,93.5C 883.5,94.6667 882.667,95.5 881.5,96C 865.134,97.9208 848.801,100.087 832.5,102.5C 831.96,103.748 831.293,104.915 830.5,106C 824.32,107.022 818.32,106.522 812.5,104.5C 809.388,99.8986 810.055,96.0652 814.5,93C 832.348,90.7297 850.015,88.2297 867.5,85.5 Z"/></g>
<g><path style="opacity:0.997" fill="#fffefe" d="M 1356.5,87.5 C 1357.17,87.5 1357.83,87.5 1358.5,87.5C 1370.51,87.5005 1382.51,87.8338 1394.5,88.5C 1392.45,95.1512 1390.28,101.818 1388,108.5C 1382.58,115.667 1377.91,123.333 1374,131.5C 1373.33,136.5 1373.33,141.5 1374,146.5C 1377.2,149.857 1381.03,152.357 1385.5,154C 1400.29,155.076 1414.96,154.243 1429.5,151.5C 1429.53,166.514 1430.03,181.514 1431,196.5C 1433.24,205.556 1438.74,208.056 1447.5,204C 1451.78,199.26 1455.95,194.427 1460,189.5C 1464.19,181.106 1469.36,173.439 1475.5,166.5C 1482.5,171 1489.5,175.5 1496.5,180C 1499.49,181.273 1502.49,182.439 1505.5,183.5C 1515.96,211.885 1522.46,241.219 1525,271.5C 1526.24,284.482 1527.24,297.482 1528,310.5C 1529.11,361.245 1531.28,411.912 1534.5,462.5C 1534.11,465.063 1533.78,467.563 1533.5,470C 1535.73,568.188 1539.06,666.355 1543.5,764.5C 1543,779.174 1542.33,793.841 1541.5,808.5C 1543.69,832.447 1545.19,856.447 1546,880.5C 1547.92,962.834 1549.75,1045.17 1551.5,1127.5C 1549.58,1222.51 1547.58,1317.51 1545.5,1412.5C 1544.88,1412.39 1544.38,1412.06 1544,1411.5C 1542.39,1385.16 1542.05,1358.82 1543,1332.5C 1538.54,1329.43 1535.2,1330.43 1533,1335.5C 1532.33,1357.83 1532.33,1380.17 1533,1402.5C 1534.1,1406.42 1534.77,1410.42 1535,1414.5C 1536.89,1421.18 1540.39,1422.18 1545.5,1417.5C 1544.72,1431.15 1544.38,1444.82 1544.5,1458.5C 1540.78,1458 1537.45,1458.84 1534.5,1461C 1516.87,1481.63 1498.87,1501.96 1480.5,1522C 1459.57,1530.97 1438.57,1539.63 1417.5,1548C 1411.71,1550.98 1406.54,1554.81 1402,1559.5C 1400,1566.64 1401.83,1572.47 1407.5,1577C 1419.8,1584.24 1433.14,1587.74 1447.5,1587.5C 1457.3,1587.6 1466.97,1586.6 1476.5,1584.5C 1477.01,1592.64 1474.68,1599.97 1469.5,1606.5C 1437.68,1606.58 1406.01,1604.58 1374.5,1600.5C 1380.86,1599.78 1387.36,1599.11 1394,1598.5C 1398.6,1602.65 1402.94,1602.32 1407,1597.5C 1407.67,1595.17 1407.67,1592.83 1407,1590.5C 1406.25,1589.87 1405.42,1589.37 1404.5,1589C 1391.83,1588.9 1379.17,1589.23 1366.5,1590C 1365.67,1590.83 1364.83,1591.67 1364,1592.5C 1363.87,1595.06 1363.71,1597.4 1363.5,1599.5C 1347.85,1598.64 1332.18,1598.3 1316.5,1598.5C 1318.69,1596.64 1320.03,1594.31 1320.5,1591.5C 1320.36,1588.4 1318.69,1586.57 1315.5,1586C 1301.17,1585.33 1286.83,1585.33 1272.5,1586C 1263.66,1587.31 1254.66,1587.97 1245.5,1588C 1241.25,1591.88 1241.58,1595.04 1246.5,1597.5C 1256.14,1596.58 1265.81,1596.24 1275.5,1596.5C 1284.56,1595.86 1293.23,1596.53 1301.5,1598.5C 1276.84,1599.83 1252.18,1599.83 1227.5,1598.5C 1211.17,1599.26 1194.84,1599.93 1178.5,1600.5C 1176.99,1596.82 1174.32,1594.32 1170.5,1593C 1154.16,1592.17 1137.82,1592.33 1121.5,1593.5C 1120.83,1595.86 1120.16,1598.2 1119.5,1600.5C 1111.25,1599.37 1102.91,1599.2 1094.5,1600C 1076.54,1601.81 1058.54,1603.14 1040.5,1604C 990.492,1604.45 940.492,1605.28 890.5,1606.5C 893.026,1596.85 889.193,1592.52 879,1593.5C 863.941,1595.6 848.774,1597.1 833.5,1598C 831.604,1599.81 831.104,1601.97 832,1604.5C 832.816,1605.82 833.983,1606.49 835.5,1606.5C 837.607,1607.47 839.941,1607.8 842.5,1607.5C 814.802,1611.64 786.802,1613.81 758.5,1614C 738.162,1615.93 717.829,1617.93 697.5,1620C 683.592,1620.18 669.758,1620.68 656,1621.5C 653.925,1620.87 651.759,1620.53 649.5,1620.5C 615.403,1623.74 581.236,1625.74 547,1626.5C 541.664,1626.21 536.331,1625.87 531,1625.5C 497.879,1628.08 464.713,1629.75 431.5,1630.5C 423.498,1630.22 415.498,1629.88 407.5,1629.5C 368.962,1631.42 330.462,1632.76 292,1633.5C 291.667,1633.17 291.333,1632.83 291,1632.5C 270.55,1634.53 250.05,1636.53 229.5,1638.5C 227.092,1630.56 223.926,1622.89 220,1615.5C 219.333,1614.5 219.333,1613.5 220,1612.5C 242.333,1595.5 262,1575.83 279,1553.5C 280.041,1550.36 279.207,1547.86 276.5,1546C 246.947,1544.21 217.947,1547.21 189.5,1555C 187.167,1555.67 184.833,1555.67 182.5,1555C 175.772,1549.73 169.605,1543.89 164,1537.5C 155.722,1524.89 147.056,1512.56 138,1500.5C 136.864,1498.26 136.03,1495.92 135.5,1493.5C 125.151,1436.87 117.318,1379.87 112,1322.5C 104.885,1252.57 98.5516,1182.57 93,1112.5C 85.8485,993.227 79.8485,873.893 75,754.5C 74.9117,716.922 75.745,679.422 77.5,642C 77.1373,629.224 76.804,616.39 76.5,603.5C 77.0861,585.159 77.7527,566.825 78.5,548.5C 78.5,544.833 78.5,541.167 78.5,537.5C 81.6146,486.576 84.9479,436.243 88.5,386.5C 89.0778,385.453 89.7445,385.62 90.5,387C 93.5876,387.847 96.4209,387.347 99,385.5C 100.09,382.421 99.2571,380.088 96.5,378.5C 95.5002,350.841 95.1669,323.175 95.5,295.5C 97.6007,285.393 99.1007,275.06 100,264.5C 101.942,258.178 103.775,251.844 105.5,245.5C 108.649,245.789 111.649,245.289 114.5,244C 125.647,234.519 135.814,224.019 145,212.5C 147.879,207.862 150.379,203.029 152.5,198C 162.983,200.236 173.317,203.236 183.5,207C 191.5,207.667 199.5,207.667 207.5,207C 212.084,205.749 214.417,202.749 214.5,198C 209.732,181.796 202.065,167.129 191.5,154C 192.056,153.617 192.389,153.117 192.5,152.5C 205.057,146.558 218.057,141.725 231.5,138C 247.766,135.981 264.099,134.814 280.5,134.5C 280.938,134.435 281.272,134.601 281.5,135C 277.787,136.691 276.621,139.525 278,143.5C 279.126,144.944 280.626,145.61 282.5,145.5C 291.358,143.32 299.525,139.653 307,134.5C 313.653,132.231 320.486,130.898 327.5,130.5C 329.735,130.795 331.735,130.461 333.5,129.5C 335.167,129.5 336.833,129.5 338.5,129.5C 374.806,127.473 411.139,125.807 447.5,124.5C 450.5,124.5 453.5,124.5 456.5,124.5C 463.995,124.024 471.329,123.358 478.5,122.5C 487.542,122.964 496.542,122.964 505.5,122.5C 532.451,121.403 559.451,121.403 586.5,122.5C 602.778,120.543 619.111,119.543 635.5,119.5C 642.196,119.609 648.863,119.276 655.5,118.5C 661.195,117.913 666.861,117.08 672.5,116C 719.515,114.027 766.515,111.693 813.5,109C 832.19,108.666 850.856,107.833 869.5,106.5C 875.992,106.98 882.492,107.313 889,107.5C 921.807,105.33 954.64,103.663 987.5,102.5C 993.491,102.034 999.491,101.701 1005.5,101.5C 1012.17,102.833 1018.83,102.833 1025.5,101.5C 1031.36,101.051 1037.03,101.717 1042.5,103.5C 1045.72,105.184 1048.38,104.517 1050.5,101.5C 1051.17,101.5 1051.5,101.167 1051.5,100.5C 1096.16,98.6261 1140.83,96.9594 1185.5,95.5C 1181.35,96.5522 1177.01,97.3855 1172.5,98C 1171.07,98.4652 1169.9,99.2986 1169,100.5C 1169.01,109.258 1172.84,111.424 1180.5,107C 1198.09,102.02 1215.75,97.5203 1233.5,93.5C 1256.87,92.2768 1280.21,90.6101 1303.5,88.5C 1303.61,93.4415 1306.11,95.7749 1311,95.5C 1324.05,92.5896 1337.22,90.2563 1350.5,88.5C 1352.74,88.7947 1354.74,88.4614 1356.5,87.5 Z"/></g>
<g><path style="opacity:0.87" fill="#fffe54" d="M 1051.5,100.5 C 1051.5,101.167 1051.17,101.5 1050.5,101.5C 1048.12,103.046 1045.45,103.713 1042.5,103.5C 1037.03,101.717 1031.36,101.051 1025.5,101.5C 1018.83,101.5 1012.17,101.5 1005.5,101.5C 999.491,101.701 993.491,102.034 987.5,102.5C 985.211,99.0426 984.878,95.376 986.5,91.5C 1005.8,90.3705 1025.14,90.2038 1044.5,91C 1049,92.6519 1051.33,95.8186 1051.5,100.5 Z"/></g>
<g><path style="opacity:0.827" fill="#fffe53" d="M 655.5,118.5 C 648.863,119.276 642.196,119.609 635.5,119.5C 629.828,117.817 628.161,114.15 630.5,108.5C 645.455,108.681 659.789,105.514 673.5,99C 677.423,98.2073 681.256,98.374 685,99.5C 686.98,102.595 686.813,105.595 684.5,108.5C 674.874,112.263 665.207,115.596 655.5,118.5 Z"/></g>
<g><path style="opacity:1" fill="#fffeb2" d="M 1050.5,101.5 C 1048.38,104.517 1045.72,105.184 1042.5,103.5C 1045.45,103.713 1048.12,103.046 1050.5,101.5 Z"/></g>
<g><path style="opacity:0.832" fill="#fffe54" d="M 505.5,122.5 C 496.542,122.964 487.542,122.964 478.5,122.5C 472.158,122.334 465.825,122.5 459.5,123C 458.263,123.232 457.263,123.732 456.5,124.5C 453.5,124.5 450.5,124.5 447.5,124.5C 444.875,120.665 444.875,116.832 447.5,113C 463.723,110.529 480.056,109.862 496.5,111C 499.365,111.837 502.198,112.67 505,113.5C 506.698,116.396 506.864,119.396 505.5,122.5 Z"/></g>
<g><path style="opacity:0.888" fill="#fffe56" d="M 338.5,129.5 C 336.833,129.5 335.167,129.5 333.5,129.5C 331.265,129.205 329.265,129.539 327.5,130.5C 320.486,130.898 313.653,132.231 307,134.5C 299.525,139.653 291.358,143.32 282.5,145.5C 280.626,145.61 279.126,144.944 278,143.5C 276.621,139.525 277.787,136.691 281.5,135C 281.272,134.601 280.938,134.435 280.5,134.5C 287.89,132.477 294.89,129.31 301.5,125C 312.514,120.937 323.847,118.437 335.5,117.5C 337.135,118.046 338.801,118.38 340.5,118.5C 342.201,122.678 341.535,126.345 338.5,129.5 Z"/></g>
<g><path style="opacity:1" fill="#fffe7b" d="M 850.5,179.5 C 844.435,178.303 838.435,176.803 832.5,175C 823.487,174.448 814.487,174.615 805.5,175.5C 811.042,173.672 816.876,172.672 823,172.5C 827.841,172.927 832.674,173.427 837.5,174C 842.158,175.161 846.492,176.994 850.5,179.5 Z"/></g>
<g><path style="opacity:1" fill="#fffe54" d="M 850.5,179.5 C 859.803,183.421 867.636,189.421 874,197.5C 884.959,212.751 893.292,229.418 899,247.5C 904.91,266.161 911.577,284.494 919,302.5C 923.521,320.935 930.021,338.602 938.5,355.5C 938.209,356.649 937.376,357.316 936,357.5C 925.572,355.507 915.072,354.007 904.5,353C 887.122,352.081 869.789,350.747 852.5,349C 855.085,342.657 857.252,336.157 859,329.5C 865.615,317.02 867.949,303.686 866,289.5C 859.46,284.467 852.627,284.3 845.5,289C 843.293,291.705 840.626,293.871 837.5,295.5C 830.615,284.941 820.948,281.107 808.5,284C 800.527,290.189 795.693,298.356 794,308.5C 792.54,319.798 792.207,331.131 793,342.5C 794.167,344.833 795.333,347.167 796.5,349.5C 755.158,352.698 715.491,362.364 677.5,378.5C 677.5,377.5 677.5,376.5 677.5,375.5C 680.238,366.69 684.071,358.356 689,350.5C 700.915,321.337 713.915,292.671 728,264.5C 732.416,256.667 737.082,249 742,241.5C 754.748,224.932 767.248,208.266 779.5,191.5C 781.179,191.108 782.846,190.608 784.5,190C 786.847,185.648 790.514,183.148 795.5,182.5C 797.839,180.004 800.505,178.004 803.5,176.5C 803.842,175.662 804.508,175.328 805.5,175.5C 814.487,174.615 823.487,174.448 832.5,175C 838.435,176.803 844.435,178.303 850.5,179.5 Z"/></g>
<g><path style="opacity:1" fill="#fbec5a" d="M 1253.5,178.5 C 1257.35,177.845 1260.19,179.179 1262,182.5C 1262.91,187.472 1264.07,192.305 1265.5,197C 1265.41,201.749 1263.08,203.415 1258.5,202C 1256.96,200.421 1255.79,198.587 1255,196.5C 1254.06,191.709 1252.89,187.043 1251.5,182.5C 1251.8,180.886 1252.47,179.552 1253.5,178.5 Z"/></g>
<g><path style="opacity:1" fill="#fffe76" d="M 803.5,176.5 C 800.505,178.004 797.839,180.004 795.5,182.5C 790.514,183.148 786.847,185.648 784.5,190C 782.846,190.608 781.179,191.108 779.5,191.5C 785.958,184.043 793.958,179.043 803.5,176.5 Z"/></g>
<g><path style="opacity:1" fill="#fbec5a" d="M 1285.5,197.5 C 1292.08,196.743 1294.75,199.409 1293.5,205.5C 1288.67,207.746 1284.01,210.246 1279.5,213C 1273.98,213.309 1271.98,210.809 1273.5,205.5C 1277.91,203.306 1281.91,200.639 1285.5,197.5 Z"/></g>
<g><path style="opacity:1" fill="#fbec5a" d="M 1250.5,214.5 C 1256.99,212.835 1259.82,215.168 1259,221.5C 1254.52,223.663 1250.02,225.83 1245.5,228C 1239.51,229.668 1237.01,227.502 1238,221.5C 1241.87,218.424 1246.04,216.091 1250.5,214.5 Z"/></g>
<g><path style="opacity:1" fill="#fbec59" d="M 1272.5,220.5 C 1275.65,219.959 1278.15,220.959 1280,223.5C 1281.75,227.327 1283.75,230.993 1286,234.5C 1287.17,240 1285,242.167 1279.5,241C 1272.78,235.34 1270.45,228.507 1272.5,220.5 Z"/></g>
<g><path style="opacity:1" fill="#fffe56" d="M 1519.5,303.5 C 1520.51,311.135 1521.01,318.802 1521,326.5C 1517.19,329.539 1514.19,328.872 1512,324.5C 1509.74,301.592 1508.9,278.592 1509.5,255.5C 1512.34,252.899 1515.17,252.899 1518,255.5C 1518.17,271.672 1518.67,287.672 1519.5,303.5 Z"/></g>
<g><path style="opacity:1" fill="#fffe97" d="M 1519.5,303.5 C 1518.67,287.672 1518.17,271.672 1518,255.5C 1515.17,252.899 1512.34,252.899 1509.5,255.5C 1511.97,250.58 1515.14,250.247 1519,254.5C 1519.5,270.83 1519.67,287.163 1519.5,303.5 Z"/></g>
<g><path style="opacity:1" fill="#faea4e" d="M 938.5,355.5 C 939.349,357.5 940.849,358.833 943,359.5C 946.774,360.569 950.607,361.236 954.5,361.5C 958.159,363.342 962.159,364.342 966.5,364.5C 972.949,366.584 979.615,368.25 986.5,369.5C 988.435,370.15 990.435,370.483 992.5,370.5C 998.483,373.388 1004.82,375.721 1011.5,377.5C 1015.5,379.165 1019.5,380.832 1023.5,382.5C 1026.48,384.659 1029.82,386.325 1033.5,387.5C 1039.62,389.865 1045.62,392.532 1051.5,395.5C 1054.36,398.001 1057.69,399.668 1061.5,400.5C 1065.81,402.321 1070.14,404.154 1074.5,406C 1093.6,418.067 1111.93,431.4 1129.5,446C 1146.67,462.838 1164.17,479.338 1182,495.5C 1187,501.833 1192,508.167 1197,514.5C 1200.77,522.29 1205.77,529.29 1212,535.5C 1213.09,537.078 1213.93,538.745 1214.5,540.5C 1215.13,544.431 1216.8,547.765 1219.5,550.5C 1223.7,555.602 1227.37,560.935 1230.5,566.5C 1247.65,602.647 1256.82,641.313 1258,682.5C 1264.85,747.466 1252.18,808.133 1220,864.5C 1203.91,887.599 1185.24,908.599 1164,927.5C 1154.3,939.03 1144.13,950.03 1133.5,960.5C 1133.88,962.383 1134.88,963.883 1136.5,965C 1147.7,972.269 1157.7,980.936 1166.5,991C 1172.61,995.779 1178.11,1001.28 1183,1007.5C 1183.46,1006.91 1183.63,1006.24 1183.5,1005.5C 1187.22,1012.59 1191.72,1019.25 1197,1025.5C 1207.19,1043.59 1213.35,1062.93 1215.5,1083.5C 1213.98,1103.28 1209.81,1122.61 1203,1141.5C 1200.41,1146.34 1197.58,1151.01 1194.5,1155.5C 1192.54,1162.73 1190.04,1169.73 1187,1176.5C 1179.68,1188.65 1172.18,1200.65 1164.5,1212.5C 1165.17,1212.83 1165.83,1213.17 1166.5,1213.5C 1174.23,1208.98 1182.56,1207.15 1191.5,1208C 1193.33,1208.27 1194.83,1209.11 1196,1210.5C 1196.67,1214.17 1196.67,1217.83 1196,1221.5C 1193.22,1226.22 1190.05,1230.72 1186.5,1235C 1187.96,1237.13 1189.79,1238.96 1192,1240.5C 1194,1244.5 1194,1248.5 1192,1252.5C 1187.71,1254.64 1187.04,1257.31 1190,1260.5C 1190.67,1264.5 1190.67,1268.5 1190,1272.5C 1186.51,1274.99 1183.34,1277.82 1180.5,1281C 1175.79,1282.54 1171.12,1284.21 1166.5,1286C 1149.51,1286.8 1132.51,1287.3 1115.5,1287.5C 1114.02,1295.45 1111.18,1302.78 1107,1309.5C 1102.33,1316.84 1097.66,1324.17 1093,1331.5C 1088,1337.49 1082.67,1343.16 1077,1348.5C 1076.43,1350.64 1075.59,1352.64 1074.5,1354.5C 1067.88,1360.78 1061.21,1367.12 1054.5,1373.5C 1053.5,1373.83 1052.83,1374.5 1052.5,1375.5C 1048.65,1377.92 1044.98,1380.59 1041.5,1383.5C 1038.55,1385.12 1035.88,1387.12 1033.5,1389.5C 1031.33,1389.75 1029.66,1390.75 1028.5,1392.5C 1015.36,1398.24 1002.36,1404.24 989.5,1410.5C 985.447,1411.35 981.447,1412.52 977.5,1414C 976.058,1414.38 975.058,1415.21 974.5,1416.5C 969.992,1417.43 965.992,1419.1 962.5,1421.5C 961.209,1421.26 960.209,1421.6 959.5,1422.5C 956.161,1422.89 952.827,1423.39 949.5,1424C 947.68,1424.2 946.347,1425.03 945.5,1426.5C 943.447,1426.4 941.78,1427.07 940.5,1428.5C 934.941,1429.12 929.441,1430.12 924,1431.5C 922.624,1431.68 921.791,1432.35 921.5,1433.5C 917.573,1433.93 913.907,1434.93 910.5,1436.5C 906.625,1436.64 902.792,1436.31 899,1435.5C 896.384,1435.62 894.884,1436.95 894.5,1439.5C 870.398,1441.66 846.398,1443.33 822.5,1444.5C 807.821,1444.42 793.154,1444.75 778.5,1445.5C 771.5,1445.5 764.5,1445.5 757.5,1445.5C 756.707,1440.22 753.707,1438.39 748.5,1440C 747.643,1440.69 746.977,1441.52 746.5,1442.5C 740.872,1443.5 735.206,1443.83 729.5,1443.5C 723.167,1442.83 716.833,1442.17 710.5,1441.5C 697.946,1437.86 685.28,1434.86 672.5,1432.5C 668.149,1429.23 663.149,1427.9 657.5,1428.5C 654.248,1426.41 650.582,1425.08 646.5,1424.5C 643.342,1422.2 640.009,1420.03 636.5,1418C 635.207,1417.51 633.873,1417.34 632.5,1417.5C 623.015,1412.09 614.682,1405.25 607.5,1397C 600.04,1391.87 593.54,1385.71 588,1378.5C 583.736,1370.97 578.736,1363.97 573,1357.5C 571.871,1355.86 570.371,1354.86 568.5,1354.5C 553.605,1326.35 547.938,1296.35 551.5,1264.5C 547.818,1264.55 544.485,1265.55 541.5,1267.5C 540.77,1268.71 539.77,1269.71 538.5,1270.5C 535.173,1271.5 531.839,1272.5 528.5,1273.5C 522.677,1271.09 517.343,1267.92 512.5,1264C 496.152,1248 479.319,1232.16 462,1216.5C 443.838,1193.03 438.171,1166.7 445,1137.5C 447.561,1124.13 449.895,1110.8 452,1097.5C 451.617,1098.06 451.117,1098.39 450.5,1098.5C 458.858,1078.12 468.525,1058.45 479.5,1039.5C 479.351,1040.55 479.517,1041.55 480,1042.5C 497.599,1020.9 517.766,1002.07 540.5,986C 542.213,984.622 543.547,982.955 544.5,981C 527.201,972.083 511.701,960.583 498,946.5C 490.333,937.5 482.667,928.5 475,919.5C 465.735,904.936 457.068,890.27 449,875.5C 441.591,852.939 433.591,830.606 425,808.5C 411.086,758.163 409.919,707.496 421.5,656.5C 422.222,656.918 422.722,657.584 423,658.5C 423.802,654.866 425.636,651.866 428.5,649.5C 430.939,640.375 433.273,631.541 435.5,623C 440.506,609.336 446.006,595.836 452,582.5C 452.497,580.19 452.663,577.857 452.5,575.5C 453.467,574.194 454.801,573.527 456.5,573.5C 456.82,567.866 458.987,563.199 463,559.5C 463.49,558.207 463.657,556.873 463.5,555.5C 466.277,553.049 468.277,550.049 469.5,546.5C 470.974,545.564 471.974,544.23 472.5,542.5C 474.326,540.853 475.66,538.853 476.5,536.5C 480.12,535.548 481.787,533.215 481.5,529.5C 486.625,523.061 491.292,516.394 495.5,509.5C 497.595,507.241 500.095,505.574 503,504.5C 506.419,498 510.586,492 515.5,486.5C 536.004,466.39 558.671,448.89 583.5,434C 586.312,431.099 589.312,428.432 592.5,426C 619.203,411.328 645.869,396.661 672.5,382C 674.788,380.227 676.454,378.061 677.5,375.5C 677.5,376.5 677.5,377.5 677.5,378.5C 715.491,362.364 755.158,352.698 796.5,349.5C 795.333,347.167 794.167,344.833 793,342.5C 792.207,331.131 792.54,319.798 794,308.5C 795.693,298.356 800.527,290.189 808.5,284C 820.948,281.107 830.615,284.941 837.5,295.5C 840.626,293.871 843.293,291.705 845.5,289C 852.627,284.3 859.46,284.467 866,289.5C 867.949,303.686 865.615,317.02 859,329.5C 857.252,336.157 855.085,342.657 852.5,349C 869.789,350.747 887.122,352.081 904.5,353C 915.072,354.007 925.572,355.507 936,357.5C 937.376,357.316 938.209,356.649 938.5,355.5 Z"/></g>
<g><path style="opacity:0.872" fill="#fffe5b" d="M 95.5,295.5 C 95.1669,323.175 95.5002,350.841 96.5,378.5C 99.2571,380.088 100.09,382.421 99,385.5C 96.4209,387.347 93.5876,387.847 90.5,387C 89.7445,385.62 89.0778,385.453 88.5,386.5C 86.2239,386.244 85.0572,384.91 85,382.5C 84.3333,350.833 84.3333,319.167 85,287.5C 87.2869,283.47 90.4536,282.636 94.5,285C 95.4558,288.394 95.7892,291.894 95.5,295.5 Z"/></g>
<g><path style="opacity:1" fill="#f2cb45" d="M 808.5,313.5 C 810.39,313.297 811.89,313.963 813,315.5C 813.172,319.871 813.672,324.204 814.5,328.5C 815.086,328.709 815.586,329.043 816,329.5C 817.113,326.019 818.28,322.519 819.5,319C 826.594,316.916 829.594,319.749 828.5,327.5C 828.653,330.706 827.986,333.706 826.5,336.5C 822.896,336.91 819.229,337.077 815.5,337C 811.93,340.426 808.764,339.926 806,335.5C 801.705,329.821 800.538,323.488 802.5,316.5C 804.427,315.138 806.427,314.138 808.5,313.5 Z"/></g>
<g><path style="opacity:1" fill="#f1cb45" d="M 837.5,315.5 C 843.827,314.494 846.494,317.16 845.5,323.5C 845.333,325.5 845.167,327.5 845,329.5C 842.759,332.661 839.759,334.661 836,335.5C 832.929,335.262 831.429,333.596 831.5,330.5C 832.691,325.126 834.691,320.126 837.5,315.5 Z"/></g>
<g><path style="opacity:1" fill="#fbec5b" d="M 239.5,346.5 C 245.699,345.153 248.199,347.487 247,353.5C 244.167,356.333 241.333,359.167 238.5,362C 232.507,363.668 230.007,361.502 231,355.5C 234.714,353.287 237.548,350.287 239.5,346.5 Z"/></g>
<g><path style="opacity:1" fill="#fbeb57" d="M 211.5,341.5 C 213.199,341.34 214.866,341.506 216.5,342C 219.547,345.925 222.714,349.759 226,353.5C 226.986,356.742 226.152,359.408 223.5,361.5C 225.339,363.527 225.839,365.86 225,368.5C 220.886,372.301 216.553,375.634 212,378.5C 207.918,377.841 206.584,375.508 208,371.5C 210.883,366.95 214.716,363.45 219.5,361C 212.794,356.096 210.127,349.596 211.5,341.5 Z"/></g>
<g><path style="opacity:1" fill="#fdf4a9" d="M 954.5,361.5 C 958.841,361.658 962.841,362.658 966.5,364.5C 962.159,364.342 958.159,363.342 954.5,361.5 Z"/></g>
<g><path style="opacity:1" fill="#fef7bd" d="M 966.5,364.5 C 969.187,364.336 971.854,364.503 974.5,365C 978.878,365.767 982.878,367.267 986.5,369.5C 979.615,368.25 972.949,366.584 966.5,364.5 Z"/></g>
<g><path style="opacity:1" fill="#fbec58" d="M 230.5,368.5 C 232.604,368.201 234.604,368.534 236.5,369.5C 239.082,374.333 241.915,379 245,383.5C 246.668,389.493 244.502,391.993 238.5,391C 233.774,386.018 230.441,380.185 228.5,373.5C 228.902,371.7 229.569,370.033 230.5,368.5 Z"/></g>
<g><path style="opacity:1" fill="#fefad3" d="M 992.5,370.5 C 995.522,370.804 998.522,371.304 1001.5,372C 1004.99,373.755 1008.32,375.588 1011.5,377.5C 1004.82,375.721 998.483,373.388 992.5,370.5 Z"/></g>
<g><path style="opacity:1" fill="#fef7ba" d="M 1023.5,382.5 C 1024.87,382.343 1026.21,382.51 1027.5,383C 1030.09,383.886 1032.09,385.386 1033.5,387.5C 1029.82,386.325 1026.48,384.659 1023.5,382.5 Z"/></g>
<g><path style="opacity:1" fill="#fef7bc" d="M 1051.5,395.5 C 1055.68,395.592 1059.02,397.259 1061.5,400.5C 1057.69,399.668 1054.36,398.001 1051.5,395.5 Z"/></g>
<g><path style="opacity:0.005" fill="#fefffe" d="M 48.5,437.5 C 48.3433,436.127 48.51,434.793 49,433.5C 49.765,435.066 49.5983,436.399 48.5,437.5 Z"/></g>
<g><path style="opacity:1" fill="#fffe9b" d="M 1515.5,436.5 C 1511.46,433.371 1508.46,434.038 1506.5,438.5C 1506.33,433.506 1508.66,431.672 1513.5,433C 1514.82,433.816 1515.49,434.983 1515.5,436.5 Z"/></g>
<g><path style="opacity:1" fill="#fffe59" d="M 1515.5,436.5 C 1515.59,458.192 1514.93,479.858 1513.5,501.5C 1513.45,504.727 1514.12,507.727 1515.5,510.5C 1515.17,514.989 1512.83,516.489 1508.5,515C 1506.88,512.92 1505.38,510.754 1504,508.5C 1504.28,485.091 1505.11,461.758 1506.5,438.5C 1508.46,434.038 1511.46,433.371 1515.5,436.5 Z"/></g>
<g><path style="opacity:0.005" fill="#fefffe" d="M 48.5,437.5 C 48.6602,439.199 48.4935,440.866 48,442.5C 47.2204,440.613 47.3871,438.946 48.5,437.5 Z"/></g>
<g><path style="opacity:0.004" fill="#fefffe" d="M 46.5,444.5 C 47.5983,445.601 47.765,446.934 47,448.5C 46.51,447.207 46.3433,445.873 46.5,444.5 Z"/></g>
<g><path style="opacity:0.84" fill="#fffe53" d="M 78.5,537.5 C 78.5,541.167 78.5,544.833 78.5,548.5C 73.2581,549.729 69.4248,548.063 67,543.5C 66.3333,516.833 66.3333,490.167 67,463.5C 67.7579,461.09 69.4246,460.09 72,460.5C 74.5754,460.09 76.2421,461.09 77,463.5C 77.1679,488.337 77.6679,513.003 78.5,537.5 Z"/></g>
<g><path style="opacity:1" fill="#fdf18c" d="M 515.5,486.5 C 510.586,492 506.419,498 503,504.5C 500.095,505.574 497.595,507.241 495.5,509.5C 499.419,504.007 503.586,498.674 508,493.5C 510.37,490.961 512.87,488.628 515.5,486.5 Z"/></g>
<g><path style="opacity:1" fill="#fdf28c" d="M 481.5,529.5 C 481.787,533.215 480.12,535.548 476.5,536.5C 477.433,533.63 479.1,531.296 481.5,529.5 Z"/></g>
<g><path style="opacity:1" fill="#fdf6b3" d="M 476.5,536.5 C 475.66,538.853 474.326,540.853 472.5,542.5C 472.845,539.802 474.178,537.802 476.5,536.5 Z"/></g>
<g><path style="opacity:1" fill="#fdf5ab" d="M 1214.5,540.5 C 1217.2,543.235 1218.87,546.569 1219.5,550.5C 1216.8,547.765 1215.13,544.431 1214.5,540.5 Z"/></g>
<g><path style="opacity:1" fill="#fdf6b5" d="M 469.5,546.5 C 468.277,550.049 466.277,553.049 463.5,555.5C 464.723,551.951 466.723,548.951 469.5,546.5 Z"/></g>
<g><path style="opacity:1" fill="#fbeb57" d="M 379.5,561.5 C 381.527,561.338 383.527,561.505 385.5,562C 386.894,562.956 387.561,564.289 387.5,566C 386.078,569.677 384.244,573.177 382,576.5C 377.722,582.148 374.222,581.814 371.5,575.5C 374.162,570.843 376.829,566.177 379.5,561.5 Z"/></g>
<g><path style="opacity:1" fill="#fffe54" d="M 1230.5,566.5 C 1262.03,571.798 1292.36,580.965 1321.5,594C 1360.97,604.403 1396.97,621.737 1429.5,646C 1452.07,667.932 1455.57,692.765 1440,720.5C 1438,723.167 1436,725.833 1434,728.5C 1423.76,738.745 1412.93,748.245 1401.5,757C 1380.53,778.319 1357.53,796.985 1332.5,813C 1326.2,818.301 1320.2,823.968 1314.5,830C 1298.02,842.078 1281.02,853.411 1263.5,864C 1231.88,891.456 1198.88,916.956 1164.5,940.5C 1163.35,940.791 1162.68,941.624 1162.5,943C 1163.16,948.79 1164.49,954.29 1166.5,959.5C 1170.6,975.461 1176.26,990.794 1183.5,1005.5C 1183.63,1006.24 1183.46,1006.91 1183,1007.5C 1178.11,1001.28 1172.61,995.779 1166.5,991C 1157.7,980.936 1147.7,972.269 1136.5,965C 1134.88,963.883 1133.88,962.383 1133.5,960.5C 1144.13,950.03 1154.3,939.03 1164,927.5C 1185.24,908.599 1203.91,887.599 1220,864.5C 1252.18,808.133 1264.85,747.466 1258,682.5C 1256.82,641.313 1247.65,602.647 1230.5,566.5 Z"/></g>
<g><path style="opacity:1" fill="#fbec5e" d="M 349.5,569.5 C 355.145,570.907 360.311,573.574 365,577.5C 366.421,581.482 365.254,584.148 361.5,585.5C 358.796,583.535 355.796,582.035 352.5,581C 347.671,577.919 346.671,574.086 349.5,569.5 Z"/></g>
<g><path style="opacity:1" fill="#fdf086" d="M 463.5,555.5 C 463.657,556.873 463.49,558.207 463,559.5C 458.987,563.199 456.82,567.866 456.5,573.5C 454.801,573.527 453.467,574.194 452.5,575.5C 454.435,567.894 458.102,561.227 463.5,555.5 Z"/></g>
<g><path style="opacity:1" fill="#fbeb56" d="M 371.5,583.5 C 373.527,583.338 375.527,583.505 377.5,584C 380.333,588.167 383.833,591.667 388,594.5C 388.993,600.502 386.493,602.668 380.5,601C 373.016,597.196 370.016,591.363 371.5,583.5 Z"/></g>
<g><path style="opacity:1" fill="#fbec58" d="M 357.5,593.5 C 361.841,592.52 364.174,594.187 364.5,598.5C 364,601.5 363.5,604.5 363,607.5C 360.525,610.524 357.525,611.19 354,609.5C 353.077,607.966 352.577,606.299 352.5,604.5C 353.364,600.44 355.031,596.773 357.5,593.5 Z"/></g>
<g><path style="opacity:0.925" fill="#6e672a" d="M 735.5,610.5 C 732.098,610.342 728.764,610.676 725.5,611.5C 725.611,610.883 725.944,610.383 726.5,610C 729.696,609.195 732.696,609.362 735.5,610.5 Z"/></g>
<g><path style="opacity:0.99" fill="#191915" d="M 735.5,610.5 C 743.488,610.829 747.488,615.162 747.5,623.5C 747.37,625.375 747.037,627.208 746.5,629C 745.079,630.419 744.079,632.086 743.5,634C 739.926,638.091 737.093,642.591 735,647.5C 733.629,649.041 732.129,650.375 730.5,651.5C 728.05,651.702 725.717,651.369 723.5,650.5C 721.435,648.102 721.102,645.435 722.5,642.5C 727.735,636.295 732.069,629.628 735.5,622.5C 733.901,622.768 732.568,622.434 731.5,621.5C 728.473,621.014 725.807,619.68 723.5,617.5C 723.054,614.99 723.72,612.99 725.5,611.5C 728.764,610.676 732.098,610.342 735.5,610.5 Z"/></g>
<g><path style="opacity:0.998" fill="#191816" d="M 924.5,608.5 C 924.833,608.5 925.167,608.5 925.5,608.5C 931.164,607.499 933.498,609.833 932.5,615.5C 930.453,617.55 928.786,619.883 927.5,622.5C 926.19,624.435 924.857,626.435 923.5,628.5C 923.608,629.442 923.941,630.275 924.5,631C 926.452,631.366 928.118,632.199 929.5,633.5C 931.704,636.603 932.037,639.937 930.5,643.5C 927.391,643.736 924.391,643.403 921.5,642.5C 919.524,640.989 917.191,640.156 914.5,640C 912.382,638.951 910.716,637.451 909.5,635.5C 909.508,632.455 909.841,629.455 910.5,626.5C 912.183,625.147 913.516,623.48 914.5,621.5C 918.592,617.742 921.926,613.409 924.5,608.5 Z"/></g>
<g><path style="opacity:1" fill="#585625" d="M 925.5,608.5 C 932.833,605.833 935.167,608.167 932.5,615.5C 933.498,609.833 931.164,607.499 925.5,608.5 Z"/></g>
<g><path style="opacity:0.988" fill="#aa9f39" d="M 723.5,617.5 C 725.807,619.68 728.473,621.014 731.5,621.5C 729.473,621.662 727.473,621.495 725.5,621C 724.177,620.184 723.511,619.017 723.5,617.5 Z"/></g>
<g><path style="opacity:1" fill="#736e43" d="M 924.5,608.5 C 921.926,613.409 918.592,617.742 914.5,621.5C 917.074,616.591 920.408,612.258 924.5,608.5 Z"/></g>
<g><path style="opacity:1" fill="#928b34" d="M 932.5,615.5 C 932.031,618.643 930.364,620.977 927.5,622.5C 928.786,619.883 930.453,617.55 932.5,615.5 Z"/></g>
<g><path style="opacity:1" fill="#fdf296" d="M 439.5,602.5 C 437.65,612.872 434.317,622.539 429.5,631.5C 432.453,621.638 435.787,611.972 439.5,602.5 Z"/></g>
<g><path style="opacity:1" fill="#fbed5f" d="M 452.5,575.5 C 452.663,577.857 452.497,580.19 452,582.5C 446.006,595.836 440.506,609.336 435.5,623C 433.273,631.541 430.939,640.375 428.5,649.5C 425.636,651.866 423.802,654.866 423,658.5C 422.722,657.584 422.222,656.918 421.5,656.5C 420.5,656.5 419.5,656.5 418.5,656.5C 419.848,655.399 421.348,654.399 423,653.5C 424.809,645.927 426.975,638.594 429.5,631.5C 434.317,622.539 437.65,612.872 439.5,602.5C 442.581,595.326 445.414,587.993 448,580.5C 449.517,578.76 451.017,577.094 452.5,575.5 Z"/></g>
<g><path style="opacity:1" fill="#a89f43" d="M 927.5,622.5 C 926.833,625.167 926.167,627.833 925.5,630.5C 927.973,630.088 929.306,631.088 929.5,633.5C 928.118,632.199 926.452,631.366 924.5,631C 923.941,630.275 923.608,629.442 923.5,628.5C 924.857,626.435 926.19,624.435 927.5,622.5 Z"/></g>
<g><path style="opacity:1" fill="#635e30" d="M 910.5,626.5 C 909.841,629.455 909.508,632.455 909.5,635.5C 908.848,634.551 908.514,633.385 908.5,632C 908.393,629.779 909.06,627.946 910.5,626.5 Z"/></g>
<g><path style="opacity:1" fill="#fffe5c" d="M 1514.5,630.5 C 1518.2,629.68 1520.53,631.013 1521.5,634.5C 1520.05,638.327 1520.22,641.993 1522,645.5C 1522.33,660.833 1522.67,676.167 1523,691.5C 1525.61,698.063 1523.44,700.397 1516.5,698.5C 1515.14,696.972 1513.97,695.305 1513,693.5C 1512.48,673.49 1512.15,653.49 1512,633.5C 1513.04,632.627 1513.88,631.627 1514.5,630.5 Z"/></g>
<g><path style="opacity:0.941" fill="#9f9636" d="M 921.5,642.5 C 924.391,643.403 927.391,643.736 930.5,643.5C 929.207,644.158 927.707,644.492 926,644.5C 924.014,644.431 922.514,643.765 921.5,642.5 Z"/></g>
<g><path style="opacity:0.859" fill="#7c752e" d="M 723.5,650.5 C 725.717,651.369 728.05,651.702 730.5,651.5C 729.551,652.152 728.385,652.486 727,652.5C 725.319,652.392 724.152,651.725 723.5,650.5 Z"/></g>
<g><path style="opacity:1" fill="#fffe54" d="M 418.5,656.5 C 419.5,656.5 420.5,656.5 421.5,656.5C 409.919,707.496 411.086,758.163 425,808.5C 433.591,830.606 441.591,852.939 449,875.5C 457.068,890.27 465.735,904.936 475,919.5C 482.667,928.5 490.333,937.5 498,946.5C 511.701,960.583 527.201,972.083 544.5,981C 543.547,982.955 542.213,984.622 540.5,986C 517.766,1002.07 497.599,1020.9 480,1042.5C 479.517,1041.55 479.351,1040.55 479.5,1039.5C 485.762,1025.64 492.595,1011.98 500,998.5C 500.749,997.365 500.583,996.365 499.5,995.5C 484.758,988.799 469.758,982.632 454.5,977C 422.568,969.35 390.568,962.017 358.5,955C 337.055,947.639 315.722,939.972 294.5,932C 273.098,926.253 251.764,920.253 230.5,914C 217.081,909.128 204.748,902.461 193.5,894C 186.369,887.714 181.035,880.214 177.5,871.5C 177.446,867.172 176.279,863.172 174,859.5C 173.098,848.75 173.598,838.083 175.5,827.5C 179.064,818.228 184.731,810.395 192.5,804C 202.167,797 211.833,790 221.5,783C 235.336,769.155 250.336,756.822 266.5,746C 271.341,743.079 276.341,740.412 281.5,738C 303.821,722.172 326.488,706.838 349.5,692C 369.312,684.094 387.979,674.094 405.5,662C 409.624,659.603 413.957,657.769 418.5,656.5 Z"/></g>
<g><path style="opacity:1" fill="#f1c845" d="M 833.5,666.5 C 837.355,665.845 840.188,667.179 842,670.5C 843.54,685.13 843.873,699.797 843,714.5C 842.07,716.552 840.57,718.052 838.5,719C 824.51,719.88 810.51,720.546 796.5,721C 794.722,721.704 792.888,722.204 791,722.5C 785.378,720.842 779.545,720.009 773.5,720C 771.522,717.503 771.022,714.669 772,711.5C 774.128,708.37 776.628,705.537 779.5,703C 795.851,692.158 811.851,680.825 827.5,669C 829.852,668.76 831.852,667.927 833.5,666.5 Z"/></g>
<g><path style="opacity:1" fill="#f6caa7" d="M 1032.5,702.5 C 1032.83,697.786 1032.49,693.12 1031.5,688.5C 1026.01,691.241 1022.01,695.408 1019.5,701C 1015.71,702.72 1011.87,702.886 1008,701.5C 1007.04,692.955 1008.54,684.955 1012.5,677.5C 1016.98,674.446 1020.81,675.112 1024,679.5C 1028.91,676.044 1034.25,673.377 1040,671.5C 1042.24,672.091 1044.41,672.758 1046.5,673.5C 1046.92,677.2 1047.59,680.867 1048.5,684.5C 1051.83,681.5 1055.17,678.5 1058.5,675.5C 1066.64,672.969 1070.3,675.969 1069.5,684.5C 1073.02,684.071 1076.02,682.571 1078.5,680C 1080.13,679.506 1081.8,679.34 1083.5,679.5C 1082.99,690.838 1077.16,697.172 1066,698.5C 1064.63,698.294 1063.3,697.96 1062,697.5C 1060.55,695.569 1058.88,693.902 1057,692.5C 1052.57,695.924 1048.4,699.757 1044.5,704C 1040.1,706.284 1036.1,705.784 1032.5,702.5 Z"/></g>
<g><path style="opacity:0.999" fill="#fae65d" d="M 1012.5,677.5 C 1008.54,684.955 1007.04,692.955 1008,701.5C 1011.87,702.886 1015.71,702.72 1019.5,701C 1022.01,695.408 1026.01,691.241 1031.5,688.5C 1032.49,693.12 1032.83,697.786 1032.5,702.5C 1032.09,699.404 1030.43,697.071 1027.5,695.5C 1026.16,696.347 1025.16,697.513 1024.5,699C 1023.55,699.483 1022.55,699.649 1021.5,699.5C 1021.33,700.822 1021.66,701.989 1022.5,703C 1019.1,702.734 1017.43,704.234 1017.5,707.5C 1013.59,705.841 1009.09,703.841 1004,701.5C 1004.96,699.065 1005.46,696.399 1005.5,693.5C 1004.5,693.5 1003.5,693.5 1002.5,693.5C 1002.34,690.934 1002.68,688.434 1003.5,686C 1004.93,683.944 1006.6,683.111 1008.5,683.5C 1005.68,679.163 1007.02,677.163 1012.5,677.5 Z"/></g>
<g><path style="opacity:1" fill="#f8d97f" d="M 620.5,706.5 C 620.875,701.505 618.542,699.505 613.5,700.5C 615.011,698.559 617.011,698.059 619.5,699C 621.646,701.357 621.979,703.857 620.5,706.5 Z"/></g>
<g><path style="opacity:1" fill="#f6cba6" d="M 613.5,700.5 C 618.542,699.505 620.875,701.505 620.5,706.5C 619.697,707.423 619.53,708.423 620,709.5C 624.149,703.916 628.816,703.249 634,707.5C 634.333,709.167 634.667,710.833 635,712.5C 643.504,703.335 648.171,705.002 649,717.5C 653.183,713.618 657.016,709.451 660.5,705C 666,703.833 668.167,706 667,711.5C 663.211,717.623 658.378,722.79 652.5,727C 646.866,729.776 642.366,728.609 639,723.5C 632.206,732.103 626.706,731.436 622.5,721.5C 620.31,723.524 617.977,725.357 615.5,727C 607.91,727.729 605.077,724.229 607,716.5C 608.365,710.78 610.531,705.447 613.5,700.5 Z"/></g>
<g><path style="opacity:1" fill="#fffe5b" d="M 78.5,727.5 C 81.0444,727.104 83.2111,727.771 85,729.5C 86.7227,743.437 88.0561,757.437 89,771.5C 91.1072,779.148 93.1072,786.815 95,794.5C 96.3198,796.817 97.9864,798.817 100,800.5C 101.167,806 99,808.167 93.5,807C 88.7806,803.611 85.6139,799.111 84,793.5C 78.4215,772.52 76.0881,751.187 77,729.5C 77.7172,728.956 78.2172,728.289 78.5,727.5 Z"/></g>
<g><path style="opacity:1" fill="#fffe57" d="M 1524.5,843.5 C 1523.66,848.668 1521.16,849.668 1517,846.5C 1516.67,845.5 1516.33,844.5 1516,843.5C 1515.5,822.503 1515.33,801.503 1515.5,780.5C 1515.98,777.218 1516.98,774.051 1518.5,771C 1520.7,770.175 1522.53,770.675 1524,772.5C 1524.5,796.164 1524.67,819.831 1524.5,843.5 Z"/></g>
<g><path style="opacity:1" fill="#fffe81" d="M 1524.5,843.5 C 1524.67,819.831 1524.5,796.164 1524,772.5C 1522.53,770.675 1520.7,770.175 1518.5,771C 1516.98,774.051 1515.98,777.218 1515.5,780.5C 1515.01,776.543 1515.68,772.877 1517.5,769.5C 1520.57,767.948 1523.07,768.615 1525,771.5C 1525.83,795.67 1525.66,819.67 1524.5,843.5 Z"/></g>
<g><path style="opacity:0.008" fill="#fffe6d" d="M 1662.5,808.5 C 1664,808.415 1665,809.081 1665.5,810.5C 1663.6,811.639 1662.6,810.973 1662.5,808.5 Z"/></g>
<g><path style="opacity:1" fill="#fffe75" d="M 175.5,827.5 C 173.598,838.083 173.098,848.75 174,859.5C 176.279,863.172 177.446,867.172 177.5,871.5C 175.144,868.285 173.644,864.619 173,860.5C 171.571,852.881 171.238,845.215 172,837.5C 172.701,833.891 173.868,830.558 175.5,827.5 Z"/></g>
<g><path style="opacity:1" fill="#fffede" d="M 1164.5,940.5 C 1164.1,943.738 1164.6,947.071 1166,950.5C 1166.5,953.482 1166.66,956.482 1166.5,959.5C 1164.49,954.29 1163.16,948.79 1162.5,943C 1162.68,941.624 1163.35,940.791 1164.5,940.5 Z"/></g>
<g><path style="opacity:1" fill="#fffe5d" d="M 1523.5,957.5 C 1525.53,957.338 1527.53,957.505 1529.5,958C 1530.13,958.75 1530.63,959.584 1531,960.5C 1531.67,986.833 1531.67,1013.17 1531,1039.5C 1528,1044.83 1525,1044.83 1522,1039.5C 1521.33,1013.17 1521.33,986.833 1522,960.5C 1522.51,959.473 1523.01,958.473 1523.5,957.5 Z"/></g>
<g><path style="opacity:1" fill="#fbec59" d="M 1304.5,986.5 C 1306.79,986.244 1308.96,986.577 1311,987.5C 1312.14,991.112 1313.81,994.446 1316,997.5C 1317.67,1003.49 1315.5,1005.99 1309.5,1005C 1306.12,1001.24 1303.79,996.91 1302.5,992C 1302.76,989.991 1303.42,988.157 1304.5,986.5 Z"/></g>
<g><path style="opacity:1" fill="#fffe5a" d="M 92.5,995.5 C 97.6639,996.158 100.831,999.158 102,1004.5C 104.573,1020.8 106.906,1037.13 109,1053.5C 110,1056.83 111,1060.17 112,1063.5C 116.206,1064.57 117.539,1067.24 116,1071.5C 111.356,1074.61 107.356,1073.95 104,1069.5C 102.725,1067.28 101.725,1064.95 101,1062.5C 98.1428,1045.94 95.8094,1029.27 94,1012.5C 93.3188,1008.3 92.1521,1004.3 90.5,1000.5C 90.4365,998.486 91.1032,996.819 92.5,995.5 Z"/></g>
<g><path style="opacity:1" fill="#fbec58" d="M 1326.5,1012.5 C 1324.5,1012.5 1322.5,1012.5 1320.5,1012.5C 1319.88,1012.39 1319.38,1012.06 1319,1011.5C 1318.33,1009.5 1318.33,1007.5 1319,1005.5C 1323.43,1002.87 1327.93,1000.54 1332.5,998.5C 1333.77,998.57 1334.94,998.903 1336,999.5C 1336.67,1001.5 1336.67,1003.5 1336,1005.5C 1333.25,1008.45 1330.08,1010.79 1326.5,1012.5 Z"/></g>
<g><path style="opacity:1" fill="#fbeb57" d="M 1309.5,1011.5 C 1315,1010.83 1317.17,1013.16 1316,1018.5C 1312.32,1022.51 1309.99,1027.17 1309,1032.5C 1301.09,1036.83 1297.76,1034.5 1299,1025.5C 1302.27,1020.62 1305.77,1015.96 1309.5,1011.5 Z"/></g>
<g><path style="opacity:1" fill="#fdf295" d="M 1320.5,1012.5 C 1322.5,1012.5 1324.5,1012.5 1326.5,1012.5C 1328.86,1014.55 1330.19,1017.22 1330.5,1020.5C 1329.4,1019.15 1328.4,1017.65 1327.5,1016C 1325.87,1015.51 1324.2,1015.34 1322.5,1015.5C 1322.22,1014.22 1321.55,1013.22 1320.5,1012.5 Z"/></g>
<g><path style="opacity:1" fill="#fbeb55" d="M 1322.5,1015.5 C 1324.2,1015.34 1325.87,1015.51 1327.5,1016C 1328.4,1017.65 1329.4,1019.15 1330.5,1020.5C 1332.49,1024.28 1333.32,1028.28 1333,1032.5C 1330.78,1034.62 1328.28,1034.95 1325.5,1033.5C 1322.63,1029.4 1320.63,1024.9 1319.5,1020C 1319.52,1017.82 1320.52,1016.32 1322.5,1015.5 Z"/></g>
<g><path style="opacity:1" fill="#fbec58" d="M 369.5,1055.5 C 370.96,1052.3 371.46,1048.96 371,1045.5C 370.333,1046.17 369.667,1046.83 369,1047.5C 368.728,1050.25 368.228,1052.92 367.5,1055.5C 365.385,1058.89 363.385,1062.39 361.5,1066C 356.643,1067.75 353.643,1066.25 352.5,1061.5C 354.853,1055.65 358.519,1050.82 363.5,1047C 360.385,1042.77 358.052,1038.1 356.5,1033C 357.461,1027.27 360.294,1026.11 365,1029.5C 367.612,1034.39 369.945,1039.39 372,1044.5C 374.795,1042.71 377.295,1040.54 379.5,1038C 386.426,1036.59 388.593,1039.09 386,1045.5C 383.184,1047.32 380.684,1049.48 378.5,1052C 379.792,1057.75 381.792,1063.25 384.5,1068.5C 383.148,1072.25 380.482,1073.42 376.5,1072C 372.667,1067.16 370.334,1061.66 369.5,1055.5 Z"/></g>
<g><path style="opacity:1" fill="#fcef7a" d="M 866.5,1046.5 C 875.299,1045.92 883.299,1047.92 890.5,1052.5C 885.897,1051.29 881.231,1050.29 876.5,1049.5C 873.113,1048.71 869.78,1047.71 866.5,1046.5 Z"/></g>
<g><path style="opacity:1" fill="#fffefe" d="M 876.5,1049.5 C 881.231,1050.29 885.897,1051.29 890.5,1052.5C 893.32,1054.75 896.32,1056.75 899.5,1058.5C 901.474,1059.91 903.474,1061.41 905.5,1063C 906.793,1063.49 908.127,1063.66 909.5,1063.5C 920.217,1071.02 930.883,1078.85 941.5,1087C 947.424,1093.08 952.757,1099.58 957.5,1106.5C 958.08,1108.75 959.413,1110.42 961.5,1111.5C 965.921,1117.33 969.588,1123.67 972.5,1130.5C 972.54,1137.61 974.54,1143.95 978.5,1149.5C 978.5,1149.83 978.5,1150.17 978.5,1150.5C 979.341,1155.74 980.674,1160.74 982.5,1165.5C 984.381,1178.76 985.381,1192.1 985.5,1205.5C 985.837,1216.59 985.004,1227.59 983,1238.5C 979.086,1250.93 974.42,1262.93 969,1274.5C 968.506,1276.13 968.34,1277.8 968.5,1279.5C 964.715,1283.81 962.048,1288.81 960.5,1294.5C 958.75,1295.66 957.75,1297.33 957.5,1299.5C 956.206,1300.29 955.039,1301.29 954,1302.5C 952.962,1305.81 951.462,1308.81 949.5,1311.5C 946.349,1314.26 943.349,1317.26 940.5,1320.5C 937.279,1321.71 934.279,1323.38 931.5,1325.5C 930.702,1325.96 930.369,1326.62 930.5,1327.5C 927.328,1328.51 924.328,1329.84 921.5,1331.5C 918.218,1333.14 915.218,1335.14 912.5,1337.5C 910.601,1339.46 908.267,1340.96 905.5,1342C 897.38,1344.54 889.38,1347.37 881.5,1350.5C 871.392,1353.35 861.058,1354.85 850.5,1355C 849.584,1355.28 848.918,1355.78 848.5,1356.5C 848.167,1356.5 847.833,1356.5 847.5,1356.5C 840.167,1356.5 832.833,1356.5 825.5,1356.5C 820.725,1354.85 815.725,1354.19 810.5,1354.5C 807.918,1352.26 804.918,1350.92 801.5,1350.5C 795.976,1348.3 790.643,1345.8 785.5,1343C 770.139,1330.07 758.306,1314.57 750,1296.5C 747.667,1293.5 745.333,1290.5 743,1287.5C 739,1273.66 735.5,1259.66 732.5,1245.5C 731.746,1235.8 730.746,1226.14 729.5,1216.5C 730.762,1208.45 730.429,1200.45 728.5,1192.5C 728.221,1178.75 728.887,1165.08 730.5,1151.5C 733.78,1134.99 739.78,1119.66 748.5,1105.5C 750.245,1103.97 751.245,1101.97 751.5,1099.5C 753.397,1096.05 755.563,1092.72 758,1089.5C 759.704,1087.63 761.537,1085.96 763.5,1084.5C 766.833,1081.83 769.833,1078.83 772.5,1075.5C 774.147,1073.67 776.147,1072.34 778.5,1071.5C 782.605,1070.72 785.939,1068.72 788.5,1065.5C 791.292,1065.38 793.292,1064.04 794.5,1061.5C 797.47,1060.23 800.137,1058.4 802.5,1056C 807.321,1054.78 811.987,1053.28 816.5,1051.5C 829.691,1050.83 842.858,1049.83 856,1048.5C 862.838,1048.82 869.672,1049.15 876.5,1049.5 Z"/></g>
<g><path style="opacity:1" fill="#fefbde" d="M 866.5,1046.5 C 869.78,1047.71 873.113,1048.71 876.5,1049.5C 869.672,1049.15 862.838,1048.82 856,1048.5C 842.858,1049.83 829.691,1050.83 816.5,1051.5C 832.816,1047.71 849.482,1046.05 866.5,1046.5 Z"/></g>
<g><path style="opacity:1" fill="#fef9cb" d="M 369.5,1055.5 C 368.833,1055.5 368.167,1055.5 367.5,1055.5C 368.228,1052.92 368.728,1050.25 369,1047.5C 369.667,1046.83 370.333,1046.17 371,1045.5C 371.46,1048.96 370.96,1052.3 369.5,1055.5 Z"/></g>
<g><path style="opacity:1" fill="#fdf291" d="M 899.5,1058.5 C 903.329,1059.37 906.663,1061.03 909.5,1063.5C 908.127,1063.66 906.793,1063.49 905.5,1063C 903.474,1061.41 901.474,1059.91 899.5,1058.5 Z"/></g>
<g><path style="opacity:1" fill="#fdf6b2" d="M 794.5,1061.5 C 793.292,1064.04 791.292,1065.38 788.5,1065.5C 790.223,1063.78 792.223,1062.45 794.5,1061.5 Z"/></g>
<g><path style="opacity:1" fill="#fdf39d" d="M 788.5,1065.5 C 785.939,1068.72 782.605,1070.72 778.5,1071.5C 780.998,1068.22 784.331,1066.22 788.5,1065.5 Z"/></g>
<g><path style="opacity:1" fill="#fdf6b0" d="M 772.5,1075.5 C 769.833,1078.83 766.833,1081.83 763.5,1084.5C 765.5,1080.5 768.5,1077.5 772.5,1075.5 Z"/></g>
<g><path style="opacity:1" fill="#fffe54" d="M 1215.5,1083.5 C 1222.42,1097.05 1229.25,1110.72 1236,1124.5C 1244,1143.18 1252,1161.85 1260,1180.5C 1267.77,1206.04 1276.1,1231.37 1285,1256.5C 1301.28,1297.35 1317.95,1338.02 1335,1378.5C 1337.63,1388.64 1340.63,1398.64 1344,1408.5C 1347.92,1425.67 1345.42,1441.67 1336.5,1456.5C 1332.5,1461.17 1328.17,1465.5 1323.5,1469.5C 1316.42,1474.25 1308.59,1476.92 1300,1477.5C 1287.24,1476.02 1275.07,1472.52 1263.5,1467C 1238.44,1452.96 1213.11,1439.3 1187.5,1426C 1150.14,1403.66 1113.14,1380.83 1076.5,1357.5C 1075.83,1356.5 1075.17,1355.5 1074.5,1354.5C 1075.59,1352.64 1076.43,1350.64 1077,1348.5C 1082.67,1343.16 1088,1337.49 1093,1331.5C 1097.66,1324.17 1102.33,1316.84 1107,1309.5C 1111.18,1302.78 1114.02,1295.45 1115.5,1287.5C 1132.51,1287.3 1149.51,1286.8 1166.5,1286C 1171.12,1284.21 1175.79,1282.54 1180.5,1281C 1183.34,1277.82 1186.51,1274.99 1190,1272.5C 1190.67,1268.5 1190.67,1264.5 1190,1260.5C 1187.04,1257.31 1187.71,1254.64 1192,1252.5C 1194,1248.5 1194,1244.5 1192,1240.5C 1189.79,1238.96 1187.96,1237.13 1186.5,1235C 1190.05,1230.72 1193.22,1226.22 1196,1221.5C 1196.67,1217.83 1196.67,1214.17 1196,1210.5C 1194.83,1209.11 1193.33,1208.27 1191.5,1208C 1182.56,1207.15 1174.23,1208.98 1166.5,1213.5C 1165.83,1213.17 1165.17,1212.83 1164.5,1212.5C 1172.18,1200.65 1179.68,1188.65 1187,1176.5C 1190.04,1169.73 1192.54,1162.73 1194.5,1155.5C 1197.58,1151.01 1200.41,1146.34 1203,1141.5C 1209.81,1122.61 1213.98,1103.28 1215.5,1083.5 Z"/></g>
<g><path style="opacity:1" fill="#fffe54" d="M 541.5,1267.5 C 544.485,1265.55 547.818,1264.55 551.5,1264.5C 547.938,1296.35 553.605,1326.35 568.5,1354.5C 517.323,1385.58 466.656,1417.42 416.5,1450C 405.021,1453.96 393.354,1457.46 381.5,1460.5C 375.491,1460.67 369.491,1460.5 363.5,1460C 362.529,1458.52 361.196,1457.69 359.5,1457.5C 350.086,1447.79 344.586,1436.13 343,1422.5C 342.333,1410.83 342.333,1399.17 343,1387.5C 346.969,1372.29 350.302,1356.96 353,1341.5C 362.712,1308.66 373.046,1275.99 384,1243.5C 393.802,1219.76 403.802,1196.1 414,1172.5C 426.262,1147.88 438.428,1123.22 450.5,1098.5C 451.117,1098.39 451.617,1098.06 452,1097.5C 449.895,1110.8 447.561,1124.13 445,1137.5C 438.171,1166.7 443.838,1193.03 462,1216.5C 479.319,1232.16 496.152,1248 512.5,1264C 517.343,1267.92 522.677,1271.09 528.5,1273.5C 531.839,1272.5 535.173,1271.5 538.5,1270.5C 539.77,1269.71 540.77,1268.71 541.5,1267.5 Z"/></g>
<g><path style="opacity:1" fill="#fdf6af" d="M 751.5,1099.5 C 751.245,1101.97 750.245,1103.97 748.5,1105.5C 748.755,1103.03 749.755,1101.03 751.5,1099.5 Z"/></g>
<g><path style="opacity:1" fill="#fdf6b4" d="M 957.5,1106.5 C 959.587,1107.58 960.92,1109.25 961.5,1111.5C 959.413,1110.42 958.08,1108.75 957.5,1106.5 Z"/></g>
<g><path style="opacity:1" fill="#fffe5a" d="M 1525.5,1130.5 C 1529.84,1129.52 1532.17,1131.19 1532.5,1135.5C 1531.97,1138.98 1531.63,1142.48 1531.5,1146C 1533.67,1165.22 1535,1184.56 1535.5,1204C 1536.27,1210.24 1533.77,1212.41 1528,1210.5C 1527,1206.83 1526,1203.17 1525,1199.5C 1524.83,1181.38 1523.66,1163.38 1521.5,1145.5C 1520.74,1139.85 1522.08,1134.85 1525.5,1130.5 Z"/></g>
<g><path style="opacity:1" fill="#fff9d3" d="M 972.5,1130.5 C 973.558,1131.6 974.392,1132.93 975,1134.5C 976.277,1139.49 977.444,1144.49 978.5,1149.5C 974.54,1143.95 972.54,1137.61 972.5,1130.5 Z"/></g>
<g><path style="opacity:1" fill="#fdf18a" d="M 978.5,1150.5 C 979.117,1150.61 979.617,1150.94 980,1151.5C 981.286,1156.1 982.119,1160.76 982.5,1165.5C 980.674,1160.74 979.341,1155.74 978.5,1150.5 Z"/></g>
<g><path style="opacity:1" fill="#f1ca45" d="M 1122.5,1165.5 C 1127.72,1164.41 1130.72,1166.41 1131.5,1171.5C 1132.28,1179.2 1133.28,1186.86 1134.5,1194.5C 1134.43,1195.77 1134.1,1196.94 1133.5,1198C 1128.85,1200.38 1125.01,1199.54 1122,1195.5C 1121.3,1189.52 1120.8,1183.52 1120.5,1177.5C 1120.34,1173.31 1121.01,1169.31 1122.5,1165.5 Z"/></g>
<g><path style="opacity:1" fill="#f1ca45" d="M 1140.5,1169.5 C 1142.9,1169.39 1144.74,1170.39 1146,1172.5C 1146.84,1179.98 1148.01,1187.31 1149.5,1194.5C 1149.08,1197.28 1148.41,1199.95 1147.5,1202.5C 1145.14,1202.66 1142.81,1202.5 1140.5,1202C 1136.87,1192.85 1135.71,1183.35 1137,1173.5C 1137.69,1171.65 1138.86,1170.32 1140.5,1169.5 Z"/></g>
<g><path style="opacity:1" fill="#fefad1" d="M 730.5,1151.5 C 728.887,1165.08 728.221,1178.75 728.5,1192.5C 725.359,1178.63 726.025,1164.96 730.5,1151.5 Z"/></g>
<g><path style="opacity:1" fill="#fdf5a6" d="M 982.5,1165.5 C 985.856,1178.69 986.856,1192.02 985.5,1205.5C 985.381,1192.1 984.381,1178.76 982.5,1165.5 Z"/></g>
<g><path style="opacity:1" fill="#fffe96" d="M 733.5,1174.5 C 736.143,1178.56 736.643,1182.89 735,1187.5C 734.077,1183.21 733.577,1178.88 733.5,1174.5 Z"/></g>
<g><path style="opacity:1" fill="#fffe5a" d="M 127.5,1197.5 C 128.966,1198.35 129.8,1199.68 130,1201.5C 130.333,1207.17 130.667,1212.83 131,1218.5C 132.542,1225.46 133.876,1232.46 135,1239.5C 137.925,1245.27 140.258,1251.27 142,1257.5C 148.917,1264.56 147.417,1267.72 137.5,1267C 136.333,1265.83 135.167,1264.67 134,1263.5C 127.314,1249.18 123.147,1234.18 121.5,1218.5C 121.334,1212.16 121.5,1205.82 122,1199.5C 123.444,1197.84 125.278,1197.18 127.5,1197.5 Z"/></g>
<g><path style="opacity:1" fill="#fffebd" d="M 127.5,1197.5 C 125.278,1197.18 123.444,1197.84 122,1199.5C 121.5,1205.82 121.334,1212.16 121.5,1218.5C 120.346,1212.01 120.179,1205.35 121,1198.5C 123.016,1196.39 125.183,1196.06 127.5,1197.5 Z"/></g>
<g><path style="opacity:1" fill="#fdf49f" d="M 729.5,1216.5 C 730.746,1226.14 731.746,1235.8 732.5,1245.5C 729.517,1235.99 728.517,1226.32 729.5,1216.5 Z"/></g>
<g><path style="opacity:1" fill="#f1ca45" d="M 541.5,1235.5 C 543.467,1235.26 545.301,1235.59 547,1236.5C 550,1241.5 553,1246.5 556,1251.5C 555.425,1260.41 551.759,1261.74 545,1255.5C 542.951,1250.57 540.785,1245.74 538.5,1241C 538.685,1238.62 539.685,1236.79 541.5,1235.5 Z"/></g>
<g><path style="opacity:1" fill="#f1ca45" d="M 541.5,1267.5 C 539.218,1268.39 536.885,1268.56 534.5,1268C 526.88,1263.66 522.88,1257 522.5,1248C 522.993,1242.53 525.659,1241.2 530.5,1244C 533.094,1250.64 537.26,1256.14 543,1260.5C 543.833,1263.17 543.333,1265.5 541.5,1267.5 Z"/></g>
<g><path style="opacity:1" fill="#fcef7a" d="M 968.5,1279.5 C 967.417,1283.09 966.084,1286.59 964.5,1290C 963.535,1291.98 962.201,1293.48 960.5,1294.5C 962.048,1288.81 964.715,1283.81 968.5,1279.5 Z"/></g>
<g><path style="opacity:1" fill="#fdf396" d="M 957.5,1299.5 C 955.538,1302.19 954.038,1305.19 953,1308.5C 951.961,1309.71 950.794,1310.71 949.5,1311.5C 951.462,1308.81 952.962,1305.81 954,1302.5C 955.039,1301.29 956.206,1300.29 957.5,1299.5 Z"/></g>
<g><path style="opacity:1" fill="#fbec59" d="M 1441.5,1311.5 C 1443.79,1311.24 1445.96,1311.58 1448,1312.5C 1449.55,1317.05 1451.55,1321.38 1454,1325.5C 1455.11,1335.08 1452.11,1336.75 1445,1330.5C 1443.52,1327.04 1441.85,1323.71 1440,1320.5C 1439.21,1317.26 1439.71,1314.26 1441.5,1311.5 Z"/></g>
<g><path style="opacity:1" fill="#fdf5a9" d="M 940.5,1320.5 C 937.743,1323.58 934.41,1325.91 930.5,1327.5C 930.369,1326.62 930.702,1325.96 931.5,1325.5C 934.279,1323.38 937.279,1321.71 940.5,1320.5 Z"/></g>
<g><path style="opacity:1" fill="#fbec5b" d="M 1464.5,1328.5 C 1469.3,1327.56 1472.63,1329.23 1474.5,1333.5C 1473.03,1336.92 1470.37,1338.92 1466.5,1339.5C 1465.35,1341.76 1465.19,1344.1 1466,1346.5C 1468.84,1349.98 1469.01,1353.48 1466.5,1357C 1463.65,1357.94 1461.15,1357.44 1459,1355.5C 1457.54,1352.25 1456.37,1348.92 1455.5,1345.5C 1456.08,1341.84 1456.58,1338.18 1457,1334.5C 1459.69,1332.64 1462.19,1330.64 1464.5,1328.5 Z"/></g>
<g><path style="opacity:1" fill="#fffe5d" d="M 1545.5,1412.5 C 1545.5,1414.17 1545.5,1415.83 1545.5,1417.5C 1540.39,1422.18 1536.89,1421.18 1535,1414.5C 1534.77,1410.42 1534.1,1406.42 1533,1402.5C 1532.33,1380.17 1532.33,1357.83 1533,1335.5C 1535.2,1330.43 1538.54,1329.43 1543,1332.5C 1542.05,1358.82 1542.39,1385.16 1544,1411.5C 1544.38,1412.06 1544.88,1412.39 1545.5,1412.5 Z"/></g>
<g><path style="opacity:1" fill="#fdf5ac" d="M 921.5,1331.5 C 919.25,1334.59 916.25,1336.59 912.5,1337.5C 915.218,1335.14 918.218,1333.14 921.5,1331.5 Z"/></g>
<g><path style="opacity:1" fill="#fbeb55" d="M 1443.5,1337.5 C 1449.67,1336.17 1451.84,1338.51 1450,1344.5C 1448,1346.5 1446,1348.5 1444,1350.5C 1443.05,1356.79 1439.55,1358.95 1433.5,1357C 1432.15,1353.79 1432.31,1350.62 1434,1347.5C 1435.33,1345.5 1436.67,1343.5 1438,1341.5C 1440.02,1340.3 1441.85,1338.97 1443.5,1337.5 Z"/></g>
<g><path style="opacity:1" fill="#fef8c3" d="M 801.5,1350.5 C 804.918,1350.92 807.918,1352.26 810.5,1354.5C 806.835,1354.5 803.835,1353.16 801.5,1350.5 Z"/></g>
<g><path style="opacity:1" fill="#fcef78" d="M 881.5,1350.5 C 878.007,1352.48 874.341,1354.31 870.5,1356C 863.174,1356.5 855.841,1356.67 848.5,1356.5C 848.918,1355.78 849.584,1355.28 850.5,1355C 861.058,1354.85 871.392,1353.35 881.5,1350.5 Z"/></g>
<g><path style="opacity:1" fill="#fcf081" d="M 825.5,1356.5 C 832.833,1356.5 840.167,1356.5 847.5,1356.5C 844.983,1357.97 842.15,1358.64 839,1358.5C 834.294,1358.27 829.794,1357.6 825.5,1356.5 Z"/></g>
<g><path style="opacity:1" fill="#fef9cc" d="M 1074.5,1354.5 C 1075.17,1355.5 1075.83,1356.5 1076.5,1357.5C 1074.22,1357.61 1072.22,1358.44 1070.5,1360C 1065.86,1365.49 1060.53,1369.99 1054.5,1373.5C 1061.21,1367.12 1067.88,1360.78 1074.5,1354.5 Z"/></g>
<g><path style="opacity:1" fill="#fdf7bc" d="M 1052.5,1375.5 C 1049.73,1379.39 1046.06,1382.05 1041.5,1383.5C 1044.98,1380.59 1048.65,1377.92 1052.5,1375.5 Z"/></g>
<g><path style="opacity:1" fill="#fffe56" d="M 142.5,1384.5 C 142.5,1410.17 142.5,1435.83 142.5,1461.5C 143.5,1461.5 144.5,1461.5 145.5,1461.5C 147.285,1461.93 148.285,1463.09 148.5,1465C 147.829,1471.83 144.162,1474.5 137.5,1473C 135.959,1471.42 134.792,1469.59 134,1467.5C 133.333,1439.17 133.333,1410.83 134,1382.5C 137.491,1380.77 140.325,1381.44 142.5,1384.5 Z"/></g>
<g><path style="opacity:1" fill="#fef5b2" d="M 1033.5,1389.5 C 1032.51,1391.41 1030.85,1392.41 1028.5,1392.5C 1029.66,1390.75 1031.33,1389.75 1033.5,1389.5 Z"/></g>
<g><path style="opacity:1" fill="#fef9cb" d="M 989.5,1410.5 C 985.974,1412.2 982.308,1414.04 978.5,1416C 977.207,1416.49 975.873,1416.66 974.5,1416.5C 975.058,1415.21 976.058,1414.38 977.5,1414C 981.447,1412.52 985.447,1411.35 989.5,1410.5 Z"/></g>
<g><path style="opacity:1" fill="#fdf395" d="M 974.5,1416.5 C 973.942,1417.79 972.942,1418.62 971.5,1419C 968.421,1419.69 965.421,1420.52 962.5,1421.5C 965.992,1419.1 969.992,1417.43 974.5,1416.5 Z"/></g>
<g><path style="opacity:1" fill="#fdf39a" d="M 632.5,1417.5 C 633.873,1417.34 635.207,1417.51 636.5,1418C 640.009,1420.03 643.342,1422.2 646.5,1424.5C 641.368,1422.91 636.702,1420.58 632.5,1417.5 Z"/></g>
<g><path style="opacity:1" fill="#fdf4a2" d="M 959.5,1422.5 C 955.002,1424.04 950.335,1425.37 945.5,1426.5C 946.347,1425.03 947.68,1424.2 949.5,1424C 952.827,1423.39 956.161,1422.89 959.5,1422.5 Z"/></g>
<g><path style="opacity:1" fill="#fef7b7" d="M 940.5,1428.5 C 934.447,1430.81 928.114,1432.47 921.5,1433.5C 921.791,1432.35 922.624,1431.68 924,1431.5C 929.441,1430.12 934.941,1429.12 940.5,1428.5 Z"/></g>
<g><path style="opacity:1" fill="#fcf18a" d="M 657.5,1428.5 C 663.149,1427.9 668.149,1429.23 672.5,1432.5C 667.433,1431.03 662.433,1429.7 657.5,1428.5 Z"/></g>
<g><path style="opacity:1" fill="#fbec59" d="M 168.5,1432.5 C 171.652,1431.96 174.152,1432.96 176,1435.5C 176.729,1440.02 178.063,1444.35 180,1448.5C 181.53,1455.24 179.03,1457.24 172.5,1454.5C 169.618,1449.69 167.618,1444.52 166.5,1439C 166.482,1436.59 167.149,1434.42 168.5,1432.5 Z"/></g>
<g><path style="opacity:1" fill="#f1c94a" d="M 910.5,1436.5 C 909.167,1437.17 907.833,1437.83 906.5,1438.5C 905.512,1443.64 905.179,1448.97 905.5,1454.5C 911.684,1454.03 917.684,1454.7 923.5,1456.5C 924.569,1459.41 924.736,1462.41 924,1465.5C 922.989,1466.34 921.822,1466.67 920.5,1466.5C 916.167,1466.5 911.833,1466.5 907.5,1466.5C 908.112,1474.84 908.778,1483.17 909.5,1491.5C 909.389,1492.12 909.056,1492.62 908.5,1493C 905.833,1493.67 903.167,1493.67 900.5,1493C 898.963,1491.89 898.297,1490.39 898.5,1488.5C 898.676,1483.12 898.342,1477.79 897.5,1472.5C 894.813,1473.66 892.48,1475.5 890.5,1478C 883.49,1480.17 880.49,1477.67 881.5,1470.5C 881.5,1470.17 881.5,1469.83 881.5,1469.5C 885.898,1466.11 889.564,1462.11 892.5,1457.5C 893.434,1456.43 893.768,1455.1 893.5,1453.5C 894.486,1449.03 894.819,1444.36 894.5,1439.5C 894.884,1436.95 896.384,1435.62 899,1435.5C 902.792,1436.31 906.625,1436.64 910.5,1436.5 Z"/></g>
<g><path style="opacity:1" fill="#f1ca4c" d="M 757.5,1445.5 C 757.294,1448.5 757.96,1451.16 759.5,1453.5C 759.5,1454.17 759.833,1454.5 760.5,1454.5C 760.5,1457.17 760.5,1459.83 760.5,1462.5C 764.93,1462.19 768.764,1463.53 772,1466.5C 773.073,1470.1 772.24,1473.1 769.5,1475.5C 766.167,1475.5 762.833,1475.5 759.5,1475.5C 759.92,1480.51 760.087,1485.51 760,1490.5C 756.869,1491.7 753.702,1491.7 750.5,1490.5C 750.5,1489.83 750.167,1489.5 749.5,1489.5C 748.656,1485.9 748.323,1482.23 748.5,1478.5C 746.62,1478.23 745.287,1478.9 744.5,1480.5C 743.5,1480.83 742.833,1481.5 742.5,1482.5C 739.111,1484.22 735.444,1484.89 731.5,1484.5C 729.574,1479.64 730.24,1475.31 733.5,1471.5C 733.5,1470.83 733.833,1470.5 734.5,1470.5C 738.833,1466.83 742.833,1462.83 746.5,1458.5C 747.473,1456.05 747.806,1453.39 747.5,1450.5C 747.822,1448.28 747.155,1446.44 745.5,1445C 740.845,1444.5 736.179,1444.33 731.5,1444.5C 730.833,1444.5 730.167,1444.5 729.5,1444.5C 729.5,1444.17 729.5,1443.83 729.5,1443.5C 735.206,1443.83 740.872,1443.5 746.5,1442.5C 746.977,1441.52 747.643,1440.69 748.5,1440C 753.707,1438.39 756.707,1440.22 757.5,1445.5 Z"/></g>
<g><path style="opacity:1" fill="#fcf199" d="M 894.5,1439.5 C 894.819,1444.36 894.486,1449.03 893.5,1453.5C 893.5,1449.5 893.5,1445.5 893.5,1441.5C 874.499,1442.77 855.499,1443.77 836.5,1444.5C 831.833,1444.5 827.167,1444.5 822.5,1444.5C 846.398,1443.33 870.398,1441.66 894.5,1439.5 Z"/></g>
<g><path style="opacity:1" fill="#fef8c2" d="M 710.5,1441.5 C 716.833,1442.17 723.167,1442.83 729.5,1443.5C 729.5,1443.83 729.5,1444.17 729.5,1444.5C 722.853,1444.67 716.52,1443.67 710.5,1441.5 Z"/></g>
<g><path style="opacity:1" fill="#faedc4" d="M 906.5,1438.5 C 906.5,1443.5 906.5,1448.5 906.5,1453.5C 911.179,1453.33 915.845,1453.5 920.5,1454C 922.119,1454.24 923.119,1455.07 923.5,1456.5C 917.684,1454.7 911.684,1454.03 905.5,1454.5C 905.179,1448.97 905.512,1443.64 906.5,1438.5 Z"/></g>
<g><path style="opacity:1" fill="#fbec60" d="M 191.5,1445.5 C 198.659,1443.82 200.993,1446.32 198.5,1453C 195.662,1455.76 192.329,1456.76 188.5,1456C 186.604,1454.19 186.104,1452.03 187,1449.5C 188.397,1447.93 189.897,1446.6 191.5,1445.5 Z"/></g>
<g><path style="opacity:1" fill="#fefad7" d="M 822.5,1444.5 C 827.167,1444.5 831.833,1444.5 836.5,1444.5C 815.449,1445.16 794.283,1446.49 773,1448.5C 768.853,1447.88 764.686,1447.54 760.5,1447.5C 760.5,1449.83 760.5,1452.17 760.5,1454.5C 759.833,1454.5 759.5,1454.17 759.5,1453.5C 759.326,1451.14 758.993,1448.81 758.5,1446.5C 765.354,1446.82 772.021,1446.49 778.5,1445.5C 793.154,1444.75 807.821,1444.42 822.5,1444.5 Z"/></g>
<g><path style="opacity:1" fill="#fffec8" d="M 142.5,1384.5 C 142.852,1410.22 143.852,1435.89 145.5,1461.5C 144.5,1461.5 143.5,1461.5 142.5,1461.5C 142.5,1435.83 142.5,1410.17 142.5,1384.5 Z"/></g>
<g><path style="opacity:1" fill="#fcf2c4" d="M 731.5,1444.5 C 736.179,1444.33 740.845,1444.5 745.5,1445C 747.155,1446.44 747.822,1448.28 747.5,1450.5C 745.896,1449.71 745.229,1448.38 745.5,1446.5C 740.662,1446.09 735.995,1445.42 731.5,1444.5 Z"/></g>
<g><path style="opacity:1" fill="#f9e689" d="M 757.5,1445.5 C 764.5,1445.5 771.5,1445.5 778.5,1445.5C 772.021,1446.49 765.354,1446.82 758.5,1446.5C 758.993,1448.81 759.326,1451.14 759.5,1453.5C 757.96,1451.16 757.294,1448.5 757.5,1445.5 Z"/></g>
<g><path style="opacity:0.985" fill="#fffe54" d="M 1544.5,1458.5 C 1546.62,1459.03 1548.12,1460.36 1549,1462.5C 1550.53,1466.09 1551.86,1469.76 1553,1473.5C 1556.26,1491.54 1560.93,1509.21 1567,1526.5C 1571.5,1524 1576.34,1522.5 1581.5,1522C 1606.77,1518.96 1631.77,1520.3 1656.5,1526C 1659.33,1526.17 1660.83,1527.67 1661,1530.5C 1661.78,1533.26 1661.28,1535.76 1659.5,1538C 1650.68,1541.91 1642.35,1546.57 1634.5,1552C 1622.41,1557.92 1610.08,1563.25 1597.5,1568C 1595.78,1568.52 1594.44,1569.52 1593.5,1571C 1597.3,1578.36 1599.8,1586.2 1601,1594.5C 1601.33,1603.5 1601.67,1612.5 1602,1621.5C 1602.31,1626.18 1603.14,1630.68 1604.5,1635C 1604.46,1636.76 1604.12,1638.43 1603.5,1640C 1600.18,1640.5 1596.85,1640.67 1593.5,1640.5C 1593.61,1638.1 1592.61,1636.26 1590.5,1635C 1588.05,1634.28 1585.72,1633.28 1583.5,1632C 1561.21,1626.57 1539.05,1620.74 1517,1614.5C 1509.98,1618.83 1503.48,1624 1497.5,1630C 1490.68,1635.49 1483.35,1640.15 1475.5,1644C 1465.18,1646.17 1460.85,1642 1462.5,1631.5C 1463.01,1622.65 1465.34,1614.32 1469.5,1606.5C 1474.68,1599.97 1477.01,1592.64 1476.5,1584.5C 1466.97,1586.6 1457.3,1587.6 1447.5,1587.5C 1433.14,1587.74 1419.8,1584.24 1407.5,1577C 1401.83,1572.47 1400,1566.64 1402,1559.5C 1406.54,1554.81 1411.71,1550.98 1417.5,1548C 1438.57,1539.63 1459.57,1530.97 1480.5,1522C 1498.87,1501.96 1516.87,1481.63 1534.5,1461C 1537.45,1458.84 1540.78,1458 1544.5,1458.5 Z"/></g>
<g><path style="opacity:1" fill="#fffea8" d="M 359.5,1457.5 C 361.196,1457.69 362.529,1458.52 363.5,1460C 369.491,1460.5 375.491,1460.67 381.5,1460.5C 375.347,1461.65 369.014,1461.82 362.5,1461C 361.29,1459.96 360.29,1458.79 359.5,1457.5 Z"/></g>
<g><path style="opacity:1" fill="#fbec59" d="M 170.5,1460.5 C 174.007,1459.99 177.174,1460.66 180,1462.5C 180.667,1463.83 180.667,1465.17 180,1466.5C 175.633,1470.77 170.466,1472.94 164.5,1473C 161.793,1471.14 160.959,1468.64 162,1465.5C 164.697,1463.42 167.53,1461.76 170.5,1460.5 Z"/></g>
<g><path style="opacity:1" fill="#fbeb56" d="M 187.5,1462.5 C 190.365,1462.05 192.865,1462.72 195,1464.5C 196.808,1468.1 198.308,1471.77 199.5,1475.5C 199.5,1478.83 197.833,1480.5 194.5,1480.5C 190.348,1478.58 187.848,1475.25 187,1470.5C 186.278,1467.74 186.445,1465.07 187.5,1462.5 Z"/></g>
<g><path style="opacity:1" fill="#f7df93" d="M 892.5,1457.5 C 889.564,1462.11 885.898,1466.11 881.5,1469.5C 884.436,1464.89 888.102,1460.89 892.5,1457.5 Z"/></g>
<g><path style="opacity:1" fill="#fffecd" d="M 1336.5,1456.5 C 1333.83,1462.5 1329.5,1466.83 1323.5,1469.5C 1328.17,1465.5 1332.5,1461.17 1336.5,1456.5 Z"/></g>
<g><path style="opacity:1" fill="#f6dc8b" d="M 746.5,1458.5 C 742.833,1462.83 738.833,1466.83 734.5,1470.5C 737.5,1465.5 741.5,1461.5 746.5,1458.5 Z"/></g>
<g><path style="opacity:1" fill="#f7de92" d="M 881.5,1470.5 C 880.49,1477.67 883.49,1480.17 890.5,1478C 892.48,1475.5 894.813,1473.66 897.5,1472.5C 898.342,1477.79 898.676,1483.12 898.5,1488.5C 897.676,1484.69 897.176,1480.69 897,1476.5C 896.586,1476.04 896.086,1475.71 895.5,1475.5C 892.961,1478.55 889.794,1480.55 886,1481.5C 881.018,1479.23 879.518,1475.56 881.5,1470.5 Z"/></g>
<g><path style="opacity:1" fill="#f6db88" d="M 920.5,1466.5 C 917.038,1467.48 913.371,1467.81 909.5,1467.5C 909.797,1475.69 909.797,1483.69 909.5,1491.5C 908.778,1483.17 908.112,1474.84 907.5,1466.5C 911.833,1466.5 916.167,1466.5 920.5,1466.5 Z"/></g>
<g><path style="opacity:0.986" fill="#fffe54" d="M 135.5,1493.5 C 136.03,1495.92 136.864,1498.26 138,1500.5C 147.056,1512.56 155.722,1524.89 164,1537.5C 169.605,1543.89 175.772,1549.73 182.5,1555C 184.833,1555.67 187.167,1555.67 189.5,1555C 217.947,1547.21 246.947,1544.21 276.5,1546C 279.207,1547.86 280.041,1550.36 279,1553.5C 262,1575.83 242.333,1595.5 220,1612.5C 219.333,1613.5 219.333,1614.5 220,1615.5C 223.926,1622.89 227.092,1630.56 229.5,1638.5C 233.506,1651.51 237.672,1664.51 242,1677.5C 244.892,1685.91 242.059,1689.41 233.5,1688C 229.5,1686 225.5,1684 221.5,1682C 198.146,1676.65 176.48,1667.49 156.5,1654.5C 155.522,1654.98 154.689,1655.64 154,1656.5C 146.333,1669.17 138.667,1681.83 131,1694.5C 127.749,1698.42 123.916,1701.59 119.5,1704C 112.07,1706.59 107.903,1704.09 107,1696.5C 105.576,1672.42 105.409,1647.42 106.5,1621.5C 85.8741,1622.73 65.8741,1619.9 46.5,1613C 33.3201,1607 30.8201,1597.83 39,1585.5C 43.5752,1580.25 48.7419,1575.75 54.5,1572C 67.2908,1565.68 80.2908,1559.85 93.5,1554.5C 95.4456,1547.61 96.9456,1540.61 98,1533.5C 99.6775,1519.1 101.678,1504.77 104,1490.5C 108.289,1481.62 115.123,1478.79 124.5,1482C 128.398,1485.73 132.065,1489.56 135.5,1493.5 Z"/></g>
<g><path style="opacity:1" fill="#f7e19b" d="M 749.5,1489.5 C 748.883,1489.39 748.383,1489.06 748,1488.5C 747.667,1485.5 747.333,1482.5 747,1479.5C 746.329,1480.25 745.496,1480.59 744.5,1480.5C 745.287,1478.9 746.62,1478.23 748.5,1478.5C 748.323,1482.23 748.656,1485.9 749.5,1489.5 Z"/></g>
<g><path style="opacity:1" fill="#fbeb56" d="M 527.5,1482.5 C 530.044,1482.1 532.211,1482.77 534,1484.5C 537.117,1490.41 539.617,1496.58 541.5,1503C 544.606,1501.93 547.273,1499.93 549.5,1497C 552.23,1496.27 554.897,1496.44 557.5,1497.5C 558.833,1499.5 558.833,1501.5 557.5,1503.5C 554.5,1506 551.5,1508.5 548.5,1511C 549.579,1511.96 550.745,1512.79 552,1513.5C 552.075,1519.06 553.742,1524.06 557,1528.5C 557.993,1534.5 555.493,1536.67 549.5,1535C 543.516,1528.3 541.349,1520.8 543,1512.5C 539.754,1511.06 536.421,1509.73 533,1508.5C 528.776,1500.21 526.943,1491.54 527.5,1482.5 Z"/></g>
<g><path style="opacity:1" fill="#f8e19a" d="M 733.5,1471.5 C 730.24,1475.31 729.574,1479.64 731.5,1484.5C 735.444,1484.89 739.111,1484.22 742.5,1482.5C 740.602,1485.15 737.935,1486.48 734.5,1486.5C 732.626,1486.61 731.126,1485.94 730,1484.5C 728,1480.83 728,1477.17 730,1473.5C 730.816,1472.18 731.983,1471.51 733.5,1471.5 Z"/></g>
<g><path style="opacity:1" fill="#f8e29e" d="M 769.5,1475.5 C 766.713,1476.48 763.713,1476.81 760.5,1476.5C 760.315,1480.07 760.981,1483.4 762.5,1486.5C 761.72,1492.4 758.387,1494.57 752.5,1493C 751.619,1492.29 750.953,1491.46 750.5,1490.5C 753.702,1491.7 756.869,1491.7 760,1490.5C 760.087,1485.51 759.92,1480.51 759.5,1475.5C 762.833,1475.5 766.167,1475.5 769.5,1475.5 Z"/></g>
<g><path style="opacity:1" fill="#fbec5a" d="M 531.5,1512.5 C 538.107,1510.75 540.607,1513.08 539,1519.5C 536.167,1521 534,1523.17 532.5,1526C 526.565,1526.97 524.065,1524.47 525,1518.5C 527.063,1516.27 529.229,1514.27 531.5,1512.5 Z"/></g>
<g><path style="opacity:0.986" fill="#fffe5a" d="M 1316.5,1598.5 C 1312.24,1600.98 1307.74,1601.65 1303,1600.5C 1301.97,1600.16 1301.47,1599.5 1301.5,1598.5C 1302.4,1597.79 1302.74,1596.79 1302.5,1595.5C 1293.32,1595.17 1284.32,1595.51 1275.5,1596.5C 1265.81,1596.24 1256.14,1596.58 1246.5,1597.5C 1241.58,1595.04 1241.25,1591.88 1245.5,1588C 1254.66,1587.97 1263.66,1587.31 1272.5,1586C 1286.83,1585.33 1301.17,1585.33 1315.5,1586C 1318.69,1586.57 1320.36,1588.4 1320.5,1591.5C 1320.03,1594.31 1318.69,1596.64 1316.5,1598.5 Z"/></g>
<g><path style="opacity:1" fill="#fffe5b" d="M 966.5,1588.5 C 979.894,1588.86 993.228,1589.69 1006.5,1591C 1009.46,1594.49 1008.79,1597.15 1004.5,1599C 994.5,1599.67 984.5,1599.67 974.5,1599C 971.097,1598.9 967.93,1598.07 965,1596.5C 964.109,1593.5 964.609,1590.84 966.5,1588.5 Z"/></g>
<g><path style="opacity:1" fill="#fffe5a" d="M 1374.5,1600.5 C 1372.3,1600.59 1370.14,1600.92 1368,1601.5C 1366.12,1601.48 1364.62,1600.81 1363.5,1599.5C 1363.71,1597.4 1363.87,1595.06 1364,1592.5C 1364.83,1591.67 1365.67,1590.83 1366.5,1590C 1379.17,1589.23 1391.83,1588.9 1404.5,1589C 1405.42,1589.37 1406.25,1589.87 1407,1590.5C 1407.67,1592.83 1407.67,1595.17 1407,1597.5C 1402.94,1602.32 1398.6,1602.65 1394,1598.5C 1387.36,1599.11 1380.86,1599.78 1374.5,1600.5 Z"/></g>
<g><path style="opacity:1" fill="#fffe5a" d="M 730.5,1589.5 C 736.262,1589.15 741.928,1589.65 747.5,1591C 749.524,1594.98 748.524,1597.65 744.5,1599C 726.914,1600.37 709.414,1602.54 692,1605.5C 687.251,1605.41 685.585,1603.08 687,1598.5C 687.903,1597.3 689.069,1596.47 690.5,1596C 703.985,1593.77 717.318,1591.6 730.5,1589.5 Z"/></g>
<g><path style="opacity:1" fill="#fffe5a" d="M 603.5,1592.5 C 610.819,1590.68 614.319,1593.35 614,1600.5C 611.98,1603.57 609.313,1604.24 606,1602.5C 591.59,1604.58 577.257,1606.58 563,1608.5C 555.441,1608.64 553.607,1605.47 557.5,1599C 573.127,1597.88 588.46,1595.71 603.5,1592.5 Z"/></g>
<g><path style="opacity:0.935" fill="#fffe54" d="M 1178.5,1600.5 C 1178.5,1602.17 1178.5,1603.83 1178.5,1605.5C 1173.96,1607.2 1169.96,1606.36 1166.5,1603C 1151.5,1602.67 1136.5,1602.33 1121.5,1602C 1120.58,1601.72 1119.92,1601.22 1119.5,1600.5C 1120.16,1598.2 1120.83,1595.86 1121.5,1593.5C 1137.82,1592.33 1154.16,1592.17 1170.5,1593C 1174.32,1594.32 1176.99,1596.82 1178.5,1600.5 Z"/></g>
<g><path style="opacity:1" fill="#fffe5a" d="M 890.5,1606.5 C 888.716,1607.72 887.05,1607.72 885.5,1606.5C 883.944,1604.01 881.611,1603.01 878.5,1603.5C 872.653,1603.9 866.986,1604.57 861.5,1605.5C 852.842,1606.01 844.175,1606.34 835.5,1606.5C 833.983,1606.49 832.816,1605.82 832,1604.5C 831.104,1601.97 831.604,1599.81 833.5,1598C 848.774,1597.1 863.941,1595.6 879,1593.5C 889.193,1592.52 893.026,1596.85 890.5,1606.5 Z"/></g>
<g><path style="opacity:1" fill="#fffec3" d="M 1275.5,1596.5 C 1284.32,1595.51 1293.32,1595.17 1302.5,1595.5C 1302.74,1596.79 1302.4,1597.79 1301.5,1598.5C 1293.23,1596.53 1284.56,1595.86 1275.5,1596.5 Z"/></g>
<g><path style="opacity:1" fill="#fffe5b" d="M 440.5,1596.5 C 444.131,1596.03 447.465,1596.7 450.5,1598.5C 451.952,1601.28 451.619,1603.78 449.5,1606C 439.43,1608.01 429.263,1609.51 419,1610.5C 415.833,1610.33 412.667,1610.17 409.5,1610C 406.022,1607.29 405.689,1604.29 408.5,1601C 413.807,1601.36 419.141,1601.36 424.5,1601C 429.874,1599.16 435.207,1597.66 440.5,1596.5 Z"/></g>
<g><path style="opacity:1" fill="#fffe5c" d="M 310.5,1598.5 C 315.959,1598.1 321.292,1598.6 326.5,1600C 329.932,1602.37 330.265,1605.03 327.5,1608C 319.805,1608.36 312.138,1609.02 304.5,1610C 296.04,1612.95 287.374,1614.29 278.5,1614C 274.973,1611.7 274.64,1609.03 277.5,1606C 288.798,1604.16 299.798,1601.66 310.5,1598.5 Z"/></g>
<g><path style="opacity:0.545" fill="#fffef3" d="M 885.5,1606.5 C 877.5,1606.5 869.5,1606.5 861.5,1606.5C 861.5,1606.17 861.5,1605.83 861.5,1605.5C 866.986,1604.57 872.653,1603.9 878.5,1603.5C 881.611,1603.01 883.944,1604.01 885.5,1606.5 Z"/></g>
<g><path style="opacity:0.297" fill="#fffe86" d="M 861.5,1605.5 C 861.5,1605.83 861.5,1606.17 861.5,1606.5C 855.178,1607.01 848.845,1607.35 842.5,1607.5C 839.941,1607.8 837.607,1607.47 835.5,1606.5C 844.175,1606.34 852.842,1606.01 861.5,1605.5 Z"/></g>
</svg>
