<?xml version="1.0" encoding="UTF-8"?>
<svg version="1.1" xmlns="http://www.w3.org/2000/svg" width="2048" height="2732">
<path d="M0 0 C675.84 0 1351.68 0 2048 0 C2048 901.56 2048 1803.12 2048 2732 C1372.16 2732 696.32 2732 0 2732 C0 1830.44 0 928.88 0 0 Z " fill="#FEFEFE" transform="translate(0,0)"/>
<path d="M0 0 C0.74121094 -0.03996094 1.48242188 -0.07992188 2.24609375 -0.12109375 C5.96996654 0.77690593 7.31997995 2.36427252 9.5625 5.4375 C10.24027723 8.68746982 10.17854841 11.81762018 10.0625 15.125 C10.04477539 16.02331543 10.02705078 16.92163086 10.00878906 17.84716797 C9.80591091 24.12157374 9.0444445 29.63227388 6.5625 35.4375 C6.07523438 36.69046875 6.07523438 36.69046875 5.578125 37.96875 C4.91110957 39.67220479 4.23049918 41.37041075 3.53515625 43.0625 C2.65265603 45.21735997 1.81381937 47.3809528 1 49.5625 C0.64228516 50.51962891 0.64228516 50.51962891 0.27734375 51.49609375 C-0.2173585 52.83962936 -0.7038055 54.18622279 -1.18359375 55.53515625 C-1.43238281 56.22480469 -1.68117188 56.91445313 -1.9375 57.625 C-2.26234375 58.54345703 -2.26234375 58.54345703 -2.59375 59.48046875 C-3.65641294 61.9452564 -5.02190035 64.1607439 -6.4375 66.4375 C-5.17421875 66.42589844 -3.9109375 66.41429687 -2.609375 66.40234375 C8.54035743 66.33363569 19.66863228 66.49630395 30.8125 66.875 C32.04387695 66.91423584 33.27525391 66.95347168 34.54394531 66.99389648 C35.68959961 67.03587158 36.83525391 67.07784668 38.015625 67.12109375 C39.03817383 67.15775146 40.06072266 67.19440918 41.11425781 67.23217773 C43.5625 67.4375 43.5625 67.4375 45.5625 68.4375 C47.82692664 68.79346667 50.09979871 69.09607461 52.375 69.375 C53.07423584 69.46144775 53.77347168 69.54789551 54.49389648 69.63696289 C59.46793883 70.23480191 64.44693684 70.70391564 69.4375 71.1394043 C78.99457142 71.97721079 88.20816626 73.28212356 97.5625 75.4375 C97.5625 76.0975 97.5625 76.7575 97.5625 77.4375 C98.63628906 77.55867187 99.71007813 77.67984375 100.81640625 77.8046875 C102.25263975 77.97365615 103.68883572 78.14294404 105.125 78.3125 C105.82947266 78.39113281 106.53394531 78.46976563 107.25976562 78.55078125 C111.86435333 79.102483 116.10779711 80.10002341 120.5625 81.4375 C122.12138999 81.72839335 123.6838292 82.0012713 125.25 82.25 C130.34804024 83.22178982 134.77246366 85.14416344 139.5078125 87.22265625 C142.44537861 88.39092103 145.22878287 89.13976496 148.3125 89.8125 C154.27288213 91.16856578 159.60054351 93.47202589 165.13183594 96.01318359 C169.71373344 98.12016623 169.71373344 98.12016623 174.5625 99.4375 C174.5625 100.0975 174.5625 100.7575 174.5625 101.4375 C175.201875 101.52 175.84125 101.6025 176.5 101.6875 C180.73762044 102.7252846 184.73241683 104.34045033 188.5625 106.4375 C188.8925 107.0975 189.2225 107.7575 189.5625 108.4375 C191.36485962 109.50875425 191.36485962 109.50875425 193.5703125 110.49609375 C194.39273438 110.88216797 195.21515625 111.26824219 196.0625 111.66601562 C196.92875 112.06498047 197.795 112.46394531 198.6875 112.875 C199.53054688 113.27009766 200.37359375 113.66519531 201.2421875 114.07226562 C205.98062624 116.28329177 210.75191445 118.38931204 215.5625 120.4375 C221.872134 123.29395446 227.51890782 126.6265963 233.12890625 130.6875 C235.40124644 132.32154238 237.71278488 133.85532484 240.0625 135.375 C245.15472601 138.74273103 249.84086276 142.57576358 254.5625 146.4375 C257.02315341 148.44315093 259.31029312 150.29248105 262.0625 151.875 C265.02811209 153.72850756 267.09766562 155.9484327 269.5625 158.4375 C271.87840065 160.62297218 274.2230141 162.77732219 276.5625 164.9375 C282.32483906 170.27743877 287.94532731 175.73201447 293.4375 181.34960938 C295.7238413 183.67425278 297.83717288 185.62061525 300.5625 187.4375 C300.5625 188.0975 300.5625 188.7575 300.5625 189.4375 C301.13484375 189.6953125 301.7071875 189.953125 302.296875 190.21875 C304.77378995 191.55115942 306.6966166 193.08806118 308.8125 194.9375 C309.51890625 195.5459375 310.2253125 196.154375 310.953125 196.78125 C312.5625 198.4375 312.5625 198.4375 312.5625 200.4375 C313.13355469 200.69402344 313.70460938 200.95054687 314.29296875 201.21484375 C321.99877033 205.36616199 327.49111887 212.50405668 332.5625 219.4375 C333.27277344 220.36691406 333.98304688 221.29632812 334.71484375 222.25390625 C339.25782033 228.21025332 343.48827096 234.29355996 347.5859375 240.5625 C349.51248594 243.36475228 351.57235767 245.9525916 353.75 248.5625 C357.88866257 253.61362361 361.5386021 259.2223291 363.09765625 265.640625 C363.41940865 267.55680611 363.41940865 267.55680611 365.0625 268.8125 C367.20177399 271.13004683 367.222011 273.37309899 367.5625 276.4375 C368.5525 276.7675 369.5425 277.0975 370.5625 277.4375 C371.25 279.5 371.25 279.5 371.5625 281.4375 C372.2225 281.4375 372.8825 281.4375 373.5625 281.4375 C381.93676078 297.59597709 388.0374232 314.32026245 391.99951172 332.06958008 C392.61812147 334.67144303 393.33481972 337.23518513 394.0625 339.80859375 C395.60665357 345.40871101 396.72983138 351.02261624 397.6875 356.75 C397.85999268 357.77601318 398.03248535 358.80202637 398.21020508 359.85913086 C399.7448841 369.55352077 400.27071051 379.19955281 400.4206543 389.00415039 C400.52299877 391.52888424 400.52299877 391.52888424 401.05859375 394.35180664 C401.94949156 400.33880591 401.76665815 406.42228809 401.80078125 412.4609375 C401.80485678 413.14043079 401.8089323 413.81992409 401.81313133 414.52000809 C401.83394245 418.13442926 401.84825131 421.74881331 401.85766602 425.36328125 C401.86642272 428.29741856 401.8870533 431.23106619 401.91918945 434.16503906 C402.18158627 458.66934212 399.87443076 481.61784996 393.15625 505.28369141 C392.38859392 508.06833857 391.71399145 510.87108877 391.04345703 513.68041992 C388.20918016 525.50813066 384.70824138 536.69083916 379.01953125 547.4921875 C377.52839393 550.50644364 376.38156215 553.5222368 375.25 556.6875 C369.36973809 572.25725009 359.65547996 585.34995428 349.5625 598.4375 C348.82515625 599.3965625 348.0878125 600.355625 347.328125 601.34375 C345.5625 603.4375 345.5625 603.4375 342.625 605.75 C340.13450442 607.72866441 338.66393418 609.69291988 337.0625 612.4375 C335.15243646 615.69799063 333.16279757 617.80976627 330.12890625 620.12890625 C328.39605592 621.57654929 327.06356395 623.13474233 325.625 624.875 C322.11427471 629.01906326 318.19310044 632.59838515 314.1875 636.25 C308.78172287 641.19670882 304.05960362 646.20313733 299.5390625 651.9765625 C295.33454823 657.21143205 290.46070159 661.70060612 285.375 666.0625 C282.0219948 668.93933878 279.27867412 671.95740191 276.5625 675.4375 C279.56989597 678.64538903 282.72715568 681.40851951 286.1875 684.125 C292.82845844 689.36629455 299.1318945 694.996355 305.10546875 700.98828125 C307.3576807 703.23333195 309.66797283 705.34650444 312.0625 707.4375 C321.28235816 715.59707447 321.28235816 715.59707447 322.5625 719.4375 C323.2225 719.7675 323.8825 720.0975 324.5625 720.4375 C324.93375 721.118125 325.305 721.79875 325.6875 722.5 C327.44620396 725.25530288 329.16740394 727.11597376 331.5 729.375 C338.18357321 735.97272915 340.31564978 741.21737074 341.5625 750.4375 C342.2225 750.4375 342.8825 750.4375 343.5625 750.4375 C344.23510351 752.20608691 344.90038395 753.97746016 345.5625 755.75 C345.93375 756.73613281 346.305 757.72226563 346.6875 758.73828125 C347.5625 761.4375 347.5625 761.4375 347.5625 764.4375 C348.2225 764.4375 348.8825 764.4375 349.5625 764.4375 C354.6789907 775.80313965 356.91636173 786.0287083 357.5625 798.4375 C357.63984375 799.61957031 357.7171875 800.80164062 357.796875 802.01953125 C358.41928603 819.08396689 352.89280652 835.40121612 347.5625 851.4375 C346.9025 851.4375 346.2425 851.4375 345.5625 851.4375 C345.418125 852.654375 345.27375 853.87125 345.125 855.125 C345.02960937 855.85589844 344.93421875 856.58679687 344.8359375 857.33984375 C344.62554754 858.9538353 344.43377704 860.57026203 344.25 862.1875 C343.5625 864.4375 343.5625 864.4375 341.67578125 866.265625 C335.95515087 872.14486806 333.82817314 881.29324819 331.65234375 889.00390625 C330.34990698 891.91221489 329.3790983 892.18631333 326.5625 893.4375 C325.74665432 896.49658413 325.74665432 896.49658413 325.5625 899.4375 C324.9025 899.4375 324.2425 899.4375 323.5625 899.4375 C323.5625 900.0975 323.5625 900.7575 323.5625 901.4375 C322.9025 901.4375 322.2425 901.4375 321.5625 901.4375 C321.48 902.489375 321.3975 903.54125 321.3125 904.625 C320.50597778 908.72482127 319.48528322 910.51471678 316.5625 913.4375 C315.9025 913.4375 315.2425 913.4375 314.5625 913.4375 C314.500625 914.489375 314.43875 915.54125 314.375 916.625 C313.413783 921.13532593 311.92038508 922.40721347 308.5625 925.4375 C307.85319153 926.74864596 307.17720612 928.07942835 306.5625 929.4375 C308.81365271 928.64899464 311.06340104 927.85682463 313.3125 927.0625 C313.94671875 926.84078125 314.5809375 926.6190625 315.234375 926.390625 C317.79971922 925.48206559 320.27613531 924.59287936 322.671875 923.29296875 C325.19832088 922.14980419 327.2996957 922.13638518 330.0625 922.125 C331.0009375 922.10824219 331.939375 922.09148438 332.90625 922.07421875 C336.03049422 922.50150509 337.38628077 923.16512225 339.5625 925.4375 C340.60671401 930.16301087 339.89190965 935.22237778 337.5625 939.4375 C336.71691821 940.61040377 335.86196717 941.77658467 335 942.9375 C332.9512851 945.75448299 331.46755792 947.82970111 331.5625 951.4375 C332.201875 952.159375 332.84125 952.88125 333.5 953.625 C336.16652289 957.26116758 336.12804865 959.72756442 335.96484375 964.140625 C335.41609199 967.27330497 333.97827925 968.46095334 331.5625 970.4375 C330.76568682 973.07934541 330.76568682 973.07934541 330.5625 975.4375 C331.5525 975.4375 332.5425 975.4375 333.5625 975.4375 C334.3465697 986.36220442 334.3465697 986.36220442 331.375 990.4375 C330.446875 991.0975 329.51875 991.7575 328.5625 992.4375 C327.5415625 993.489375 327.5415625 993.489375 326.5 994.5625 C321.92389059 997.4834209 316.83108136 998.32832498 311.5625 999.4375 C311.5625 1000.0975 311.5625 1000.7575 311.5625 1001.4375 C293.7425 1001.7675 275.9225 1002.0975 257.5625 1002.4375 C256.9025 1006.0675 256.2425 1009.6975 255.5625 1013.4375 C253.4375 1018.125 253.4375 1018.125 251.5625 1021.4375 C250.9025 1021.4375 250.2425 1021.4375 249.5625 1021.4375 C249.541875 1022.38625 249.52125 1023.335 249.5 1024.3125 C248.85585629 1029.04262995 246.15756728 1032.27045294 243.3515625 1036.0078125 C241.58591835 1038.40569604 240.08686262 1040.88233629 238.5625 1043.4375 C237.5625 1044.4375 236.5625 1045.4375 235.5625 1046.4375 C234.9025 1047.46875 234.2425 1048.5 233.5625 1049.5625 C231.5625 1052.4375 231.5625 1052.4375 228.5625 1053.4375 C227.22317133 1054.89483333 227.22317133 1054.89483333 226.0625 1056.6875 C225.41087891 1057.63882812 225.41087891 1057.63882812 224.74609375 1058.609375 C223.82944799 1060.02518429 222.96574147 1061.47534092 222.125 1062.9375 C218.7127764 1068.39705776 214.15297063 1072.95899207 209.5625 1077.4375 C209.06234375 1077.95957031 208.5621875 1078.48164062 208.046875 1079.01953125 C203.92480514 1083.28606617 199.51408825 1086.94645989 194.796875 1090.54296875 C192.51752345 1092.32955383 192.51752345 1092.32955383 190.9921875 1094.55859375 C189.41274388 1096.63431064 188.30493079 1097.28953608 185.9375 1098.3125 C181.20240484 1100.53509569 176.61641659 1103.11098201 172.5625 1106.4375 C172.2325 1107.4275 171.9025 1108.4175 171.5625 1109.4375 C168.578125 1110.5 168.578125 1110.5 164.8125 1111.4375 C160.16166077 1112.6050747 156.61723842 1113.91410778 152.5625 1116.4375 C150.81139371 1117.05869537 149.03921123 1117.62402085 147.25 1118.125 C146.36699219 1118.37636719 145.48398438 1118.62773438 144.57421875 1118.88671875 C143.91035156 1119.06847656 143.24648437 1119.25023437 142.5625 1119.4375 C142.5625 1120.0975 142.5625 1120.7575 142.5625 1121.4375 C141.2425 1121.4375 139.9225 1121.4375 138.5625 1121.4375 C138.2325 1122.4275 137.9025 1123.4175 137.5625 1124.4375 C135.7421875 1125.28125 135.7421875 1125.28125 133.4375 1125.9375 C130.53139737 1126.81758155 127.86549813 1127.73621509 125.0625 1128.9375 C114.5625 1133.4375 114.5625 1133.4375 109.5625 1133.4375 C109.5625 1134.0975 109.5625 1134.7575 109.5625 1135.4375 C101.21319815 1138.41035748 92.85074589 1140.98453188 84.25 1143.125 C83.43950195 1143.32697998 82.62900391 1143.52895996 81.79394531 1143.73706055 C66.62291288 1147.4375 66.62291288 1147.4375 60.5625 1147.4375 C60.5625 1148.0975 60.5625 1148.7575 60.5625 1149.4375 C56.9325 1150.4275 53.3025 1151.4175 49.5625 1152.4375 C49.2325 1158.0475 48.9025 1163.6575 48.5625 1169.4375 C52.04557292 1169.33984375 55.52864583 1169.2421875 59.01171875 1169.14453125 C62.79124952 1169.45637372 64.66123361 1170.01977801 67.5625 1172.4375 C67.875 1176.125 67.875 1176.125 67.5625 1179.4375 C63.79027911 1181.18913456 60.895861 1181.66240027 56.75 1181.5625 C55.77417969 1181.54445313 54.79835938 1181.52640625 53.79296875 1181.5078125 C52.68888672 1181.47300781 52.68888672 1181.47300781 51.5625 1181.4375 C51.72492188 1182.56285156 51.88734375 1183.68820312 52.0546875 1184.84765625 C52.63932023 1189.5340144 52.71068171 1194.15752158 52.6875 1198.875 C52.69136719 1199.68904297 52.69523437 1200.50308594 52.69921875 1201.34179688 C52.68926222 1207.31073778 52.68926222 1207.31073778 51.5625 1208.4375 C45.72823034 1209.00210674 45.72823034 1209.00210674 43.5625 1208.4375 C40.36283528 1204.58186757 40.10377286 1201.02073913 39.875 1196.125 C39.77638672 1194.24361328 39.77638672 1194.24361328 39.67578125 1192.32421875 C39.63839844 1191.37160156 39.60101562 1190.41898438 39.5625 1189.4375 C38.77875 1190.0975 37.995 1190.7575 37.1875 1191.4375 C34.5625 1193.4375 34.5625 1193.4375 32.5625 1193.4375 C32.5625 1194.0975 32.5625 1194.7575 32.5625 1195.4375 C26.9375 1195.6875 26.9375 1195.6875 23.5625 1193.4375 C23.03400694 1188.06448724 23.11409698 1184.77581347 26.5625 1180.4375 C32.58640438 1173.92554781 32.58640438 1173.92554781 35.5625 1172.4375 C35.87580467 1169.71529617 36.07514983 1167.1052157 36.1875 1164.375 C36.25373733 1162.95903486 36.32067622 1161.54310242 36.38818359 1160.12719727 C36.44570801 1158.90959717 36.50323242 1157.69199707 36.5625 1156.4375 C35.34780029 1156.56954834 34.13310059 1156.70159668 32.8815918 1156.83764648 C16.7749088 1158.49238147 0.66585442 1159.01677812 -15.50860596 1159.44366455 C-21.11078641 1159.59278676 -26.71266184 1159.75319649 -32.31451225 1159.91417885 C-33.67145162 1159.95305782 -35.02840179 1159.99156162 -36.38536263 1160.02968407 C-44.99550416 1160.27255524 -53.5882016 1160.62139642 -62.18676758 1161.1229248 C-69.50378292 1161.53316646 -76.79726936 1161.55016351 -84.125 1161.5 C-85.42244141 1161.49548828 -86.71988281 1161.49097656 -88.05664062 1161.48632812 C-91.18361482 1161.47478947 -94.3105645 1161.45686849 -97.4375 1161.4375 C-97.1075 1166.7175 -96.7775 1171.9975 -96.4375 1177.4375 C-94.1275 1177.4375 -91.8175 1177.4375 -89.4375 1177.4375 C-86.5 1178.9375 -86.5 1178.9375 -84.4375 1181.4375 C-83.82411209 1184.39344555 -84.03956058 1186.35346952 -84.4375 1189.4375 C-87.64130017 1191.57336678 -88.45689967 1191.66882175 -92.125 1191.5625 C-92.93324219 1191.54445313 -93.74148438 1191.52640625 -94.57421875 1191.5078125 C-95.49654297 1191.47300781 -95.49654297 1191.47300781 -96.4375 1191.4375 C-96.1075 1192.46875 -95.7775 1193.5 -95.4375 1194.5625 C-94.48699219 1197.9719302 -93.96326903 1200.8807677 -94.4375 1204.4375 C-96.0625 1206.8125 -96.0625 1206.8125 -98.4375 1208.4375 C-101.95878126 1209.02438021 -103.66672867 1208.92993724 -106.6875 1207 C-109.15126505 1203.39234403 -109.74491499 1199.70236556 -110.4375 1195.4375 C-110.87320312 1195.870625 -111.30890625 1196.30375 -111.7578125 1196.75 C-114.66461192 1199.46804621 -116.61580537 1201.25672718 -120.5625 1202.125 C-124.48515452 1201.18697392 -126.02580109 1199.62945444 -128.4375 1196.4375 C-129.06965836 1193.2767082 -128.62825069 1191.83908039 -127.25 1188.9375 C-125.19746769 1186.10642096 -122.9683816 1183.85589797 -120.4375 1181.4375 C-119.77878906 1180.7465625 -119.12007812 1180.055625 -118.44140625 1179.34375 C-117.73886719 1178.6115625 -117.03632812 1177.879375 -116.3125 1177.125 C-115.64992188 1176.42761719 -114.98734375 1175.73023438 -114.3046875 1175.01171875 C-112.4375 1173.4375 -112.4375 1173.4375 -109.4375 1173.4375 C-110.0975 1169.1475 -110.7575 1164.8575 -111.4375 1160.4375 C-112.93539063 1160.32792969 -114.43328125 1160.21835938 -115.9765625 1160.10546875 C-125.83049663 1159.34361746 -135.42717722 1158.53278557 -145.05078125 1156.22265625 C-149.01315114 1155.30404455 -152.99060532 1154.61408813 -157 1153.9375 C-163.27659161 1152.86777868 -169.44900595 1151.54868513 -175.640625 1150.0546875 C-178.03007009 1149.52740772 -180.31896634 1149.17306528 -182.75 1148.9375 C-186.93644124 1148.36984695 -190.52895411 1146.95031488 -194.4375 1145.4375 C-195.8048729 1144.93445419 -197.17335393 1144.43440943 -198.54296875 1143.9375 C-199.90364583 1143.4375 -201.26432292 1142.9375 -202.625 1142.4375 C-203.65270508 1142.06625 -203.65270508 1142.06625 -204.70117188 1141.6875 C-208.56363525 1140.25998707 -211.92364909 1138.5561454 -215.4375 1136.4375 C-217.44863614 1135.72212943 -219.47048015 1135.03641725 -221.5 1134.375 C-229.21202965 1131.48735089 -234.4498878 1126.91899599 -240.4375 1121.4375 C-241.91449525 1120.16414363 -243.39338293 1118.89297565 -244.875 1117.625 C-247.09262154 1115.67883006 -249.2037873 1113.68741319 -251.25 1111.5625 C-253.33333664 1109.23099596 -253.33333664 1109.23099596 -256.4375 1108.4375 C-256.4375 1107.7775 -256.4375 1107.1175 -256.4375 1106.4375 C-257.0975 1106.4375 -257.7575 1106.4375 -258.4375 1106.4375 C-258.4375 1105.7775 -258.4375 1105.1175 -258.4375 1104.4375 C-259.0975 1104.4375 -259.7575 1104.4375 -260.4375 1104.4375 C-264.92906515 1099.51816674 -268.86483673 1094.05168514 -272.4375 1088.4375 C-273.18 1087.365 -273.9225 1086.2925 -274.6875 1085.1875 C-276.4375 1082.4375 -276.4375 1082.4375 -276.4375 1080.4375 C-277.035625 1080.210625 -277.63375 1079.98375 -278.25 1079.75 C-280.99835774 1078.10098536 -281.82961876 1076.16390732 -283.4375 1073.4375 C-284.4275 1073.1075 -285.4175 1072.7775 -286.4375 1072.4375 C-287.53515625 1070.4765625 -287.53515625 1070.4765625 -288.5 1068.0625 C-289.65273735 1065.22000709 -290.71793703 1063.01684445 -292.4375 1060.4375 C-292.4375 1059.4475 -292.4375 1058.4575 -292.4375 1057.4375 C-293.0975 1057.4375 -293.7575 1057.4375 -294.4375 1057.4375 C-295.67573415 1053.7282335 -296.90176948 1050.01515108 -298.11791992 1046.29858398 C-298.73081013 1044.43339976 -299.35256904 1042.57113701 -299.97460938 1040.70898438 C-304.38517569 1027.19041933 -306.93815149 1014.40832348 -306.71875 1000.22607422 C-306.68687352 998.14663169 -306.67768818 996.06794685 -306.671875 993.98828125 C-306.60297029 983.93391088 -306.60297029 983.93391088 -305.4375 980.4375 C-310.50730932 981.8346082 -315.33188915 983.30510184 -320.0625 985.625 C-324.59806031 987.67357469 -327.46507025 988.22677456 -332.4375 987.4375 C-335.37485073 985.73722582 -337.85455231 983.62626291 -340.4375 981.4375 C-341.65823942 980.5713322 -342.88704573 979.71638018 -344.125 978.875 C-347.22634401 976.69204943 -349.75647067 974.11852933 -352.4375 971.4375 C-353.4275 971.1075 -354.4175 970.7775 -355.4375 970.4375 C-357.14743434 968.8152546 -358.81097684 967.14336575 -360.4375 965.4375 C-361.200625 964.715625 -361.96375 963.99375 -362.75 963.25 C-364.4375 961.4375 -364.4375 961.4375 -364.4375 959.4375 C-364.994375 959.210625 -365.55125 958.98375 -366.125 958.75 C-369.11711603 957.05177198 -371.05350535 954.92985804 -373.4375 952.4375 C-374.76812607 951.10146489 -376.10165805 949.76831999 -377.4375 948.4375 C-379.63814397 946.24096939 -381.82799309 944.03748269 -384 941.8125 C-386.21167928 939.56026359 -386.21167928 939.56026359 -387.9453125 938.29296875 C-397.78112675 930.72167917 -404.58219499 918.6482541 -409.4375 907.4375 C-409.91123047 906.35662109 -409.91123047 906.35662109 -410.39453125 905.25390625 C-418.77327438 883.41964461 -413.69122509 858.61626121 -409.57055664 836.52758789 C-409.27465936 834.93201249 -408.98295791 833.33565299 -408.69555664 831.73852539 C-406.14449238 817.56869498 -402.7926263 803.72915552 -396.8125 790.5625 C-396.3165332 789.46131836 -396.3165332 789.46131836 -395.81054688 788.33789062 C-389.94330986 775.71314114 -382.45818919 764.0256684 -373.4375 753.4375 C-372.32659687 752.07391546 -371.21881201 750.70778757 -370.11328125 749.33984375 C-358.05303908 734.45295699 -358.05303908 734.45295699 -351.4375 728.4375 C-350.85484375 727.89738281 -350.2721875 727.35726562 -349.671875 726.80078125 C-345.28844611 722.85016992 -340.67797927 719.17372434 -336.0625 715.5 C-335.44294434 715.00266357 -334.82338867 714.50532715 -334.18505859 713.99291992 C-329.67219488 710.4375 -329.67219488 710.4375 -327.4375 710.4375 C-327.4375 709.7775 -327.4375 709.1175 -327.4375 708.4375 C-325.36586197 706.71458278 -323.29132922 705.09539442 -321.125 703.5 C-316.01826138 699.77379637 -316.01826138 699.77379637 -311.4375 695.4375 C-312.31019531 695.16035156 -313.18289063 694.88320312 -314.08203125 694.59765625 C-324.32263501 691.05695856 -332.38470466 685.59159865 -340.4375 678.4375 C-341.30503906 677.66792969 -342.17257812 676.89835937 -343.06640625 676.10546875 C-344.75181184 674.59503656 -346.43040587 673.07696372 -348.1015625 671.55078125 C-350.1992099 669.65307683 -352.33853782 667.8240007 -354.5 666 C-359.24100783 661.85635915 -363.31689895 657.18689407 -367.4375 652.4375 C-368.2934375 651.48101563 -369.149375 650.52453125 -370.03125 649.5390625 C-381.53247767 636.51711463 -392.22382689 621.13500592 -399.875 605.5 C-401.3586678 602.4073608 -401.3586678 602.4073608 -403.37890625 599.7109375 C-405.59417801 596.18836116 -406.73328436 592.97472529 -407.9375 589 C-409.70241841 583.21153306 -409.70241841 583.21153306 -412.5 577.875 C-415.01068303 573.42056236 -416.11412505 568.87861853 -417.44921875 563.9609375 C-418.52567026 560.12315386 -419.82585665 556.43791623 -421.23046875 552.7109375 C-422.24673857 549.95484006 -423.22011603 547.19148054 -424.17578125 544.4140625 C-424.48604248 543.51445801 -424.79630371 542.61485352 -425.1159668 541.68798828 C-425.73900698 539.87752382 -426.35904336 538.06602239 -426.97583008 536.25341797 C-427.40931763 534.99875732 -427.40931763 534.99875732 -427.8515625 533.71875 C-428.23755615 532.59049805 -428.23755615 532.59049805 -428.63134766 531.43945312 C-429.46244379 529.17935648 -429.46244379 529.17935648 -431.4375 526.4375 C-432.0703125 524.31640625 -432.0703125 524.31640625 -432.5625 522 C-432.73007812 521.23816406 -432.89765625 520.47632813 -433.0703125 519.69140625 C-433.4375 517.4375 -433.4375 517.4375 -433.4375 513.4375 C-434.0975 513.4375 -434.7575 513.4375 -435.4375 513.4375 C-437.71878822 501.99870021 -439.54545157 490.53501309 -441.09667969 478.97558594 C-441.31487058 477.35072022 -441.53654814 475.72631654 -441.76269531 474.10253906 C-442.0617327 471.94472326 -442.34574706 469.78545551 -442.625 467.625 C-442.78355469 466.42230469 -442.94210937 465.21960938 -443.10546875 463.98046875 C-444.38425509 449.90883026 -443.15597047 435.58962564 -442.32055664 421.52734375 C-442.12457455 418.18023381 -441.9458919 414.83246689 -441.76757812 411.484375 C-441.64168305 409.3176466 -441.51476518 407.15097733 -441.38671875 404.984375 C-441.33658127 404.00281433 -441.28644379 403.02125366 -441.23478699 402.00994873 C-440.84329137 395.80413539 -439.76297783 390.07969563 -438.11798096 384.08189392 C-437.18673259 380.46300131 -436.83760246 376.97121368 -436.5 373.25 C-435.93512636 367.85825567 -434.89312242 363.47520492 -432.37890625 358.66015625 C-430.81623571 354.97069759 -430.48768182 351.09355724 -430.02734375 347.13671875 C-429.37131958 344.13464787 -428.32363213 342.81627858 -426.4375 340.4375 C-425.68767546 338.67100945 -425.00239024 336.87608959 -424.375 335.0625 C-424.05402344 334.14726563 -423.73304688 333.23203125 -423.40234375 332.2890625 C-422.74856347 330.35683738 -422.1029723 328.42182553 -421.46484375 326.484375 C-418.67467055 318.20933661 -415.5250382 310.1584055 -411.4375 302.4375 C-410.7775 302.4375 -410.1175 302.4375 -409.4375 302.4375 C-409.18226563 301.6021875 -409.18226563 301.6021875 -408.921875 300.75 C-407.44268525 296.09212588 -405.73472184 291.79046048 -403.46484375 287.46484375 C-402.39078773 285.34531875 -401.47812109 283.19217167 -400.5625 281 C-395.23065145 268.83407572 -395.23065145 268.83407572 -390.4375 266.4375 C-390.17582031 265.75300781 -389.91414062 265.06851562 -389.64453125 264.36328125 C-388.00345517 260.3853978 -385.60414419 257.1247746 -383.125 253.625 C-382.16882986 252.26554722 -381.21439807 250.9048701 -380.26171875 249.54296875 C-379.7929834 248.87442871 -379.32424805 248.20588867 -378.84130859 247.51708984 C-376.94983384 244.71507558 -375.22812592 241.82021034 -373.52661133 238.8996582 C-372.98750122 238.17588989 -372.98750122 238.17588989 -372.4375 237.4375 C-371.7775 237.4375 -371.1175 237.4375 -370.4375 237.4375 C-369.4475 234.4675 -369.4475 234.4675 -368.4375 231.4375 C-367.7775 231.4375 -367.1175 231.4375 -366.4375 231.4375 C-366.1796875 230.88578125 -365.921875 230.3340625 -365.65625 229.765625 C-364.25786875 227.09435825 -362.64986695 224.66898091 -360.9375 222.1875 C-360.3290625 221.29546875 -359.720625 220.4034375 -359.09375 219.484375 C-358.5471875 218.80890625 -358.000625 218.1334375 -357.4375 217.4375 C-356.7775 217.4375 -356.1175 217.4375 -355.4375 217.4375 C-355.1075 216.4475 -354.7775 215.4575 -354.4375 214.4375 C-353.7775 214.4375 -353.1175 214.4375 -352.4375 214.4375 C-352.169375 213.86 -351.90125 213.2825 -351.625 212.6875 C-350.40820811 210.38199957 -349.13416121 208.41693808 -347.4375 206.4375 C-346.7775 206.4375 -346.1175 206.4375 -345.4375 206.4375 C-345.210625 205.90125 -344.98375 205.365 -344.75 204.8125 C-341.00735661 198.04009767 -335.5079145 194.0048566 -329.4375 189.4375 C-324.14659757 185.28284055 -318.94885459 181.03150761 -313.8125 176.6875 C-303.01291505 167.69243753 -291.96085791 159.57815879 -279.84887695 152.43286133 C-275.50683411 149.83192314 -271.74679745 147.12253669 -268 143.6875 C-255.3923074 132.63587605 -238.35835442 125.23148264 -223.37890625 117.953125 C-220.30279423 116.36808986 -217.42106362 114.60440426 -214.5 112.75 C-205.70447788 107.2124769 -196.42999698 102.57078211 -187.18164062 97.84326172 C-184.74540026 96.5952304 -182.3169258 95.33360791 -179.890625 94.06640625 C-169.13948368 88.50119971 -158.26946845 84.18420696 -146.4375 81.4375 C-145.385625 81.06625 -144.33375 80.695 -143.25 80.3125 C-140.4679403 79.44697031 -138.32835655 79.26744961 -135.4375 79.4375 C-135.4375 78.7775 -135.4375 78.1175 -135.4375 77.4375 C-133.90041382 77.0818396 -133.90041382 77.0818396 -132.33227539 76.71899414 C-128.54268483 75.84113227 -124.75421209 74.95852864 -120.96606445 74.07446289 C-119.32411477 73.69197526 -117.68186191 73.31078679 -116.03930664 72.9309082 C-113.68295297 72.38571265 -111.32771722 71.83590528 -108.97265625 71.28515625 C-108.23410904 71.1153273 -107.49556183 70.94549835 -106.7346344 70.77052307 C-103.29996718 70.18874069 -103.29996718 70.18874069 -100.4375 68.4375 C-98.48545531 68.22008189 -96.52633746 68.0656356 -94.56640625 67.9375 C-93.35146484 67.855 -92.13652344 67.7725 -90.88476562 67.6875 C-89.60279297 67.605 -88.32082031 67.5225 -87 67.4375 C-73.37054345 67.49758621 -73.37054345 67.49758621 -60.4375 64.4375 C-61.08976562 63.35984375 -61.74203125 62.2821875 -62.4140625 61.171875 C-65.1200112 55.75042439 -64.95654769 50.63894404 -64.8125 44.6875 C-64.81056641 43.14642578 -64.81056641 43.14642578 -64.80859375 41.57421875 C-64.704848 32.73277522 -64.704848 32.73277522 -62.4375 29.4375 C-60.19775391 27.80932617 -60.19775391 27.80932617 -57.4140625 26.23046875 C-56.39183594 25.64330078 -55.36960937 25.05613281 -54.31640625 24.45117188 C-52.70572266 23.5472168 -52.70572266 23.5472168 -51.0625 22.625 C-50.02738281 22.03396484 -48.99226563 21.44292969 -47.92578125 20.83398438 C-45.83016615 19.63742208 -43.73018545 18.44847418 -41.62597656 17.26708984 C-39.44358948 16.0148074 -37.28460392 14.72108921 -35.14746094 13.39306641 C-34.0959082 12.7438623 -33.04435547 12.0946582 -31.9609375 11.42578125 C-30.54820557 10.53113159 -30.54820557 10.53113159 -29.10693359 9.6184082 C-25.99777332 8.24297302 -24.60131172 8.27920073 -21.4375 9.4375 C-21.1075 10.0975 -20.7775 10.7575 -20.4375 11.4375 C-17.2647244 10.02108232 -14.98613125 8.28701943 -12.4375 5.9375 C-8.51481967 2.32127907 -5.44103501 0.16030779 0 0 Z " fill="#FAEA4E" transform="translate(1107.4375,442.5625)"/>
<path d="M0 0 C1.12229004 -0.01385742 2.24458008 -0.02771484 3.40087891 -0.04199219 C9.27638773 -0.0084229 14.2216843 0.49297483 19.70947266 2.65258789 C21.67532018 3.39397749 23.56096846 3.81292943 25.625 4.1875 C29.74591905 5.1752252 32.66283242 7.24469523 36.0859375 9.6796875 C38.94020946 11.58546293 41.8844797 13.12091441 44.9375 14.6875 C50.75012402 17.7467758 55.81162426 21.36042998 60.98828125 25.38671875 C63.03641149 26.93116067 64.92676699 28.19898924 67.1875 29.375 C74.37931637 33.55932952 80.48812091 38.85916361 85.625 45.375 C86.8668772 46.49140919 88.13765524 47.5766527 89.4375 48.625 C93.85645372 52.40209452 97.24164575 56.66921795 100.625 61.375 C101.05039063 61.95765625 101.47578125 62.5403125 101.9140625 63.140625 C103.8196214 65.85501825 104.90973774 68.15631984 105.625 71.375 C106.285 71.705 106.945 72.035 107.625 72.375 C107.95833333 73.70833333 108.29166667 75.04166667 108.625 76.375 C109.285 76.705 109.945 77.035 110.625 77.375 C110.625 78.035 110.625 78.695 110.625 79.375 C111.285 79.375 111.945 79.375 112.625 79.375 C114.44546831 84.50872062 115.97355198 89.58769317 117.09375 94.91796875 C118.38712844 100.89984401 119.87627614 106.85174164 121.6171875 112.71875 C122.71680988 116.70807771 123.53287736 120.67775148 124.25 124.75 C124.44783081 125.86556274 124.44783081 125.86556274 124.6496582 127.00366211 C125.52726261 132.19610757 125.91265199 137.10138017 125.625 142.375 C126.285 142.375 126.945 142.375 127.625 142.375 C127.73722451 152.36298165 127.63483159 162.33057325 127.25 172.3125 C127.21914307 173.24586182 127.18828613 174.17922363 127.15649414 175.14086914 C126.87807442 181.68807374 125.94655355 187.95902058 124.625 194.375 C123.965 194.375 123.305 194.375 122.625 194.375 C122.51542969 194.92027344 122.40585938 195.46554687 122.29296875 196.02734375 C120.37464116 205.15109693 117.19919483 213.63199276 113.80859375 222.3046875 C112.8805359 224.71212469 112.02223493 227.12250559 111.1875 229.5625 C109.69215306 233.57809459 107.49764319 237.08479441 105.2421875 240.71484375 C103.01750479 244.3742856 101.02207163 248.14527235 99.01953125 251.9296875 C97.70201912 254.23994687 96.23257001 256.26206923 94.625 258.375 C94.00625 259.509375 93.3875 260.64375 92.75 261.8125 C90.8340344 265.23646894 88.47570787 267.66335105 85.625 270.375 C84.861875 271.385625 84.09875 272.39625 83.3125 273.4375 C80.55259648 276.45413873 78.58034171 277.60209877 74.94921875 279.234375 C71.10904047 281.1189667 67.61090009 283.53661447 64.04296875 285.88671875 C61.625 287.375 61.625 287.375 58.625 288.375 C58.625 289.035 58.625 289.695 58.625 290.375 C56.975 290.705 55.325 291.035 53.625 291.375 C53.625 292.035 53.625 292.695 53.625 293.375 C52.1709375 294.0865625 52.1709375 294.0865625 50.6875 294.8125 C47.82022563 296.07693947 47.82022563 296.07693947 46.625 297.375 C45.27655462 297.67301528 43.92079712 297.93820705 42.5625 298.1875 C39.32270438 298.87117341 36.65821223 299.73496044 33.75 301.3125 C29.70675454 303.49650207 25.59136769 304.58316785 21.140625 305.6640625 C18.67424176 306.25601503 18.67424176 306.25601503 16.82299805 307.38208008 C14.12799883 308.59951447 11.88955757 308.77420232 8.94140625 308.97265625 C7.84892578 309.05193359 6.75644531 309.13121094 5.63085938 309.21289062 C4.49455078 309.28701172 3.35824219 309.36113281 2.1875 309.4375 C-0.0613839 309.59237476 -2.31009172 309.74983289 -4.55859375 309.91015625 C-5.55431396 309.975979 -6.55003418 310.04180176 -7.57592773 310.10961914 C-10.2362095 310.36184123 -12.76159072 310.83136676 -15.375 311.375 C-23.54567268 311.8569464 -31.67611593 311.30312438 -39.8125 310.5625 C-41.07235718 310.45748169 -41.07235718 310.45748169 -42.35766602 310.3503418 C-49.74287313 309.61248317 -55.02659711 307.21745438 -61.375 303.375 C-63.02869357 302.67677383 -64.69227014 302.00001395 -66.375 301.375 C-66.375 300.715 -66.375 300.055 -66.375 299.375 C-67.385625 299.189375 -68.39625 299.00375 -69.4375 298.8125 C-75.23962364 297.16817346 -78.73768453 292.48766513 -82.3125 287.875 C-84.19750708 285.59014294 -86.05405667 283.89608115 -88.3125 282 C-91.50571199 279.28073413 -93.91578744 276.57802262 -96.171875 273.05078125 C-97.36618907 271.26329969 -97.36618907 271.26329969 -99.25 269.67578125 C-102.14511848 266.54117687 -103.77977602 263.07029705 -105.625 259.25 C-105.98851562 258.52167969 -106.35203125 257.79335937 -106.7265625 257.04296875 C-109.375 251.65648496 -109.375 251.65648496 -109.375 249.375 C-109.98859375 249.15714844 -110.6021875 248.93929688 -111.234375 248.71484375 C-114.14525936 246.89288511 -114.54743036 245.1573807 -115.625 241.9375 C-116.12773438 240.48537109 -116.12773438 240.48537109 -116.640625 239.00390625 C-117.375 236.375 -117.375 236.375 -117.375 233.375 C-118.035 233.375 -118.695 233.375 -119.375 233.375 C-119.57657715 232.42657227 -119.7781543 231.47814453 -119.98583984 230.50097656 C-120.73701901 226.97374475 -121.49536619 223.44808589 -122.25585938 219.92285156 C-122.58365649 218.39853018 -122.90952288 216.87379224 -123.23339844 215.34863281 C-123.6999711 213.15316513 -124.17352645 210.95930206 -124.6484375 208.765625 C-124.79123138 208.0863092 -124.93402527 207.40699341 -125.08114624 206.70709229 C-125.82458263 203.30646309 -126.79465984 200.45754287 -128.375 197.375 C-128.86157227 195.0793457 -128.86157227 195.0793457 -129.19140625 192.55078125 C-129.31580078 191.60267578 -129.44019531 190.65457031 -129.56835938 189.67773438 C-129.69017578 188.69095703 -129.81199219 187.70417969 -129.9375 186.6875 C-130.06318359 185.75099609 -130.18886719 184.81449219 -130.31835938 183.84960938 C-132.18228524 169.24072447 -132.54257201 154.62078037 -132.50537109 139.91210938 C-132.49988686 137.32155826 -132.50542161 134.73117172 -132.51171875 132.140625 C-132.5110599 130.48958295 -132.50978277 128.838541 -132.5078125 127.1875 C-132.50983673 126.4147876 -132.51186096 125.6420752 -132.51394653 124.84594727 C-132.49002799 119.49002799 -132.49002799 119.49002799 -131.375 118.375 C-131.07944014 116.36561822 -130.78901925 114.35534069 -130.52514648 112.34155273 C-127.31780582 88.31780582 -127.31780582 88.31780582 -120.375 81.375 C-119.43780898 79.0064627 -118.57016685 76.65804801 -117.75 74.25 C-117.52054688 73.59128906 -117.29109375 72.93257812 -117.0546875 72.25390625 C-116.48963758 70.62938774 -115.93163723 69.00242029 -115.375 67.375 C-114.715 67.375 -114.055 67.375 -113.375 67.375 C-113.189375 66.26125 -113.189375 66.26125 -113 65.125 C-112.42013299 62.57358515 -111.63791261 60.6482427 -110.375 58.375 C-109.715 58.375 -109.055 58.375 -108.375 58.375 C-107.715 55.405 -107.055 52.435 -106.375 49.375 C-105.715 49.375 -105.055 49.375 -104.375 49.375 C-104.16488281 48.68535156 -103.95476563 47.99570313 -103.73828125 47.28515625 C-101.94992736 43.46760998 -99.44859885 40.84517218 -96.5625 37.8125 C-96.04107422 37.24853516 -95.51964844 36.68457031 -94.98242188 36.10351562 C-89.50432825 30.25611232 -83.67745424 25.99165364 -76.5 22.4375 C-69.45110707 18.96727867 -69.45110707 18.96727867 -63.0625 14.4375 C-45.69817989 1.11139387 -20.95699114 0.15483343 0 0 Z " fill="#FEFEFD" transform="translate(1109.375,1203.625)"/>
<path d="M0 0 C3.69986375 3.69986375 2.08862262 14.28887857 2.09765625 19.1953125 C2.09479721 22.17194851 2.07945603 25.14841605 2.0625 28.125 C2.0574735 29.66926938 2.05291264 31.21354034 2.04882812 32.7578125 C2.03791697 36.50524187 2.02071614 40.25261049 2 44 C-1.0996277 45.77746248 -3.5904036 46.33110096 -7.140625 46.59765625 C-8.12933594 46.67693359 -9.11804687 46.75621094 -10.13671875 46.83789062 C-11.16410156 46.91201172 -12.19148438 46.98613281 -13.25 47.0625 C-15.27614979 47.21865549 -17.30219439 47.37618245 -19.328125 47.53515625 C-20.78955933 47.64778809 -20.78955933 47.64778809 -22.28051758 47.76269531 C-24.60625782 47.96564167 -26.90288954 48.23189101 -29.21484375 48.55078125 C-33.28150169 49.03340835 -37.22369394 49.15276059 -41.3125 49.125 C-42.04871582 49.12089111 -42.78493164 49.11678223 -43.54345703 49.11254883 C-59.80997526 48.947217 -59.80997526 48.947217 -62.7421875 46.61328125 C-64.4266073 44.45282976 -64.72947805 42.70521951 -65 40 C-63.71076872 36.13230615 -62.38797758 35.25865172 -59 33 C-57.49204589 32.46240495 -55.96957381 31.96441776 -54.4375 31.5 C-50.5778347 30.32366049 -48.7392533 29.01317863 -46 26 C-42.85544809 23.90617003 -39.66798876 22.24686541 -36.125 20.9375 C-35.42375 20.628125 -34.7225 20.31875 -34 20 C-33.67 19.01 -33.34 18.02 -33 17 C-31.36021682 15.95650161 -29.68535024 14.96817992 -28 14 C-24.42999688 11.44690686 -20.93921133 8.81563089 -17.625 5.9375 C-6.74201939 -2.09517616 -6.74201939 -2.09517616 0 0 Z " fill="#F1C845" transform="translate(1088,829)"/>
<path d="M0 0 C5.22283205 -0.42810099 5.22283205 -0.42810099 8 0 C11.26607833 3.47679306 11.54578482 7.36700514 12 12 C13.32 11.34 14.64 10.68 16 10 C16 9.34 16 8.68 16 8 C16.66 8 17.32 8 18 8 C18 7.34 18 6.68 18 6 C18.99 6 19.98 6 21 6 C21.33 5.01 21.66 4.02 22 3 C27.625 1.875 27.625 1.875 31 3 C33.4294516 6.6441774 33.16179575 8.71241272 33 13 C34.29409289 12.38003922 35.58519673 11.75383647 36.875 11.125 C37.59429688 10.77695312 38.31359375 10.42890625 39.0546875 10.0703125 C41.15135019 9.03442457 41.15135019 9.03442457 43 7 C44.32 7 45.64 7 47 7 C47 8.65 47 10.3 47 12 C46.34 12 45.68 12 45 12 C44.98582031 12.60328125 44.97164062 13.2065625 44.95703125 13.828125 C44.56790752 20.34857667 44.56790752 20.34857667 41.875 23.4375 C35.65189526 26.81962214 30.80959676 27.50041963 24 26 C23.34 25.01 22.68 24.02 22 23 C17.91269826 23.52497454 16.08645902 25.64547437 13.25 28.5 C7.74125 33.6025 7.74125 33.6025 3.625 34.25 C-0.28113737 33.98061122 -1.35153514 33.76781628 -4 31 C-4.609375 27.86328125 -4.609375 27.86328125 -4.75 24.3125 C-4.80671875 23.13300781 -4.8634375 21.95351563 -4.921875 20.73828125 C-4.94765625 19.83464844 -4.9734375 18.93101562 -5 18 C-5.43957031 18.48082031 -5.87914062 18.96164062 -6.33203125 19.45703125 C-8.45383299 21.41982209 -10.18133384 21.61909917 -13 22 C-13.0825 22.9075 -13.165 23.815 -13.25 24.75 C-14.12389594 28.53688242 -14.84947686 29.7614704 -18 32 C-23.84445559 33.56547918 -23.84445559 33.56547918 -27.203125 31.921875 C-29 30 -29 30 -29.390625 26.86328125 C-29.34421875 25.69152344 -29.2978125 24.51976562 -29.25 23.3125 C-29.21390625 22.13300781 -29.1778125 20.95351563 -29.140625 19.73828125 C-29.09421875 18.83464844 -29.0478125 17.93101562 -29 17 C-28.34 17 -27.68 17 -27 17 C-26.97873047 15.98679687 -26.97873047 15.98679687 -26.95703125 14.953125 C-26.5694002 7.70337672 -26.5694002 7.70337672 -23.875 4.375 C-20.37944133 2.70321107 -17.82948022 2.69964861 -14 3 C-13.67 4.65 -13.34 6.3 -13 8 C-12.525625 7.38125 -12.05125 6.7625 -11.5625 6.125 C-8.02195453 3.1889379 -4.46172044 2.72455289 0 2 C0 1.34 0 0.68 0 0 Z " fill="#F6CBAA" transform="translate(1287,829)"/>
<path d="M0 0 C0.50505263 2.89503383 1.0042022 5.79087953 1.5 8.6875 C1.64308594 9.50412109 1.78617188 10.32074219 1.93359375 11.16210938 C2.61165962 15.14978248 3.19858392 18.93730404 3 23 C4.8253125 22.87625 4.8253125 22.87625 6.6875 22.75 C9.83009935 22.77232753 11.08571261 23.04285631 14 24.5 C16.11519725 27.14399657 16.35868511 27.88653374 16.5 31.125 C16.335 32.40375 16.17 33.6825 16 35 C12.79619983 37.13586678 11.98060033 37.23132175 8.3125 37.125 C7.50425781 37.10695313 6.69601562 37.08890625 5.86328125 37.0703125 C5.24839844 37.04710937 4.63351562 37.02390625 4 37 C4.495 38.546875 4.495 38.546875 5 40.125 C5.95050781 43.5344302 6.47423097 46.4432677 6 50 C4.375 52.375 4.375 52.375 2 54 C-1.52128126 54.58688021 -3.22922867 54.49243724 -6.25 52.5625 C-8.71376505 48.95484403 -9.30741499 45.26486556 -10 41 C-10.43570313 41.433125 -10.87140625 41.86625 -11.3203125 42.3125 C-14.22711192 45.03054621 -16.17830537 46.81922718 -20.125 47.6875 C-24.04765452 46.74947392 -25.58830109 45.19195444 -28 42 C-28.63215836 38.8392082 -28.19075069 37.40158039 -26.8125 34.5 C-24.75996769 31.66892096 -22.5308816 29.41839797 -20 27 C-19.34128906 26.3090625 -18.68257812 25.618125 -18.00390625 24.90625 C-17.30136719 24.1740625 -16.59882812 23.441875 -15.875 22.6875 C-14.88113281 21.64142578 -14.88113281 21.64142578 -13.8671875 20.57421875 C-12 19 -12 19 -9 19 C-9.495 9.595 -9.495 9.595 -10 0 C-6.7169902 -1.6415049 -3.57454967 -0.51888624 0 0 Z " fill="#F2CC52" transform="translate(1007,1597)"/>
<path d="M0 0 C2.4375 0.375 2.4375 0.375 4.4375 2.375 C4.5625 5.5 4.5625 5.5 4.4375 8.375 C5.89975016 8.46745003 5.89975016 8.46745003 8.4375 6.375 C13.65016968 5.83201357 13.65016968 5.83201357 16.25 7.625 C17.55008722 9.54091802 18.04606977 11.10470466 18.4375 13.375 C19.159375 12.55 19.88125 11.725 20.625 10.875 C23.4375 8.375 23.4375 8.375 26.0625 7.875 C28.4375 8.375 28.4375 8.375 30.1875 9.4375 C31.99921151 12.24565285 32.02845689 15.09886767 32.4375 18.375 C33.17355469 17.50875 33.90960937 16.6425 34.66796875 15.75 C35.65290858 14.62435448 36.63862668 13.49938961 37.625 12.375 C38.10775391 11.80265625 38.59050781 11.2303125 39.08789062 10.640625 C41.34717819 8.09324036 42.76207776 6.4983296 46.17578125 5.875 C48.4375 6.375 48.4375 6.375 50.4375 8.375 C50.99316878 11.76110661 50.59179831 13.12962283 48.75 16.05859375 C37.27436055 29.72468465 37.27436055 29.72468465 29.75 31 C25.95029472 30.28307448 24.1870381 29.04121876 21.4375 26.375 C20.1071875 27.6125 20.1071875 27.6125 18.75 28.875 C16.62169994 30.6277177 15.54731403 31.3488538 12.8125 32 C9.3985625 31.10159539 8.30521035 29.28032721 6.4375 26.375 C6.4375 25.715 6.4375 25.055 6.4375 24.375 C3.72525382 25.98768692 1.06397188 27.62401874 -1.5625 29.375 C-4.5625 29.75 -4.5625 29.75 -7.5625 29.375 C-9.4375 27.8125 -9.4375 27.8125 -10.5625 25.375 C-10.91665044 20.0949389 -10.07755968 16.1310759 -8.25 11.1875 C-7.82074219 9.99769531 -7.39148438 8.80789063 -6.94921875 7.58203125 C-3.91872086 0.57347135 -3.91872086 0.57347135 0 0 Z " fill="#F6CBA5" transform="translate(867.5625,855.625)"/>
<path d="M0 0 C6.57692308 0.57692308 6.57692308 0.57692308 8 2 C8.07325168 4.86267567 8.09238205 7.700719 8.0625 10.5625 C8.05798828 11.36880859 8.05347656 12.17511719 8.04882812 13.00585938 C8.03700518 15.00393756 8.01906914 17.00197783 8 19 C9.42892578 18.94779297 9.42892578 18.94779297 10.88671875 18.89453125 C12.14097656 18.86746094 13.39523437 18.84039063 14.6875 18.8125 C15.92886719 18.77769531 17.17023438 18.74289062 18.44921875 18.70703125 C22.22874952 19.01887372 24.09873361 19.58227801 27 22 C27.3125 25.6875 27.3125 25.6875 27 29 C23.22777911 30.75163456 20.333361 31.22490027 16.1875 31.125 C14.72376953 31.09792969 14.72376953 31.09792969 13.23046875 31.0703125 C12.49441406 31.04710937 11.75835938 31.02390625 11 31 C11.24363281 32.68802734 11.24363281 32.68802734 11.4921875 34.41015625 C12.07682023 39.0965144 12.14818171 43.72002158 12.125 48.4375 C12.13080078 49.65856445 12.13080078 49.65856445 12.13671875 50.90429688 C12.12676222 56.87323778 12.12676222 56.87323778 11 58 C5.16573034 58.56460674 5.16573034 58.56460674 3 58 C-0.19966472 54.14436757 -0.45872714 50.58323913 -0.6875 45.6875 C-0.75324219 44.43324219 -0.81898437 43.17898438 -0.88671875 41.88671875 C-0.92410156 40.93410156 -0.96148438 39.98148438 -1 39 C-1.78375 39.66 -2.5675 40.32 -3.375 41 C-6 43 -6 43 -8 43 C-8 43.66 -8 44.32 -8 45 C-13.625 45.25 -13.625 45.25 -17 43 C-17.52849306 37.62698724 -17.44840302 34.33831347 -14 30 C-7.58717497 22.76620945 -7.58717497 22.76620945 -3 22 C-3.01160156 21.2265625 -3.02320313 20.453125 -3.03515625 19.65625 C-3.08695405 13.67730434 -3.09069426 7.88974898 -2 2 C-1.34 1.34 -0.68 0.68 0 0 Z " fill="#F1CA4D" transform="translate(1148,1593)"/>
<path d="M0 0 C5.40312892 0.79008017 9.99385994 3.36960455 14.484375 6.36328125 C16.06184451 10.09184554 15.55050834 14.39528087 15.484375 18.36328125 C14.824375 18.36328125 14.164375 18.36328125 13.484375 18.36328125 C13.484375 19.35328125 13.484375 20.34328125 13.484375 21.36328125 C12.824375 21.36328125 12.164375 21.36328125 11.484375 21.36328125 C10.27809492 23.69542273 9.3189012 25.85970264 8.484375 28.36328125 C7.824375 28.36328125 7.164375 28.36328125 6.484375 28.36328125 C6.21625 29.04390625 5.948125 29.72453125 5.671875 30.42578125 C5.28 31.39515625 4.888125 32.36453125 4.484375 33.36328125 C4.030625 34.58015625 3.576875 35.79703125 3.109375 37.05078125 C1.484375 40.36328125 1.484375 40.36328125 -0.328125 41.80078125 C-3.21049532 42.54196219 -5.5520183 42.67855856 -8.515625 42.36328125 C-10.21875 41.13671875 -10.21875 41.13671875 -11.515625 39.36328125 C-11.58984375 37.1015625 -11.58984375 37.1015625 -11.203125 34.67578125 C-11.08324219 33.86753906 -10.96335937 33.05929687 -10.83984375 32.2265625 C-10.73285156 31.61167969 -10.62585938 30.99679687 -10.515625 30.36328125 C-9.855625 30.36328125 -9.195625 30.36328125 -8.515625 30.36328125 C-8.515625 29.70328125 -8.515625 29.04328125 -8.515625 28.36328125 C-7.855625 28.03328125 -7.195625 27.70328125 -6.515625 27.36328125 C-6.185625 26.37328125 -5.855625 25.38328125 -5.515625 24.36328125 C-4.855625 24.03328125 -4.195625 23.70328125 -3.515625 23.36328125 C-3.185625 22.37328125 -2.855625 21.38328125 -2.515625 20.36328125 C-1.855625 20.36328125 -1.195625 20.36328125 -0.515625 20.36328125 C-0.185625 19.04328125 0.144375 17.72328125 0.484375 16.36328125 C1.144375 16.36328125 1.804375 16.36328125 2.484375 16.36328125 C2.484375 15.37328125 2.484375 14.38328125 2.484375 13.36328125 C1.78570313 13.3375 1.08703125 13.31171875 0.3671875 13.28515625 C-0.54289063 13.2284375 -1.45296875 13.17171875 -2.390625 13.11328125 C-3.74800781 13.04367187 -3.74800781 13.04367187 -5.1328125 12.97265625 C-7.515625 12.36328125 -7.515625 12.36328125 -8.81640625 10.4765625 C-9.66719614 7.90518077 -9.8606923 6.05480616 -9.515625 3.36328125 C-6.716075 -0.24233113 -4.32560009 -0.13429151 0 0 Z " fill="#1F1F1A" transform="translate(983.515625,766.63671875)"/>
<path d="M0 0 C0 0.66 0 1.32 0 2 C0.66 2 1.32 2 2 2 C2 3.98 2 5.96 2 8 C1.34 8 0.68 8 0 8 C-0.27457031 8.57621094 -0.54914063 9.15242187 -0.83203125 9.74609375 C-2.35641389 12.68779537 -4.21032002 15.36218797 -6.07421875 18.09765625 C-7.34213312 20.13939354 -7.34213312 20.13939354 -6 23 C-4.989375 23.7425 -3.97875 24.485 -2.9375 25.25 C-1.3046875 26.53125 -1.3046875 26.53125 0 28 C0.4375 31.75 0.4375 31.75 0 35 C-1 36 -1 36 -4.75 36.25 C-8.68339955 36.2010945 -10.73505687 35.26034525 -14 33 C-15.21946223 32.45683342 -16.44943129 31.93680343 -17.6875 31.4375 C-21 30 -21 30 -23 28 C-23.34503098 24.27366541 -23.48548923 21.86064 -21.625 18.5625 C-20 17 -20 17 -18 17 C-17.88785156 15.94039062 -17.88785156 15.94039062 -17.7734375 14.859375 C-16.78529119 11.20622804 -15.04345225 9.14588133 -12.625 6.25 C-11.43777344 4.80367187 -11.43777344 4.80367187 -10.2265625 3.328125 C-6.99195565 -0.05402532 -4.48084705 -0.12110397 0 0 Z " fill="#1C1B18" transform="translate(1182,765)"/>
<path d="M0 0 C3.375 0.25 3.375 0.25 7 1 C9.46516987 4.56862685 9.19698182 7.47195978 8.59375 11.60546875 C7.58613588 15.66907041 6.1203158 19.13206268 3 22 C0.05966461 22.74091785 -1.9018732 22.39341293 -5 22 C-6.32 22 -7.64 22 -9 22 C-9.66 22.99 -10.32 23.98 -11 25 C-13.64824722 24.64212875 -15.55535876 24.31760089 -17.75 22.75 C-20.31588003 19.15776795 -20.1798356 14.59837573 -20.25 10.3125 C-20.27578125 9.35988281 -20.3015625 8.40726562 -20.328125 7.42578125 C-20.21984375 6.62527344 -20.1115625 5.82476562 -20 5 C-16.32653229 2.55102153 -14.33643601 2.68462284 -10 3 C-8 5 -8 5 -7.8046875 6.9453125 C-7.86979167 8.96354167 -7.93489583 10.98177083 -8 13 C-7.34 13 -6.68 13 -6 13 C-5.81824219 12.39671875 -5.63648438 11.7934375 -5.44921875 11.171875 C-2.95254833 3.23374341 -2.95254833 3.23374341 0 0 Z " fill="#F2CC46" transform="translate(1088,472)"/>
<path d="M0 0 C3.4375 0.3125 3.4375 0.3125 5.4375 1.3125 C6.63913544 4.91740632 6.75339583 8.36450178 6.9375 12.125 C7.17607597 16.91860984 7.5975479 21.58188979 8.4375 26.3125 C8.7405473 29.14922145 8.6748354 31.41700809 8.4375 34.3125 C6.75 36.375 6.75 36.375 4.4375 37.3125 C0.93139321 37.0559556 -0.5903901 36.2939066 -3.5625 34.3125 C-6.30288248 27.26419115 -6.85765931 19.74131514 -6.9375 12.25 C-6.95127686 11.52417725 -6.96505371 10.79835449 -6.97924805 10.05053711 C-6.95171759 6.91463423 -6.73006438 4.63152648 -5.26171875 1.8359375 C-3.5625 0.3125 -3.5625 0.3125 0 0 Z " fill="#F2CC46" transform="translate(1376.5625,1321.6875)"/>
<path d="M0 0 C1.67053016 5.01159048 1.50949375 10.24992445 1.75 15.5 C1.81832031 16.65371094 1.88664062 17.80742188 1.95703125 18.99609375 C2.03244141 20.65318359 2.03244141 20.65318359 2.109375 22.34375 C2.16061523 23.35630859 2.21185547 24.36886719 2.26464844 25.41210938 C2 28 2 28 0.68066406 29.79101562 C-1 31 -1 31 -4 32 C-6.5625 31.125 -6.5625 31.125 -9 29 C-12.13937148 20.47884885 -11.17395869 10.95887235 -11 2 C-4.55357143 -1.47321429 -4.55357143 -1.47321429 0 0 Z " fill="#F1CA45" transform="translate(1397,1327)"/>
<path d="M0 0 C3.5 1 3.5 1 5.3125 3.0625 C6.30321849 5.51322468 6.92543938 7.68975786 7.5 10.25 C7.83 11.4875 8.16 12.725 8.5 14 C9.49 14.33 10.48 14.66 11.5 15 C11.5 15.99 11.5 16.98 11.5 18 C12.82 18.33 14.14 18.66 15.5 19 C14.625 25.875 14.625 25.875 13.5 27 C9.2493404 27.04391177 5.52786141 26.53729119 1.75 24.5625 C-3.26181847 18.85459563 -5.87851725 12.41307802 -6.75 4.91015625 C-6.5 3 -6.5 3 -5.21875 1.24609375 C-3.5 0 -3.5 0 0 0 Z " fill="#F1CA45" transform="translate(777.5,1398)"/>
<path d="M0 0 C1.6953125 1.92578125 1.6953125 1.92578125 3.125 4.3125 C5.26028961 7.80712298 5.26028961 7.80712298 7.6796875 11.10546875 C9 13 9 13 9 16 C9.66 16 10.32 16 11 16 C11.75 18.25 11.75 18.25 12 21 C10.07277214 23.66846935 8.57803667 24.78323625 5.5 25.9375 C3 26 3 26 0.6875 24.6875 C0.130625 24.130625 -0.42625 23.57375 -1 23 C-1 22.34 -1 21.68 -1 21 C-1.66 21 -2.32 21 -3 21 C-3.71329544 19.33564398 -4.42561835 17.67086389 -5.1328125 16.00390625 C-5.95115226 14.11287789 -6.81790724 12.24301409 -7.6875 10.375 C-9.64814815 5.33333333 -9.64814815 5.33333333 -9 2 C-6.04313635 -1.28540405 -4.08181006 -1.3439344 0 0 Z " fill="#F2CB45" transform="translate(797,1393)"/>
<path d="M0 0 C1.26023136 2.52046273 1.06757515 4.16541403 0.9921875 6.98046875 C0.97542969 7.98013672 0.95867187 8.97980469 0.94140625 10.00976562 C0.89753964 12.10891176 0.8456082 14.20790664 0.78515625 16.30664062 C0.69975063 22.3665576 1.0166107 26.67457803 4 32 C4.66 32.66 5.32 33.32 6 34 C6 35.32 6 36.64 6 38 C3.24249959 38.9191668 1.32132143 39.18583296 -1.54296875 39.31640625 C-2.44515137 39.35838135 -3.34733398 39.40035645 -4.27685547 39.44360352 C-5.23736816 39.48283936 -6.19788086 39.5220752 -7.1875 39.5625 C-8.65533936 39.62618774 -8.65533936 39.62618774 -10.15283203 39.69116211 C-18.44019257 40.02728241 -26.70686992 40.10693148 -35 40 C-35 40.66 -35 41.32 -35 42 C-37.83111718 42.67753232 -40.66429376 43.34218727 -43.5 44 C-44.29148437 44.19078125 -45.08296875 44.3815625 -45.8984375 44.578125 C-51.06262957 45.76334941 -55.70225061 46.19441282 -61 46 C-58.25206051 44.51581049 -55.76148433 43.59835242 -52.70703125 42.96484375 C-51.5149707 42.71057617 -51.5149707 42.71057617 -50.29882812 42.45117188 C-49.47833984 42.28166016 -48.65785156 42.11214844 -47.8125 41.9375 C-42.4826225 41.26317595 -42.4826225 41.26317595 -38 39 C-36.04795531 38.78258189 -34.08883746 38.6281356 -32.12890625 38.5 C-30.91396484 38.4175 -29.69902344 38.335 -28.44726562 38.25 C-27.16529297 38.1675 -25.88332031 38.085 -24.5625 38 C-10.93304345 38.06008621 -10.93304345 38.06008621 2 35 C1.34773438 33.92234375 0.69546875 32.8446875 0.0234375 31.734375 C-2.6825112 26.31292439 -2.51904769 21.20144404 -2.375 15.25 C-2.37371094 14.22261719 -2.37242188 13.19523437 -2.37109375 12.13671875 C-2.27444408 3.90001933 -2.27444408 3.90001933 0 0 Z " fill="#FCF082" transform="translate(1045,472)"/>
<path d="M0 0 C-0.5775 0.29132812 -1.155 0.58265625 -1.75 0.8828125 C-4.00995391 2.13049539 -6.02988721 3.32799638 -8 5 C-8.67012422 8.2140814 -8.67012422 8.2140814 -8 11 C-1.97846192 13.67623915 4.10652878 13.30161488 10.5625 13.25 C11.73474121 13.24540771 12.90698242 13.24081543 14.11474609 13.23608398 C20.90019264 13.16474278 27.30332169 12.80896261 33.96484375 11.5078125 C38.55190855 10.74034992 43.15752671 10.55186064 47.79931641 10.34204102 C51.52387185 10.2096722 51.52387185 10.2096722 55 9 C54.67 9.99 54.34 10.98 54 12 C51.16100843 12.94633052 48.92083618 13.26146868 45.95703125 13.5 C44.96509766 13.5825 43.97316406 13.665 42.95117188 13.75 C41.91541016 13.8325 40.87964844 13.915 39.8125 14 C31.78127738 14.62805636 31.78127738 14.62805636 23.78125 15.5546875 C19.71649959 16.03338744 15.77409084 16.15274555 11.6875 16.125 C10.95128418 16.12089111 10.21506836 16.11678223 9.45654297 16.11254883 C-6.80997526 15.947217 -6.80997526 15.947217 -9.7421875 13.61328125 C-11.4266073 11.45282976 -11.72947805 9.70521951 -12 7 C-10.75616297 3.26848892 -9.15652193 2.25465852 -6 0 C-3 -1 -3 -1 0 0 Z " fill="#F4D55D" transform="translate(1035,862)"/>
<path d="M0 0 C0.79921875 0.01804687 1.5984375 0.03609375 2.421875 0.0546875 C3.02515625 0.07789063 3.6284375 0.10109375 4.25 0.125 C5.77207937 3.54719901 6.52350473 6.34427569 6.6640625 10.08203125 C6.70281494 11.02296631 6.74156738 11.96390137 6.78149414 12.93334961 C6.81235107 13.92471924 6.84320801 14.91608887 6.875 15.9375 C6.93192017 17.46225952 6.93192017 17.46225952 6.98999023 19.01782227 C7.28079162 27.38907758 7.3594027 35.74961573 7.25 44.125 C6.59 44.125 5.93 44.125 5.25 44.125 C5.22494385 43.23828613 5.1998877 42.35157227 5.17407227 41.43798828 C5.07809955 38.10179384 4.97892585 34.7657247 4.87768555 31.4296875 C4.83476505 29.99450309 4.7930666 28.55928154 4.75268555 27.12402344 C4.52584719 19.09226539 4.2301761 11.1083239 3.25 3.125 C-1.26409513 1.72521637 -3.54382034 2.5596645 -7.6875 4.6875 C-12.66505781 7.31047777 -15.99045811 9.99867354 -19.75 14.125 C-21.38978318 15.16849839 -23.05094366 16.18107981 -24.75 17.125 C-25.41 17.785 -26.07 18.445 -26.75 19.125 C-27.74 18.795 -28.73 18.465 -29.75 18.125 C-24.32026477 13.45290224 -24.32026477 13.45290224 -21.25 11.6875 C-18.4110726 9.91317037 -16.47515448 7.83424789 -14.27734375 5.33203125 C-12.75 4.125 -12.75 4.125 -8.75 4.125 C-8.75 3.465 -8.75 2.805 -8.75 2.125 C-5.68753253 0.34090198 -3.52920727 -0.10380021 0 0 Z " fill="#F4D65C" transform="translate(1084.75,826.875)"/>
<path d="M0 0 C0.66 0.33 1.32 0.66 2 1 C1.60731934 1.38744385 1.21463867 1.7748877 0.81005859 2.17407227 C-1.00438201 3.96745192 -2.81469627 5.76494489 -4.625 7.5625 C-5.24246094 8.17158203 -5.85992188 8.78066406 -6.49609375 9.40820312 C-10.09748058 12.99063529 -13.50033989 16.6519348 -16.7331543 20.5715332 C-18 22 -18 22 -20.1875 23.625 C-22.15974824 24.94260136 -22.15974824 24.94260136 -23.36328125 27.2890625 C-25.03187827 30.05280076 -26.86143292 32.3360114 -29 34.75 C-30.0209375 35.91789063 -30.0209375 35.91789063 -31.0625 37.109375 C-33 39 -33 39 -36 40 C-34.63312778 36.01328937 -32.84804907 33.11505367 -30 30 C-29.34 30 -28.68 30 -28 30 C-27.67 29.01 -27.34 28.02 -27 27 C-26.34 27 -25.68 27 -25 27 C-24.731875 26.4225 -24.46375 25.845 -24.1875 25.25 C-22.97070811 22.94449957 -21.69666121 20.97943808 -20 19 C-19.34 19 -18.68 19 -18 19 C-17.6596875 18.195625 -17.6596875 18.195625 -17.3125 17.375 C-13.98550959 11.35473164 -9.42818144 7.57497909 -3.98828125 3.515625 C-1.91973435 2.00885655 -1.91973435 2.00885655 0 0 Z " fill="#FCF189" transform="translate(780,630)"/>
<path d="M0 0 C0.33 0.66 0.66 1.32 1 2 C0.67 2.66 0.34 3.32 0 4 C1.24007813 3.98839844 2.48015625 3.97679687 3.7578125 3.96484375 C58.02178464 3.61532576 58.02178464 3.61532576 79 10 C79 10.33 79 10.66 79 11 C71.74583759 10.52798258 64.52728402 9.88381104 57.3125 9 C56.61769531 8.9170166 55.92289063 8.8340332 55.20703125 8.74853516 C50.24400454 8.12200227 50.24400454 8.12200227 48 7 C46.39804244 6.85305312 44.79064731 6.76346661 43.18310547 6.70288086 C42.18221893 6.66291489 41.1813324 6.62294891 40.15011597 6.58177185 C39.06674957 6.54318558 37.98338318 6.5045993 36.8671875 6.46484375 C35.76021515 6.42186661 34.6532428 6.37888947 33.51272583 6.33460999 C29.96696622 6.19794129 26.4210042 6.06765278 22.875 5.9375 C20.47524442 5.84612233 18.07550455 5.75433082 15.67578125 5.66210938 C9.78402836 5.4365988 3.89209672 5.21633008 -2 5 C-1.34 3.35 -0.68 1.7 0 0 Z " fill="#FDF6B5" transform="translate(1103,504)"/>
<path d="M0 0 C0.66 0 1.32 0 2 0 C4.24476035 4.78231554 5.33943289 8.71546308 6 14 C6.42732422 15.44632813 6.42732422 15.44632813 6.86328125 16.921875 C8.48368864 22.4483478 9.51875181 28.10298888 10.625 33.75 C10.85445312 34.86632813 11.08390625 35.98265625 11.3203125 37.1328125 C12.70040981 44.18116664 13.308901 50.82121295 13 58 C12.67 58 12.34 58 12 58 C11.89977539 57.29617188 11.79955078 56.59234375 11.69628906 55.8671875 C9.03204334 34.25814958 9.03204334 34.25814958 2.953125 13.4453125 C1.88418436 10.70286643 1.36412218 8.08729579 0.875 5.1875 C0.70742187 4.21167969 0.53984375 3.23585938 0.3671875 2.23046875 C0.24601562 1.49441406 0.12484375 0.75835938 0 0 Z " fill="#FCF295" transform="translate(1223,1288)"/>
<path d="M0 0 C0.625 1.875 0.625 1.875 1 4 C0.34 4.66 -0.32 5.32 -1 6 C-1.66889934 8.23161176 -2.26073267 10.48657998 -2.8125 12.75 C-4.19779208 18.17154149 -5.71688339 23.50704227 -7.5 28.8125 C-7.8815625 29.95332031 -8.263125 31.09414063 -8.65625 32.26953125 C-10 35 -10 35 -12.15625 36.38671875 C-12.7646875 36.58910156 -13.373125 36.79148437 -14 37 C-13.54287762 35.45797384 -13.08423653 33.91639786 -12.625 32.375 C-12.24214844 31.08722656 -12.24214844 31.08722656 -11.8515625 29.7734375 C-8.70567133 19.52764516 -5.01970497 9.48166494 0 0 Z " fill="#FCF18B" transform="translate(696,745)"/>
<path d="M0 0 C0.92371086 2.49401932 1.15467489 3.62436098 0.125 6.125 C-1.31051855 9.79354741 -1.9473247 13.44352725 -2.625 17.3125 C-2.7590625 18.05306641 -2.893125 18.79363281 -3.03125 19.55664062 C-3.35886984 21.37025044 -3.68008494 23.18501524 -4 25 C-4.99 25.33 -5.98 25.66 -7 26 C-7.04898438 26.62648438 -7.09796875 27.25296875 -7.1484375 27.8984375 C-7.22320313 28.71570313 -7.29796875 29.53296875 -7.375 30.375 C-7.44460938 31.18710937 -7.51421875 31.99921875 -7.5859375 32.8359375 C-8 35 -8 35 -10 37 C-9.76555864 30.07225785 -9.12442206 24.55709124 -5.9765625 18.36328125 C-4.4237024 14.6053598 -4.05727441 10.71702162 -3.58984375 6.69921875 C-2.94834083 3.76359942 -1.96204909 2.23854381 0 0 Z " fill="#FCF07D" transform="translate(681,783)"/>
<path d="M0 0 C0 0.66 0 1.32 0 2 C-1.66102399 3.00934487 -3.32911867 4.00705823 -5 5 C-6.96433233 6.69821468 -8.86574583 8.40605123 -10.75 10.1875 C-11.80155248 11.16723674 -12.85364147 12.14639795 -13.90625 13.125 C-14.42445313 13.60839844 -14.94265625 14.09179688 -15.4765625 14.58984375 C-18.93011424 17.78659293 -22.46964437 20.88865122 -26 24 C-26 19.76641181 -23.57639709 17.97541337 -20.8125 15.0625 C-20.08836914 14.27456055 -20.08836914 14.27456055 -19.34960938 13.47070312 C-15.03717158 8.84568595 -10.48517655 5.17562853 -5 2 C-2 0 -2 0 0 0 Z " fill="#FDF8C5" transform="translate(1034,1226)"/>
<path d="M0 0 C0.33 0 0.66 0 1 0 C1.08520182 6.12235926 0.8148051 12.04442524 0.125 18.125 C0.03621582 18.93815674 -0.05256836 19.75131348 -0.14404297 20.58911133 C-0.97580924 28.07573864 -1.95191536 35.54075932 -3 43 C-3.33 43 -3.66 43 -4 43 C-4.15987951 28.32661344 -4.14054924 14.21848983 0 0 Z " fill="#FCF188" transform="translate(670,824)"/>
<path d="M0 0 C11.09154025 -0.49620048 21.60473222 2.53963554 32.28125 5.2421875 C32.28125 5.9021875 32.28125 6.5621875 32.28125 7.2421875 C30.57194188 6.95628899 28.86384088 6.66316992 27.15625 6.3671875 C26.20492188 6.20476562 25.25359375 6.04234375 24.2734375 5.875 C21.28125 5.2421875 21.28125 5.2421875 18.5 4.22851562 C15.12793196 3.19520594 12.30704704 2.92863884 8.7890625 2.828125 C7.59023437 2.78945312 6.39140625 2.75078125 5.15625 2.7109375 C3.91875 2.68 2.68125 2.6490625 1.40625 2.6171875 C0.14554688 2.57851562 -1.11515625 2.53984375 -2.4140625 2.5 C-5.51548137 2.40601761 -8.61689886 2.32035339 -11.71875 2.2421875 C-11.71875 1.9121875 -11.71875 1.5821875 -11.71875 1.2421875 C-7.81634675 0.71304808 -3.92152502 0.34933125 0 0 Z " fill="#FBEF71" transform="translate(1106.71875,1201.7578125)"/>
<path d="M0 0 C8.25735728 0.90547126 15.45215104 2.68318899 23.13671875 5.83984375 C26.36863882 7.14936661 29.6468317 8.0509901 33 9 C36.35718315 10.27632555 39.68221678 11.62482225 43 13 C43 13.33 43 13.66 43 14 C36.30056841 13.19606821 30.60011788 11.25192671 24.34057617 8.79223633 C17.9636837 6.30120273 11.98823231 4.30645854 5.13671875 3.51953125 C2.61512873 2.9064207 1.63889402 1.9677336 0 0 Z " fill="#FCF189" transform="translate(1223,523)"/>
<path d="M0 0 C0.73605469 0.00451172 1.47210937 0.00902344 2.23046875 0.01367188 C4.02868158 0.02534858 5.82685197 0.04327989 7.625 0.0625 C7.625 0.3925 7.625 0.7225 7.625 1.0625 C6.70557617 1.15954224 6.70557617 1.15954224 5.76757812 1.25854492 C-7.12653822 2.66296204 -19.17764456 4.58364525 -31.375 9.0625 C-31.375 8.4025 -31.375 7.7425 -31.375 7.0625 C-20.71201252 3.15400281 -11.44369537 -0.13450998 0 0 Z " fill="#FBEF78" transform="translate(1087.375,1203.9375)"/>
<path d="M0 0 C0 0.66 0 1.32 0 2 C0.66 2 1.32 2 2 2 C2 3.98 2 5.96 2 8 C1.34 8 0.68 8 0 8 C-0.66 6.35 -1.32 4.7 -2 3 C-5.88999932 3.5762962 -8.14170537 5.36736021 -11 8 C-11.33 8.66 -11.66 9.32 -12 10 C-13.39678285 12.79356569 -15.5188097 14.17175452 -18 16 C-16.60620001 11.98470055 -14.72047459 9.0563818 -12.0625 5.75 C-11.37285156 4.87859375 -10.68320313 4.0071875 -9.97265625 3.109375 C-6.91928794 -0.15561289 -4.25750812 -0.11506779 0 0 Z " fill="#555235" transform="translate(1182,765)"/>
<path d="M0 0 C2 2 2 2 2 6 C2.66 6 3.32 6 4 6 C4.1953125 8.05078125 4.390625 10.1015625 4.5859375 12.15234375 C4.72257813 12.76207031 4.85921875 13.37179687 5 14 C5.66 14.33 6.32 14.66 7 15 C6.34 18.63 5.68 22.26 5 26 C4.67 26 4.34 26 4 26 C2.29549385 17.35954742 0.61358142 8.80171974 0 0 Z " fill="#FCF07F" transform="translate(668,930)"/>
<path d="M0 0 C0.33 0 0.66 0 1 0 C1.25441431 4.43643308 1.4742144 8.87391449 1.6875 13.3125 C1.76033203 14.57513672 1.83316406 15.83777344 1.90820312 17.13867188 C1.96298828 18.34716797 2.01777344 19.55566406 2.07421875 20.80078125 C2.13182373 21.91622314 2.18942871 23.03166504 2.2487793 24.1809082 C2 27 2 27 0.66333008 28.87573242 C-1.60987186 30.41222074 -3.31928632 30.21735516 -6 30 C-6.33 29.34 -6.66 28.68 -7 28 C-3.535 27.505 -3.535 27.505 0 27 C0 18.09 0 9.18 0 0 Z " fill="#F6DA49" transform="translate(1398,1330)"/>
<path d="M0 0 C-0.33 8.58 -0.66 17.16 -1 26 C-1.33 26 -1.66 26 -2 26 C-2 18.08 -2 10.16 -2 2 C-3.65 2.66 -5.3 3.32 -7 4 C-9.3125 3.625 -9.3125 3.625 -11 3 C-9.73160474 2.49384702 -8.46016898 1.99530901 -7.1875 1.5 C-6.12595703 1.08234375 -6.12595703 1.08234375 -5.04296875 0.65625 C-3 0 -3 0 0 0 Z " fill="#FDF6B1" transform="translate(802,1423)"/>
<path d="M0 0 C3.3 0.33 6.6 0.66 10 1 C10 1.66 10 2.32 10 3 C15.28 3.66 20.56 4.32 26 5 C26 5.33 26 5.66 26 6 C16.49875215 6.30162692 8.79251288 4.51700515 0 1 C0 0.67 0 0.34 0 0 Z " fill="#FCF083" transform="translate(1195,517)"/>
<path d="M0 0 C0.33 0 0.66 0 1 0 C1.11618764 3.91641711 1.18724654 7.83239101 1.25 11.75 C1.28351563 12.86117188 1.31703125 13.97234375 1.3515625 15.1171875 C1.36445312 16.18710937 1.37734375 17.25703125 1.390625 18.359375 C1.41157227 19.34389648 1.43251953 20.32841797 1.45410156 21.34277344 C0.88098889 24.69640696 -0.43284083 25.85922021 -3 28 C-2.5359375 26.081875 -2.5359375 26.081875 -2.0625 24.125 C-0.44517236 16.18747712 -0.33414127 8.07214961 0 0 Z " fill="#FDF6B0" transform="translate(1117,450)"/>
<path d="M0 0 C1.21236328 0.04060547 1.21236328 0.04060547 2.44921875 0.08203125 C3.06410156 0.11683594 3.67898438 0.15164063 4.3125 0.1875 C4.6425 0.8475 4.9725 1.5075 5.3125 2.1875 C2.3425 1.8575 -0.6275 1.5275 -3.6875 1.1875 C-4.0175 4.4875 -4.3475 7.7875 -4.6875 11.1875 C-3.0375 11.1875 -1.3875 11.1875 0.3125 11.1875 C0.3125 11.5175 0.3125 11.8475 0.3125 12.1875 C-1.6675 12.1875 -3.6475 12.1875 -5.6875 12.1875 C-7.5329602 9.07328592 -8.15119062 6.80428684 -7.6875 3.1875 C-5.3924273 0.11765753 -3.74305582 -0.16274156 0 0 Z " fill="#66623E" transform="translate(981.6875,766.8125)"/>
<path d="M0 0 C1.11375 0.3403125 1.11375 0.3403125 2.25 0.6875 C1.63125 0.97625 1.0125 1.265 0.375 1.5625 C-1.88325765 2.62470042 -1.88325765 2.62470042 -3.75 4.6875 C-3.55819719 6.70142955 -3.36014 8.717443 -3.0390625 10.71484375 C-2.75 12.6875 -2.75 12.6875 -2.75 15.6875 C-5.86696661 11.35085081 -6.30966813 7.88341612 -6.75 2.6875 C-4.29511132 0.41445492 -3.41240272 -0.38777304 0 0 Z " fill="#F6D949" transform="translate(794.75,1392.3125)"/>
<path d="M0 0 C4.91317487 4.09431239 7.31732078 8.82653402 9 15 C8.67 15.66 8.34 16.32 8 17 C3.66211636 11.60695547 1.65788103 6.69891766 0 0 Z " fill="#FCF28D" transform="translate(699,1029)"/>
<path d="M0 0 C1.32 0 2.64 0 4 0 C4 0.66 4 1.32 4 2 C4.639375 2.0825 5.27875 2.165 5.9375 2.25 C10.20541517 3.29520372 14.03107667 5.14091826 18 7 C14.7628551 8.08629024 13.06820935 7.94001857 9.9375 6.625 C9.26589844 6.34914063 8.59429688 6.07328125 7.90234375 5.7890625 C6.96068359 5.39847656 6.96068359 5.39847656 6 5 C5.01 4.67 4.02 4.34 3 4 C1.3125 1.9375 1.3125 1.9375 0 0 Z " fill="#FCF4A1" transform="translate(1278,542)"/>
<path d="M0 0 C0.99 0 1.98 0 3 0 C3 3.63 3 7.26 3 11 C3.66 11 4.32 11 5 11 C5 11.99 5 12.98 5 14 C4.34 14 3.68 14 3 14 C0.87953208 10.46588679 0.46800711 7.05606165 0 3 C-1.98 3.99 -1.98 3.99 -4 5 C-2.1875 2.5 -2.1875 2.5 0 0 Z " fill="#F5DA84" transform="translate(997,1635)"/>
<path d="M0 0 C4.72173269 0.69869876 9.27775349 1.80182097 13.875 3.0625 C14.90753906 3.3419043 14.90753906 3.3419043 15.9609375 3.62695312 C17.64132514 4.08205811 19.32076322 4.54066678 21 5 C21 5.33 21 5.66 21 6 C14.85493655 6.32919983 10.60711303 5.4508703 5 3 C4.01 2.608125 3.02 2.21625 2 1.8125 C1.34 1.544375 0.68 1.27625 0 1 C0 0.67 0 0.34 0 0 Z " fill="#FCF18A" transform="translate(908,1585)"/>
<path d="M0 0 C0.83583327 2.37607949 1.1842383 3.54449627 0.22265625 5.921875 C-0.8515625 7.61458333 -1.92578125 9.30729167 -3 11 C-3.66 11 -4.32 11 -5 11 C-5.33 11.99 -5.66 12.98 -6 14 C-6.71484375 12.328125 -6.71484375 12.328125 -7 10 C-5.56640625 7.421875 -5.56640625 7.421875 -3.5625 4.75 C-2.90378906 3.85796875 -2.24507812 2.9659375 -1.56640625 2.046875 C-1.04949219 1.37140625 -0.53257812 0.6959375 0 0 Z " fill="#FCF294" transform="translate(715,710)"/>
<path d="M0 0 C0.33 0.66 0.66 1.32 1 2 C-0.84114107 5.49181927 -2.81159561 8.71739341 -5 12 C-5.66 12 -6.32 12 -7 12 C-7 12.66 -7 13.32 -7 14 C-7.66 14 -8.32 14 -9 14 C-8.67 12.68 -8.34 11.36 -8 10 C-7.34 10 -6.68 10 -6 10 C-5.34 8.02 -4.68 6.04 -4 4 C-3.34 4 -2.68 4 -2 4 C-1.34 2.68 -0.68 1.36 0 0 Z " fill="#FCF397" transform="translate(743,670)"/>
<path d="M0 0 C0.33 0.66 0.66 1.32 1 2 C0.09435814 3.9119106 -0.82285511 5.81953322 -1.80859375 7.69140625 C-3.71331171 11.38218761 -5.34325865 15.19301987 -7 19 C-7.7109375 17.44921875 -7.7109375 17.44921875 -8 15 C-6.96865675 12.47925882 -5.90461778 10.19835223 -4.625 7.8125 C-4.13 6.85053711 -4.13 6.85053711 -3.625 5.86914062 C-1.19836882 1.19836882 -1.19836882 1.19836882 0 0 Z " fill="#FDF6AF" transform="translate(705,726)"/>
<path d="M0 0 C0.66 0 1.32 0 2 0 C3.13480527 3.60993172 3.10015767 6.9842327 3.0625 10.75 C3.05347656 11.92046875 3.04445313 13.0909375 3.03515625 14.296875 C3.02355469 15.18890625 3.01195312 16.0809375 3 17 C2.67 17 2.34 17 2 17 C1.67 12.38 1.34 7.76 1 3 C0.01 3.99 -0.98 4.98 -2 6 C-2.66 5.67 -3.32 5.34 -4 5 C-2.71937515 3.2925002 -1.38232443 1.62626404 0 0 Z " fill="#F6DC8B" transform="translate(1146,1629)"/>
<path d="M0 0 C0 0.66 0 1.32 0 2 C0.66 2 1.32 2 2 2 C2 3.98 2 5.96 2 8 C1.34 8 0.68 8 0 8 C-0.66 6.35 -1.32 4.7 -2 3 C-4.31 3 -6.62 3 -9 3 C-7.14340032 -0.71319936 -3.69365381 -0.09982848 0 0 Z " fill="#424035" transform="translate(1182,765)"/>
<path d="M0 0 C0.68359375 1.734375 0.68359375 1.734375 1 4 C-0.21484375 6.140625 -0.21484375 6.140625 -1.9375 8.25 C-2.50339844 8.95640625 -3.06929687 9.6628125 -3.65234375 10.390625 C-4.31943359 11.18726563 -4.31943359 11.18726563 -5 12 C-5.68359375 10.265625 -5.68359375 10.265625 -6 8 C-4.78515625 5.859375 -4.78515625 5.859375 -3.0625 3.75 C-2.49660156 3.04359375 -1.93070313 2.3371875 -1.34765625 1.609375 C-0.90292969 1.07828125 -0.45820312 0.5471875 0 0 Z " fill="#FCF28D" transform="translate(724,697)"/>
<path d="M0 0 C-0.825 0.45375 -1.65 0.9075 -2.5 1.375 C-5.41778542 4.43867469 -5.34127949 5.18633543 -5.3125 9.25 C-5.23234745 10.83473048 -5.1357675 12.41906283 -5 14 C-7.33002055 11.66997945 -7.41956957 10.75309505 -7.8125 7.5625 C-7.92207031 6.78003906 -8.03164063 5.99757813 -8.14453125 5.19140625 C-8 3 -8 3 -6.6796875 1.2265625 C-4.40139222 -0.43712289 -2.75129698 -0.22307813 0 0 Z " fill="#F5D849" transform="translate(779,1398)"/>
<path d="M0 0 C-0.56589844 0.30292969 -1.13179687 0.60585938 -1.71484375 0.91796875 C-6.41581954 3.40988637 -6.41581954 3.40988637 -9 7.8125 C-9 8.534375 -9 9.25625 -9 10 C-11 7 -11 7 -11 4 C-4.87769784 -1.62589928 -4.87769784 -1.62589928 0 0 Z " fill="#F4D456" transform="translate(1035,862)"/>
<path d="M0 0 C0.66 0.33 1.32 0.66 2 1 C-0.31 3.31 -2.62 5.62 -5 8 C-5.99 7.67 -6.98 7.34 -8 7 C-8.33 6.34 -8.66 5.68 -9 5 C-9.99 4.34 -10.98 3.68 -12 3 C-10.7625 3.2475 -9.525 3.495 -8.25 3.75 C-6.07896977 4.09572221 -6.07896977 4.09572221 -4 4 C-1.47409152 2.22845348 -1.47409152 2.22845348 0 0 Z " fill="#FDF6B3" transform="translate(1094,447)"/>
<path d="M0 0 C-2.77579761 2.77579761 -5.30306937 2.86061387 -9.125 3.625 C-10.40632813 3.88539062 -11.68765625 4.14578125 -13.0078125 4.4140625 C-13.99523438 4.60742188 -14.98265625 4.80078125 -16 5 C-14.69696706 2.39393412 -13.68319019 2.08777981 -11 1 C-7.28235812 0.20901237 -3.79641323 -0.11165921 0 0 Z " fill="#FCF185" transform="translate(1208,1580)"/>
<path d="M0 0 C1.093125 0.0825 2.18625 0.165 3.3125 0.25 C2.735 0.518125 2.1575 0.78625 1.5625 1.0625 C-0.8138354 2.31667702 -2.70306351 3.42822224 -4.6875 5.25 C-5.3825739 7.74407252 -5.3825739 7.74407252 -5.4375 10.4375 C-5.49421875 11.33855469 -5.5509375 12.23960937 -5.609375 13.16796875 C-5.64804688 14.19857422 -5.64804688 14.19857422 -5.6875 15.25 C-6.0175 15.25 -6.3475 15.25 -6.6875 15.25 C-6.76892927 13.5007786 -6.82688541 11.75045458 -6.875 10 C-6.90980469 9.02546875 -6.94460938 8.0509375 -6.98046875 7.046875 C-6.45738042 2.05312506 -5.01321711 0.33987913 0 0 Z " fill="#F6D949" transform="translate(1058.6875,469.75)"/>
<path d="M0 0 C1.31534494 3.65857532 0.65468309 6.08026481 -0.4375 9.75 C-0.86869141 11.22726562 -0.86869141 11.22726562 -1.30859375 12.734375 C-1.53675781 13.48203125 -1.76492188 14.2296875 -2 15 C-3.2961068 10.64391174 -2.77842494 7.45825192 -2 3 C-1.34 2.01 -0.68 1.02 0 0 Z " fill="#FDF7BB" transform="translate(674,805)"/>
<path d="M0 0 C1.0326802 2.78823655 1.04509293 3.8677274 0.0625 6.75 C-0.288125 7.4925 -0.63875 8.235 -1 9 C-1.66 9 -2.32 9 -3 9 C-3.33 9.99 -3.66 10.98 -4 12 C-3.28571429 3.42857143 -3.28571429 3.42857143 0 0 Z " fill="#FDF7B8" transform="translate(681,783)"/>
<path d="M0 0 C1.9375 0.375 1.9375 0.375 4 1 C4.33 1.66 4.66 2.32 5 3 C6.88263881 3.90343684 6.88263881 3.90343684 9.0625 4.625 C9.79597656 4.88539062 10.52945312 5.14578125 11.28515625 5.4140625 C12.13400391 5.70410156 12.13400391 5.70410156 13 6 C11 7 11 7 9.16015625 6.51171875 C8.46792969 6.23972656 7.77570313 5.96773437 7.0625 5.6875 C6.37285156 5.42324219 5.68320313 5.15898438 4.97265625 4.88671875 C3 4 3 4 0 2 C0 1.34 0 0.68 0 0 Z " fill="#FCF28E" transform="translate(1039,1502)"/>
<path d="M0 0 C0.33 0.66 0.66 1.32 1 2 C0.67 2.99 0.34 3.98 0 5 C1.98 4.67 3.96 4.34 6 4 C2.81237635 6.12508244 0.73487777 6.5020163 -3 7 C-2.38722388 4.03824877 -1.74627478 2.61941217 0 0 Z " fill="#FDF7B9" transform="translate(1417,1365)"/>
<path d="M0 0 C2.72138795 3.17495261 4.82820425 5.95197831 6 10 C5.67 10.99 5.34 11.98 5 13 C1.51947927 9.51947927 0.83595132 4.73705746 0 0 Z " fill="#FCF187" transform="translate(1480,724)"/>
<path d="M0 0 C0.66666667 2.66666667 1.33333333 5.33333333 2 8 C0.35 7.67 -1.3 7.34 -3 7 C-2.38722388 4.03824877 -1.74627478 2.61941217 0 0 Z " fill="#FCF4A4" transform="translate(1438,1389)"/>
<path d="M0 0 C1 2 1 2 0.875 4.375 C-0.26735106 7.80205319 -2.08114387 8.97925345 -5 11 C-4.32902328 6.80639551 -2.1441606 3.59665648 0 0 Z " fill="#FCF39A" transform="translate(1451,1300)"/>
<path d="M0 0 C0.66 0.33 1.32 0.66 2 1 C-0.64 3.64 -3.28 6.28 -6 9 C-6.99 8.67 -7.98 8.34 -9 8 C-6.03 5.36 -3.06 2.72 0 0 Z " fill="#FBEF76" transform="translate(780,630)"/>
<path d="M0 0 C0.66 0 1.32 0 2 0 C1.52797514 4.24822374 -0.96655518 6.19989709 -4 9 C-4.66 8.67 -5.32 8.34 -6 8 C-5.04956626 6.66102417 -4.08940853 5.32894573 -3.125 4 C-2.59132813 3.2575 -2.05765625 2.515 -1.5078125 1.75 C-1.01023437 1.1725 -0.51265625 0.595 0 0 Z " fill="#FDF6B6" transform="translate(1336,1495)"/>
<path d="M0 0 C0.33 0 0.66 0 1 0 C1.32613618 4.67461851 0.70582788 7.16674383 -2 11 C-3 9 -3 9 -2.44140625 6.8359375 C-2.15136719 6.02382812 -1.86132812 5.21171875 -1.5625 4.375 C-1.27503906 3.55773438 -0.98757813 2.74046875 -0.69140625 1.8984375 C-0.46324219 1.27195312 -0.23507812 0.64546875 0 0 Z " fill="#FCF28E" transform="translate(1229,1407)"/>
<path d="M0 0 C2.375 -0.125 2.375 -0.125 5 0 C7 2 7 2 7.125 5.125 C7.08375 6.07375 7.0425 7.0225 7 8 C6.67 8 6.34 8 6 8 C6 6.35 6 4.7 6 3 C3.69 2.67 1.38 2.34 -1 2 C-0.67 1.34 -0.34 0.68 0 0 Z " fill="#F8DA7B" transform="translate(865,856)"/>
<path d="M0 0 C0.66 0.33 1.32 0.66 2 1 C0.06273348 5.58826282 -1.48864333 7.80528594 -6 10 C-6 9.34 -6 8.68 -6 8 C-5.34 7.67 -4.68 7.34 -4 7 C-3.67 6.01 -3.34 5.02 -3 4 C-2.34 3.67 -1.68 3.34 -1 3 C-0.67 2.01 -0.34 1.02 0 0 Z " fill="#59552F" transform="translate(981,787)"/>
<path d="M0 0 C0.99 0.33 1.98 0.66 3 1 C2.34 1 1.68 1 1 1 C0.67 1.99 0.34 2.98 0 4 C-2.31 4.33 -4.62 4.66 -7 5 C-7.33 4.34 -7.66 3.68 -8 3 C-6.8553125 3.0928125 -6.8553125 3.0928125 -5.6875 3.1875 C-2.95474688 3.25898085 -2.95474688 3.25898085 -1.1875 1.5 C-0.795625 1.005 -0.40375 0.51 0 0 Z " fill="#F6DA49" transform="translate(1067,493)"/>
<path d="M0 0 C0.78375 0.04125 1.5675 0.0825 2.375 0.125 C1.611875 0.7025 0.84875 1.28 0.0625 1.875 C-2.28700917 3.84203093 -3.91823505 5.60976744 -5.625 8.125 C-4.59375 0.21875 -4.59375 0.21875 0 0 Z " fill="#F6D949" transform="translate(1090.625,471.875)"/>
<path d="M0 0 C0.66 0.33 1.32 0.66 2 1 C1.21625 1.763125 0.4325 2.52625 -0.375 3.3125 C-3.07257717 5.90891805 -3.07257717 5.90891805 -5 9 C-4.50769231 3.46153846 -4.50769231 3.46153846 -1.9375 1.125 C-1.298125 0.75375 -0.65875 0.3825 0 0 Z " fill="#FBED64" transform="translate(1050,469)"/>
</svg>
